<svg xmlns="http://www.w3.org/2000/svg" xmlns:xlink="http://www.w3.org/1999/xlink" width="447.522" height="343" viewBox="0 0 447.522 343">
  <defs>
    <linearGradient id="linear-gradient" y1="0.5" x2="1" y2="0.5" gradientUnits="objectBoundingBox">
      <stop offset="0" stop-color="gray" stop-opacity="0.251"/>
      <stop offset="0.54" stop-color="gray" stop-opacity="0.122"/>
      <stop offset="1" stop-color="gray" stop-opacity="0.102"/>
    </linearGradient>
    <linearGradient id="linear-gradient-2" x1="0" y1="0.5" x2="1" y2="0.5" xlink:href="#linear-gradient"/>
    <linearGradient id="linear-gradient-4" x1="0" y1="0.5" x2="1" y2="0.5" xlink:href="#linear-gradient"/>
    <linearGradient id="linear-gradient-5" x1="0" y1="0.5" x2="1" y2="0.5" xlink:href="#linear-gradient"/>
    <linearGradient id="linear-gradient-7" x1="0" y1="0.5" x2="1" y2="0.5" xlink:href="#linear-gradient"/>
    <linearGradient id="linear-gradient-8" x1="0" y1="0.5" x2="1" y2="0.5" xlink:href="#linear-gradient"/>
    <linearGradient id="linear-gradient-13" x1="0" y1="0.5" x2="1" y2="0.5" xlink:href="#linear-gradient"/>
    <linearGradient id="linear-gradient-14" x1="0" y1="0.501" x2="1" y2="0.501" xlink:href="#linear-gradient"/>
    <linearGradient id="linear-gradient-15" x1="0" y1="0.5" x2="1" y2="0.5" xlink:href="#linear-gradient"/>
    <linearGradient id="linear-gradient-17" x1="0" y1="0.5" x2="1" y2="0.5" xlink:href="#linear-gradient"/>
    <linearGradient id="linear-gradient-18" x1="0" y1="0.5" x2="1" y2="0.5" xlink:href="#linear-gradient"/>
    <linearGradient id="linear-gradient-19" x1="0" y1="0.5" x2="0.999" y2="0.5" xlink:href="#linear-gradient"/>
    <linearGradient id="linear-gradient-20" x1="0" y1="0.5" x2="0.999" y2="0.5" xlink:href="#linear-gradient"/>
    <linearGradient id="linear-gradient-21" x1="0.5" y1="1" x2="0.5" y2="0" xlink:href="#linear-gradient"/>
    <linearGradient id="linear-gradient-22" x1="0.5" y1="1" x2="0.5" y2="0" xlink:href="#linear-gradient"/>
  </defs>
  <g id="Group_104" data-name="Group 104" transform="translate(0.5 0.5)">
    <path id="Path_580" data-name="Path 580" d="M884.023,716.931H852V698.89h32.023Zm-30.67-1.353H882.67V700.243H853.353Z" transform="translate(-515.079 -415.642)" fill="#6c63ff" stroke="#707070" stroke-width="1" opacity="0.2"/>
    <path id="Path_581" data-name="Path 581" d="M955.023,714.931H923V696.89h32.023Zm-30.67-1.353H953.67V698.243H924.353Z" transform="translate(-554.055 -414.544)" fill="#6c63ff" stroke="#707070" stroke-width="1" opacity="0.2"/>
    <path id="Path_582" data-name="Path 582" d="M1026.023,714.931H994V696.89h32.023Zm-30.67-1.353h29.317V698.243H995.353Z" transform="translate(-593.032 -414.544)" fill="#6c63ff" stroke="#707070" stroke-width="1" opacity="0.2"/>
    <path id="Path_583" data-name="Path 583" d="M1026.023,674.931H994V656.89h32.023Zm-30.67-1.353h29.317V658.243H995.353Z" transform="translate(-593.032 -392.585)" fill="#6c63ff" stroke="#707070" stroke-width="1" opacity="0.2"/>
    <path id="Path_584" data-name="Path 584" d="M955.023,674.931H923V656.89h32.023Zm-30.67-1.353H953.67V658.243H924.353Z" transform="translate(-554.055 -392.585)" fill="#6c63ff" stroke="#707070" stroke-width="1" opacity="0.2"/>
    <path id="Path_585" data-name="Path 585" d="M155.023,714.931H123V696.89h32.023Zm-30.67-1.353H153.67V698.243H124.353Z" transform="translate(-114.881 -414.544)" fill="#6c63ff" stroke="#707070" stroke-width="1" opacity="0.2"/>
    <path id="Path_586" data-name="Path 586" d="M226.023,714.931H194V696.89h32.023Zm-30.67-1.353H224.67V698.243H195.353Z" transform="translate(-153.858 -414.544)" fill="#6c63ff" stroke="#707070" stroke-width="1" opacity="0.2"/>
    <path id="Path_587" data-name="Path 587" d="M297.023,714.931H265V696.89h32.023Zm-30.67-1.353H295.67V698.243H266.353Z" transform="translate(-192.835 -414.544)" fill="#6c63ff" stroke="#707070" stroke-width="1" opacity="0.2"/>
    <path id="Path_588" data-name="Path 588" d="M368.023,716.931H336V698.89h32.023Zm-30.67-1.353H366.67V700.243H337.353Z" transform="translate(-231.811 -415.642)" fill="#6c63ff" stroke="#707070" stroke-width="1" opacity="0.2"/>
    <path id="Path_589" data-name="Path 589" d="M297.023,674.931H265V656.89h32.023Zm-30.67-1.353H295.67V658.243H266.353Z" transform="translate(-192.835 -392.585)" fill="#6c63ff" stroke="#707070" stroke-width="1" opacity="0.2"/>
    <path id="Path_590" data-name="Path 590" d="M226.023,674.931H194V656.89h32.023Zm-30.67-1.353H224.67V658.243H195.353Z" transform="translate(-153.858 -392.585)" fill="#6c63ff" stroke="#707070" stroke-width="1" opacity="0.2"/>
    <path id="Path_591" data-name="Path 591" d="M992.44,535.044s-5.927-20.13,1.11-34.946a31.793,31.793,0,0,0,2.571-19.945,53.468,53.468,0,0,0-2.823-9.363" transform="translate(-590.894 -290.422)" fill="none" stroke="#535461" stroke-miterlimit="10" stroke-width="1"/>
    <path id="Path_592" data-name="Path 592" d="M996.03,444.562c0,2.467-4.465,9.621-4.465,9.621s-4.465-7.153-4.465-9.621a4.467,4.467,0,1,1,8.935,0Z" transform="translate(-589.244 -273.571)" fill="#6c63ff" stroke="#707070" stroke-width="1"/>
    <path id="Path_593" data-name="Path 593" d="M1012.34,471.934c-1.353,2.07-8.98,5.647-8.98,5.647s.14-8.434,1.479-10.5a4.467,4.467,0,1,1,7.5,4.853Z" transform="translate(-598.17 -287.263)" fill="#6c63ff" stroke="#707070" stroke-width="1"/>
    <path id="Path_594" data-name="Path 594" d="M1009.649,521.815c-2.2,1.11-10.6.343-10.6.343s4.375-7.217,6.581-8.322a4.468,4.468,0,0,1,4.023,7.979Z" transform="translate(-595.804 -313.79)" fill="#6c63ff" stroke="#707070" stroke-width="1"/>
    <path id="Path_595" data-name="Path 595" d="M1000.564,561.348c-1.985,1.466-10.374,2.129-10.374,2.129s3.094-7.843,5.079-9.314a4.466,4.466,0,1,1,5.313,7.18Z" transform="translate(-590.941 -335.71)" fill="#6c63ff" stroke="#707070" stroke-width="1"/>
    <path id="Path_596" data-name="Path 596" d="M980.921,484.566c1.768,1.718,10.013,3.5,10.013,3.5s-2.021-8.191-3.789-9.923a4.467,4.467,0,0,0-6.224,6.409Z" transform="translate(-585.108 -293.766)" fill="#6c63ff" stroke="#707070" stroke-width="1"/>
    <path id="Path_597" data-name="Path 597" d="M969.2,529.425c2.2,1.109,10.6.343,10.6.343s-4.375-7.216-6.581-8.322a4.468,4.468,0,1,0-4.023,7.979Z" transform="translate(-578.068 -317.968)" fill="#6c63ff" stroke="#707070" stroke-width="1"/>
    <path id="Path_598" data-name="Path 598" d="M966.022,575.824c1.985,1.466,10.374,2.129,10.374,2.129s-3.076-7.825-5.065-9.309a4.466,4.466,0,0,0-5.313,7.18Z" transform="translate(-576.677 -343.659)" fill="#6c63ff" stroke="#707070" stroke-width="1"/>
    <path id="Path_599" data-name="Path 599" d="M996.03,444.562c0,2.467-4.465,9.621-4.465,9.621s-4.465-7.153-4.465-9.621a4.467,4.467,0,1,1,8.935,0Z" transform="translate(-589.244 -273.571)" stroke="#707070" stroke-width="1" opacity="0.25"/>
    <path id="Path_600" data-name="Path 600" d="M1012.34,471.934c-1.353,2.07-8.98,5.647-8.98,5.647s.14-8.434,1.479-10.5a4.467,4.467,0,1,1,7.5,4.853Z" transform="translate(-598.17 -287.263)" stroke="#707070" stroke-width="1" opacity="0.25"/>
    <path id="Path_601" data-name="Path 601" d="M1009.649,521.815c-2.2,1.11-10.6.343-10.6.343s4.375-7.217,6.581-8.322a4.468,4.468,0,0,1,4.023,7.979Z" transform="translate(-595.804 -313.79)" stroke="#707070" stroke-width="1" opacity="0.25"/>
    <path id="Path_602" data-name="Path 602" d="M1000.564,561.348c-1.985,1.466-10.374,2.129-10.374,2.129s3.094-7.843,5.079-9.314a4.466,4.466,0,1,1,5.313,7.18Z" transform="translate(-590.941 -335.71)" stroke="#707070" stroke-width="1" opacity="0.25"/>
    <path id="Path_603" data-name="Path 603" d="M980.921,484.566c1.768,1.718,10.013,3.5,10.013,3.5s-2.021-8.191-3.789-9.923a4.467,4.467,0,0,0-6.224,6.409Z" transform="translate(-585.108 -293.766)" stroke="#707070" stroke-width="1" opacity="0.25"/>
    <path id="Path_604" data-name="Path 604" d="M969.2,529.425c2.2,1.109,10.6.343,10.6.343s-4.375-7.216-6.581-8.322a4.468,4.468,0,1,0-4.023,7.979Z" transform="translate(-578.068 -317.968)" stroke="#707070" stroke-width="1" opacity="0.25"/>
    <path id="Path_605" data-name="Path 605" d="M966.022,575.824c1.985,1.466,10.374,2.129,10.374,2.129s-3.076-7.825-5.065-9.309a4.466,4.466,0,0,0-5.313,7.18Z" transform="translate(-576.677 -343.659)" stroke="#707070" stroke-width="1" opacity="0.25"/>
    <path id="Path_606" data-name="Path 606" d="M270.917,534.215s-6.017-20.427,1.128-35.447a32.267,32.267,0,0,0,2.611-20.242A54.264,54.264,0,0,0,271.787,469" transform="translate(-194.782 -289.439)" fill="none" stroke="#535461" stroke-miterlimit="10" stroke-width="1"/>
    <path id="Path_607" data-name="Path 607" d="M274.55,442.483c0,2.5-4.533,9.765-4.533,9.765s-4.537-7.284-4.537-9.765a4.533,4.533,0,1,1,9.066,0Z" transform="translate(-193.098 -272.394)" fill="#6c63ff" stroke="#707070" stroke-width="1"/>
    <path id="Path_608" data-name="Path 608" d="M291.111,470.185c-1.353,2.1-9.111,5.733-9.111,5.733s.14-8.57,1.5-10.658a4.532,4.532,0,1,1,7.61,4.926Z" transform="translate(-202.167 -286.249)" fill="#6c63ff" stroke="#707070" stroke-width="1"/>
    <path id="Path_609" data-name="Path 609" d="M288.377,520.794c-2.255,1.128-10.757.347-10.757.347s4.443-7.316,6.675-8.443a4.533,4.533,0,1,1,4.082,8.1Z" transform="translate(-199.763 -313.161)" fill="#6c63ff" stroke="#707070" stroke-width="1"/>
    <path id="Path_610" data-name="Path 610" d="M279.165,560.882c-2.012,1.488-10.545,2.161-10.545,2.161s3.157-7.961,5.155-9.472a4.539,4.539,0,1,1,5.412,7.289Z" transform="translate(-194.822 -335.374)" fill="#6c63ff" stroke="#707070" stroke-width="1"/>
    <path id="Path_611" data-name="Path 611" d="M259.221,483c1.8,1.745,10.162,3.55,10.162,3.55s-2.048-8.308-3.843-10.054a4.533,4.533,0,1,0-6.315,6.5Z" transform="translate(-188.91 -292.854)" fill="#6c63ff" stroke="#707070" stroke-width="1"/>
    <path id="Path_612" data-name="Path 612" d="M247.335,528.554c2.255,1.128,10.757.347,10.757.347s-4.443-7.316-6.675-8.443a4.533,4.533,0,1,0-4.082,8.1Z" transform="translate(-181.769 -317.421)" fill="#6c63ff" stroke="#707070" stroke-width="1"/>
    <path id="Path_613" data-name="Path 613" d="M244.081,575.572c2.012,1.488,10.545,2.16,10.545,2.16s-3.157-7.961-5.155-9.472a4.539,4.539,0,0,0-5.412,7.289Z" transform="translate(-180.332 -343.439)" fill="#6c63ff" stroke="#707070" stroke-width="1"/>
    <path id="Path_614" data-name="Path 614" d="M274.55,442.483c0,2.5-4.533,9.765-4.533,9.765s-4.537-7.284-4.537-9.765a4.533,4.533,0,1,1,9.066,0Z" transform="translate(-193.098 -272.394)" fill="#fff" stroke="#707070" stroke-width="1" opacity="0.5"/>
    <path id="Path_615" data-name="Path 615" d="M291.111,470.185c-1.353,2.1-9.111,5.733-9.111,5.733s.14-8.57,1.5-10.658a4.532,4.532,0,1,1,7.61,4.926Z" transform="translate(-202.167 -286.249)" fill="#fff" stroke="#707070" stroke-width="1" opacity="0.5"/>
    <path id="Path_616" data-name="Path 616" d="M288.377,520.794c-2.255,1.128-10.757.347-10.757.347s4.443-7.316,6.675-8.443a4.533,4.533,0,1,1,4.082,8.1Z" transform="translate(-199.763 -313.161)" fill="#fff" stroke="#707070" stroke-width="1" opacity="0.5"/>
    <path id="Path_617" data-name="Path 617" d="M279.165,560.882c-2.012,1.488-10.545,2.161-10.545,2.161s3.157-7.961,5.155-9.472a4.539,4.539,0,1,1,5.412,7.289Z" transform="translate(-194.822 -335.374)" fill="#fff" stroke="#707070" stroke-width="1" opacity="0.5"/>
    <path id="Path_618" data-name="Path 618" d="M259.221,483c1.8,1.745,10.162,3.55,10.162,3.55s-2.048-8.308-3.843-10.054a4.533,4.533,0,1,0-6.315,6.5Z" transform="translate(-188.91 -292.854)" fill="#fff" stroke="#707070" stroke-width="1" opacity="0.5"/>
    <path id="Path_619" data-name="Path 619" d="M247.335,528.554c2.255,1.128,10.757.347,10.757.347s-4.443-7.316-6.675-8.443a4.533,4.533,0,1,0-4.082,8.1Z" transform="translate(-181.769 -317.421)" fill="#fff" stroke="#707070" stroke-width="1" opacity="0.5"/>
    <path id="Path_620" data-name="Path 620" d="M244.081,575.572c2.012,1.488,10.545,2.16,10.545,2.16s-3.157-7.961-5.155-9.472a4.539,4.539,0,0,0-5.412,7.289Z" transform="translate(-180.332 -343.439)" fill="#fff" stroke="#707070" stroke-width="1" opacity="0.5"/>
    <path id="Path_621" data-name="Path 621" d="M195.495,551.99s-4.582-15.547.861-27.026a24.59,24.59,0,0,0,1.989-15.425,41.355,41.355,0,0,0-2.183-7.239" transform="translate(-153.689 -307.72)" fill="none" stroke="#535461" stroke-miterlimit="10" stroke-width="1"/>
    <path id="Path_622" data-name="Path 622" d="M198.27,482.035c0,1.908-3.455,7.442-3.455,7.442s-3.455-5.534-3.455-7.442a3.455,3.455,0,1,1,6.91,0Z" transform="translate(-152.409 -294.699)" fill="#6c63ff" stroke="#707070" stroke-width="1"/>
    <path id="Path_623" data-name="Path 623" d="M210.886,503.188c-1.037,1.6-6.946,4.37-6.946,4.37s.108-6.522,1.146-8.119a3.455,3.455,0,0,1,5.8,3.757Z" transform="translate(-159.315 -305.284)" fill="#6c63ff" stroke="#707070" stroke-width="1"/>
    <path id="Path_624" data-name="Path 624" d="M208.81,541.749c-1.7.857-8.2.266-8.2.266s3.383-5.575,5.088-6.436a3.455,3.455,0,1,1,3.112,6.17Z" transform="translate(-157.487 -325.785)" fill="#6c63ff" stroke="#707070" stroke-width="1"/>
    <path id="Path_625" data-name="Path 625" d="M201.767,572.316c-1.534,1.137-8.037,1.646-8.037,1.646s2.395-6.066,3.928-7.216a3.455,3.455,0,0,1,4.109,5.557Z" transform="translate(-153.71 -342.727)" fill="#6c63ff" stroke="#707070" stroke-width="1"/>
    <path id="Path_626" data-name="Path 626" d="M186.582,512.954c1.353,1.331,7.744,2.706,7.744,2.706s-1.561-6.314-2.932-7.668a3.456,3.456,0,0,0-4.813,4.961Z" transform="translate(-149.21 -310.31)" fill="#6c63ff" stroke="#707070" stroke-width="1"/>
    <path id="Path_627" data-name="Path 627" d="M177.527,547.649c1.7.857,8.2.266,8.2.266s-3.383-5.575-5.088-6.436a3.455,3.455,0,1,0-3.112,6.17Z" transform="translate(-143.772 -329.024)" fill="#6c63ff" stroke="#707070" stroke-width="1"/>
    <path id="Path_628" data-name="Path 628" d="M175.065,583.506c1.534,1.137,8.037,1.646,8.037,1.646s-2.395-6.066-3.928-7.217a3.455,3.455,0,1,0-4.109,5.557Z" transform="translate(-142.694 -348.87)" fill="#6c63ff" stroke="#707070" stroke-width="1"/>
    <path id="Path_629" data-name="Path 629" d="M198.27,482.035c0,1.908-3.455,7.442-3.455,7.442s-3.455-5.534-3.455-7.442a3.455,3.455,0,1,1,6.91,0Z" transform="translate(-152.409 -294.699)" stroke="#707070" stroke-width="1" opacity="0.25"/>
    <path id="Path_630" data-name="Path 630" d="M210.886,503.188c-1.037,1.6-6.946,4.37-6.946,4.37s.108-6.522,1.146-8.119a3.455,3.455,0,0,1,5.8,3.757Z" transform="translate(-159.315 -305.284)" stroke="#707070" stroke-width="1" opacity="0.25"/>
    <path id="Path_631" data-name="Path 631" d="M208.81,541.749c-1.7.857-8.2.266-8.2.266s3.383-5.575,5.088-6.436a3.455,3.455,0,1,1,3.112,6.17Z" transform="translate(-157.487 -325.785)" stroke="#707070" stroke-width="1" opacity="0.25"/>
    <path id="Path_632" data-name="Path 632" d="M201.767,572.316c-1.534,1.137-8.037,1.646-8.037,1.646s2.395-6.066,3.928-7.216a3.455,3.455,0,0,1,4.109,5.557Z" transform="translate(-153.71 -342.727)" stroke="#707070" stroke-width="1" opacity="0.25"/>
    <path id="Path_633" data-name="Path 633" d="M186.582,512.954c1.353,1.331,7.744,2.706,7.744,2.706s-1.561-6.314-2.932-7.668a3.456,3.456,0,0,0-4.813,4.961Z" transform="translate(-149.21 -310.31)" stroke="#707070" stroke-width="1" opacity="0.25"/>
    <path id="Path_634" data-name="Path 634" d="M177.527,547.649c1.7.857,8.2.266,8.2.266s-3.383-5.575-5.088-6.436a3.455,3.455,0,1,0-3.112,6.17Z" transform="translate(-143.772 -329.024)" stroke="#707070" stroke-width="1" opacity="0.25"/>
    <path id="Path_635" data-name="Path 635" d="M175.065,583.506c1.534,1.137,8.037,1.646,8.037,1.646s-2.395-6.066-3.928-7.217a3.455,3.455,0,1,0-4.109,5.557Z" transform="translate(-142.694 -348.87)" stroke="#707070" stroke-width="1" opacity="0.25"/>
    <g id="Group_94" data-name="Group 94" transform="translate(0 35.795)" opacity="0.7">
      <rect id="Rectangle_281" data-name="Rectangle 281" width="446" height="228" transform="translate(0.522 0.205)" fill="#6c63ff" stroke="#707070" stroke-width="1" opacity="0.6"/>
      <path id="Path_636" data-name="Path 636" d="M105,150.89V379.112H551.522V150.89Zm19.845,19.845H318.338v84.343H124.845Zm0,104.189H318.338v84.343H124.845Zm406.831,84.343H338.184V274.924H531.677Zm0-104.188H338.184V170.735H531.677Z" transform="translate(-105 -150.602)" stroke="#707070" stroke-width="1" opacity="0.25"/>
    </g>
    <g id="Group_101" data-name="Group 101" transform="translate(99.538 74.765)" opacity="0.7">
      <path id="Path_637" data-name="Path 637" d="M414.037,671.779S374.959,657.49,369.61,677.6L384.6,715.7l1.606,24.356h32.65V719.4s-4.817-20.639,7.5-33.336Z" transform="translate(-349.801 -472.821)" stroke="#707070" stroke-width="1" fill="url(#linear-gradient)"/>
      <g id="Group_95" data-name="Group 95" transform="translate(36.513 84.976)" opacity="0.1">
        <path id="Path_638" data-name="Path 638" d="M440.911,425.659c-1.66-.55-3.658-1.042-5.011.054a12.64,12.64,0,0,0-1.732,2.463c-2.025,2.657-6.107,2.16-9.332,3.112-4.74,1.4-7.668,6.093-9.345,10.694-7.424,20.3.852,43.511-5.611,64.123-1.9,6.066-5.015,12.8-1.939,18.38,1.024,1.863,2.706,3.414,3.2,5.471.695,2.792-.645,6.454,1.7,8.155a6.938,6.938,0,0,0,2.53.9c5.268,1.389,9.26,5.489,13.274,9.133s8.84,7.171,14.284,6.932a23.262,23.262,0,0,0,5.178-1.028l27.017-7.523c2.706-.753,5.647-1.664,7.217-3.974a11.335,11.335,0,0,0,1.506-4.835,127.374,127.374,0,0,0,1.322-19.363,16.777,16.777,0,0,0-.9-6.315c-.9-2.3-2.706-4.131-4.019-6.229-2.535-4.059-3.216-8.935-3.843-13.657-1-7.519-1.994-15.186-.613-22.646.591-3.2,1.61-6.314,2.287-9.494a45.039,45.039,0,0,0,.514-15.755c-.631-4.352-1.985-8.768-4.961-12.043a12.589,12.589,0,0,0-7.487-4.059c-3.653-.451-5.471,1.651-8.727,2.436C452.6,431.8,445.543,427.188,440.911,425.659Z" transform="translate(-406.643 -425.058)" stroke="#707070" stroke-width="1" fill="url(#linear-gradient-2)"/>
      </g>
      <path id="Path_639" data-name="Path 639" d="M440.911,423.269c-1.66-.55-3.658-1.042-5.011.054a12.64,12.64,0,0,0-1.732,2.463c-2.025,2.657-6.107,2.16-9.332,3.112-4.74,1.4-7.668,6.093-9.345,10.694-7.424,20.3.852,43.511-5.611,64.123-1.9,6.066-5.015,12.8-1.939,18.38,1.024,1.863,2.706,3.414,3.2,5.471.695,2.792-.645,6.454,1.7,8.155a6.936,6.936,0,0,0,2.53.9c5.268,1.389,9.26,5.489,13.274,9.133s8.831,7.212,14.284,6.959a23.258,23.258,0,0,0,5.178-1.028l27.017-7.523c2.706-.753,5.647-1.664,7.217-3.974a11.335,11.335,0,0,0,1.506-4.835,127.375,127.375,0,0,0,1.322-19.363,16.777,16.777,0,0,0-.9-6.314c-.9-2.3-2.706-4.131-4.019-6.229-2.535-4.059-3.216-8.935-3.843-13.657-1-7.519-1.994-15.186-.613-22.646.591-3.2,1.61-6.314,2.287-9.494a45.039,45.039,0,0,0,.514-15.755c-.631-4.352-1.985-8.768-4.961-12.043a12.588,12.588,0,0,0-7.487-4.059c-3.653-.451-5.471,1.651-8.727,2.436C452.6,429.4,445.543,424.82,440.911,423.269Z" transform="translate(-370.131 -338.77)" stroke="#707070" stroke-width="1" fill="url(#linear-gradient-2)"/>
      <path id="Path_640" data-name="Path 640" d="M457.274,335.018s.537,20.107-5.886,19.579,18.181,33.336,18.181,33.336l20.874-11.113s-12.3-19.575-3.735-31.748S457.274,335.018,457.274,335.018Z" transform="translate(-394.107 -290.575)" stroke="#707070" stroke-width="1" fill="url(#linear-gradient-4)"/>
      <g id="Group_96" data-name="Group 96" transform="translate(3.126 76.516)" opacity="0.1">
        <path id="Path_641" data-name="Path 641" d="M356.8,545.146s-4.28,29.105-14.988,21.167-9.1-21.167-9.1-21.167,20.878-56.09,19.809-64.561S388.147,406.3,388.147,406.3l13.594,108.153S361.076,529.269,356.8,545.146Z" transform="translate(-332.62 -406.3)" stroke="#707070" stroke-width="1" fill="url(#linear-gradient-5)"/>
      </g>
      <path id="Path_642" data-name="Path 642" d="M354.426,545.146s-4.28,29.105-14.988,21.167-9.1-21.167-9.1-21.167,20.878-56.09,19.8-64.561S385.772,406.3,385.772,406.3l13.594,108.153S358.706,529.269,354.426,545.146Z" transform="translate(-328.194 -329.784)" stroke="#707070" stroke-width="1" fill="url(#linear-gradient-5)"/>
      <path id="Path_643" data-name="Path 643" d="M389.926,363.35s-20.878,14.275-28.916,13.757l-6.238,1.7a34.238,34.238,0,0,0-24.708,26.372l-.1.505c-3.2,16.936-4.276,63.505-4.276,63.505s.537,12.178,5.886,15.335L365.854,507.8s-1.069-25.4,11.776-28.045-3.211-1.06-3.211-1.06l-23.553-13.757s.537-20.639,6.959-27.513,28.907-42.848,28.907-42.848l-6.423-22.222Z" transform="translate(-325.69 -306.206)" stroke="#707070" stroke-width="1" fill="url(#linear-gradient-7)"/>
      <g id="Group_97" data-name="Group 97" transform="translate(84.143 70.9)" opacity="0.1">
        <path id="Path_644" data-name="Path 644" d="M515.355,393.85s13.148,3.441,22.353,5.124a9.264,9.264,0,0,1,6.693,5.052c2.778,5.733,7.014,16.1,6.283,24.748l8.028,31.22,23,27.513-20.869,9.53L537.3,471.107l19.268,49.212L520.7,521.907s-10.708-79.382-8.028-92.6Z" transform="translate(-512.246 -393.85)" stroke="#707070" stroke-width="1" fill="url(#linear-gradient-8)"/>
      </g>
      <path id="Path_645" data-name="Path 645" d="M517.731,393.85s13.148,3.441,22.353,5.124a9.264,9.264,0,0,1,6.693,5.052c2.778,5.733,7.014,16.1,6.283,24.748l8.028,31.22,23,27.513-20.874,9.526L539.665,471.1l19.286,49.217-35.866,1.588s-10.708-79.382-8.028-92.6Z" transform="translate(-429.41 -322.95)" stroke="#707070" stroke-width="1" fill="url(#linear-gradient-5)"/>
      <path id="Path_646" data-name="Path 646" d="M345.5,288.72l7.379,35.816-12.043,6.084-6.6-32.262Z" transform="translate(-283.025 -233.263)" stroke="#707070" stroke-width="1" fill="url(#linear-gradient-7)"/>
      <path id="Path_647" data-name="Path 647" d="M404.05,345.981l5.62-23.021,7.23,13.495-3.748,11.113Z" transform="translate(-321.349 -252.06)" stroke="#707070" stroke-width="1" fill="url(#linear-gradient-7)"/>
      <path id="Path_648" data-name="Path 648" d="M554.15,460.14s0,35.983,4.817,38.626" transform="translate(-451.107 -359.341)" stroke="#707070" stroke-width="1" opacity="0.1" fill="url(#linear-gradient-7)"/>
      <path id="Path_649" data-name="Path 649" d="M390.673,480.08s-11.109,35.438-7.965,39.15" transform="translate(-356.683 -370.287)" stroke="#707070" stroke-width="1" opacity="0.1" fill="url(#linear-gradient-13)"/>
      <path id="Path_650" data-name="Path 650" d="M396.31,588s21.415,13.842,24.356,14.063" transform="translate(-364.458 -429.532)" stroke="#707070" stroke-width="1" opacity="0.1" fill="url(#linear-gradient-14)"/>
      <g id="Group_98" data-name="Group 98" transform="translate(63.492 46.418)" opacity="0.1">
        <path id="Path_651" data-name="Path 651" d="M466.667,339.709s.081,3.1-.207,6.829a24.635,24.635,0,0,0,22.687,14.884,25.056,25.056,0,0,0,3.947-.316,18.152,18.152,0,0,1,3.013-11.325C504.671,337.594,466.667,339.709,466.667,339.709Z" transform="translate(-466.46 -339.569)" stroke="#707070" stroke-width="1" fill="url(#linear-gradient-15)"/>
      </g>
      <ellipse id="Ellipse_106" data-name="Ellipse 106" cx="24.622" cy="24.342" rx="24.622" ry="24.342" transform="translate(61.025 17.457)" stroke="#707070" stroke-width="1" fill="url(#linear-gradient-7)"/>
      <g id="Group_99" data-name="Group 99" transform="translate(49.817 0.53)" opacity="0.1">
        <path id="Path_652" data-name="Path 652" d="M487.595,268.866c2.981.4,6.765-.586,7.356-3.509.726-3.689-4.267-6.089-5.038-9.774-.289-1.38.054-2.823-.113-4.226-.334-2.823-2.643-5-4.993-6.639a38.73,38.73,0,0,0-25.537-6.729,5.707,5.707,0,0,0-3.157.992c-.983.8-1.353,2.1-2.034,3.157-2.309,3.689-7.5,4.122-11.217,6.423-4.352,2.706-6.508,7.97-6.7,13.039s1.267,10.044,2.706,14.916c1.231,4.14,2.521,8.394,5.223,11.785s7.185,5.76,11.429,4.74c-1.944-1.385-.532-4.6,1.574-5.728s4.722-1.322,6.522-2.878,2.341-4.1,2.927-6.423c.74-2.923,1.8-5.89,3.969-8.024C474.754,265.812,482.4,268.176,487.595,268.866Z" transform="translate(-436.141 -237.83)" stroke="#707070" stroke-width="1" fill="url(#linear-gradient-17)"/>
      </g>
      <path id="Path_653" data-name="Path 653" d="M486.4,267.693c2.981.4,6.765-.586,7.356-3.509.726-3.689-4.267-6.089-5.038-9.774-.289-1.38.054-2.823-.113-4.226-.334-2.823-2.643-5-4.993-6.639a38.73,38.73,0,0,0-25.519-6.734,5.707,5.707,0,0,0-3.157.992c-.983.8-1.353,2.1-2.034,3.157-2.309,3.689-7.5,4.122-11.217,6.423-4.352,2.706-6.508,7.97-6.7,13.039s1.267,10.044,2.706,14.916c1.231,4.14,2.521,8.394,5.223,11.785s7.185,5.76,11.429,4.74c-1.944-1.385-.532-4.6,1.574-5.728s4.722-1.322,6.522-2.878,2.341-4.1,2.927-6.423c.74-2.923,1.8-5.89,3.969-8.024C473.569,264.639,481.214,267,486.4,267.693Z" transform="translate(-385.676 -236.655)" stroke="#707070" stroke-width="1" fill="url(#linear-gradient-18)"/>
      <g id="Group_100" data-name="Group 100" transform="translate(73.604 43.126)" opacity="0.1">
        <path id="Path_654" data-name="Path 654" d="M496.665,334.227c-.361,2.517-1.164,6.874-2.675,9.625a76.974,76.974,0,0,0-5.11,11.168h0s9.86,7.546,14.884,12.7a11.691,11.691,0,0,0,12.277,2.972,7.825,7.825,0,0,0,5.507-6.152,20,20,0,0,0-1.254-11.8,8.772,8.772,0,0,1-.036-7.217,2.864,2.864,0,0,1,1.285-1.606s-9.634-2.115-10.171.528-8.028,5.291-9.634.528l-.451-10.5a2.309,2.309,0,0,0-2.318-2.2h0A2.309,2.309,0,0,0,496.665,334.227Z" transform="translate(-488.88 -332.27)" stroke="#707070" stroke-width="1" fill="url(#linear-gradient-19)"/>
      </g>
      <path id="Path_655" data-name="Path 655" d="M496.665,335.407c-.361,2.517-1.164,6.874-2.675,9.625a76.974,76.974,0,0,0-5.11,11.168h0s9.86,7.546,14.884,12.7a11.691,11.691,0,0,0,12.277,2.972,7.825,7.825,0,0,0,5.507-6.152,20,20,0,0,0-1.254-11.8,8.772,8.772,0,0,1-.036-7.217,2.864,2.864,0,0,1,1.285-1.606s-9.634-2.115-10.171.528-8.028,5.291-9.634.528l-.451-10.5a2.309,2.309,0,0,0-2.318-2.2h0A2.309,2.309,0,0,0,496.665,335.407Z" transform="translate(-415.276 -289.792)" stroke="#707070" stroke-width="1" fill="url(#linear-gradient-20)"/>
    </g>
    <path id="Path_656" data-name="Path 656" d="M417.36,671.182s-37.512-13.874-42.65,5.651L389.1,713.818l1.529,23.666h31.347V717.436s-4.623-20.039,7.216-32.375Z" transform="translate(-253.062 -397.807)" fill="#535461" stroke="#707070" stroke-width="1"/>
    <path id="Path_657" data-name="Path 657" d="M443.17,432.182c-1.592-.532-3.514-1.01-4.808.054a12.352,12.352,0,0,0-1.664,2.39c-1.944,2.58-5.863,2.1-8.957,3.022-4.551,1.353-7.356,5.918-8.971,10.374-7.126,19.706.816,42.257-5.385,62.27-1.8,5.891-4.813,12.43-1.863,17.847.983,1.8,2.584,3.315,3.076,5.313.668,2.706-.618,6.269,1.628,7.92a7.148,7.148,0,0,0,2.427.9c5.056,1.353,8.89,5.331,12.742,8.872s8.488,6.964,13.711,6.734a22.1,22.1,0,0,0,4.961-1L476,549.577c2.6-.735,5.412-1.619,6.932-3.861a11.285,11.285,0,0,0,1.448-4.7,125.112,125.112,0,0,0,1.267-18.8,16.622,16.622,0,0,0-.857-6.13c-.9-2.228-2.6-4.01-3.861-6.053-2.431-3.933-3.09-8.678-3.689-13.265-.956-7.3-1.912-14.749-.591-21.992.568-3.108,1.547-6.13,2.2-9.219a44.239,44.239,0,0,0,.5-15.3c-.6-4.226-1.908-8.515-4.758-11.7a12.047,12.047,0,0,0-7.189-3.942c-3.509-.451-5.255,1.606-8.38,2.368C454.392,438.122,447.617,433.67,443.17,432.182Z" transform="translate(-272.59 -268.908)" stroke="#707070" stroke-width="1" opacity="0.1"/>
    <path id="Path_658" data-name="Path 658" d="M443.17,429.9c-1.592-.532-3.514-1.01-4.808.054a12.353,12.353,0,0,0-1.664,2.391c-1.944,2.58-5.863,2.1-8.957,3.022-4.551,1.353-7.356,5.918-8.971,10.374-7.126,19.706.816,42.257-5.385,62.27-1.8,5.891-4.813,12.43-1.863,17.847.983,1.8,2.584,3.315,3.076,5.313.668,2.706-.618,6.269,1.628,7.92a7.148,7.148,0,0,0,2.427.9c5.056,1.353,8.89,5.331,12.742,8.872s8.488,6.964,13.711,6.734a22.1,22.1,0,0,0,4.961-1l25.939-7.3c2.6-.735,5.412-1.619,6.932-3.861a11.286,11.286,0,0,0,1.448-4.7,125.116,125.116,0,0,0,1.267-18.8,16.623,16.623,0,0,0-.857-6.13c-.9-2.228-2.6-4.01-3.861-6.053-2.431-3.933-3.09-8.678-3.689-13.265-.956-7.3-1.912-14.749-.591-21.992.568-3.108,1.547-6.13,2.2-9.219a44.238,44.238,0,0,0,.5-15.3c-.6-4.226-1.908-8.516-4.758-11.7a12.047,12.047,0,0,0-7.176-3.956c-3.509-.451-5.255,1.606-8.38,2.368C454.392,435.846,447.617,431.39,443.17,429.9Z" transform="translate(-272.59 -267.656)" fill="#e0e0e0" stroke="#707070" stroke-width="1"/>
    <path id="Path_659" data-name="Path 659" d="M458.873,344.162s.514,19.525-5.651,19.011,17.473,32.375,17.473,32.375l20.039-10.793s-11.817-19.011-3.608-30.833S458.873,344.162,458.873,344.162Z" transform="translate(-295.599 -220.832)" fill="#fda57d" stroke="#707070" stroke-width="1"/>
    <path id="Path_660" data-name="Path 660" d="M362.414,548.216s-4.109,28.262-14.388,20.554-8.736-20.554-8.736-20.554,20.039-54.471,19.011-62.694,34.224-72.143,34.224-72.143l13.048,105.027S366.523,532.8,362.414,548.216Z" transform="translate(-233.572 -258.906)" stroke="#707070" stroke-width="1" opacity="0.1"/>
    <path id="Path_661" data-name="Path 661" d="M360.134,548.216s-4.109,28.262-14.388,20.554-8.737-20.554-8.737-20.554,20.039-54.471,19.011-62.694,34.224-72.143,34.224-72.143l13.048,105.027S364.243,532.8,360.134,548.216Z" transform="translate(-232.321 -258.906)" fill="#4d8af0" stroke="#707070" stroke-width="1"/>
    <path id="Path_662" data-name="Path 662" d="M394.221,371.67s-20.039,13.874-27.748,13.36l-5.99,1.646a33.1,33.1,0,0,0-23.72,25.61l-.095.492c-3.085,16.445-4.109,61.665-4.109,61.665s.514,11.817,5.651,14.884L371.1,511.959s-1.028-24.667,11.307-27.233-3.085-1.028-3.085-1.028l-22.61-13.364s.514-20.039,6.68-26.719,27.748-41.621,27.748-41.621l-6.166-21.6Z" transform="translate(-229.923 -236.008)" fill="#4d8af0" stroke="#707070" stroke-width="1"/>
    <path id="Path_663" data-name="Path 663" d="M514.634,401.3s12.629,3.342,21.46,4.961a8.9,8.9,0,0,1,6.423,4.907c2.666,5.57,6.729,15.633,6.03,24.031l7.708,30.318,22.1,26.719L558.312,501.5l-22.6-25.177,18.492,47.809-34.432,1.516s-10.279-77.081-7.708-89.927Z" transform="translate(-328.24 -252.274)" stroke="#707070" stroke-width="1" opacity="0.1"/>
    <path id="Path_664" data-name="Path 664" d="M516.909,401.3s12.629,3.342,21.46,4.961a8.9,8.9,0,0,1,6.423,4.907c2.666,5.57,6.729,15.633,6.03,24.031l7.708,30.318,22.1,26.719-20.039,9.251-22.61-25.181,18.492,47.809-34.427,1.534s-10.279-77.081-7.708-89.927Z" transform="translate(-329.486 -252.274)" fill="#4d8af0" stroke="#707070" stroke-width="1"/>
    <path id="Path_665" data-name="Path 665" d="M347.371,297.16l7.086,34.779-11.564,5.909-6.332-31.329Z" transform="translate(-184.76 -163.131)" fill="#e0e0e0" stroke="#707070" stroke-width="1"/>
    <path id="Path_666" data-name="Path 666" d="M403.58,352.763l5.394-22.353,6.937,13.1-3.595,10.793Z" transform="translate(-221.552 -181.384)" fill="#e0e0e0" stroke="#707070" stroke-width="1"/>
    <path id="Path_667" data-name="Path 667" d="M551.87,465.67s0,34.941,4.623,37.512" transform="translate(-350.317 -287.611)" stroke="#707070" stroke-width="1" opacity="0.1"/>
    <path id="Path_668" data-name="Path 668" d="M394.92,485s-10.667,34.414-7.668,38.017" transform="translate(-259.656 -298.223)" stroke="#707070" stroke-width="1" opacity="0.1"/>
    <path id="Path_669" data-name="Path 669" d="M400.34,589.85s20.558,13.441,23.382,13.657" transform="translate(-267.132 -355.782)" stroke="#707070" stroke-width="1" opacity="0.1"/>
    <path id="Path_670" data-name="Path 670" d="M467.888,348.723s.081,3.008-.2,6.63a23.643,23.643,0,0,0,25.569,14.131,17.808,17.808,0,0,1,2.891-11C504.363,346.666,467.888,348.723,467.888,348.723Z" transform="translate(-304.105 -223.336)" stroke="#707070" stroke-width="1" opacity="0.1"/>
    <circle id="Ellipse_107" data-name="Ellipse 107" cx="23.639" cy="23.639" r="23.639" transform="translate(161.213 97.125)" fill="#fda57d" stroke="#707070" stroke-width="1"/>
    <path id="Path_671" data-name="Path 671" d="M487.968,279.968c2.864.383,6.513-.573,7.063-3.405.7-3.586-4.1-5.913-4.835-9.472-.28-1.353.054-2.742-.108-4.1-.32-2.742-2.539-4.853-4.794-6.445a36.863,36.863,0,0,0-24.514-6.531,5.5,5.5,0,0,0-3.035.961c-.943.776-1.308,2.034-1.953,3.076-2.219,3.581-7.217,4.005-10.766,6.238-4.181,2.611-6.247,7.74-6.436,12.665s1.218,9.756,2.607,14.483c1.182,4.023,2.422,8.15,5.015,11.443s6.9,5.593,10.969,4.6c-1.867-1.353-.51-4.47,1.511-5.561s4.51-1.281,6.265-2.8,2.255-3.987,2.81-6.238c.713-2.841,1.741-5.719,3.811-7.794C475.646,276.986,482.966,279.3,487.968,279.968Z" transform="translate(-288.12 -169.14)" stroke="#707070" stroke-width="1" opacity="0.1"/>
    <path id="Path_672" data-name="Path 672" d="M486.856,278.8c2.864.383,6.513-.573,7.063-3.405.7-3.586-4.1-5.913-4.835-9.472-.28-1.353.054-2.742-.108-4.1-.343-2.765-2.571-4.885-4.826-6.468a36.863,36.863,0,0,0-24.5-6.535,5.5,5.5,0,0,0-3.035.961c-.943.776-1.308,2.034-1.953,3.076-2.219,3.581-7.217,4.005-10.766,6.238-4.181,2.611-6.247,7.74-6.436,12.665s1.218,9.756,2.607,14.483c1.182,4.023,2.422,8.15,5.016,11.443s6.9,5.593,10.969,4.6c-1.867-1.353-.51-4.47,1.511-5.561s4.51-1.281,6.265-2.8,2.255-3.987,2.81-6.238c.713-2.842,1.741-5.719,3.811-7.794C474.511,275.829,481.85,278.134,486.856,278.8Z" transform="translate(-287.5 -168.483)" fill="#72351c" stroke="#707070" stroke-width="1"/>
    <path id="Path_673" data-name="Path 673" d="M496.678,343.382c-.347,2.445-1.119,6.675-2.571,9.345a75.168,75.168,0,0,0-4.907,10.825h0s9.472,7.329,14.275,12.336a11.132,11.132,0,0,0,11.785,2.887,7.552,7.552,0,0,0,5.286-5.972,19.8,19.8,0,0,0-1.2-11.465,8.61,8.61,0,0,1-.018-7,2.792,2.792,0,0,1,1.236-1.561s-9.251-2.057-9.765.514-7.708,5.137-9.251.514l-.424-10.2a2.228,2.228,0,0,0-2.228-2.138h0a2.224,2.224,0,0,0-2.219,1.912Z" transform="translate(-315.913 -219.43)" stroke="#707070" stroke-width="1" opacity="0.1"/>
    <path id="Path_674" data-name="Path 674" d="M496.678,344.544c-.347,2.445-1.119,6.675-2.571,9.345a75.17,75.17,0,0,0-4.907,10.825h0s9.472,7.329,14.275,12.336a11.132,11.132,0,0,0,11.785,2.887,7.552,7.552,0,0,0,5.286-5.972,19.8,19.8,0,0,0-1.2-11.465,8.61,8.61,0,0,1-.032-7.018,2.792,2.792,0,0,1,1.236-1.561s-9.251-2.057-9.765.514-7.695,5.16-9.251.55l-.424-10.2a2.228,2.228,0,0,0-2.228-2.138h0A2.224,2.224,0,0,0,496.678,344.544Z" transform="translate(-315.913 -220.077)" fill="#72351c" stroke="#707070" stroke-width="1"/>
    <path id="Path_675" data-name="Path 675" d="M751.189,450.7s-9.287-9.3-12.7-21.65h.8l-.383-1.073h.383l-1.209-3.437c3.423-3.365,5.954-6.626,6.364-8.479.695-3.121,1.385-20.008,1.8-31.744l.37.09a9.825,9.825,0,0,0,1.028-5.25,20.354,20.354,0,0,0-.758-5.863l-1.673-16.756a11.429,11.429,0,0,0-4.4-7.871l-16.959-13.157a10.784,10.784,0,0,1,3.329-2.95,7.5,7.5,0,0,0,2.751-1.745c1.182-1.592.176-3.965.983-5.778.6-1.353,2.093-2.111,2.963-3.324,1.782-2.485.492-5.918-.839-8.669l-7.731-15.98a72.263,72.263,0,0,0-7.3-12.782c-9.17-11.943-26.814-17.883-41.2-12.706-4.1,1.475-7.875,4.307-9.625,8.294A21.769,21.769,0,0,1,665.335,284c-1.971,2.747-5.818,3.265-8.57,5.241-3.513,2.539-4.817,7.32-4.325,11.628s2.467,8.285,4.416,12.178c2.048,4.059,4.163,8.24,7.523,11.316,1.57,1.439,3.491,2.774,3.992,4.844.428,1.777-.329,3.608-.171,5.448a5.543,5.543,0,0,0,.659,2.183c-7.591.952-12.976,7.257-15.389,16.639-.149.582-.208.9-.208.9l-1.069,9.715c-.022.419,0,.825,0,1.227a12.778,12.778,0,0,0,1.353,6.314v34.112l-32.474,20.558c-4.871,2.165-3.789,19.48,5.954,22.723s18.407-17.279,18.407-17.279c5.931-.4,15.908-8.308,21.271-14.433a9.773,9.773,0,0,0,2.828,2.945c-3.87,8.723-11.524,26.769-10.3,30.431.735,2.21,19.742,2.413,40.286,1.98a9.821,9.821,0,0,0,1.646.726,7.438,7.438,0,0,0,6.314-.925C729.7,451.842,751.189,450.7,751.189,450.7Zm-27.427-66.144c.451-1.249,1.93-1.93,3.91-2.255v13.157Zm-1.89-46.231h0l.063-.095Z" transform="translate(-386.755 -180.027)" stroke="#707070" stroke-width="1" fill="url(#linear-gradient-21)"/>
    <path id="Path_676" data-name="Path 676" d="M677.172,483.509s-1.028,36.484-2.057,41.112-15.922,18.474-23.639,19.011c0,0-8.222,19.525-17.473,16.445s-10.279-19.525-5.651-21.582l30.841-19.53V479.91Z" transform="translate(-390.83 -295.429)" fill="#fdb797" stroke="#707070" stroke-width="1"/>
    <path id="Path_677" data-name="Path 677" d="M723.616,587s-13.36,28.776-11.817,33.4,87.356,0,87.356,0-15.93-15.931-12.845-33.4Z" transform="translate(-438.045 -354.218)" fill="#3ad29f" stroke="#707070" stroke-width="1"/>
    <path id="Path_678" data-name="Path 678" d="M758.484,394.153s2.057,20.039-1.543,24.667,14.388,7.216,15.93,7.216,17.987-5.651,21.068-7.216,5.651-12.845,5.651-12.845-15.416,3.085-20.039-14.884Z" transform="translate(-462.634 -246.669)" fill="#fdb797" stroke="#707070" stroke-width="1"/>
    <path id="Path_679" data-name="Path 679" d="M720.729,281.728c-3.892,1.4-7.483,4.091-9.142,7.88a20.81,20.81,0,0,1-1.764,3.928c-1.872,2.607-5.525,3.1-8.119,4.961-3.338,2.413-4.573,6.95-4.109,11.046s2.341,7.87,4.19,11.551c1.944,3.865,3.956,7.825,7.144,10.748,1.488,1.353,3.315,2.634,3.789,4.6.406,1.687-.311,3.45-.162,5.178.37,4.271,5.476,6.26,9.738,6.734,1.854.207,3.974.217,5.282-1.114A9.086,9.086,0,0,0,729,344.769a11.849,11.849,0,0,1,21.135-.216c1,1.921,1.583,4.258,3.4,5.412,2.783,1.8,6.508-.311,8.57-2.918s3.541-5.863,6.468-7.429a7.3,7.3,0,0,0,2.616-1.66c1.123-1.511.167-3.766.934-5.485.577-1.294,1.989-2,2.814-3.157,1.691-2.359.451-5.62-.8-8.231L766.8,305.908a68.8,68.8,0,0,0-6.928-12.142C751.142,282.455,734.386,276.812,720.729,281.728Z" transform="translate(-430.264 -185.654)" fill="#6c63ff" stroke="#707070" stroke-width="1"/>
    <path id="Path_680" data-name="Path 680" d="M739.252,438.032s20.039,0,25.181-18.492L781.3,432.62a10.852,10.852,0,0,1,4.15,7.5l1.592,15.912s1.8,5.909-.257,9.508c0,0-21.325-5.412-21.839.771l14.884,41.621s-23.124.514-29.29-3.608c0,0-25.181,5.137-31.347-.514s-12.331-5.137-7.216-17.987c0,0-10.279-10.279-5.651-24.667s.257.257.257.257-9.981-4.88-9.467-14.153l1.028-9.251s.054-.307.2-.857c3.135-12.178,11.551-18.943,23.386-14.632a10.831,10.831,0,0,0,7-.185S724.864,439.061,739.252,438.032Z" transform="translate(-430.042 -262.288)" stroke="#707070" stroke-width="1" opacity="0.1"/>
    <path id="Path_681" data-name="Path 681" d="M739.252,435.752s20.039,0,25.181-18.492L781.3,430.34a10.852,10.852,0,0,1,4.15,7.5l1.592,15.912s1.8,5.909-.257,9.508c0,0-21.325-5.412-21.839.771l14.884,41.621s-23.124.514-29.29-3.608c0,0-25.181,5.137-31.347-.514s-12.331-5.137-7.216-17.987c0,0-10.279-10.279-5.651-24.667s.257.257.257.257-9.981-4.88-9.467-14.131l1.028-9.251s.054-.307.2-.857c3.135-12.178,11.551-18.943,23.386-14.631a10.831,10.831,0,0,0,7-.185S724.864,436.781,739.252,435.752Z" transform="translate(-430.042 -261.036)" fill="#252a62" stroke="#707070" stroke-width="1"/>
    <path id="Path_682" data-name="Path 682" d="M833.262,492.608s-1.028,36.484-2.057,41.112-15.93,18.492-23.639,19.011c0,0-8.222,19.525-17.473,16.445s-10.279-19.525-5.651-21.582l30.833-19.525V489Z" transform="translate(-476.518 -300.419)" fill="#fdb797" stroke="#707070" stroke-width="1"/>
    <path id="Path_683" data-name="Path 683" d="M847,490.8s11.817,8.019,22.1,7.352c0,0,1.028-13.775-2.057-14.546S850.577,483.609,847,490.8Z" transform="translate(-512.334 -297.328)" stroke="#707070" stroke-width="1" opacity="0.1"/>
    <path id="Path_684" data-name="Path 684" d="M847,489.663s11.817,8.019,22.1,7.352c0,0,1.028-13.775-2.057-14.546S850.577,482.469,847,489.663Z" transform="translate(-512.334 -296.702)" fill="#252a62" stroke="#707070" stroke-width="1"/>
    <path id="Path_685" data-name="Path 685" d="M784.288,393.32l-21.068,3.085s.474,4.637.568,9.963a23.648,23.648,0,0,0,24.807-4.032A23.118,23.118,0,0,1,784.288,393.32Z" transform="translate(-466.341 -247.894)" stroke="#707070" stroke-width="1" opacity="0.1"/>
    <circle id="Ellipse_108" data-name="Ellipse 108" cx="23.639" cy="23.639" r="23.639" transform="translate(281.977 112.027)" fill="#fdb797" stroke="#707070" stroke-width="1"/>
    <path id="Path_686" data-name="Path 686" d="M762.657,328.715a7.383,7.383,0,0,1-3.157.451q-6.269-.041-12.534-.451c-3.157-.212-6.54-.586-8.98-2.611-3.284-2.706-3.8-7.834-2.106-11.749s5.155-6.8,8.809-9.021a26.289,26.289,0,0,1,6.639-2.995c6.766-1.84,14.271.419,19.651,4.93s8.813,11.023,10.631,17.807c.627,2.345,1.434,5.142,3.757,5.863-1.547,2.571-5.322,2.981-8.028,1.691-4-1.9-6.044-9.17-9.63-10.315C763.708,321.029,766.036,327.163,762.657,328.715Z" transform="translate(-450.814 -197.595)" stroke="#707070" stroke-width="1" opacity="0.1"/>
    <path id="Path_687" data-name="Path 687" d="M762.657,327.586a7.383,7.383,0,0,1-3.157.451q-6.269-.041-12.534-.451c-3.157-.212-6.54-.586-8.98-2.611-3.284-2.706-3.8-7.834-2.106-11.749s5.155-6.8,8.809-9.021a26.288,26.288,0,0,1,6.635-2.986c6.766-1.84,14.271.419,19.651,4.93s8.813,11.023,10.631,17.807c.627,2.345,1.434,5.142,3.757,5.863-1.547,2.571-5.322,2.981-8.028,1.691-4-1.9-6.044-9.169-9.629-10.315C763.708,319.9,766.036,326.025,762.657,327.586Z" transform="translate(-450.814 -196.98)" fill="#6c63ff" stroke="#707070" stroke-width="1"/>
    <path id="Path_688" data-name="Path 688" d="M729.61,559.895a91.033,91.033,0,0,1,23.63-3.085" transform="translate(-447.891 -337.644)" stroke="#707070" stroke-width="1" opacity="0.1"/>
    <path id="Path_689" data-name="Path 689" d="M839.7,502.13s-7.708,5.651-5.651,8.736" transform="translate(-505.031 -307.627)" stroke="#707070" stroke-width="1" opacity="0.1"/>
    <g id="Group_102" data-name="Group 102" transform="translate(135.265 250.513)" opacity="0.7">
      <path id="Path_690" data-name="Path 690" d="M552.212,555.42H299.9v22.065h14.686v69.4H538.05v-69.4h14.162Z" transform="translate(-299.9 -555.42)" stroke="#707070" stroke-width="1" fill="url(#linear-gradient-22)"/>
    </g>
    <rect id="Rectangle_282" data-name="Rectangle 282" width="218.909" height="78.624" transform="translate(152.223 263.362)" fill="#e0e0e0" stroke="#707070" stroke-width="1"/>
    <rect id="Rectangle_283" data-name="Rectangle 283" width="218.909" height="12.331" transform="translate(152.223 267.471)" stroke="#707070" stroke-width="1" opacity="0.1"/>
    <rect id="Rectangle_284" data-name="Rectangle 284" width="247.17" height="21.068" transform="translate(137.836 254.626)" fill="#e0e0e0" stroke="#707070" stroke-width="1"/>
    <rect id="Rectangle_285" data-name="Rectangle 285" width="47.277" height="6.68" rx="3.34" transform="translate(173.26 249.439)" fill="#535461" stroke="#707070" stroke-width="1"/>
    <g id="Group_103" data-name="Group 103" transform="translate(202.036 174.96)" opacity="0.7">
      <rect id="Rectangle_286" data-name="Rectangle 286" width="117.503" height="81.244" rx="28.22" stroke="#707070" stroke-width="1" fill="url(#linear-gradient-22)"/>
    </g>
    <rect id="Rectangle_287" data-name="Rectangle 287" width="111.31" height="79.743" rx="26.84" transform="translate(204.128 176.457)" fill="#3e3f49" stroke="#707070" stroke-width="1"/>
    <rect id="Rectangle_288" data-name="Rectangle 288" width="111.31" height="79.743" rx="26.84" transform="translate(205.671 176.457)" fill="#535461" stroke="#707070" stroke-width="1"/>
    <circle id="Ellipse_109" data-name="Ellipse 109" cx="3.599" cy="3.599" r="3.599" transform="translate(262.925 212.184)" fill="#e0e0e0" stroke="#707070" stroke-width="1"/>
    <path id="Path_691" data-name="Path 691" d="M369.58,658.21s3.04,4.461,12.056,5.827" transform="translate(-250.246 -393.309)" stroke="#707070" stroke-width="1" opacity="0.1"/>
    <path id="Path_692" data-name="Path 692" d="M509.023,128.931H477V110.89h32.023Zm-30.67-1.353H507.67V112.243H478.353Z" transform="translate(-309.216 -92.849)" fill="#6c63ff" stroke="#707070" stroke-width="1" opacity="0.2"/>
    <path id="Path_693" data-name="Path 693" d="M580.023,128.931H548V110.89h32.023Zm-30.67-1.353H578.67V112.243H549.353Z" transform="translate(-348.193 -92.849)" fill="#6c63ff" stroke="#707070" stroke-width="1" opacity="0.2"/>
    <path id="Path_694" data-name="Path 694" d="M651.023,128.931H619V110.89h32.023Zm-30.67-1.353H649.67V112.243H620.353Z" transform="translate(-387.169 -92.849)" fill="#6c63ff" stroke="#707070" stroke-width="1" opacity="0.2"/>
    <path id="Path_695" data-name="Path 695" d="M722.023,128.931H690V110.89h32.023Zm-30.67-1.353H720.67V112.243H691.353Z" transform="translate(-426.146 -92.849)" fill="#6c63ff" stroke="#707070" stroke-width="1" opacity="0.2"/>
    <path id="Path_696" data-name="Path 696" d="M651.023,88.931H619V70.89h32.023Zm-30.67-1.353H649.67V72.243H620.353Z" transform="translate(-387.169 -70.89)" fill="#6c63ff" stroke="#707070" stroke-width="1" opacity="0.2"/>
    <path id="Path_697" data-name="Path 697" d="M580.023,88.931H548V70.89h32.023Zm-30.67-1.353H578.67V72.243H549.353Z" transform="translate(-348.193 -70.89)" fill="#6c63ff" stroke="#707070" stroke-width="1" opacity="0.2"/>
    <path id="Path_698" data-name="Path 698" d="M246.023,128.931H214V110.89h32.023Zm-30.67-1.353H244.67V112.243H215.353Z" transform="translate(-164.837 -92.849)" fill="#6c63ff" stroke="#707070" stroke-width="1" opacity="0.2"/>
    <path id="Path_699" data-name="Path 699" d="M317.023,128.931H285V110.89h32.023Zm-30.67-1.353H315.67V112.243H286.353Z" transform="translate(-203.814 -92.849)" fill="#6c63ff" stroke="#707070" stroke-width="1" opacity="0.2"/>
    <path id="Path_700" data-name="Path 700" d="M317.023,88.931H285V70.89h32.023Zm-30.67-1.353H315.67V72.243H286.353Z" transform="translate(-203.814 -70.89)" fill="#6c63ff" stroke="#707070" stroke-width="1" opacity="0.2"/>
    <path id="Path_701" data-name="Path 701" d="M866.023,128.931H834V110.89h32.023Zm-30.67-1.353H864.67V112.243H835.353Z" transform="translate(-505.197 -92.849)" fill="#6c63ff" stroke="#707070" stroke-width="1" opacity="0.2"/>
    <path id="Path_702" data-name="Path 702" d="M937.023,128.931H905V110.89h32.023Zm-30.67-1.353H935.67V112.243H906.353Z" transform="translate(-544.174 -92.849)" fill="#6c63ff" stroke="#707070" stroke-width="1" opacity="0.2"/>
    <path id="Path_703" data-name="Path 703" d="M937.023,88.931H905V70.89h32.023Zm-30.67-1.353H935.67V72.243H906.353Z" transform="translate(-544.174 -70.89)" fill="#6c63ff" stroke="#707070" stroke-width="1" opacity="0.2"/>
  </g>
</svg>
