<svg height="512" viewBox="0 0 64 64" width="512" xmlns="http://www.w3.org/2000/svg"><g id="admin"><path d="m57.75 53.31a6.022 6.022 0 0 1 -.34.83l2.01 2.58-2.7 2.7-2.58-2.01a6.022 6.022 0 0 1 -.83.34l-.41 3.25h-3.8l-.41-3.25a6.022 6.022 0 0 1 -.83-.34l-2.58 2.01-2.7-2.7 2.01-2.58a6.022 6.022 0 0 1 -.34-.83l-3.25-.41v-1.9h1.9l.41-3.25a6.022 6.022 0 0 0 .83-.34l2.58 2.01 2.7-2.7-2.01-2.58a6.022 6.022 0 0 0 .34-.83l3.25-.41v-1.9h1.9l.41 3.25a6.022 6.022 0 0 1 .83.34l2.58-2.01 2.7 2.7-2.01 2.58a6.022 6.022 0 0 1 .34.83l3.25.41v3.8z" fill="#c0ab91"/><path d="m57.75 53.31a6.022 6.022 0 0 1 -.34.83l2.01 2.58-2.7 2.7-2.58-2.01a6.022 6.022 0 0 1 -.83.34l-.41 3.25h-3.8l-.41-3.25a6.022 6.022 0 0 1 -.83-.34l-2.58 2.01-1.37-1.37a21.327 21.327 0 0 0 10.09-7.05 20.921 20.921 0 0 0 3.66-7.48l1.76 1.76-2.01 2.58a6.022 6.022 0 0 1 .34.83l3.25.41v3.8z" fill="#b39a7c"/><circle cx="51" cy="51" fill="#ffde55" r="4"/><path d="m51 39.1v3.8l-3.25.41a6.022 6.022 0 0 1 -.34.83l2.01 2.58-2.7 2.7-2.58-2.01a6.022 6.022 0 0 1 -.83.34l-.41 3.25h-3.8l-.41-3.25a6.022 6.022 0 0 1 -.83-.34l-.86.67-1.72 1.34-2.7-2.7 2.01-2.58a6.022 6.022 0 0 1 -.34-.83l-3.25-.41v-3.8l3.25-.41a6.022 6.022 0 0 1 .34-.83l-.98-1.26-1.03-1.32 2.7-2.7 2.58 2.01a6.022 6.022 0 0 1 .83-.34l.41-3.25h3.8l.41 3.25a6.022 6.022 0 0 1 .83.34l2.58-2.01 2.7 2.7-2.01 2.58a6.022 6.022 0 0 1 .34.83z" fill="#c0ab91"/><path d="m47.75 43.31a6.022 6.022 0 0 1 -.34.83l2.01 2.58-2.7 2.7-2.58-2.01a6.022 6.022 0 0 1 -.83.34l-.41 3.25h-3.8l-.41-3.25a6.022 6.022 0 0 1 -.83-.34l-2.58 2.01-1.37-1.37a21.327 21.327 0 0 0 10.09-7.05 20.921 20.921 0 0 0 3.66-7.48l1.76 1.76-2.01 2.58a6.022 6.022 0 0 1 .34.83l3.25.41v3.8z" fill="#b39a7c"/><circle cx="41" cy="41" fill="#ffde55" r="4"/><path d="m37 48.08v6.92h-34v-13a6 6 0 0 1 6-6h22a5.855 5.855 0 0 1 2.61.6l.98 1.26a6.022 6.022 0 0 0 -.34.83l-3.25.41v3.8l3.25.41a6.022 6.022 0 0 0 .34.83l-2.01 2.58 2.7 2.7z" fill="#ff7956"/><path d="m37 48.08v6.92h-4v-6.92l-1.72 1.34-2.7-2.7 2.01-2.58a6.022 6.022 0 0 1 -.34-.83l-3.25-.41v-3.8l3.25-.41a6.022 6.022 0 0 1 .34-.83l-.98-1.26a5.855 5.855 0 0 0 -2.61-.6h4a5.855 5.855 0 0 1 2.61.6l.98 1.26a6.022 6.022 0 0 0 -.34.83l-3.25.41v3.8l3.25.41a6.022 6.022 0 0 0 .34.83l-2.01 2.58 2.7 2.7z" fill="#ff6243"/><path d="m32 18v1a2.006 2.006 0 0 1 -2 2h-1v-5h1a2.006 2.006 0 0 1 2 2z" fill="#ffdaaa"/><path d="m32 11v2l-3 3v-3l-11-3-7 3v3l-3-3v-2a8 8 0 0 1 8-8h8a8 8 0 0 1 8 8z" fill="#ffde55"/><path d="m32 11v2l-3 3v-3l-1-.27v-1.73a8 8 0 0 0 -8-8h4a8 8 0 0 1 8 8z" fill="#ffcd00"/><path d="m29 13v8a8.981 8.981 0 0 1 -6 8.48 8.914 8.914 0 0 1 -6 0 8.981 8.981 0 0 1 -6-8.48v-8l7-3z" fill="#ffdaaa"/><path d="m27 36-2 10h-10l-2-10 7 4z" fill="#ffde55"/><path d="m27 36-7 4-7-4 4-3v-3.52a8.914 8.914 0 0 0 6 0v3.52z" fill="#ffdaaa"/><path d="m29 13v8a8.981 8.981 0 0 1 -6 8.48 8.8 8.8 0 0 1 -3 .52 8.262 8.262 0 0 1 -1-.06v-.46a8.981 8.981 0 0 0 6-8.48v-8l-8.56-2.33 1.56-.67z" fill="#ffc477"/><path d="m27 36-7 4-2-1.14 5-2.86-4-3v-3.06a8.262 8.262 0 0 0 1 .06 8.8 8.8 0 0 0 3-.52v3.52z" fill="#ffc477"/><path d="m11 16v5h-1a2.006 2.006 0 0 1 -2-2v-1a2.006 2.006 0 0 1 2-2z" fill="#ffdaaa"/><path d="m55 51a3.995 3.995 0 0 1 -7.64 1.64 3.931 3.931 0 0 0 1.64.36 4 4 0 0 0 4-4 3.931 3.931 0 0 0 -.36-1.64 3.988 3.988 0 0 1 2.36 3.64z" fill="#ffcd00"/><path d="m45 41a3.995 3.995 0 0 1 -7.64 1.64 3.931 3.931 0 0 0 1.64.36 4 4 0 0 0 4-4 3.931 3.931 0 0 0 -.36-1.64 3.988 3.988 0 0 1 2.36 3.64z" fill="#ffcd00"/><path d="m15 17h2v2h-2z"/><path d="m23 17h2v2h-2z"/><path d="m61.12 48.11-2.4-.31 1.49-1.91a1.006 1.006 0 0 0 -.08-1.32l-2.7-2.7a1.006 1.006 0 0 0 -1.32-.08l-1.91 1.49-.31-2.4a1 1 0 0 0 -.99-.88h-.9v-.9a1.013 1.013 0 0 0 -.88-1l-2.4-.3 1.49-1.91a.994.994 0 0 0 -.09-1.32l-2.69-2.69a.994.994 0 0 0 -1.32-.09l-1.91 1.49-.3-2.4a1.013 1.013 0 0 0 -1-.88h-3.8a1.013 1.013 0 0 0 -1 .88l-.3 2.4-1.91-1.49a.994.994 0 0 0 -1.32.09l-2.69 2.69a.874.874 0 0 0 -.25.46c-.21-.01-.42-.03-.63-.03h-3.67l-3.33-2.5v-2.34a10.024 10.024 0 0 0 5.95-8.16h.05a3.009 3.009 0 0 0 3-3v-1a3 3 0 0 0 -1.83-2.76l1.54-1.53a1.033 1.033 0 0 0 .29-.71v-2a9.014 9.014 0 0 0 -9-9h-8a9.014 9.014 0 0 0 -9 9v2a1.033 1.033 0 0 0 .29.71l1.54 1.53a3 3 0 0 0 -1.83 2.76v1a3.009 3.009 0 0 0 3 3h.05a10.024 10.024 0 0 0 5.95 8.16v2.34l-3.33 2.5h-3.67a7.008 7.008 0 0 0 -7 7v13a1 1 0 0 0 1 1h34a1 1 0 0 0 1-1v-4.7l.1.82a1.013 1.013 0 0 0 1 .88h.9v.9a1 1 0 0 0 .88.99l2.4.31-1.49 1.91a1.006 1.006 0 0 0 .08 1.32l2.7 2.7a1.006 1.006 0 0 0 1.32.08l1.91-1.49.31 2.4a1 1 0 0 0 .99.88h3.8a1 1 0 0 0 .99-.88l.31-2.4 1.91 1.49a1.006 1.006 0 0 0 1.32-.08l2.7-2.7a1.006 1.006 0 0 0 .08-1.32l-1.49-1.91 2.4-.31a1 1 0 0 0 .88-.99v-3.8a1 1 0 0 0 -.88-.99zm-30.12-29.11a1 1 0 0 1 -1 1v-3a1 1 0 0 1 1 1zm-21 1a1 1 0 0 1 -1-1v-1a1 1 0 0 1 1-1zm0-7v.59l-1-1v-1.59a7.008 7.008 0 0 1 7-7h8a7.008 7.008 0 0 1 7 7v1.59l-1 1v-.59a.985.985 0 0 0 -.74-.96l-11-3a.969.969 0 0 0 -.65.04l-7 3a1 1 0 0 0 -.61.92zm2 8v-7.34l6.07-2.6 9.93 2.7v7.24a8 8 0 0 1 -16 0zm5.6 12.8a1.014 1.014 0 0 0 .4-.8v-2.2a10.1 10.1 0 0 0 4 0v2.2a1.014 1.014 0 0 0 .4.8l2.78 2.09-5.18 2.96-5.18-2.96zm1.9 7.07a1.044 1.044 0 0 0 1 0l5.09-2.91-1.41 7.04h-8.36l-1.41-7.04zm16.5 13.13h-32v-12a5 5 0 0 1 5-5h3.18l1.84 9.2a1 1 0 0 0 .98.8h10a1 1 0 0 0 .98-.8l1.84-9.2h3.18a4.755 4.755 0 0 1 1.98.42l.3.38-2.4.3a1.013 1.013 0 0 0 -.88 1v3.8a1.013 1.013 0 0 0 .88 1l2.4.3-1.49 1.91a.994.994 0 0 0 .09 1.32l2.69 2.69a.994.994 0 0 0 1.32.09l.11-.09zm3.98-4-.3-2.37a.989.989 0 0 0 -.66-.82 7.758 7.758 0 0 1 -.72-.3.979.979 0 0 0 -1.05.11l-1.89 1.47-1.45-1.45 1.47-1.89a.979.979 0 0 0 .11-1.05c-.11-.23-.21-.47-.3-.71a.984.984 0 0 0 -.82-.67l-2.37-.3v-2.04l2.37-.3a.984.984 0 0 0 .82-.67c.09-.24.19-.48.3-.71a.979.979 0 0 0 -.11-1.05l-1.47-1.89 1.45-1.45 1.89 1.47a.979.979 0 0 0 1.05.11c.23-.11.47-.21.71-.3a1 1 0 0 0 .67-.82l.3-2.37h2.04l.3 2.37a1 1 0 0 0 .67.82c.24.09.48.19.71.3a.979.979 0 0 0 1.05-.11l1.89-1.47 1.45 1.45-1.47 1.89a.979.979 0 0 0 -.11 1.05c.11.23.21.47.3.71a.984.984 0 0 0 .82.67l2.37.3v2.04l-2.37.3a.984.984 0 0 0 -.82.67c-.09.24-.19.48-.3.71a.979.979 0 0 0 .11 1.05l1.47 1.89-1.45 1.45-1.89-1.47a.979.979 0 0 0 -1.05-.11 7.758 7.758 0 0 1 -.72.3.989.989 0 0 0 -.66.82l-.3 2.37zm11.02-2a3 3 0 1 1 -3 3 3.009 3.009 0 0 1 3-3zm9 4.02-2.38.3a1.019 1.019 0 0 0 -.83.69 4.26 4.26 0 0 1 -.28.7.982.982 0 0 0 .11 1.04l1.47 1.89-1.45 1.45-1.89-1.47a.98.98 0 0 0 -1.04-.11 4.26 4.26 0 0 1 -.7.28 1.019 1.019 0 0 0 -.69.83l-.3 2.38h-2.04l-.3-2.38a1.019 1.019 0 0 0 -.69-.83 4.26 4.26 0 0 1 -.7-.28.982.982 0 0 0 -1.04.11l-1.89 1.47-1.45-1.45 1.47-1.89a.982.982 0 0 0 .11-1.04 4.26 4.26 0 0 1 -.28-.7 1.019 1.019 0 0 0 -.83-.69l-2.38-.3v-.02h.9a1.013 1.013 0 0 0 1-.88l.3-2.4 1.88 1.47a5.293 5.293 0 0 0 -.08.81 5 5 0 1 0 5-5 5.293 5.293 0 0 0 -.81.08l-1.47-1.88 2.4-.3a1.013 1.013 0 0 0 .88-1v-.9h.02l.3 2.38a1.019 1.019 0 0 0 .69.83 4.26 4.26 0 0 1 .7.28.98.98 0 0 0 1.04-.11l1.89-1.47 1.45 1.45-1.47 1.89a.982.982 0 0 0 -.11 1.04 4.26 4.26 0 0 1 .28.7 1.019 1.019 0 0 0 .83.69l2.38.3z"/><path d="m46 41a5 5 0 1 0 -5 5 5.006 5.006 0 0 0 5-5zm-5 3a3 3 0 1 1 3-3 3 3 0 0 1 -3 3z"/></g></svg>