<svg xmlns="http://www.w3.org/2000/svg" width="26.992" height="30.849" viewBox="0 0 26.992 30.849">
  <path id="Icon_metro-attachment" data-name="Icon metro-attachment" d="M22.629,11.781,20.673,9.825l-9.785,9.783a4.151,4.151,0,0,0,5.871,5.87L28.5,13.737a6.918,6.918,0,0,0-9.784-9.783L6.388,16.282l-.026.025A9.649,9.649,0,0,0,20.008,29.951l.025-.026h0l8.415-8.414-1.958-1.956-8.415,8.413-.025.025a6.881,6.881,0,0,1-9.733-9.73l.027-.025v0L20.673,5.911a4.151,4.151,0,0,1,5.871,5.87L14.8,23.521a1.383,1.383,0,0,1-1.957-1.956l9.785-9.784Z" transform="translate(-3.535 -1.928)"/>
</svg>
