<svg xmlns="http://www.w3.org/2000/svg" width="22" height="23.834" viewBox="0 0 22 23.834">
  <path id="Path_276" data-name="Path 276" d="M39.581,13.321a4.14,4.14,0,0,0,.7-2.335,3.717,3.717,0,0,0-3.666-3.653H34.1a6.289,6.289,0,0,0,.688-2.75,5.943,5.943,0,0,0-.5-2.664A3.148,3.148,0,0,0,32.821.465,4.892,4.892,0,0,0,30.658,0a1.817,1.817,0,0,0-1.289.53,3.444,3.444,0,0,0-.888,1.547q-.272.945-.437,1.812a2.431,2.431,0,0,1-.508,1.225q-.7.759-1.533,1.833a12.669,12.669,0,0,1-1.962,2.22H20.116A1.834,1.834,0,0,0,18.283,11v9.167A1.834,1.834,0,0,0,20.116,22h4.125a10.592,10.592,0,0,1,1.977.573q1.762.616,3.1.938a11.558,11.558,0,0,0,2.714.322h1.848a4.565,4.565,0,0,0,3.251-1.153,4.056,4.056,0,0,0,1.218-3.144,4.032,4.032,0,0,0,.859-2.549,4.332,4.332,0,0,0-.043-.616,4.113,4.113,0,0,0,.545-2.062A3.74,3.74,0,0,0,39.581,13.321ZM21.678,19.9a.9.9,0,1,1,.272-.645A.881.881,0,0,1,21.678,19.9Zm16.465-7.734q-.308.659-.766.673a1.935,1.935,0,0,1,.358.68,2.575,2.575,0,0,1,.143.8,2.264,2.264,0,0,1-.759,1.7,1.981,1.981,0,0,1,.258.988,2.413,2.413,0,0,1-.251,1.053,1.6,1.6,0,0,1-.68.752,4.9,4.9,0,0,1,.071.8q0,2.392-2.75,2.392H32.034a15.824,15.824,0,0,1-4.9-1.046q-.072-.029-.415-.15l-.509-.179q-.165-.058-.5-.165t-.544-.158q-.208-.05-.473-.093a2.887,2.887,0,0,0-.451-.043h-.458V11h.458a1.232,1.232,0,0,0,.508-.129,2.421,2.421,0,0,0,.573-.387q.294-.258.551-.509a8.148,8.148,0,0,0,.573-.63q.315-.38.494-.609t.451-.587q.272-.358.329-.43.788-.974,1.1-1.3a3.637,3.637,0,0,0,.852-1.568q.265-.953.437-1.8a2.37,2.37,0,0,1,.545-1.218,2.084,2.084,0,0,1,1.833.673,3.74,3.74,0,0,1,.458,2.077,5.851,5.851,0,0,1-.688,2.3,5.843,5.843,0,0,0-.687,2.285h5.042a1.765,1.765,0,0,1,1.275.552A1.747,1.747,0,0,1,38.45,11,2.815,2.815,0,0,1,38.142,12.162Z" transform="translate(-18.283 0)"/>
</svg>
