<svg xmlns="http://www.w3.org/2000/svg" width="319" height="49.005" viewBox="0 0 319 49.005">
  <g id="Group_10" data-name="Group 10" transform="translate(-1061 -3129.255)">
    <path id="Icon_awesome-slack-hash" data-name="Icon awesome-slack-hash" d="M48.807,28.329a3.981,3.981,0,0,0-5.032-2.505l-4.966,1.652-3.314-9.846,4.966-1.652A3.968,3.968,0,1,0,37.945,8.45L32.979,10.1,31.262,4.96a3.978,3.978,0,0,0-7.548,2.516l1.717,5.142L15.215,16.032,13.5,10.89A3.978,3.978,0,0,0,5.95,13.406l1.717,5.142L2.712,20.189A3.976,3.976,0,0,0,.2,25.211,4.1,4.1,0,0,0,3.872,27.9c.744.109,1.313-.175,6.312-1.838L13.5,35.911,8.531,37.563a3.99,3.99,0,0,0-2.516,5.022,4.1,4.1,0,0,0,3.675,2.691C10.435,45.385,11,45.1,16,43.438L17.72,48.58a4.063,4.063,0,0,0,5.032,2.505,3.976,3.976,0,0,0,2.516-5.022L23.55,40.922,33.788,37.5l1.717,5.142a4.063,4.063,0,0,0,5.032,2.505,3.976,3.976,0,0,0,2.516-5.022l-1.717-5.142L46.3,33.329a3.942,3.942,0,0,0,2.5-5ZM21.012,33.493,17.7,23.625,27.925,20.2l3.314,9.868Z" transform="translate(1060.999 3127)" fill="#f7f7f7"/>
    <text id="opensourcecode" transform="translate(1115 3167)" fill="#f7f7f7" font-size="31" font-family="Poppins-Light, Poppins" font-weight="300"><tspan x="0" y="0">opensourcecode</tspan></text>
  </g>
</svg>
