<svg xmlns="http://www.w3.org/2000/svg" width="286.742" height="176.8" viewBox="0 0 286.742 176.8"><g transform="translate(-153.809 -486.579)"><ellipse cx="88.597" cy="88.355" rx="88.597" ry="88.355" transform="translate(262.366 486.579)" fill="#3f3d56"/><path d="M874.64,426.59c-3.48-3.48-11.85-8.73-16-10.69-4.79-2.3-6.55-2.26-9.94.19-2.82,2-4.65,3.93-7.89,3.22s-9.66-5.55-15.87-11.74S813.91,395,813.22,391.71s1.21-5.08,3.23-7.9c2.44-3.39,2.51-5.15.19-9.94-2-4.15-7.19-12.5-10.7-16s-4.27-2.73-6.19-2a35.8,35.8,0,0,0-5.67,3c-3.48,2.33-5.43,4.27-6.8,7.19s-2.92,8.34,5.05,22.53a125.691,125.691,0,0,0,22.1,29.47h0A125.878,125.878,0,0,0,844,440.2c14.18,8,19.61,6.41,22.53,5.05s4.86-3.29,7.18-6.8a35.331,35.331,0,0,0,3-5.67C877.37,430.86,878.15,430.08,874.64,426.59Z" transform="translate(-480.662 174.134)" fill="#6c63ff"/><path d="M820.362,300.86a88.4,88.4,0,1,0,88.593,88.366A88.517,88.517,0,0,0,820.362,300.86Zm0,164.963a76.612,76.612,0,1,1,76.822-76.612,76.717,76.717,0,0,1-76.822,76.612Z" transform="translate(-468.404 185.729)" opacity="0.1"/><path d="M415.35,438.25l2.18.44,7.43,10.99-3.27.44Z" transform="translate(-190 162.359)" fill="#2f2e41"/><path d="M420.37,648.39a4.52,4.52,0,0,1-2.48-2.82A9.08,9.08,0,0,0,416,642.2a1.08,1.08,0,0,0-.84.63c-.18.32-.29.68-.49,1-.4.57-1.1.85-1.6,1.33s-.8,1.23-1.34,1.72a5.319,5.319,0,0,1-2.53,1,16.405,16.405,0,0,0-4,1.47,6.9,6.9,0,0,1-1.47.66,5.819,5.819,0,0,1-1.72,0l-3.94-.28a3.078,3.078,0,0,0-1,0,1.91,1.91,0,0,0-1.25,2,3,3,0,0,0,1.25,2.12,8.3,8.3,0,0,0,2.24,1.14,65.906,65.906,0,0,0,10.56,3v.78a18.28,18.28,0,0,0,8.05,1.87,1.36,1.36,0,0,0,.6-.1,1.32,1.32,0,0,0,.5-.78,31.2,31.2,0,0,0,1.65-8.56,6.82,6.82,0,0,0-.17-2.21c-.22-.71.52-.41-.16-.69" transform="translate(-242 -0.271)" fill="#2f2e41"/><path d="M495.93,633.54c-11.68.7-23.22-2.72-34.92-3.08a17.049,17.049,0,0,0-4.34.27,21.866,21.866,0,0,0-4.3,1.67c-6.27,2.92-12.76,5.34-19.24,7.75l-7.45,2.77a11.281,11.281,0,0,1-4.61,1c-.71,0-1.58-.15-2,.44-1.21,1.8-.64,4.43.16,6.45.26.65.7,1.36,1.4,1.43a4.069,4.069,0,0,0,1.42-.36c1.35-.36,2.7.55,4.1.7,1.72.18,3.32-.8,4.95-1.4,2.7-1,5.64-1,8.48-1.44,4.75-.79,9.16-3,13.28-5.51a15.5,15.5,0,0,1,4.95-2.34,13.7,13.7,0,0,1,6.23.71,142.987,142.987,0,0,1,14.29,4.86,66.6,66.6,0,0,0,7.46,2.73,27,27,0,0,0,16.73-1c1.87-.74,3.9-2,4-4.06.07-1.15-.83-2.16-1.42-3.15-.38-.63-.77-1.26-1.18-1.87C501.92,637.21,499.48,633.33,495.93,633.54Z" transform="translate(-242 -0.271)" fill="#2a293a"/><path d="M439.48,644.78a4,4,0,0,1-2.69-1.77c-.25-.45-.53-1.06-1.05-1s-.69.6-.8,1.07a30,30,0,0,1-1.51,5.19,9.74,9.74,0,0,1-3.23,4.25c-.68.47-1.43.82-2.1,1.32a14.426,14.426,0,0,1-1.77,1.34,10.512,10.512,0,0,1-1.36.5,9.425,9.425,0,0,0-1.94,1,3.85,3.85,0,0,0-1.33,1.27,1.83,1.83,0,0,0-.1,1.77,1.89,1.89,0,0,0,1.29.88,5.441,5.441,0,0,0,1.61,0c2.13-.15,4.26-.34,6.39-.53a18.443,18.443,0,0,0,2.67-.37l1.39-.38a11.063,11.063,0,0,1,2.43-.36,1.89,1.89,0,0,1,.71.07c.49.16.84.65,1.35.75a2.26,2.26,0,0,0,1-.13,22.082,22.082,0,0,1,4.73-.49,2,2,0,0,0,1.84-.8c.4-.78-.26-1.65-.53-2.49a8,8,0,0,1-.22-1.63,9.939,9.939,0,0,0-1.17-3.88c-.54-1-1.28-2.1-.9-3.16a3,3,0,0,0,.36-1.09C444.4,644.39,440.46,645,439.48,644.78Z" transform="translate(-242 -0.271)" fill="#2f2e41"/><path d="M478.42,614.8a9.12,9.12,0,0,1-4.66-4.62c-.19-.44-.35-.91-.54-1.35a10.261,10.261,0,0,0-2.78-3.87,1.37,1.37,0,0,0-1-.43,1.09,1.09,0,0,0-.75.81,3.091,3.091,0,0,0-.08,1.25,22.271,22.271,0,0,0,.5,2.92l.57,2.58a5.662,5.662,0,0,0,.35,1.15,4,4,0,0,0,.95,1.13c.52.48,1.05.94,1.58,1.4a5.427,5.427,0,0,0,1,.69,5.81,5.81,0,0,0,1.77.52,15.061,15.061,0,0,1,6.64,2.56s0-1.73,0-1.92a2.54,2.54,0,0,0-.5-1.39,8.869,8.869,0,0,0-3.05-1.43Z" transform="translate(-242 -0.271)" fill="#fbbebe"/><path d="M500.44,590.48a3.07,3.07,0,0,0-2.24.32,3.111,3.111,0,0,0-.77,1.05,15.252,15.252,0,0,0-1.48,3.48c-.25,1-.29,2.13-.61,3.16-.58,1.9-2.07,3.51-2.24,5.49-.08.89.07,1.93-.58,2.53a3.676,3.676,0,0,1-.51.37,3.841,3.841,0,0,0-1.12,1.15,3.77,3.77,0,0,1-.79,1.09c-.58.43-1.54.39-1.82,1s.45,1.44.28,2.16-.8.86-1.25,1.26a4.369,4.369,0,0,0-1.08,2,6.67,6.67,0,0,1-5.44-1.35,17.32,17.32,0,0,1,.85,6.22,2.54,2.54,0,0,1-.5,1.92,34.633,34.633,0,0,1,6.67,1.16,4.6,4.6,0,0,0,2.91,0,4.86,4.86,0,0,0,1.34-1.06c1.2-1.22,2.46-2.55,2.75-4.24a24.911,24.911,0,0,0,.05-2.87,16.18,16.18,0,0,1,.73-3.49,41.528,41.528,0,0,0,1.27-7.18c.13-1.5,1.43-2.7,2.11-4,1.28-2.53,2.6-5.16,2.69-8C501.7,591.73,501.38,590.58,500.44,590.48Z" transform="translate(-242 -0.271)" fill="#2a293a"/><path d="M497.78,636c-2.43-1.16-4.21-3.31-6.18-5.16-3.75-3.53-8.34-6-12.29-9.33-2.62-2.19-5-4.74-7.83-6.58a19.569,19.569,0,0,0-8.39-2.93,2.231,2.231,0,0,0-1,0,2.3,2.3,0,0,0-.95.75,30.221,30.221,0,0,0-3.39,4.65c-5,8.5-12.11,15.64-18,23.54a1.5,1.5,0,0,0-.29.56,1.39,1.39,0,0,0,.22.87l1.2,2.34c.67,1.32,1.75,2.85,3.19,2.59a3.49,3.49,0,0,0,1.67-1.07l5.38-5.15,5.64-5.39c3.3-3.15,6.66-6.38,8.82-10.42,1.68,2.92,4.67,4.83,6.71,7.5.78,1,1.42,2.13,2.12,3.21,1.11,1.72,2.38,3.34,3.64,5l6.47,8.25a12.379,12.379,0,0,0,3,3,11.45,11.45,0,0,0,5.19,1.39,68.565,68.565,0,0,0,7.31.26,12.6,12.6,0,0,0,5.45-1,4.94,4.94,0,0,0,2.95-4.39,6.44,6.44,0,0,0-.93-2.73C505.15,641.59,502.13,638.07,497.78,636Z" transform="translate(-242 -0.271)" fill="#2f2e41"/><path d="M503.47,592.53a4.21,4.21,0,0,1,.24,3.16,12.818,12.818,0,0,1-1.41,2.91,13.852,13.852,0,0,1-1.83,2.6c3.38.16,6.65-1.16,9.62-2.76,2.4-1.29,4.79-2.88,6.07-5.29a2.8,2.8,0,0,1-2.24-.42,8,8,0,0,1-1.71-1.59l-1.69-1.9a7.607,7.607,0,0,1-1-1.37,3.78,3.78,0,0,1-.45-2.21,12.869,12.869,0,0,1-2.24,1.86c-1.21.79-2.54,1.36-3.76,2.14-.42.28-1.38.72-1.13,1.28S503.13,591.93,503.47,592.53Z" transform="translate(-242 -0.271)" fill="#e2abab"/><path d="M503.51,592.86a2.85,2.85,0,0,0,0,3.3c.1.12.46.87.61.88a.55.55,0,0,0,.38-.2,25.1,25.1,0,0,0,2.14-2.55,4.76,4.76,0,0,1,2.72-1.78,5.88,5.88,0,0,1,3.75,1.17,3.559,3.559,0,0,1,1.29,1,3.491,3.491,0,0,1,.42,1.43,68.9,68.9,0,0,1,.38,9.09,35.819,35.819,0,0,1-.43,6.55c-.22,1.11-.54,2.2-.69,3.33a21.245,21.245,0,0,0-.14,3v4.18a11,11,0,0,0,.16,2.29c.2.91.63,1.76.92,2.65a17.332,17.332,0,0,1,.61,3.13l.57,4.32c.18,1.36.32,2.85-.51,4-.37.49-.86.89-1.24,1.38-1.41,1.84-1,4.47-1.55,6.72a8.38,8.38,0,0,1-2.74,4.2,4.53,4.53,0,0,1-3.61,1.29c-1.76-.33-2.81-2.16-3.29-3.89s-.65-3.61-1.69-5.07a13.448,13.448,0,0,0-3.34-2.79,5.77,5.77,0,0,1-2.61-3.39c-.11-.63,0-1.28-.11-1.92a4.53,4.53,0,0,0-2.79-3.67c-.9-.35-2-.48-2.52-1.3a6.07,6.07,0,0,0,2.63-3.53,18.13,18.13,0,0,0,.64-4.46l.3-5c.14-2.25.2-4.47,1.19-6.49.44-.9,1-1.75,1.45-2.64a28.658,28.658,0,0,0,1.55-3.87c.72-2.06,1.44-4.12,2.08-6.2a11.682,11.682,0,0,1,1.14-2.89C501.72,594.19,502.5,593.06,503.51,592.86Z" transform="translate(-242 -0.271)" fill="#e8e8f0"/><path d="M492.36,625.5h1.33l.28-2a4.169,4.169,0,0,1,.28-1.17,7,7,0,0,1,.77-1.12c1.3-1.85,1.21-4.3,1.53-6.55a33.329,33.329,0,0,1,2.92-8.56l2.58-5.75a7.938,7.938,0,0,0,.56-1.47,8.815,8.815,0,0,0,.16-1.7c0-.89.28-4.13.31-5,0-.33-.73-.15-.88-.44-.32-.64-.76,1.09-1.37,1.47a3.36,3.36,0,0,0-1.19,1.74c-.56,1.44-.9,3-1.42,4.43a9.05,9.05,0,0,1-2.41,3.92c-.53.46-1.14.83-1.64,1.33-1.6,1.58-1.76,4.09-1.81,6.35C492.32,612.36,492.06,625.5,492.36,625.5Z" transform="translate(-242 -0.271)" fill="#2f2e41"/><path d="M511.5,590.47a4.54,4.54,0,0,0-2.37,3.25,16.44,16.44,0,0,1-1.2,4c-1.62,2.82-5.75,3.64-6.9,6.69a12.3,12.3,0,0,0-.46,3.15c-.2,2.19-.92,4.3-1.14,6.48a28.873,28.873,0,0,0,.12,5.09L501,636.35a23,23,0,0,1-.43,7.58,7.3,7.3,0,0,0,4.34-.72c1.35-.62,2.59-1.47,3.9-2.19,2.24-1.24,4.72-2.11,6.69-3.76a4.091,4.091,0,0,0,.9-1A8.647,8.647,0,0,0,517,634a12.2,12.2,0,0,1,.65-1.78,52.435,52.435,0,0,0,1.88-5.32,30.552,30.552,0,0,0,.86-3.64c.16-1,.25-2,.33-3a17.6,17.6,0,0,1,.92-4.55,36.651,36.651,0,0,0,2.11-10.92,5.708,5.708,0,0,0-.11-1.6,8.562,8.562,0,0,0-.88-1.83c-.6-1.13-1-2.37-1.52-3.52a17.31,17.31,0,0,0-5.91-6.21C514.17,590.84,512.81,590,511.5,590.47Z" transform="translate(-242 -0.271)" fill="#2f2e41"/><path d="M481.29,618.57a10.429,10.429,0,0,1-2.75-2.09c-.36-.42-.66-.89-1-1.31a6.81,6.81,0,0,0-3.46-2,16.9,16.9,0,0,0-4-.39,7.258,7.258,0,0,0-2.67.32,2.72,2.72,0,0,0-1.77,1.9,3.15,3.15,0,0,0,1.35,2.8,6.361,6.361,0,0,0,2.69,1.3,21.511,21.511,0,0,0,2.43.29c4.78.5,9.05,3.1,13.24,5.47q5.52,3.14,11.26,5.84a23.4,23.4,0,0,0,.19-3.45c0-.86-.07-2.18-.88-2.69a17.661,17.661,0,0,0-3.58-1.07,56.34,56.34,0,0,1-7.21-2.92A35.872,35.872,0,0,1,481.29,618.57Z" transform="translate(-242 -0.271)" fill="#fbbebe"/><ellipse cx="8.52" cy="8.57" rx="8.52" ry="8.57" transform="translate(251.68 574.139)" fill="#fbbebe"/><path d="M513.93,600.18a13.659,13.659,0,0,0-1.65,3.09c-1,2.16-2.7,4-3.53,6.29s-.84,5.23-2.55,7.1a2.489,2.489,0,0,0-.75,1.08,5.156,5.156,0,0,1-.08.78c-.25.68-1.36.71-1.57,1.41-.06.2,0,.42-.1.62-.17.45-.77.52-1.16.79-.83.56-.66,1.86-1.25,2.67a2.25,2.25,0,0,1-2.13.75,7.5,7.5,0,0,1-2.21-.83,2.131,2.131,0,0,0-.8-.25,1.65,1.65,0,0,0-.92.32,5.67,5.67,0,0,0-2.3,4.85,15.84,15.84,0,0,0,1.32,5.43,2.18,2.18,0,0,0,.43.81,1.91,1.91,0,0,0,2.12.16,10,10,0,0,1,2.07-.93c1.32-.24,2.61.67,3.95.59a5.49,5.49,0,0,0,2.66-1.17,14.7,14.7,0,0,0,3.58-3c.58-.77,1-1.64,1.52-2.46a31.556,31.556,0,0,1,2.15-2.87l4.92-6a13.821,13.821,0,0,0,1.32-1.82,12.828,12.828,0,0,0,1-2.75,21.065,21.065,0,0,0,1-4.89,18.791,18.791,0,0,0-.36-4.1,14.492,14.492,0,0,0-1-3.91C518.54,599.68,515.94,597.84,513.93,600.18Z" transform="translate(-242 -0.271)" fill="#2f2e41"/><path d="M531.05,589a9.6,9.6,0,0,0-3.94-7.8,11.41,11.41,0,0,0-9.69-11.11,11.07,11.07,0,0,0-21.81.59c-3.54-.8-6.78.24-7.37,2.42s1.91,5,5.64,6a10.509,10.509,0,0,0,3.62.36,11.08,11.08,0,0,0,7.62,4.75,11.37,11.37,0,0,0,8.32,8.58,9.55,9.55,0,0,0,2.57,3.55v.83a7.21,7.21,0,1,0,14.42,0,7.7,7.7,0,0,0-.69-3.19A9.639,9.639,0,0,0,531.05,589Z" transform="translate(-242 -0.271)" fill="#f86d70"/><ellipse cx="1.31" cy="1.75" rx="1.31" ry="1.75" transform="translate(260.949 583.859) rotate(-37.22)" fill="#fbbebe"/></g></svg>