<svg xmlns="http://www.w3.org/2000/svg" width="319" height="49.055" viewBox="0 0 319 49.055">
  <g id="Group_11" data-name="Group 11" transform="translate(-1447 -3129)">
    <text id="opensourcecode" transform="translate(1501 3162)" fill="#f7f7f7" font-size="31" font-family="Poppins-Light, Poppins" font-weight="300"><tspan x="0" y="0">opensourcecode</tspan></text>
    <path id="Icon_ionic-logo-linkedin" data-name="Icon ionic-logo-linkedin" d="M49.632,4.5H8.691A4,4,0,0,0,4.5,8.321v41.03a4.316,4.316,0,0,0,4.191,4.2H49.619a4.1,4.1,0,0,0,3.936-4.2V8.321A3.761,3.761,0,0,0,49.632,4.5ZM19.706,45.39H12.678V23.539h7.028ZM16.435,20.217h-.051a3.607,3.607,0,0,1-3.706-3.77,3.629,3.629,0,0,1,3.8-3.77,3.62,3.62,0,0,1,3.757,3.77A3.629,3.629,0,0,1,16.435,20.217ZM45.39,45.39H38.362V33.442c0-2.862-1.022-4.817-3.565-4.817a3.845,3.845,0,0,0-3.6,2.594,4.732,4.732,0,0,0-.243,1.725V45.39H23.923V23.539H30.95V26.58a7.114,7.114,0,0,1,6.338-3.552c4.613,0,8.1,3.041,8.1,9.6V45.39Z" transform="translate(1442.5 3124.5)" fill="#f7f7f7"/>
  </g>
</svg>
