<svg xmlns="http://www.w3.org/2000/svg" width="319.142" height="49.124" viewBox="0 0 319.142 49.124">
  <g id="Group_9" data-name="Group 9" transform="translate(-603.858 -3126)">
    <path id="Icon_simple-github" data-name="Icon simple-github" d="M24.562.446C10.991.446,0,11.722,0,25.631A25.133,25.133,0,0,0,16.794,49.526c1.228.237,1.678-.541,1.678-1.211,0-.6-.02-2.183-.031-4.282-6.832,1.52-8.273-3.379-8.273-3.379-1.118-2.907-2.733-3.683-2.733-3.683-2.225-1.562.172-1.53.172-1.53a5.166,5.166,0,0,1,3.762,2.594c2.19,3.851,5.75,2.739,7.154,2.095a5.422,5.422,0,0,1,1.556-3.369c-5.455-.63-11.188-2.8-11.188-12.446a9.854,9.854,0,0,1,2.528-6.758,9.165,9.165,0,0,1,.215-6.666s2.057-.676,6.754,2.582a22.6,22.6,0,0,1,12.281,0c4.667-3.257,6.724-2.582,6.724-2.582a9.42,9.42,0,0,1,.246,6.666,9.9,9.9,0,0,1,2.518,6.758c0,9.675-5.741,11.806-11.206,12.425A6.112,6.112,0,0,1,30.608,41.4c0,3.371-.031,6.078-.031,6.9,0,.661.43,1.448,1.689,1.2A25.046,25.046,0,0,0,49.124,25.631c0-13.909-11-25.185-24.562-25.185" transform="translate(603.858 3125.555)" fill="#f7f7f7"/>
    <text id="opensourcecode" transform="translate(658 3161.126)" fill="#f7f7f7" font-size="31" font-family="Poppins-Light, Poppins" font-weight="300"><tspan x="0" y="0">opensourcecode</tspan></text>
  </g>
</svg>
