<svg xmlns="http://www.w3.org/2000/svg" width="41.376" height="33.102" viewBox="0 0 41.376 33.102">
  <path id="Icon_awesome-github-alt" data-name="Icon awesome-github-alt" d="M16.042,27.317c0,1.8-.94,4.75-3.164,4.75s-3.164-2.948-3.164-4.75.94-4.75,3.164-4.75,3.164,2.948,3.164,4.75Zm25.334-4.353a18.682,18.682,0,0,1-1.508,8.189C36.6,37.756,27.618,37.6,21.188,37.6c-6.534,0-16.05.233-19.447-6.448A18.451,18.451,0,0,1,0,22.964a14.824,14.824,0,0,1,3.577-9.792,13.494,13.494,0,0,1-.664-4.207A8.583,8.583,0,0,1,4.172,4.5a13.468,13.468,0,0,1,9.378,3.1A33.018,33.018,0,0,1,21.2,6.741a29.735,29.735,0,0,1,6.93.793A13.322,13.322,0,0,1,37.419,4.5a8.5,8.5,0,0,1,1.259,4.465,13.3,13.3,0,0,1-.664,4.155,14.852,14.852,0,0,1,3.362,9.844Zm-5.543,4.353c0-3.784-2.3-7.12-6.336-7.12a35.442,35.442,0,0,0-4.827.517,25.327,25.327,0,0,1-3.888.276,25.482,25.482,0,0,1-3.888-.276,34.867,34.867,0,0,0-4.827-.517c-4.034,0-6.336,3.336-6.336,7.12,0,7.568,6.93,8.732,12.964,8.732h4.155c6.06,0,12.982-1.155,12.982-8.732Zm-7.12-4.75c-2.224,0-3.164,2.948-3.164,4.75s.94,4.75,3.164,4.75,3.164-2.948,3.164-4.75S30.937,22.567,28.713,22.567Z" transform="translate(0 -4.5)"/>
</svg>
