<svg id="Github" xmlns="http://www.w3.org/2000/svg" width="55" height="55" viewBox="0 0 55 55">
  <path id="Path_10" data-name="Path 10" d="M27.5,0C12.314,0,0,12.624,0,28.2A28.148,28.148,0,0,0,18.806,54.951c1.375.261,1.879-.612,1.879-1.357,0-.673-.025-2.893-.038-5.249-7.651,1.706-9.265-3.323-9.265-3.323C10.131,41.764,8.329,40.9,8.329,40.9c-2.5-1.75.188-1.719.188-1.719a5.8,5.8,0,0,1,4.215,2.906c2.453,4.311,6.434,3.064,8,2.344a6.063,6.063,0,0,1,1.746-3.771c-6.107-.714-12.528-3.132-12.528-13.936a11.066,11.066,0,0,1,2.834-7.562,10.37,10.37,0,0,1,.267-7.462s2.309-.757,7.562,2.89a25.464,25.464,0,0,1,13.773,0c5.249-3.648,7.554-2.89,7.554-2.89a10.357,10.357,0,0,1,.269,7.462,11.045,11.045,0,0,1,2.83,7.562c0,10.829-6.433,13.214-12.557,13.913a6.831,6.831,0,0,1,1.865,5.222c0,3.772-.032,6.808-.032,7.738,0,.751.495,1.629,1.889,1.353A28.145,28.145,0,0,0,55,28.2C55,12.624,42.687,0,27.5,0Z" transform="translate(0.001)" fill="#161514"/>
  <path id="Path_11" data-name="Path 11" d="M9.216,35.2c-.058.131-.261.17-.446.08s-.294-.265-.233-.4a.327.327,0,0,1,.448-.083C9.174,34.888,9.281,35.066,9.216,35.2Z" transform="translate(0.73 5.091)" fill="#161514"/>
  <path id="Path_12" data-name="Path 12" d="M10.185,36.321c-.124.117-.367.063-.531-.123a.409.409,0,0,1-.076-.549c.128-.117.363-.062.533.122S10.315,36.2,10.185,36.321Z" transform="translate(1.395 5.223)" fill="#161514"/>
  <path id="Path_13" data-name="Path 13" d="M11.131,37.737c-.16.109-.42.007-.581-.228a.468.468,0,0,1,0-.631c.16-.113.418-.011.582.217A.476.476,0,0,1,11.131,37.737Z" transform="translate(1.532 5.412)" fill="#161514"/>
  <path id="Path_14" data-name="Path 14" d="M12.44,39.091c-.142.16-.446.117-.669-.1a.514.514,0,0,1-.148-.676c.144-.161.449-.115.673.1S12.592,38.932,12.44,39.091Z" transform="translate(1.699 5.617)" fill="#161514"/>
  <path id="Path_15" data-name="Path 15" d="M14.241,39.854c-.063.207-.355.3-.651.217s-.486-.333-.428-.543.355-.306.651-.217S14.3,39.644,14.241,39.854Z" transform="translate(1.935 6.253)" fill="#161514"/>
  <path id="Path_16" data-name="Path 16" d="M16.2,39.985c.008.217-.242.4-.552.4s-.562-.169-.566-.384.244-.4.555-.4S16.2,39.769,16.2,39.985Z" transform="translate(2.22 6.28)" fill="#161514"/>
  <path id="Path_17" data-name="Path 17" d="M18.028,39.663c.037.217-.178.434-.485.49s-.581-.075-.62-.287.181-.434.483-.493A.5.5,0,0,1,18.028,39.663Z" transform="translate(2.49 6.26)" fill="#161514"/>
</svg>
