<svg width="313" height="329" viewBox="0 0 313 329" fill="none" xmlns="http://www.w3.org/2000/svg">
<g opacity="0.2">
<path opacity="0.2" d="M232.492 300.275C232.21 300.763 231.885 301.229 231.52 301.667C228.295 299.557 225.014 297.485 221.678 295.452L221.894 295.054C222.666 293.667 223.821 292.496 225.241 291.662C226.054 291.133 227.003 290.814 227.992 290.739C228.98 290.664 229.972 290.835 230.867 291.235C231.716 291.706 232.418 292.375 232.903 293.177C233.388 293.979 233.638 294.886 233.629 295.806C233.68 297.363 233.288 298.905 232.492 300.275V300.275Z" fill="#3F3D56"/>
<path opacity="0.2" d="M236.982 292.432C239.011 288.868 238.284 284.81 235.359 283.368C232.434 281.926 228.417 283.647 226.388 287.211C224.359 290.776 225.086 294.834 228.011 296.276C230.936 297.717 234.953 295.997 236.982 292.432Z" fill="#3F3D56"/>
<path opacity="0.2" d="M241.473 284.545C243.502 280.98 242.776 276.922 239.85 275.48C236.925 274.038 232.908 275.759 230.879 279.323C228.85 282.888 229.577 286.946 232.502 288.388C235.427 289.829 239.444 288.109 241.473 284.545Z" fill="#3F3D56"/>
<path opacity="0.2" d="M245.963 276.657C247.993 273.093 247.266 269.035 244.341 267.593C241.415 266.151 237.399 267.872 235.37 271.436C233.341 275.001 234.067 279.059 236.993 280.501C239.918 281.942 243.934 280.222 245.963 276.657Z" fill="#3F3D56"/>
<path opacity="0.2" d="M250.45 268.774C252.479 265.21 251.753 261.152 248.827 259.71C245.902 258.268 241.886 259.989 239.857 263.553C237.828 267.118 238.554 271.176 241.479 272.618C244.405 274.059 248.421 272.339 250.45 268.774Z" fill="#3F3D56"/>
<path opacity="0.2" d="M256.034 202.396C255.789 201.182 255.636 199.954 255.576 198.721L270.731 203.466L255.615 196.152C255.835 192.516 256.85 188.961 258.598 185.703C260.346 182.445 262.79 179.553 265.781 177.205L280.425 196.91L269.052 174.994C272.393 173.049 276.13 171.765 280.028 171.222C283.927 170.679 287.903 170.888 291.711 171.838C295.518 172.787 299.075 174.455 302.159 176.739C305.244 179.023 307.789 181.873 309.638 185.113C311.487 188.352 312.599 191.911 312.906 195.567C313.212 199.224 312.706 202.9 311.419 206.367C310.132 209.833 308.091 213.016 305.424 215.717C302.758 218.418 299.522 220.579 295.918 222.066C296.293 223.957 296.446 225.88 296.377 227.802L273.359 227.631L296.045 231.109C295.278 235.492 293.349 239.629 290.432 243.144C287.515 246.659 283.703 249.442 279.339 251.242C280.3 256.175 279.75 261.26 277.752 265.916C275.753 270.571 272.387 274.61 268.038 277.57C263.69 280.53 258.533 282.292 253.159 282.653C247.785 283.015 242.41 281.963 237.649 279.616C232.887 277.27 228.931 273.724 226.233 269.385C223.535 265.045 222.204 260.086 222.392 255.076C222.58 250.066 224.279 245.205 227.295 241.051C230.311 236.897 234.523 233.616 239.449 231.584C238.301 225.689 239.316 219.606 242.33 214.312C245.344 209.018 250.182 204.82 256.068 202.392L256.034 202.396Z" fill="#6C63FF"/>
<path opacity="0.1" d="M293.043 239.325C290.036 244.624 285.196 248.824 279.305 251.246C280.266 256.179 279.716 261.264 277.718 265.92C275.72 270.576 272.354 274.614 268.005 277.574C263.656 280.534 258.5 282.296 253.126 282.658C247.752 283.019 242.377 281.967 237.615 279.621C232.853 277.274 228.898 273.728 226.2 269.389C223.502 265.049 222.17 260.091 222.358 255.08C222.546 250.07 224.245 245.21 227.261 241.055C230.278 236.901 234.489 233.62 239.415 231.588C238.301 225.896 294.553 236.673 293.043 239.325Z" fill="black"/>
</g>
<g opacity="0.2">
<path opacity="0.2" d="M99.8563 266.294C100.129 267.328 100.498 268.338 100.957 269.314C108.05 266.787 115.223 264.359 122.479 262.032C122.414 261.758 122.349 261.475 122.276 261.178C121.539 258.249 119.977 255.555 117.75 253.374C114.855 250.6 111.101 249.245 107.484 250.067C103.868 250.889 101.21 253.694 100.008 257.387C99.1047 260.29 99.0522 263.366 99.8563 266.294V266.294Z" fill="#3F3D56"/>
<path opacity="0.2" d="M110.286 260.683C116.479 259.277 119.895 252.024 117.916 244.483C115.938 236.943 109.314 231.971 103.122 233.378C96.9293 234.784 93.5133 242.037 95.4918 249.577C97.4703 257.118 104.094 262.09 110.286 260.683Z" fill="#3F3D56"/>
<path opacity="0.2" d="M105.904 243.994C112.096 242.587 115.512 235.334 113.534 227.794C111.555 220.253 104.931 215.281 98.739 216.688C92.5466 218.095 89.1306 225.348 91.1091 232.888C93.0875 240.428 99.7113 245.4 105.904 243.994Z" fill="#3F3D56"/>
<path opacity="0.2" d="M101.526 227.304C107.718 225.897 111.134 218.644 109.155 211.104C107.177 203.564 100.553 198.592 94.3608 199.998C88.1684 201.405 84.7524 208.658 86.7309 216.198C88.7094 223.739 95.3332 228.711 101.526 227.304Z" fill="#3F3D56"/>
<path opacity="0.2" d="M97.1481 210.618C103.34 209.211 106.757 201.958 104.778 194.418C102.8 186.878 96.1757 181.906 89.9834 183.312C83.791 184.719 80.375 191.972 82.3535 199.512C84.332 207.052 90.9558 212.025 97.1481 210.618Z" fill="#3F3D56"/>
<path opacity="0.2" d="M105.555 73.2488C106.613 71.0879 107.507 68.8606 108.23 66.5834L77.5932 68.7725L109.524 61.7431C110.958 54.8597 110.868 47.7765 109.258 40.9267C107.649 34.077 104.555 27.6048 100.164 21.9062L62.82 52.2593L95.1663 16.3511C89.9149 11.2581 83.5931 7.22538 76.5945 4.50377C69.5958 1.78216 62.07 0.429954 54.4855 0.531305C46.901 0.632655 39.4201 2.18539 32.5083 5.09289C25.5965 8.00038 19.4018 12.2004 14.3098 17.4315C9.21773 22.6627 5.33731 28.813 2.90999 35.4997C0.482671 42.1864 -0.439577 49.2664 0.200634 56.2991C0.840845 63.3318 3.0298 70.1666 6.6313 76.3781C10.2328 82.5897 15.1697 88.0451 21.1349 92.4048C19.4856 95.7698 18.2337 99.2914 17.4011 102.908L60.4864 112.709L16.3837 109.23C15.5822 117.758 17.0797 126.337 20.7405 134.191C24.4013 142.044 30.1098 148.924 37.3489 154.207C33.0517 162.992 31.4979 172.724 32.8653 182.292C34.2326 191.86 38.4658 200.877 45.0809 208.311C51.696 215.746 60.426 221.299 70.2729 224.335C80.1197 227.371 90.686 227.767 100.764 225.479C110.841 223.191 120.023 218.31 127.26 211.395C134.497 204.48 139.497 195.81 141.688 186.375C143.879 176.941 143.172 167.124 139.649 158.045C136.126 148.967 129.929 140.994 121.765 135.039C126.901 124.54 128.095 112.739 125.156 101.533C122.216 90.3268 115.313 80.3653 105.556 73.2488H105.555Z" fill="#6C63FF"/>
<path opacity="0.1" d="M17.7542 125.91C20.6761 137.118 27.5801 147.08 37.3474 154.181C33.0504 162.966 31.4968 172.699 32.8643 182.267C34.2318 191.834 38.4651 200.851 45.0803 208.285C51.6955 215.72 60.4255 221.273 70.2723 224.308C80.1192 227.344 90.6853 227.741 100.763 225.452C110.84 223.164 120.022 218.283 127.259 211.368C134.496 204.453 139.496 195.783 141.687 186.349C143.878 176.915 143.171 167.097 139.648 158.019C136.125 148.941 129.928 140.968 121.765 135.012C126.732 124.886 16.2813 120.303 17.7542 125.91Z" fill="black"/>
</g>
<path d="M257.762 72.0746H256.735V20.5606C256.712 17.8391 256.113 15.1483 254.973 12.6421C253.832 10.1359 252.173 7.86322 250.088 5.95394C248.003 4.04467 245.535 2.53616 242.824 1.51457C240.113 0.492984 237.212 -0.0216744 234.287 -1.51103e-05H108.548C102.642 -0.0422452 96.9589 2.1 92.7494 5.95566C88.54 9.81132 86.1486 15.0647 86.1012 20.5606V41.9142H85.8023C85.4549 41.912 85.1207 42.038 84.8729 42.2646C84.6252 42.4912 84.4842 42.8 84.4807 43.1233V53.4036C84.4842 53.7268 84.6252 54.0356 84.8729 54.2623C85.1207 54.4889 85.4549 54.6149 85.8023 54.6126H86.1248V65.1113H85.7197C85.5479 65.1101 85.3776 65.1405 85.2184 65.2007C85.0592 65.2609 84.9143 65.3496 84.792 65.4619C84.6697 65.5742 84.5724 65.7078 84.5056 65.8551C84.4388 66.0023 84.4039 66.1604 84.4028 66.3203V85.9777C84.4062 86.3002 84.5466 86.6084 84.7934 86.8349C85.0401 87.0614 85.3731 87.1879 85.7197 87.1867H86.1248V94.8968H85.7748C85.6026 94.8951 85.4317 94.9251 85.272 94.985C85.1123 95.0449 84.9669 95.1336 84.8441 95.2459C84.7213 95.3582 84.6236 95.492 84.5565 95.6396C84.4894 95.7872 84.4543 95.9456 84.4532 96.1058V115.956C84.4543 116.116 84.4894 116.275 84.5565 116.422C84.6236 116.57 84.7213 116.704 84.8441 116.816C84.9669 116.928 85.1123 117.017 85.272 117.077C85.4317 117.137 85.6026 117.167 85.7748 117.165H86.1248V297.233C86.1476 299.955 86.7464 302.645 87.8868 305.151C89.0273 307.658 90.6871 309.93 92.7716 311.84C94.8561 313.749 97.3243 315.257 100.035 316.279C102.746 317.301 105.647 317.815 108.572 317.794H234.284C240.191 317.836 245.873 315.694 250.083 311.838C254.292 307.982 256.684 302.729 256.731 297.233V110.601H257.762C258.11 110.603 258.444 110.477 258.692 110.251C258.94 110.024 259.081 109.715 259.084 109.392V73.2822C259.08 72.9589 258.939 72.6502 258.692 72.4235C258.444 72.1969 258.11 72.0709 257.762 72.0732L257.762 72.0746Z" fill="url(#paint0_linear)"/>
<g opacity="0.9">
<path opacity="0.9" d="M255.067 73.3376H253.61C252.643 73.3376 251.859 74.0668 251.859 74.9663V109.755C251.859 110.655 252.643 111.384 253.61 111.384H255.067C256.034 111.384 256.818 110.655 256.818 109.755V74.9663C256.818 74.0668 256.034 73.3376 255.067 73.3376Z" fill="#E5E7EB"/>
<path opacity="0.9" d="M89.7746 44.8288C89.7746 44.1131 89.1511 43.533 88.382 43.533C87.6128 43.533 86.9893 44.1131 86.9893 44.8288V54.762C86.9893 55.4777 87.6128 56.0578 88.382 56.0578C89.1511 56.0578 89.7746 55.4777 89.7746 54.762V44.8288Z" fill="#E5E7EB"/>
<path opacity="0.9" d="M90.0276 67.9234C90.0276 67.1166 89.3247 66.4626 88.4576 66.4626C87.5906 66.4626 86.8877 67.1166 86.8877 67.9234V86.8006C86.8877 87.6074 87.5906 88.2614 88.4576 88.2614C89.3247 88.2614 90.0276 87.6074 90.0276 86.8006V67.9234Z" fill="#E5E7EB"/>
<path opacity="0.9" d="M88.4324 95.8904H88.4317C87.6068 95.8904 86.9381 96.5126 86.9381 97.2801V116.488C86.9381 117.255 87.6068 117.878 88.4317 117.878H88.4324C89.2573 117.878 89.9259 117.255 89.9259 116.488V97.2801C89.9259 96.5126 89.2573 95.8904 88.4324 95.8904Z" fill="#E5E7EB"/>
<path opacity="0.9" d="M224.732 2.14142H118.365C101.906 2.14142 88.5631 14.5563 88.5631 29.8709V288.27C88.5631 303.584 101.906 315.999 118.365 315.999H224.732C241.191 315.999 254.534 303.584 254.534 288.27V29.8709C254.534 14.5563 241.191 2.14142 224.732 2.14142Z" fill="white"/>
<path opacity="0.9" d="M176.369 11.5135H157.895C156.595 11.5135 155.542 12.4935 155.542 13.7023C155.542 14.911 156.595 15.891 157.895 15.891H176.369C177.668 15.891 178.721 14.911 178.721 13.7023C178.721 12.4935 177.668 11.5135 176.369 11.5135Z" fill="#E5E7EB"/>
<path opacity="0.9" d="M184.89 16.1868C186.364 16.1868 187.56 15.0746 187.56 13.7026C187.56 12.3306 186.364 11.2184 184.89 11.2184C183.415 11.2184 182.22 12.3306 182.22 13.7026C182.22 15.0746 183.415 16.1868 184.89 16.1868Z" fill="#E5E7EB"/>
</g>
<path d="M231.107 10.3187H212.107V12.4594C212.107 13.7856 211.826 15.0988 211.281 16.3241C210.736 17.5493 209.936 18.6626 208.928 19.6004C207.92 20.5382 206.724 21.2821 205.407 21.7896C204.09 22.2971 202.679 22.5583 201.254 22.5583H140.679C137.801 22.5583 135.04 21.4943 133.004 19.6004C130.969 17.7065 129.825 15.1378 129.825 12.4594V10.3187H111.996C108.501 10.3187 105.148 11.6107 102.676 13.9107C100.205 16.2106 98.816 19.3299 98.816 22.5825V295.562C98.816 298.815 100.205 301.934 102.676 304.234C105.148 306.534 108.501 307.826 111.996 307.826H231.107C234.602 307.826 237.955 306.534 240.427 304.234C242.898 301.934 244.287 298.815 244.287 295.562V22.5825C244.287 19.3299 242.898 16.2106 240.427 13.9107C237.955 11.6107 234.602 10.3187 231.107 10.3187V10.3187Z" fill="#ECECF3"/>
<path d="M40.1281 326.905C54.6686 326.905 66.456 325.05 66.456 322.763C66.456 320.475 54.6686 318.621 40.1281 318.621C25.5876 318.621 13.8002 320.475 13.8002 322.763C13.8002 325.05 25.5876 326.905 40.1281 326.905Z" fill="#6C63FF"/>
<path d="M51.0162 315.987C52.2144 315.073 53.0889 313.844 53.5255 312.461C53.8481 311.078 53.2121 309.381 51.7714 308.872C50.1601 308.298 48.4381 309.334 47.1356 310.384C45.8332 311.433 44.332 312.633 42.626 312.41C43.5083 311.667 44.1679 310.724 44.5401 309.673C44.9122 308.621 44.984 307.498 44.7486 306.413C44.6743 305.968 44.4705 305.55 44.1593 305.204C43.2665 304.313 41.6453 304.694 40.573 305.397C37.1709 307.624 36.2162 311.929 36.1994 315.806C35.8539 314.406 36.1443 312.949 36.1352 311.522C36.126 310.096 35.7071 308.498 34.4085 307.727C33.5971 307.324 32.6858 307.126 31.7662 307.154C30.2375 307.102 28.5437 307.244 27.4858 308.284C26.1865 309.569 26.5235 311.75 27.6517 313.176C28.7799 314.602 30.5012 315.493 32.0849 316.479C33.3528 317.182 34.4339 318.143 35.2478 319.289C35.345 319.446 35.4236 319.613 35.4824 319.786H45.0719C47.2277 318.774 49.2271 317.496 51.0162 315.987Z" fill="#6C63FF"/>
<g opacity="0.4">
<path opacity="0.4" d="M285.392 302.34C293.691 302.34 300.418 301.281 300.418 299.975C300.418 298.669 293.691 297.611 285.392 297.611C277.093 297.611 270.366 298.669 270.366 299.975C270.366 301.281 277.093 302.34 285.392 302.34Z" fill="#6C63FF"/>
<path opacity="0.4" d="M291.605 296.107C292.29 295.587 292.79 294.887 293.041 294.098C293.151 293.701 293.111 293.281 292.928 292.907C292.746 292.534 292.431 292.23 292.037 292.046C291.12 291.721 290.136 292.312 289.39 292.9C288.644 293.488 287.793 294.185 286.817 294.056C287.321 293.632 287.698 293.093 287.911 292.492C288.123 291.892 288.163 291.249 288.027 290.63C287.986 290.375 287.869 290.137 287.691 289.94C287.18 289.43 286.255 289.648 285.647 290.047C283.704 291.332 283.162 293.778 283.148 295.988C283.043 295.177 283.032 294.357 283.116 293.543C283.152 293.134 283.08 292.723 282.908 292.345C282.735 291.968 282.467 291.635 282.126 291.375C281.663 291.146 281.144 291.034 280.62 291.049C280.187 290.991 279.746 291.018 279.324 291.128C278.903 291.239 278.511 291.43 278.174 291.689C277.852 292.098 277.687 292.595 277.704 293.101C277.722 293.608 277.921 294.094 278.271 294.482C278.992 295.242 279.848 295.88 280.804 296.367C281.526 296.769 282.142 297.317 282.608 297.969C282.664 298.059 282.708 298.155 282.742 298.254H288.22C289.447 297.681 290.586 296.956 291.604 296.099L291.605 296.107Z" fill="#6C63FF"/>
</g>
<g opacity="0.4">
<path opacity="0.4" d="M55.2469 275.769C63.5456 275.769 70.2731 274.711 70.2731 273.405C70.2731 272.099 63.5456 271.04 55.2469 271.04C46.9481 271.04 40.2206 272.099 40.2206 273.405C40.2206 274.711 46.9481 275.769 55.2469 275.769Z" fill="#6C63FF"/>
<path opacity="0.4" d="M61.4617 269.536C62.1484 269.017 62.6479 268.314 62.8934 267.523C63.0038 267.126 62.9643 266.706 62.7816 266.334C62.5989 265.961 62.284 265.658 61.8898 265.475C60.9726 265.15 59.9889 265.741 59.2474 266.329C58.506 266.917 57.6423 267.614 56.6739 267.485C57.1767 267.06 57.5525 266.521 57.7647 265.92C57.9768 265.32 58.0182 264.678 57.8846 264.059C57.8411 263.804 57.725 263.564 57.5483 263.365C57.037 262.859 56.1121 263.08 55.4998 263.476C53.5569 264.761 53.0142 267.203 53.005 269.413C52.896 268.602 52.8837 267.781 52.9683 266.967C53.0076 266.562 52.9381 266.155 52.7662 265.781C52.5942 265.407 52.3251 265.079 51.9831 264.826C51.5199 264.594 50.9987 264.48 50.4727 264.496C50.0401 264.438 49.5992 264.466 49.1788 264.577C48.7584 264.689 48.368 264.881 48.033 265.143C47.7107 265.551 47.5451 266.048 47.5625 266.554C47.58 267.061 47.7796 267.547 48.1293 267.935C48.8501 268.693 49.705 269.331 50.657 269.82C51.381 270.22 51.9981 270.768 52.4616 271.422C52.5167 271.513 52.563 271.608 52.5999 271.707H58.0734C59.3025 271.128 60.4423 270.398 61.4617 269.536V269.536Z" fill="#6C63FF"/>
</g>
<path d="M133.494 32.983H109.975V54.8672H133.494V32.983Z" fill="#D6D8E0"/>
<path d="M200.128 34.5463H150.851V38.7139H200.128V34.5463Z" fill="#D6D8E0"/>
<path d="M232.045 41.8417H150.851V46.0093H232.045V41.8417Z" fill="#D6D8E0"/>
<path d="M232.045 49.1364H150.851V53.304H232.045V49.1364Z" fill="#D6D8E0"/>
<path d="M133.674 73.1022H110.154V94.9864H133.674V73.1022Z" fill="#D6D8E0"/>
<path d="M200.308 74.6661H151.031V78.8337H200.308V74.6661Z" fill="#D6D8E0"/>
<path d="M232.225 81.9609H151.031V86.1285H232.225V81.9609Z" fill="#D6D8E0"/>
<path d="M232.225 89.2513H151.031V93.4189H232.225V89.2513Z" fill="#D6D8E0"/>
<path d="M133.854 113.222H110.334V135.106H133.854V113.222Z" fill="#D6D8E0"/>
<path d="M200.491 114.781H151.214V118.949H200.491V114.781Z" fill="#D6D8E0"/>
<path d="M232.408 122.076H151.214V126.243H232.408V122.076Z" fill="#D6D8E0"/>
<path d="M232.408 129.371H151.214V133.538H232.408V129.371Z" fill="#D6D8E0"/>
<path d="M134.033 153.337H110.514V175.221H134.033V153.337Z" fill="#D6D8E0"/>
<path d="M200.671 154.9H151.394V159.068H200.671V154.9Z" fill="#D6D8E0"/>
<path d="M232.588 162.196H151.394V166.363H232.588V162.196Z" fill="#D6D8E0"/>
<path d="M232.588 169.49H151.394V173.658H232.588V169.49Z" fill="#D6D8E0"/>
<path d="M134.217 193.456H110.698V215.34H134.217V193.456Z" fill="#D6D8E0"/>
<path d="M200.851 195.02H151.573V199.188H200.851V195.02Z" fill="#D6D8E0"/>
<path d="M232.767 202.315H151.573V206.482H232.767V202.315Z" fill="#D6D8E0"/>
<path d="M232.767 209.61H151.573V213.777H232.767V209.61Z" fill="#D6D8E0"/>
<path d="M134.397 233.576H110.877V255.46H134.397V233.576Z" fill="#D6D8E0"/>
<path d="M201.03 235.139H151.753V239.307H201.03V235.139Z" fill="#D6D8E0"/>
<path d="M232.947 242.434H151.753V246.602H232.947V242.434Z" fill="#D6D8E0"/>
<path d="M232.947 249.729H151.753V253.896H232.947V249.729Z" fill="#D6D8E0"/>
<path d="M134.577 273.695H111.057V295.58H134.577V273.695Z" fill="#D6D8E0"/>
<path d="M201.21 275.259H151.933V279.426H201.21V275.259Z" fill="#D6D8E0"/>
<path d="M233.127 282.553H151.933V286.721H233.127V282.553Z" fill="#D6D8E0"/>
<path d="M233.127 289.849H151.933V294.016H233.127V289.849Z" fill="#D6D8E0"/>
<path d="M271.783 98.9705H71.318V145.34H271.783V98.9705Z" fill="url(#paint1_linear)"/>
<path d="M271.222 100.016H72.437V144.303H271.222V100.016Z" fill="white"/>
<path d="M134.314 111.217H110.795V133.101H134.314V111.217Z" fill="#6C63FF"/>
<g opacity="0.5">
<path opacity="0.5" d="M200.952 112.781H151.675V116.948H200.952V112.781Z" fill="#6C63FF"/>
<path opacity="0.5" d="M232.869 120.075H151.675V124.243H232.869V120.075Z" fill="#6C63FF"/>
<path opacity="0.5" d="M232.869 127.37H151.675V131.538H232.869V127.37Z" fill="#6C63FF"/>
</g>
<path d="M142.753 139.443C142.133 138.859 141.328 138.478 140.456 138.354C139.584 138.23 138.693 138.372 137.915 138.758C136.745 139.413 136.101 140.634 135.511 141.786C134.651 143.499 133.389 145.101 133.002 146.952C131.939 152.053 127.575 156.016 125.825 160.946C125.199 162.706 124.908 164.596 123.914 166.202C123.446 166.905 122.923 167.575 122.349 168.207C120.084 170.865 118.08 173.708 116.364 176.701C115.37 176.881 114.486 177.665 113.638 178.277C112.553 179.062 111.296 179.617 109.956 179.901C109.416 179.96 108.899 180.136 108.445 180.415C107.81 180.908 107.722 181.794 107.207 182.39C106.832 182.779 106.357 183.073 105.826 183.244C105.826 183.093 105.803 182.943 105.798 182.79C105.775 181.998 105.762 181.2 105.762 180.404C107.246 178.777 108.059 176.712 108.054 174.578C108.049 172.444 107.226 170.382 105.734 168.761C105.77 167.521 105.948 166.287 106.264 165.082C106.377 164.796 106.401 164.487 106.335 164.189C106.27 163.89 106.116 163.615 105.891 163.394C105.638 163.21 105.311 163.142 105.039 162.967C104.658 162.666 104.346 162.296 104.122 161.879C103.441 160.98 102.437 160.336 101.291 160.063C100.145 159.791 98.9322 159.908 97.8705 160.393C96.2089 161.206 95.2007 162.834 93.727 163.94C92.9719 164.509 92.102 164.929 91.3469 165.499C89.8349 166.726 88.7605 168.353 88.2665 170.163C87.7814 171.965 87.4996 173.808 87.4258 175.664C87.347 176.22 87.3703 176.785 87.4945 177.334C87.6433 177.794 87.8718 178.228 88.171 178.619C89.5741 180.744 91.546 182.493 93.8937 183.695C93.903 183.805 93.903 183.915 93.8937 184.025C93.8799 184.198 93.8458 184.369 93.792 184.535L93.5252 184.464C92.54 184.258 91.4768 184.284 90.5924 183.824C89.0821 183.036 88.6265 181.112 87.1812 180.23C87.0583 180.156 86.9289 180.092 86.7944 180.037C86.6924 177.601 86.1927 175.194 85.3124 172.897C84.7828 171.834 84.484 170.684 84.4333 169.513C84.5846 168.435 84.9617 167.394 85.5432 166.451C87.1956 163.031 88.5803 159.505 89.6867 155.9C90.451 153.653 91.2184 151.404 91.9889 149.154C92.7386 148.636 93.4174 148.035 94.0098 147.363C95.2384 146.032 96.0492 144.413 96.3533 142.681C96.4994 141.817 96.4604 140.935 96.2384 140.085C96.0165 139.235 95.616 138.434 95.06 137.729C94.8145 137.392 94.4945 137.108 94.1213 136.895C93.7482 136.682 93.3305 136.546 92.8962 136.495C92.5147 136.503 92.1388 136.582 91.7914 136.729C91.444 136.875 91.1323 137.086 90.8753 137.349C90.112 138.159 89.5241 139.098 89.144 140.116C88.3888 141.774 87.6245 143.496 87.6986 145.295C87.7582 146.788 88.3567 148.452 87.4227 149.664C84.3615 153.634 82.0501 158.198 79.6264 162.544C79.0131 163.581 78.4867 164.661 78.0518 165.774C77.4653 167.578 77.1873 169.458 77.2279 171.342C77.2964 174.879 77.6348 178.406 78.2406 181.897C78.3891 183.5 78.8428 185.065 79.5805 186.52C79.0528 188.213 78.7756 189.966 78.7566 191.729C78.7352 192.136 78.8042 192.542 78.9591 192.924C79.2301 193.367 79.5732 193.769 79.9765 194.114C80.5161 194.685 80.9186 195.356 81.1568 196.083C81.395 196.81 81.4635 197.576 81.3576 198.329C81.2226 199.749 81.3613 201.179 81.7673 202.553C82.6845 206.357 83.6086 210.157 84.3455 213.99C84.5204 214.703 84.5794 215.437 84.5205 216.166C84.3776 217.203 83.7607 218.188 83.8945 219.229C84.0263 219.711 84.1246 220.2 84.1888 220.694C84.1589 221.07 84.0658 221.44 83.9128 221.79C82.8634 224.63 80.0414 231.141 80.0735 234.148L80.8104 233.985C80.0689 237.887 78.3339 241.618 77.422 245.507C76.7899 248.34 76.5027 251.231 76.5659 254.125C76.6257 255.424 76.6002 256.726 76.4895 258.023C76.3466 259.175 76.0309 260.299 75.8543 261.449C75.6563 262.988 75.5825 264.539 75.6334 266.088C75.5849 268.523 75.7383 270.958 76.092 273.37C76.7968 277.482 75.5624 281.569 75.2268 285.72C75.0566 288.624 74.7031 291.516 74.1682 294.381C73.9152 295.59 73.5972 296.789 73.4222 298.008C72.9063 301.635 73.6568 305.367 72.8466 308.944C72.4645 310.619 71.7834 312.5 72.787 313.931C73.105 314.38 73.5605 314.731 73.906 315.164C74.0955 315.369 74.2248 315.616 74.2813 315.881C74.3378 316.146 74.3197 316.42 74.2286 316.676C74.0306 317.07 73.5705 317.328 73.4551 317.747C73.2709 318.407 74.0123 318.947 74.678 319.23L74.8668 319.301C74.8236 319.526 74.8333 319.758 74.8953 319.98C74.9573 320.202 75.0701 320.408 75.2261 320.586C75.62 320.932 76.1092 321.169 76.6393 321.271L85.3307 323.722C87.2691 324.27 89.3771 324.81 91.3155 324.362C91.3592 324.618 91.4788 324.859 91.661 325.056C92.0549 325.401 92.5441 325.639 93.0743 325.741L101.701 328.174C103.918 328.799 106.356 329.417 108.487 328.568C109.098 328.334 109.634 327.958 110.044 327.476C110.382 327.013 110.607 326.486 110.703 325.933C110.798 325.38 110.762 324.814 110.596 324.276C110.487 323.727 110.193 323.226 109.755 322.845C109.165 322.463 108.467 322.25 107.748 322.232C107.135 322.216 106.534 322.07 105.99 321.806C105.826 321.706 105.689 321.573 105.59 321.416C106.087 320.959 106.569 320.485 107.035 319.993C106.657 319.873 106.524 319.368 106.487 318.998C105.939 313.541 108.149 308.208 108.987 302.783C109.41 300.062 109.485 297.304 109.208 294.567C109.106 293.534 108.955 292.504 108.908 291.47C108.692 286.072 111.464 280.881 111.367 275.479C111.321 272.951 112.748 270.459 113.443 268.012C113.954 265.817 114.168 263.571 114.082 261.326L114.193 243.652C114.193 241.262 114.193 238.816 113.374 236.559C112.96 235.303 112.847 233.979 113.042 232.678C115.386 231.714 117.604 230.288 120.108 230.537C120.776 228.887 119.984 223.392 119.358 221.726C116.896 215.17 116.419 208.11 117.977 201.319C118.543 198.881 117.765 196.29 118.396 193.861C118.512 193.291 118.745 192.747 119.083 192.259C119.254 192.015 119.489 191.817 119.765 191.681C120.041 191.545 120.35 191.477 120.663 191.483C120.663 189.997 120.63 188.485 120.524 186.977C121.541 186.205 122.408 185.276 123.089 184.231C124.47 182.09 125.257 179.68 126.21 177.348C127.899 173.236 130.206 169.376 132.145 165.354C134.083 161.332 134.272 156.933 135.827 152.766C136.684 150.473 138.456 148.574 140.776 147.463C141.724 147.141 142.596 146.652 143.345 146.024C143.85 145.438 144.161 144.728 144.238 143.981C144.381 143.166 144.322 142.332 144.066 141.542C143.809 140.751 143.361 140.027 142.756 139.423L142.753 139.443ZM88.8903 316.411C89.0791 316.218 89.2632 316.026 89.4383 315.816C88.8581 315.731 88.1496 315.336 88.1389 314.788C88.1804 314.238 88.3076 313.697 88.5165 313.181C88.7889 312.251 88.8331 311.276 88.6457 310.328C88.5165 309.664 88.2773 309.043 88.1297 308.366C87.9893 307.632 87.8972 306.891 87.8538 306.147C87.6056 303.477 87.0438 300.84 86.1784 298.283C85.3452 295.803 86.4841 293.292 86.7814 290.709C86.7979 289.48 86.9776 288.257 87.3165 287.068C87.5878 286.382 88.035 285.783 88.3063 285.089C88.9369 283.499 88.5639 281.73 88.1771 280.073C90.9028 275.476 91.8047 269.994 92.8312 264.819C93.408 261.915 93.9851 259.012 94.5625 256.11C94.7104 254.802 95.1832 253.544 95.9436 252.435C96.8402 256.28 97.193 260.217 96.9931 264.146C96.887 265.287 96.9024 266.435 97.0389 267.573C97.2507 268.819 97.8079 269.997 98.1296 271.223C98.8481 273.925 98.4285 276.766 98.5883 279.544C98.6479 280.666 98.8046 281.788 98.855 282.91C99.0843 287.875 97.2942 292.703 95.5309 297.393C94.4493 300.267 94.2093 303.536 93.6896 306.547C93.2019 309.429 92.7181 312.317 92.4666 315.223C92.3902 316.11 92.3329 317.023 92.2182 317.922C91.9222 317.861 91.6226 317.816 91.3209 317.789C90.7077 317.772 90.1067 317.626 89.5629 317.362C89.2399 317.116 89.0052 316.784 88.8903 316.411V316.411Z" fill="url(#paint2_linear)"/>
<path d="M107.756 322.288C108.474 322.307 109.171 322.518 109.763 322.896C110.199 323.274 110.494 323.773 110.604 324.318C110.769 324.854 110.805 325.417 110.71 325.967C110.614 326.517 110.389 327.041 110.051 327.501C109.641 327.979 109.105 328.351 108.495 328.58C106.363 329.434 103.928 328.816 101.709 328.195L93.0177 325.758C92.4879 325.657 91.9986 325.421 91.6044 325.076C91.3657 324.777 91.2337 324.416 91.2271 324.043C91.2205 323.67 91.3397 323.305 91.5677 322.999C92.0351 322.395 92.6721 321.922 93.4091 321.633C96.1164 320.407 99.1638 320.125 102.156 320.074C103.261 320.053 104.348 319.83 105.098 320.622C105.494 321.049 105.425 321.505 106.015 321.869C106.554 322.13 107.149 322.273 107.756 322.288V322.288Z" fill="#3F3D56"/>
<path d="M91.3346 317.837C92.0526 317.852 92.7503 318.062 93.3418 318.441C93.7755 318.821 94.0696 319.319 94.1826 319.863C94.3482 320.399 94.3845 320.962 94.289 321.512C94.1934 322.062 93.9684 322.586 93.63 323.046C93.22 323.526 92.684 323.899 92.0737 324.13C89.942 324.983 87.5068 324.361 85.2879 323.74L76.5965 321.303C76.066 321.204 75.5763 320.968 75.1832 320.621C74.9445 320.322 74.8125 319.961 74.8059 319.588C74.7993 319.216 74.9185 318.85 75.1466 318.544C75.613 317.939 76.2503 317.466 76.9879 317.178C79.6952 315.953 82.738 315.67 85.7121 315.619C86.8128 315.619 87.9035 315.375 88.6541 316.167C89.05 316.594 88.9812 317.054 89.5713 317.414C90.1169 317.678 90.72 317.822 91.3346 317.837V317.837Z" fill="#3F3D56"/>
<path d="M98.8848 230.072C93.7642 229.593 88.6132 229.459 83.4718 229.67C83.1326 229.665 82.7949 229.713 82.4728 229.812C81.3401 230.239 81.165 231.62 81.055 232.751C80.6223 237.321 78.4562 241.583 77.3724 246.068C76.7395 248.885 76.4524 251.759 76.5163 254.635C76.5755 255.921 76.5499 257.208 76.4399 258.491C76.2969 259.639 75.9813 260.757 75.8047 261.917C75.6067 263.446 75.5328 264.987 75.5838 266.527C75.5357 268.943 75.689 271.359 76.0424 273.753C76.7471 277.84 75.5127 281.892 75.1772 286.021C75.0067 288.906 74.6532 291.78 74.1185 294.627C73.8655 295.826 73.5476 297.017 73.3725 298.229C72.8566 301.831 73.6072 305.545 72.797 309.096C72.4148 310.758 71.7338 312.625 72.7374 314.048C73.0553 314.497 73.5109 314.844 73.8564 315.273C74.0452 315.477 74.1741 315.722 74.2307 315.985C74.2872 316.249 74.2694 316.522 74.1789 316.777C73.981 317.166 73.5208 317.423 73.4054 317.839C73.2212 318.495 73.9626 319.034 74.6284 319.313C77.1602 320.311 79.9712 320.518 82.6404 319.904C85.3096 319.29 87.6931 317.888 89.4337 315.908C88.8536 315.822 88.145 315.432 88.1343 314.888C88.1758 314.342 88.303 313.803 88.5119 313.29C88.7847 312.366 88.8289 311.397 88.6411 310.455C88.5119 309.8 88.2727 309.17 88.1252 308.506C87.9847 307.777 87.8925 307.041 87.8492 306.302C87.601 303.648 87.0391 301.028 86.1738 298.488C85.3406 296.025 86.4795 293.532 86.7768 290.962C86.7937 289.742 86.9734 288.527 87.3119 287.347C87.5832 286.666 88.0304 286.062 88.3017 285.381C88.9323 283.801 88.5593 282.048 88.1726 280.403C90.8982 275.832 91.8001 270.388 92.8266 265.248L94.5579 256.595C94.7055 255.295 95.1788 254.045 95.9398 252.946C96.8365 256.766 97.1893 260.679 96.9893 264.584C96.8848 265.709 96.9002 266.842 97.0351 267.964C97.2469 269.202 97.804 270.371 98.1258 271.591C98.8443 274.272 98.4247 277.096 98.5844 279.858C98.6441 280.972 98.8008 282.085 98.8512 283.2C99.0805 288.13 97.2904 292.928 95.5271 297.584C94.4455 300.441 94.2055 303.689 93.6858 306.678C93.1981 309.544 92.7143 312.41 92.4628 315.301C92.2335 317.957 92.1402 320.831 90.3639 322.917C91.9199 323.994 93.6848 324.78 95.5615 325.234C97.778 325.556 100.046 325.149 101.974 324.082C103.888 323.014 105.599 321.659 107.038 320.072C106.661 319.952 106.527 319.447 106.49 319.083C105.942 313.665 108.152 308.375 108.99 302.977C109.413 300.274 109.488 297.533 109.211 294.813C109.109 293.789 108.958 292.77 108.912 291.742C108.696 286.379 111.467 281.216 111.37 275.855C111.325 273.345 112.752 270.864 113.446 268.435C113.957 266.257 114.172 264.028 114.086 261.8L114.197 244.238C114.197 241.86 114.197 239.431 113.378 237.187C112.365 234.493 113.521 231.391 113.696 228.543C108.914 229.95 103.882 230.469 98.8848 230.072V230.072Z" fill="#3F3D56"/>
<path d="M115.301 179.616C117.236 175.934 119.6 172.461 122.349 169.259C122.923 168.632 123.446 167.968 123.915 167.271C124.905 165.677 125.199 163.797 125.826 162.049C127.575 157.149 131.94 153.213 133.003 148.145C133.39 146.307 134.651 144.718 135.512 143.004C136.102 141.856 136.746 140.648 137.915 140.006C138.694 139.62 139.585 139.479 140.457 139.602C141.328 139.726 142.134 140.108 142.754 140.691C143.356 141.288 143.803 142.007 144.059 142.79C144.316 143.574 144.374 144.402 144.231 145.21C144.156 145.954 143.845 146.661 143.338 147.241C142.587 147.865 141.715 148.352 140.769 148.676C138.452 149.771 136.679 151.656 135.82 153.939C134.282 158.076 134.089 162.455 132.138 166.442C130.186 170.43 127.893 174.265 126.203 178.346C125.25 180.663 124.481 183.058 123.082 185.2C121.682 187.342 119.482 189.136 116.839 189.458C116.843 187.91 116.582 186.372 116.066 184.901C115.509 183.202 114.464 181.193 115.301 179.616Z" fill="#A0616A"/>
<path d="M86.7952 182.812C86.9129 179.783 86.4067 176.762 85.3039 173.911C84.775 172.855 84.4762 171.712 84.4249 170.548C84.5763 169.476 84.9535 168.443 85.5348 167.507C87.1869 164.11 88.5717 160.605 89.6783 157.021L91.9797 150.322C92.7281 149.807 93.4067 149.21 94.0007 148.544C95.2269 147.223 96.0378 145.613 96.3441 143.892C96.4898 143.033 96.4506 142.155 96.2285 141.31C96.0065 140.465 95.6062 139.67 95.0509 138.97C94.8048 138.635 94.4843 138.352 94.1111 138.142C93.7379 137.931 93.3205 137.797 92.887 137.749C92.5053 137.755 92.1289 137.834 91.7812 137.98C91.4336 138.127 91.1221 138.339 90.8661 138.603C90.1031 139.406 89.5152 140.34 89.1348 141.353C88.3797 142.998 87.6153 144.711 87.6894 146.493C87.7491 147.975 88.3476 149.629 87.4135 150.832C84.3523 154.777 82.041 159.313 79.6172 163.627C79.0041 164.657 78.4776 165.729 78.0426 166.835C77.4554 168.631 77.1773 170.501 77.2187 172.378C77.2873 175.891 77.6257 179.395 78.2314 182.864C78.554 185.04 78.9866 187.415 80.7591 188.861C82.5082 186.63 84.5342 184.6 86.7952 182.812V182.812Z" fill="#A0616A"/>
<path d="M98.5126 184.487C103.788 184.487 108.065 180.508 108.065 175.599C108.065 170.69 103.788 166.71 98.5126 166.71C93.2367 166.71 88.9598 170.69 88.9598 175.599C88.9598 180.508 93.2367 184.487 98.5126 184.487Z" fill="#A0616A"/>
<path d="M93.8715 184.958C93.5197 186.552 92.8193 188.061 91.8139 189.392C91.2658 190.245 90.5756 191.161 89.5117 191.255C92.2768 192.608 95.1828 193.696 98.1847 194.502C99.207 194.821 100.279 194.981 101.357 194.978C102.269 194.914 103.162 194.701 103.994 194.348C105.816 193.605 107.431 192.486 108.719 191.076C110.006 189.666 110.931 188.002 111.425 186.209C110.237 186.239 109.049 186.154 107.88 185.957C107.212 185.91 106.589 185.626 106.139 185.164C105.874 184.728 105.749 184.23 105.78 183.729C105.734 182.247 105.734 180.765 105.78 179.283C103.433 179.142 101.078 179.411 98.8374 180.075C97.9202 180.353 96.9961 180.692 96.0522 180.91C95.472 181.043 93.8745 180.91 93.4465 181.223C92.7983 181.696 94.0419 183.866 93.8715 184.958Z" fill="#A0616A"/>
<path d="M98.0838 190.36C97.9776 189.192 97.4795 188.084 96.66 187.194C95.8404 186.304 94.7409 185.676 93.5168 185.399C92.5316 185.198 91.4684 185.219 90.584 184.765C89.0737 183.983 88.6181 182.071 87.1728 181.193C85.7274 180.315 83.6644 180.803 82.4033 181.917C81.2245 183.114 80.3927 184.571 79.9864 186.149C79.2144 188.24 78.7967 190.429 78.7481 192.639C78.7268 193.045 78.7958 193.45 78.9507 193.83C79.223 194.271 79.566 194.671 79.968 195.016C80.5069 195.58 80.9091 196.245 81.1474 196.966C81.3857 197.688 81.4546 198.448 81.3492 199.196C81.2142 200.609 81.353 202.032 81.7589 203.399C82.6761 207.172 83.6002 210.951 84.337 214.759C84.5096 215.46 84.5686 216.182 84.5121 216.9C84.3692 217.928 83.7523 218.909 83.8861 219.937C84.0179 220.417 84.1161 220.905 84.1803 221.398C84.1504 221.77 84.0572 222.136 83.9044 222.482C82.855 225.309 80.033 231.777 80.0651 234.762C84.9676 233.593 92.196 233.332 97.2552 233.314C98.6495 233.297 100.044 233.354 101.431 233.486C104.76 233.816 108.166 234.72 111.393 233.884C114.386 233.109 117.042 230.886 120.14 231.168C120.808 229.527 120.016 224.066 119.39 222.413C116.929 215.902 116.451 208.886 118.009 202.139C118.575 199.714 117.797 197.144 118.428 194.732C118.543 194.164 118.777 193.623 119.116 193.138C119.287 192.896 119.522 192.698 119.798 192.563C120.074 192.428 120.383 192.361 120.695 192.367C120.752 188.495 120.366 184.628 119.544 180.832C119.238 179.481 118.595 177.889 117.136 177.658C115.819 177.452 114.71 178.484 113.656 179.247C112.568 180.025 111.311 180.575 109.973 180.858C109.434 180.916 108.916 181.09 108.463 181.368C107.828 181.857 107.74 182.739 107.225 183.335C106.307 184.401 104.244 184.307 103.592 185.539C103.445 185.906 103.328 186.283 103.242 186.666C102.934 187.394 102.408 188.026 101.727 188.486C100.697 189.381 99.4457 190.024 98.0838 190.36V190.36Z" fill="#6C63FF"/>
<path d="M106.274 166.149C106.386 165.865 106.411 165.557 106.345 165.26C106.279 164.963 106.125 164.69 105.901 164.47C105.648 164.286 105.321 164.218 105.049 164.043C104.668 163.744 104.356 163.375 104.132 162.96C103.443 162.064 102.435 161.425 101.288 161.156C100.14 160.887 98.927 161.005 97.8644 161.49C96.2027 162.3 95.1946 163.919 93.7209 165.016C92.9658 165.585 92.0959 166.001 91.3407 166.562C89.8317 167.779 88.7574 169.396 88.2612 171.197C87.7785 172.988 87.4992 174.821 87.4281 176.666C87.3493 177.22 87.3726 177.782 87.4969 178.328C87.6472 178.781 87.8756 179.208 88.1733 179.592C89.6378 181.802 91.7231 183.597 94.204 184.784C95.4489 185.361 96.8163 185.672 98.2068 185.695C99.5972 185.718 100.976 185.452 102.242 184.917C102.49 184.82 102.704 184.66 102.859 184.455C103 184.142 103.033 183.796 102.95 183.465C102.82 182.157 103.099 180.842 103.756 179.679C104.215 178.826 104.903 178.085 105.276 177.195C105.614 176.202 105.76 175.16 105.708 174.12C105.744 171.431 105.546 168.745 106.274 166.149Z" fill="#2D293D"/>
<path d="M134.217 111.478H110.698V133.362H134.217V111.478Z" fill="#6C63FF"/>
<path d="M125.637 130.121C125.296 130.732 124.731 131.209 124.044 131.466C123.638 131.604 123.21 131.679 122.778 131.688C122.311 131.72 121.842 131.666 121.397 131.53C120.805 131.313 120.296 130.935 119.938 130.446C119.584 129.957 119.299 129.427 119.091 128.87C118.951 128.592 118.892 128.285 118.921 127.979C119.283 127.937 119.613 127.762 119.838 127.494C119.904 127.361 119.939 127.217 119.943 127.07C119.947 126.923 119.919 126.777 119.861 126.641C119.833 126.556 119.806 126.474 119.774 126.397C119.705 126.209 119.468 125.853 119.631 125.694C119.793 125.536 120.183 125.54 120.335 125.476C120.786 125.226 121.266 125.026 121.767 124.881C122.221 124.824 122.683 124.852 123.125 124.962C123.186 124.971 123.244 124.991 123.296 125.022C123.354 125.066 123.397 125.126 123.42 125.193C123.549 125.485 123.623 125.805 123.726 126.105C123.815 126.42 123.989 126.708 124.233 126.94C124.443 127.106 124.681 127.24 124.938 127.334L125.554 127.595C125.663 127.635 125.761 127.695 125.845 127.771C125.924 127.875 125.972 127.996 125.983 128.122C126.097 128.806 125.975 129.505 125.637 130.121V130.121Z" fill="#A0616A"/>
<path opacity="0.1" d="M123.721 126.115C123.232 126.589 122.587 126.898 121.888 126.995C121.19 127.092 120.476 126.971 119.859 126.651C119.832 126.566 119.804 126.484 119.772 126.407C119.703 126.218 119.466 125.863 119.629 125.704C119.792 125.546 120.182 125.55 120.334 125.486C120.784 125.236 121.265 125.036 121.765 124.891C122.22 124.834 122.681 124.862 123.124 124.972C123.184 124.981 123.242 125.001 123.294 125.031C123.352 125.076 123.396 125.136 123.419 125.203C123.546 125.507 123.62 125.816 123.721 126.115Z" fill="black"/>
<path d="M121.42 126.899C123.185 126.899 124.615 125.568 124.615 123.926C124.615 122.285 123.185 120.954 121.42 120.954C119.655 120.954 118.225 122.285 118.225 123.926C118.225 125.568 119.655 126.899 121.42 126.899Z" fill="#A0616A"/>
<path d="M131.11 133.359H116.075C115.616 132.404 115.201 131.444 114.735 130.489C114.785 130.263 114.877 130.046 115.006 129.849C115.073 129.753 115.164 129.673 115.272 129.617C115.379 129.561 115.5 129.53 115.623 129.528C115.757 129.528 115.908 129.575 116.005 129.485C116.102 129.395 116.07 129.322 116.139 129.262C116.251 129.208 116.379 129.19 116.503 129.211C116.641 129.215 116.778 129.187 116.902 129.13C117.026 129.072 117.132 128.987 117.212 128.881C117.261 128.801 117.321 128.728 117.391 128.663C117.512 128.607 117.643 128.574 117.777 128.565C118.15 128.488 118.371 128.138 118.652 127.918C118.719 127.847 118.807 127.796 118.905 127.771C119.003 127.746 119.107 127.747 119.204 127.776C119.249 127.798 119.289 127.828 119.32 127.866C119.395 127.974 119.447 128.094 119.472 128.221C119.639 128.933 120.063 129.569 120.674 130.025C120.999 130.253 121.374 130.411 121.772 130.487C122.171 130.562 122.583 130.554 122.977 130.463C123.372 130.371 123.74 130.198 124.053 129.957C124.367 129.716 124.619 129.413 124.79 129.07C125.013 128.552 125.14 128.003 125.168 127.446V127.375C125.355 127.332 125.55 127.327 125.739 127.362C125.929 127.397 126.107 127.47 126.263 127.576C126.568 127.794 126.895 127.984 127.239 128.145C127.649 128.295 128.156 128.295 128.44 128.572C128.56 128.684 128.643 128.837 128.795 128.906C128.889 128.94 128.989 128.962 129.089 128.97C129.347 129.035 129.584 129.153 129.785 129.317C129.985 129.48 130.143 129.684 130.245 129.912C130.578 130.6 130.796 131.331 130.889 132.08L131.11 133.359Z" fill="#F86D70"/>
<path d="M119.215 119.104C118.992 119.271 118.804 119.474 118.658 119.703C118.383 120.124 118 120.474 117.543 120.722C117.352 120.785 117.177 120.886 117.033 121.018C116.961 121.119 116.916 121.233 116.899 121.353C116.805 121.768 116.758 122.192 116.756 122.616C116.739 122.83 116.777 123.044 116.867 123.241C116.959 123.421 117.134 123.576 117.166 123.773C117.173 123.929 117.155 124.085 117.111 124.236C117.09 124.315 117.095 124.397 117.126 124.474C117.156 124.55 117.21 124.616 117.282 124.662C117.365 124.69 117.452 124.709 117.539 124.718C117.998 124.812 118.156 125.317 118.227 125.733C118.38 125.733 118.457 125.557 118.49 125.42L118.948 123.428C119.003 123.215 119.086 122.961 119.321 122.889C119.482 122.857 119.648 122.857 119.809 122.889C120.444 122.94 120.978 122.482 121.6 122.353C121.8 122.318 122.004 122.307 122.207 122.319C122.695 122.319 123.266 122.532 123.372 122.953C123.37 122.989 123.377 123.026 123.394 123.059C123.411 123.092 123.436 123.12 123.468 123.141C123.539 123.16 123.614 123.16 123.685 123.141C123.991 123.111 124.177 123.437 124.27 123.702L124.592 124.675C124.643 124.817 124.726 124.996 124.898 125.013C124.976 125.013 125.051 124.986 125.109 124.938C125.168 124.89 125.206 124.824 125.216 124.752C125.223 124.607 125.201 124.463 125.152 124.325C125.082 123.677 125.16 123.023 125.381 122.405C125.488 122.093 125.515 121.762 125.461 121.439C125.406 121.116 125.272 120.808 125.067 120.542C124.892 120.366 124.662 120.233 124.501 120.044C124.34 119.855 124.266 119.654 124.11 119.475C123.484 118.965 122.704 118.647 121.877 118.567C120.954 118.491 120.028 118.678 119.221 119.102L119.215 119.104Z" fill="#3F3D56"/>
<g opacity="0.1">
<path opacity="0.1" d="M124.914 124.552C124.743 124.552 124.661 124.359 124.608 124.214L124.286 123.241C124.194 122.976 124.01 122.65 123.701 122.673C123.63 122.692 123.555 122.692 123.485 122.673C123.416 122.638 123.408 122.557 123.388 122.484C123.283 122.057 122.712 121.872 122.223 121.85C122.02 121.837 121.815 121.85 121.616 121.889C120.994 122.013 120.46 122.471 119.825 122.42C119.664 122.392 119.498 122.392 119.337 122.42C119.103 122.497 119.019 122.746 118.964 122.964C118.803 123.628 118.646 124.292 118.506 124.952C118.469 125.089 118.399 125.256 118.243 125.265C118.175 124.838 118.014 124.344 117.555 124.25C117.467 124.243 117.381 124.224 117.298 124.194C117.236 124.164 117.189 124.113 117.164 124.052C117.156 124.114 117.144 124.176 117.127 124.236C117.106 124.315 117.111 124.398 117.142 124.474C117.172 124.551 117.227 124.616 117.298 124.663C117.381 124.691 117.468 124.709 117.555 124.719C118.014 124.813 118.172 125.318 118.243 125.734C118.396 125.734 118.473 125.558 118.506 125.421C118.667 124.756 118.824 124.093 118.964 123.429C119.019 123.216 119.103 122.962 119.337 122.889C119.498 122.857 119.664 122.857 119.825 122.889C120.46 122.941 120.994 122.483 121.616 122.354C121.817 122.319 122.023 122.307 122.227 122.32C122.715 122.32 123.286 122.533 123.392 122.953C123.39 122.99 123.397 123.026 123.414 123.06C123.431 123.093 123.457 123.121 123.489 123.142C123.56 123.161 123.635 123.161 123.705 123.142C124.011 123.112 124.198 123.438 124.29 123.703L124.613 124.675C124.663 124.818 124.746 124.997 124.918 125.014C124.996 125.013 125.072 124.987 125.13 124.939C125.188 124.891 125.226 124.825 125.236 124.753C125.246 124.637 125.231 124.52 125.191 124.41C125.165 124.456 125.125 124.495 125.075 124.52C125.026 124.545 124.97 124.557 124.914 124.552Z" fill="black"/>
<path opacity="0.1" d="M117.166 123.318C117.134 123.121 116.959 122.967 116.867 122.787C116.806 122.666 116.771 122.535 116.761 122.402V122.615C116.745 122.829 116.783 123.043 116.872 123.24C116.949 123.382 117.075 123.514 117.139 123.667C117.171 123.553 117.18 123.435 117.166 123.318V123.318Z" fill="black"/>
<path opacity="0.1" d="M125.393 121.944C125.21 122.498 125.122 123.077 125.131 123.657C125.191 123.235 125.278 122.817 125.393 122.406C125.469 122.091 125.495 121.768 125.47 121.446C125.456 121.613 125.43 121.78 125.393 121.944V121.944Z" fill="black"/>
</g>
<path d="M117.277 133.359H113.69C113.848 132.46 114.131 131.585 114.531 130.754C114.563 130.669 114.615 130.591 114.684 130.528C114.699 130.513 114.716 130.5 114.734 130.489C114.841 130.412 114.987 130.382 115.103 130.309C115.218 130.237 115.232 130.159 115.337 130.129C115.736 130.121 116.133 130.182 116.507 130.309C116.612 130.32 116.715 130.344 116.813 130.38C117.046 130.501 117.22 130.7 117.3 130.937C117.495 131.735 117.487 132.564 117.277 133.359V133.359Z" fill="#F86D70"/>
<defs>
<linearGradient id="paint0_linear" x1="171.743" y1="317.794" x2="171.743" y2="-0.000671387" gradientUnits="userSpaceOnUse">
<stop stop-color="#808080" stop-opacity="0.251"/>
<stop offset="0.54" stop-color="#808080" stop-opacity="0.122"/>
<stop offset="1" stop-color="#808080" stop-opacity="0.102"/>
</linearGradient>
<linearGradient id="paint1_linear" x1="171.551" y1="145.34" x2="171.551" y2="98.9705" gradientUnits="userSpaceOnUse">
<stop stop-color="#808080" stop-opacity="0.251"/>
<stop offset="0.54" stop-color="#808080" stop-opacity="0.122"/>
<stop offset="1" stop-color="#808080" stop-opacity="0.102"/>
</linearGradient>
<linearGradient id="paint2_linear" x1="72.1917" y1="232.739" x2="144.314" y2="232.739" gradientUnits="userSpaceOnUse">
<stop stop-color="#808080" stop-opacity="0.251"/>
<stop offset="0.54" stop-color="#808080" stop-opacity="0.122"/>
<stop offset="1" stop-color="#808080" stop-opacity="0.102"/>
</linearGradient>
</defs>
</svg>
