<svg xmlns="http://www.w3.org/2000/svg" xmlns:xlink="http://www.w3.org/1999/xlink" width="532.94" height="374.424" viewBox="0 0 532.94 374.424">
  <defs>
    <linearGradient id="linear-gradient" x1="31.936" y1="1" x2="31.936" gradientUnits="objectBoundingBox">
      <stop offset="0" stop-color="gray" stop-opacity="0.251"/>
      <stop offset="0.54" stop-color="gray" stop-opacity="0.122"/>
      <stop offset="1" stop-color="gray" stop-opacity="0.102"/>
    </linearGradient>
  </defs>
  <g id="Group_122" data-name="Group 122" transform="translate(-0.005 0.002)">
    <path id="Path_742" data-name="Path 742" d="M389.286,116.778c-22.868,16.01-52.529,14.977-78.522,6.645s-49.869-23.164-75.194-33.706A244.356,244.356,0,0,0,169.5,72.5c-32.277-3.693-68.321.806-90.808,26.7-25.043,28.821-23.12,80.816,3.956,107.293,13.78,13.459,31.822,20.064,47.555,30.571s30.309,27.946,28.969,48.218c-1.241,18.789-15.664,33.187-30.591,42.23-11.535,6.986-25.74,14.616-27.13,29.088-1.345,14,10.6,24.974,22.007,31.214a125,125,0,0,0,120.148-.494c13.221-7.392,25.365-17.2,39.234-22.927,36.415-15.09,76.544.1,115.105,5.656a230.1,230.1,0,0,0,97.9-7.125c19.1-5.642,38.265-14.265,51.679-30.329,9.676-11.585,15.7-26.24,21.36-40.722q9.048-23.155,17.4-46.64c3.337-9.394,6.625-18.977,7.491-29.033,1.562-18.22-5.024-36.232-13.993-51.609-21.3-36.539-57.162-62.21-96-68.732s-79.936,6.215-110.062,34.087" transform="translate(-61.06 -71.37)" fill="#6c63ff" opacity="0.1"/>
    <g id="Group_112" data-name="Group 112" transform="translate(265.437 50.517)" opacity="0.1">
      <path id="Path_743" data-name="Path 743" d="M599.784,174.149,597.9,283.42s68.193,0,126.215,18.838l1.127-110.388S632.184,169.625,599.784,174.149Z" transform="translate(-597.9 -173.542)"/>
    </g>
    <path id="Path_744" data-name="Path 744" d="M596.784,170.149,594.9,279.42s68.193,0,126.215,18.838l1.127-110.388S629.184,165.625,596.784,170.149Z" transform="translate(-330.946 -121.003)" fill="#f7f7fd"/>
    <g id="Group_113" data-name="Group 113" transform="translate(107.627 53.652)" opacity="0.1">
      <path id="Path_745" data-name="Path 745" d="M404.189,180.485l1.884,109.271s-68.193,0-126.21,18.838L278.73,198.206S371.788,175.986,404.189,180.485Z" transform="translate(-278.73 -179.884)"/>
    </g>
    <path id="Path_746" data-name="Path 746" d="M407.189,175.485l1.884,109.271s-68.193,0-126.21,18.838L281.73,193.206S374.788,170.986,407.189,175.485Z" transform="translate(-172.619 -123.703)" fill="#f7f7fd"/>
    <g id="Group_114" data-name="Group 114" transform="translate(136.656 64.206)" opacity="0.2">
      <path id="Path_747" data-name="Path 747" d="M404.723,201.55l1.014,58.6s-36.588,0-67.689,10.1l-.608-59.2S387.349,199.137,404.723,201.55Z" transform="translate(-337.44 -201.227)" fill="#6c63ff"/>
    </g>
    <g id="Group_115" data-name="Group 115" transform="translate(432.972 91.317)" opacity="0.1">
      <path id="Path_748" data-name="Path 748" d="M936.74,256.06V364.189s22.25-2.64,68.949,55.006l4.143-108.129S961.23,258.7,936.74,256.06Z" transform="translate(-936.74 -256.06)"/>
    </g>
    <path id="Path_749" data-name="Path 749" d="M934.74,253.06V361.189s22.25-2.64,68.949,55.006l4.143-108.129S959.23,255.7,934.74,253.06Z" transform="translate(-502.756 -163.226)" fill="#f7f7fd"/>
    <g id="Group_116" data-name="Group 116" transform="translate(0.255 91.811)" opacity="0.1">
      <path id="Path_750" data-name="Path 750" d="M134.658,257.06V365.189s-22.23-2.64-68.92,55.006L61.57,312.066S110.168,259.7,134.658,257.06Z" transform="translate(-61.57 -257.06)"/>
    </g>
    <path id="Path_751" data-name="Path 751" d="M137.658,253.06V361.189s-22.23-2.64-68.92,55.006L64.57,308.066S113.168,255.7,137.658,253.06Z" transform="translate(-62.832 -163.226)" fill="#f7f7fd"/>
    <g id="Group_117" data-name="Group 117" transform="translate(284.058 71.876)" opacity="0.2">
      <path id="Path_752" data-name="Path 752" d="M574.5,145.37l46.2,8.262v6.729l-46.2-8.87Z" transform="translate(-574.5 -145.37)" fill="#6c63ff"/>
    </g>
    <path id="Path_753" data-name="Path 753" d="M347.27,276.87l-46.19,8.262v6.729l46.19-8.87Z" transform="translate(-152.212 -139.976)" fill="#fff"/>
    <path id="Path_754" data-name="Path 754" d="M575.74,170.74l84.43,17.439v6.729l-84.43-18.047Z" transform="translate(-291.069 -86.321)" fill="#fff"/>
    <path id="Path_755" data-name="Path 755" d="M575.74,196.11l84.43,17.434v6.734l-84.43-18.052Z" transform="translate(-291.069 -99.147)" fill="#fff"/>
    <g id="Group_118" data-name="Group 118" transform="translate(451.672 124.751)" opacity="0.2">
      <path id="Path_756" data-name="Path 756" d="M913.5,252.31v5.938l18.111,14.714.85-5.093Z" transform="translate(-913.5 -252.31)" fill="#6c63ff"/>
    </g>
    <path id="Path_757" data-name="Path 757" d="M913.5,368.31v5.938l18.111,14.714.85-5.093Z" transform="translate(-461.828 -186.204)" fill="#fff"/>
    <path id="Path_758" data-name="Path 758" d="M913.787,272.91l-.287,5.943,34.24,32.252-.564-6.789Z" transform="translate(-461.828 -137.974)" fill="#fff"/>
    <path id="Path_759" data-name="Path 759" d="M913.5,295.23v5.656l34.24,32.826v-7.357Z" transform="translate(-461.828 -149.258)" fill="#fff"/>
    <g id="Group_119" data-name="Group 119" transform="translate(20.898 126.036)" opacity="0.2">
      <path id="Path_760" data-name="Path 760" d="M76.213,254.91l.282,5.943L42.26,293.105l.564-6.789Z" transform="translate(-42.26 -254.91)" fill="#6c63ff"/>
    </g>
    <g id="Group_120" data-name="Group 120" transform="translate(20.898 137.072)" opacity="0.2">
      <path id="Path_761" data-name="Path 761" d="M76.495,277.23v5.656L42.26,315.712v-7.357Z" transform="translate(-42.26 -277.23)" fill="#6c63ff"/>
    </g>
    <ellipse id="Ellipse_114" data-name="Ellipse 114" cx="28.183" cy="5.073" rx="28.183" ry="5.073" transform="translate(72.987 302.407)" fill="#6c63ff" opacity="0.1"/>
    <path id="Path_762" data-name="Path 762" d="M122.839,636.84s2.714,3.55-1.256,8.9-7.244,9.889-5.933,13.231c0,0,5.988-9.958,10.878-10.1S128.2,642.852,122.839,636.84Z" transform="translate(-88.507 -357.251)" fill="#6c63ff"/>
    <path id="Path_763" data-name="Path 763" d="M123.008,636.84a4.266,4.266,0,0,1,.554,1.112c4.756,5.587,7.293,10.8,2.719,10.937-4.257.119-9.394,7.738-10.591,9.661.04.143.089.292.143.435,0,0,5.988-9.958,10.878-10.1S128.372,642.852,123.008,636.84Z" transform="translate(-88.676 -357.251)" opacity="0.1"/>
    <path id="Path_764" data-name="Path 764" d="M140.058,645.179c0,1.251-.138,2.265-.311,2.265s-.316-1.014-.316-2.265.178-.663.351-.663S140.058,643.923,140.058,645.179Z" transform="translate(-100.678 -361.061)" fill="#ffd037"/>
    <path id="Path_765" data-name="Path 765" d="M142.015,648.126c-1.1.6-2.057.959-2.141.811s.742-.761,1.839-1.36.663-.163.747,0S143.113,647.533,142.015,648.126Z" transform="translate(-100.9 -362.525)" fill="#ffd037"/>
    <path id="Path_766" data-name="Path 766" d="M95.23,636.84s-2.7,3.54,1.251,8.915,7.244,9.889,5.933,13.231c0,0-5.988-9.958-10.878-10.1S89.87,642.852,95.23,636.84Z" transform="translate(-75.247 -357.251)" fill="#6c63ff"/>
    <path id="Path_767" data-name="Path 767" d="M95.223,636.84a4.45,4.45,0,0,0-.554,1.112c-4.756,5.587-7.293,10.8-2.719,10.937,4.262.119,9.394,7.738,10.591,9.661a3.725,3.725,0,0,1-.143.435s-5.988-9.958-10.878-10.1S89.863,642.852,95.223,636.84Z" transform="translate(-75.239 -357.251)" opacity="0.1"/>
    <path id="Path_768" data-name="Path 768" d="M91.26,645.179c0,1.251.138,2.265.311,2.265s.316-1.014.316-2.265-.178-.663-.351-.663S91.26,643.923,91.26,645.179Z" transform="translate(-76.325 -361.061)" fill="#ffd037"/>
    <path id="Path_769" data-name="Path 769" d="M87.076,648.126c1.1.6,2.052.959,2.136.811s-.742-.761-1.839-1.36-.663-.163-.747,0S85.978,647.533,87.076,648.126Z" transform="translate(-73.871 -362.525)" fill="#ffd037"/>
    <path id="Path_770" data-name="Path 770" d="M93,676.494s7.595-.232,9.889-1.864,11.679-3.575,12.247-.959,11.412,13,2.838,13.068S98.053,685.4,95.769,684.01,93,676.494,93,676.494Z" transform="translate(-77.205 -375.224)" fill="#a8a8a8"/>
    <path id="Path_771" data-name="Path 771" d="M118.132,690.015c-8.574.069-19.921-1.335-22.205-2.729-1.74-1.058-2.433-4.86-2.665-6.616H93.01s.494,6.126,2.764,7.516,13.632,2.8,22.205,2.729c2.472,0,3.333-.9,3.283-2.205C120.921,689.506,119.977,690,118.132,690.015Z" transform="translate(-77.21 -379.41)" opacity="0.2"/>
    <ellipse id="Ellipse_115" data-name="Ellipse 115" cx="46.477" cy="7.96" rx="46.477" ry="7.96" transform="translate(250.436 224.776)" fill="#6c63ff" opacity="0.1"/>
    <path id="Path_772" data-name="Path 772" d="M632.03,323.319a6.472,6.472,0,0,0-.494,1.518q-.044.2-.089.415c-.3,1.513-.494,3.417-.6,4.524-.049.554-.074.91-.074.91s-10.724-.717-8.865-2.517a3.956,3.956,0,0,0,.989-1.78c.054-.193.1-.386.138-.583a10.021,10.021,0,0,0,.173-1.36V324.1a14.026,14.026,0,0,0-.1-2.22s3.486,0,6.116.282C630.991,322.365,632.371,322.716,632.03,323.319Z" transform="translate(-344.491 -198.019)" fill="#d38884"/>
    <path id="Path_773" data-name="Path 773" d="M602.081,393.642c-3.654-.119-.959-7.728-.539-8.752s-.623-3.53-.623-3.53-1.236-7.248-1.236-7.723a19.361,19.361,0,0,0-.415-2.937,4.944,4.944,0,0,1,.494-2.878c.42-.658.356-3.293.356-3.293v-3.412l.816-1.078,2.082,1.978.578.544,1.019,3.817-.361,5.468-.193,5.325,1.261,7.367S605.76,393.766,602.081,393.642Z" transform="translate(-333.133 -217.311)" fill="#d38884"/>
    <path id="Path_774" data-name="Path 774" d="M543.095,291.558l-3.115-1.3v-.5l.811-1.078,2.087,1.968Z" transform="translate(-272.99 -145.946)" opacity="0.1"/>
    <path id="Path_775" data-name="Path 775" d="M602.721,350.11a14.371,14.371,0,0,0-.865,3.056,13.546,13.546,0,0,1-.816,2.932l3.461,1.439Z" transform="translate(-334.05 -212.291)" fill="#4c4981"/>
    <path id="Path_776" data-name="Path 776" d="M602.721,350.11a14.371,14.371,0,0,0-.865,3.056,13.546,13.546,0,0,1-.816,2.932l3.461,1.439Z" transform="translate(-334.05 -212.291)" opacity="0.05"/>
    <path id="Path_777" data-name="Path 777" d="M648.056,477.771l-.287.613s-.311,2.032-.311,2.082-.9,1.4-.9,1.4l-2.26.494-.959-.119a13.487,13.487,0,0,0-.257-1.661c-.035-.153-.069-.312-.114-.47a12.7,12.7,0,0,0-1.577-3.58s-1.676-4.133-2.274-4.672-2.878-5.993-2.635-7.308a38.356,38.356,0,0,0-.094-5.162c-.1-1.646-.208-3.031-.208-3.031L641.871,453l.663,1.043.4.618a2.833,2.833,0,0,1-.025.316v.074a10.553,10.553,0,0,1-.494,2.472s-.425,3.056,0,3.595,1.78,7.743,2.082,11.075v.3a6.687,6.687,0,0,0,2.022,3.9h0c.059.069.124.133.188.2A13.047,13.047,0,0,0,648.056,477.771Z" transform="translate(-351.816 -264.308)" fill="#d38884"/>
    <path id="Path_778" data-name="Path 778" d="M650.291,506.012l.959.119,2.26-.494s.9-1.36.9-1.4.311-2.082.311-2.082l.287-.613.035-.074a12,12,0,0,1-1.552-1.281h0c-.054-.049-.109-.1-.158-.153a2.944,2.944,0,0,1-1.4,2.863c-.836.43-1.523.761-2,.989Z" transform="translate(-358.767 -288.084)" opacity="0.1"/>
    <path id="Path_779" data-name="Path 779" d="M655.509,502.219l-.321.687s-.311,2.032-.311,2.082-.9,1.4-.9,1.4l-2.26.494-1.3-.153a8.6,8.6,0,0,0-.109-1.083c-.04-.272-.094-.574-.168-.9.494-.223,1.261-.588,2.245-1.1a2.8,2.8,0,0,0,1.4-2.863,13.653,13.653,0,0,0,1.182,1.048C655.2,502.006,655.4,502.14,655.509,502.219Z" transform="translate(-358.873 -288.469)" fill="#ceddf9"/>
    <path id="Path_780" data-name="Path 780" d="M655.681,503.291l-.321.687s-.311,2.032-.311,2.082-.9,1.4-.9,1.4l-2.26.494-1.3-.153a8.6,8.6,0,0,0-.109-1.083,4.5,4.5,0,0,1,.821.114s3.085.658,3.234-1.785c.089-1.384.376-1.928.6-2.141C655.375,503.078,655.568,503.212,655.681,503.291Z" transform="translate(-359.045 -289.541)" opacity="0.1"/>
    <path id="Path_781" data-name="Path 781" d="M654.731,501.594s-.766-.168-.92,2.269-3.234,1.785-3.234,1.785-1.513-.376-1.528.252a5.872,5.872,0,0,0,.405,1.691,5.267,5.267,0,0,0,.376,1.8c.287.346.1,1.632.1,1.632s.119.959,2.5,0a6.939,6.939,0,0,0,3.891-3.085c.059-.089-.208-.361,1.335-.915s5.933-4.1,5.617-5.839a1.483,1.483,0,0,0-1.048-1.246,1.8,1.8,0,0,0-1.38.188,10.926,10.926,0,0,1-1.29.593,6.335,6.335,0,0,1-1.839.44,7.076,7.076,0,0,0-1.429.272,2.967,2.967,0,0,1-1.562.163Z" transform="translate(-358.322 -288.008)" fill="#cc8294"/>
    <path id="Path_782" data-name="Path 782" d="M608.87,466.953a4.2,4.2,0,0,0-.87.989c-.87,1.33-1.394,3.189-1.978,3.99a7.893,7.893,0,0,0-.989,3.056,65.816,65.816,0,0,1-3.773,9.661,31.523,31.523,0,0,0-1.82,4.672,3.688,3.688,0,0,0-.544,2.591.52.52,0,0,0,.03.232.088.088,0,0,1,0,.094v.035l-1.038,1.765-3.3-.46-1.706-1.157a5.8,5.8,0,0,0,.371-.707,31.245,31.245,0,0,0,1.562-5.676,38.887,38.887,0,0,0,.85-5.122,38.8,38.8,0,0,1,.272-3.956s2.6-7.936,3.431-9.221a3.7,3.7,0,0,0,.623-1.706,1.434,1.434,0,0,0,0-.371l1.117-1.112S610.3,465.811,608.87,466.953Z" transform="translate(-329.925 -270.148)" fill="#d38884"/>
    <path id="Path_783" data-name="Path 783" d="M599,519.626v.391l-1.038,1.765-3.3-.46-1.706-1.157a5.815,5.815,0,0,0,.371-.707,6.734,6.734,0,0,1,2.729.435s2.052.391,2.917-.237A.053.053,0,0,1,599,519.626Z" transform="translate(-329.96 -297.881)" opacity="0.1"/>
    <path id="Path_784" data-name="Path 784" d="M596.978,524.711l-3.352.8-3.075-2.274.158-1.281a2.21,2.21,0,0,0,.564-.495,2.026,2.026,0,0,0,.445-.92c.178-.944,3.1.089,3.1.089s2.136.405,2.967-.272a5.213,5.213,0,0,0,.158,1.849,1.38,1.38,0,0,0,.495.737C599.292,523.535,596.978,524.711,596.978,524.711Z" transform="translate(-328.747 -298.255)" fill="#ceddf9"/>
    <path id="Path_785" data-name="Path 785" d="M596.978,526.058l-3.352.8-3.075-2.274.158-1.281a2.208,2.208,0,0,0,.564-.494h.672c.494.049,1.731,2.25,1.731,2.25,3.036.2,3.956-.791,4.267-1.523a1.38,1.38,0,0,0,.494.737C599.292,524.882,596.978,526.058,596.978,526.058Z" transform="translate(-328.747 -299.602)" opacity="0.1"/>
    <path id="Path_786" data-name="Path 786" d="M590.641,525.779s-1.216-2.2-1.73-2.245a11.642,11.642,0,0,0-1.305,0s-1.345,3.189-1.839,3.461-1.216,1.8-1.216,1.8,3.56,3.461,7,2.784a7.136,7.136,0,0,1,3.155.786c1.592.831,8.242.2,9.053-1.256.6-1.1.845-1.894.311-2.472a1.444,1.444,0,0,0-1.251-.425,4.708,4.708,0,0,1-4.361-1.928,39.55,39.55,0,0,0-3.283-2.784C594.928,523.5,595.378,526.1,590.641,525.779Z" transform="translate(-325.714 -299.951)" fill="#cc8294"/>
    <path id="Path_787" data-name="Path 787" d="M642.934,455.022l-.025.03A11.321,11.321,0,0,1,640.793,457a21.142,21.142,0,0,0-2.156.954s-.9,1.2-1.617,1.261a2.826,2.826,0,0,0-.633.168c-.1-1.646-.208-3.031-.208-3.031L641.871,453l.663,1.043c.148.42.316.811.371.935Z" transform="translate(-351.816 -264.308)" opacity="0.1"/>
    <path id="Path_788" data-name="Path 788" d="M606.993,409.137a6.137,6.137,0,0,0,0,6.719,22.381,22.381,0,0,0,4.554,5.75l7.545,15.634a12.331,12.331,0,0,1,2.7-1.137c.722-.059,1.617-1.256,1.617-1.256a20.935,20.935,0,0,1,2.156-.959c.494-.119,2.141-1.978,2.141-1.978s-.826-1.795-.643-2.274-.539-1.681-.539-1.681a9.883,9.883,0,0,1-.494-1.854,4.868,4.868,0,0,0-.781-1.617,5.12,5.12,0,0,1-.776-1.859,17.7,17.7,0,0,0-1.162-3.253l-.3-11.372Z" transform="translate(-336.563 -241.558)" fill="#ceddf9"/>
    <path id="Path_789" data-name="Path 789" d="M627.65,431.911a11.961,11.961,0,0,1-2.141,1.978,20.94,20.94,0,0,0-2.156.959s-.9,1.2-1.617,1.256a5.734,5.734,0,0,0-1.483.529c-.643.292-1.221.608-1.221.608l-7.55-15.634a16.349,16.349,0,0,1-1.834-1.879,25.942,25.942,0,0,1-2.719-3.871,6.482,6.482,0,0,1-.86-4.663,5.363,5.363,0,0,1,.86-2.052l5.37-.381L622.993,408l.089,3.367.2,8s.173.4.391.93a10.167,10.167,0,0,1,.747,2.3,5.079,5.079,0,0,0,.776,1.859,5.025,5.025,0,0,1,.781,1.617,10.034,10.034,0,0,0,.494,1.859s.722,1.2.544,1.671S627.65,431.911,627.65,431.911Z" transform="translate(-336.532 -241.558)" opacity="0.05"/>
    <path id="Path_790" data-name="Path 790" d="M616.12,466.923a4.194,4.194,0,0,0-.87.989c-3.258.237-7.046-1.483-8.03-1.938a1.439,1.439,0,0,0,0-.371l1.117-1.112S617.554,465.78,616.12,466.923Z" transform="translate(-337.175 -270.117)" opacity="0.1"/>
    <path id="Path_791" data-name="Path 791" d="M625.489,411.535s-.495,1.676-.658,2.393-.539,4.257-.539,4.257l-.208.989-3.422,16.316-.747,3.545c-1.315.722-4.608-1.2-4.608-1.2-3.837.425-8.569-2.032-8.569-2.032a12.4,12.4,0,0,0,.6-3.773,2.893,2.893,0,0,1,1.078-2.279c-.3-1.137.776-6.111.776-6.111s.242-1.854,1.142-2.334-.119-1.2-.361-1.622a1.835,1.835,0,0,1,.084-1.1,8.152,8.152,0,0,1,.277-.816c-2.284-2.284-2.635-5.854-2.64-7.837a12.646,12.646,0,0,1,.064-1.449l4.944-.865,10.8-1.889,1.1,3.392h0l.277.85Z" transform="translate(-336.932 -240.411)" fill="#ceddf9"/>
    <path id="Path_792" data-name="Path 792" d="M633.474,323.314a6.476,6.476,0,0,0-.494,1.518q-.044.2-.089.415a4.541,4.541,0,0,1-3.021.682c-.46,0-.717-.88-1.152-.989,0,0-.653-2.354-.836-.371-1.256-.257-2.339.722-3.229-.134h0v-.346a14.02,14.02,0,0,0-.1-2.22s3.486,0,6.116.282C632.436,322.359,633.816,322.711,633.474,323.314Z" transform="translate(-345.936 -198.014)" opacity="0.1"/>
    <path id="Path_793" data-name="Path 793" d="M633.957,309.808a6.685,6.685,0,0,1-8.015,6.541h0a6.675,6.675,0,1,1,7.159-9.82A6.556,6.556,0,0,1,633.957,309.808Z" transform="translate(-343.947 -188.543)" fill="#d38884"/>
    <path id="Path_794" data-name="Path 794" d="M630.848,334.387c-.049.554-.074.91-.074.91s-10.724-.717-8.865-2.517A3.955,3.955,0,0,0,622.9,331l4.653.761s1.315,1.019,2.334,1.978A4.229,4.229,0,0,0,630.848,334.387Z" transform="translate(-344.491 -202.63)" opacity="0.1"/>
    <path id="Path_795" data-name="Path 795" d="M624.623,410.288a3.461,3.461,0,0,1-1.409-.1,2.855,2.855,0,0,1-.569-.252c-.9-.539-3.891.124-3.891.124s-8.148.539-8.509,0c-.2-.312-1.642-.267-2.818-.173-.494.04-.915.089-1.216.119a5.364,5.364,0,0,1,.86-2.052l5.37-.381,10.8-1.889,1.1,3.392h0A12.178,12.178,0,0,0,624.623,410.288Z" transform="translate(-336.664 -240.385)" opacity="0.1"/>
    <path id="Path_796" data-name="Path 796" d="M617.927,332.289l-5.844-.959a1.74,1.74,0,0,1-1.1.959,14.345,14.345,0,0,0-5.81,4.134l-1.557,2.161s-1.261,1.557-.841,2.813a47.485,47.485,0,0,1,.9,5.513l.6,4.732s1.137,3.417.781,4.915.178,7.787.178,7.787l-1.2,7.787s4.069-.539,4.45,0,8.509,0,8.509,0,2.967-.663,3.891-.124a3.253,3.253,0,0,0,1.978.361,8.938,8.938,0,0,1-.3-3.832,15.364,15.364,0,0,0,.3-3.9s.6-3.654.3-4.311.663-3.056.663-3.056l3.174-16.712s-.386-3-2.082-4.015-3.609-1.32-4.628-2.274S617.927,332.289,617.927,332.289Z" transform="translate(-334.883 -202.797)" fill="#4c4981"/>
    <path id="Path_797" data-name="Path 797" d="M639,365.2v1.978l1.844,4.974.667,4.613a22.766,22.766,0,0,1,1.2,4.45c0,1.157,2.932,6.65,2.932,6.65s.8,1.859.4,2.215-3.872,8.267.494,8.03,3-8.5,3-8.5l-.6-3.595s-.841-8.989-.841-9.646c0,0-1.078-3.832-1.2-4.672s-.9-5.093-.9-5.093l-.658-2.754Z" transform="translate(-353.242 -219.238)" fill="#d38884"/>
    <path id="Path_798" data-name="Path 798" d="M564.964,307.82l-6.512,3.728L556.43,314.6l2.695-2.739Z" transform="translate(-281.307 -155.623)" opacity="0.1"/>
    <path id="Path_799" data-name="Path 799" d="M621.569,393.63s-2.967,1.933-4.361,1.933-4.628,3.323-4.628,3.323,4.583-2.967,4.944-2.873S621.569,393.63,621.569,393.63Z" transform="translate(-339.885 -234.293)" opacity="0.1"/>
    <path id="Path_800" data-name="Path 800" d="M613.166,395.72s-2.784,2.517-2.067,2.789,4.45-2.789,4.45-2.789Z" transform="translate(-339.076 -235.35)" opacity="0.1"/>
    <path id="Path_801" data-name="Path 801" d="M638.59,377.55s-2.156,2.922-1.572,2.878,2.245-1.711,2.245-1.711Z" transform="translate(-352.189 -226.164)" opacity="0.1"/>
    <path id="Path_802" data-name="Path 802" d="M638.632,383.37s-2.334,2.65-2.245,3.323S638.632,383.37,638.632,383.37Z" transform="translate(-351.919 -229.106)" opacity="0.1"/>
    <path id="Path_803" data-name="Path 803" d="M641.029,386.05s-1.572,2.808-.9,3.392S641.029,386.05,641.029,386.05Z" transform="translate(-353.728 -230.461)" opacity="0.1"/>
    <path id="Path_804" data-name="Path 804" d="M637.357,371.46s-1.172,1.978-.316,2.111.939,0,.939,0Z" transform="translate(-352.093 -223.085)" opacity="0.1"/>
    <path id="Path_805" data-name="Path 805" d="M636.961,356.83a20.651,20.651,0,0,1-1.2,3.525,16.309,16.309,0,0,1-.465-1.765A12.046,12.046,0,0,1,636.961,356.83Z" transform="translate(-351.371 -215.689)" opacity="0.1"/>
    <path id="Path_806" data-name="Path 806" d="M633.106,306.539a2.905,2.905,0,0,1-.45.7,5.164,5.164,0,0,0-.811.93,4.991,4.991,0,0,0-.292,1.587c-.089.534-.425,1.127-.989,1.142a2.008,2.008,0,0,1-.791-.237.806.806,0,0,0-.786.025.88.88,0,0,0-.252.593,7.849,7.849,0,0,0-.079,1.4,3.528,3.528,0,0,0,.03.559,3.14,3.14,0,0,1-.1,1.78,2.156,2.156,0,0,1-1.108.89,6.848,6.848,0,0,1-1.553.435h0a17.07,17.07,0,0,1-3.061.1.757.757,0,0,1-.277-.044.393.393,0,0,1-.119-.074,9.361,9.361,0,0,0,.183-1.706,6.675,6.675,0,1,1,10.457-8.079Z" transform="translate(-343.951 -188.552)" opacity="0.1"/>
    <path id="Path_807" data-name="Path 807" d="M627.374,298.562a5.8,5.8,0,0,0-1.795.4c-1.241.272-2.512-.292-3.787-.287a7.032,7.032,0,0,0-3.115.93,7.519,7.519,0,0,0-2.077,1.454,3.387,3.387,0,0,0-.989,2.284,3.745,3.745,0,0,1-.045,1.483,4.174,4.174,0,0,1-.455.692,2.057,2.057,0,0,0-.213,1.716,5.691,5.691,0,0,0,1.024,1.533c.821,1.053,1.335,2.314,2.072,3.431a10.684,10.684,0,0,0,1.078,1.37.76.76,0,0,0,.232.183.711.711,0,0,0,.272.04,10.917,10.917,0,0,0,4.618-.534,2.111,2.111,0,0,0,1.108-.89,3.139,3.139,0,0,0,.109-1.78,8.155,8.155,0,0,1,.045-1.978.87.87,0,0,1,.252-.588.791.791,0,0,1,.791-.025,2.157,2.157,0,0,0,.786.237c.539,0,.88-.613.989-1.147a2.69,2.69,0,0,1,1.1-2.517,3.807,3.807,0,0,0,.677-3.377C629.7,300.075,628.61,298.685,627.374,298.562Z" transform="translate(-341.008 -186.226)" fill="#1e1637"/>
    <path id="Path_808" data-name="Path 808" d="M643.563,349.16a7.785,7.785,0,0,0,0,2.472c-.059.663,0,4.316,0,4.316-1.978-.6-7.006.6-7.006.6l-.6-1.795a4.449,4.449,0,0,1-.752-1.483,16.424,16.424,0,0,1-.465-1.77,36.715,36.715,0,0,1-.588-3.763c-.252-1.9,2.581-3.956,4.727-5.093s4.025,3.713,4.025,3.713A5.984,5.984,0,0,1,643.563,349.16Z" transform="translate(-350.784 -208.429)" opacity="0.1"/>
    <path id="Path_809" data-name="Path 809" d="M643.563,348.464a7.808,7.808,0,0,0,0,2.472c-.059.658,0,4.312,0,4.312-1.978-.6-7.006.6-7.006.6l-.6-1.795a4.4,4.4,0,0,1-.752-1.483,16.338,16.338,0,0,1-.465-1.765,36.939,36.939,0,0,1-.588-3.763c-.252-1.909,2.581-3.956,4.727-5.1s4.025,3.713,4.025,3.713A5.937,5.937,0,0,1,643.563,348.464Z" transform="translate(-350.784 -208.074)" fill="#4c4981"/>
    <path id="Path_810" data-name="Path 810" d="M630,302.894a3.954,3.954,0,0,0-.44-.964c.03.084.059.163.084.247a3.807,3.807,0,0,1-.677,3.377,2.69,2.69,0,0,0-1.1,2.517c-.084.534-.425,1.122-.989,1.142a2.007,2.007,0,0,1-.791-.237.806.806,0,0,0-.786.025.88.88,0,0,0-.252.593,8.109,8.109,0,0,0-.045,1.978,3.2,3.2,0,0,1-.109,1.785,2.2,2.2,0,0,1-1.108.89,10.918,10.918,0,0,1-4.618.534.718.718,0,0,1-.272-.045.637.637,0,0,1-.232-.183,9.588,9.588,0,0,1-1.078-1.37c-.737-1.117-1.251-2.373-2.072-3.431a10.068,10.068,0,0,1-.677-.87v.059a5.473,5.473,0,0,0,1.023,1.533c.816,1.053,1.335,2.314,2.067,3.431a10.3,10.3,0,0,0,1.083,1.37.741.741,0,0,0,.227.183.726.726,0,0,0,.272.04,10.909,10.909,0,0,0,4.618-.534,2.111,2.111,0,0,0,1.108-.89,3.14,3.14,0,0,0,.109-1.78,8.7,8.7,0,0,1,.044-1.978.915.915,0,0,1,.252-.588.791.791,0,0,1,.791-.025,2.155,2.155,0,0,0,.786.237c.544,0,.88-.613.989-1.147a4.856,4.856,0,0,1,.292-1.587,4.977,4.977,0,0,1,.811-.93A3.817,3.817,0,0,0,630,302.894Z" transform="translate(-341.027 -187.933)" opacity="0.2"/>
    <path id="Path_811" data-name="Path 811" d="M727.2,301.417l-4.272,9.078a7.774,7.774,0,0,1-1.033,2.022c-.405.316-2.2,5.706-2.2,5.706l-4.583,7.061h0l-.312.494L713,325.284l-1.261-4.707.074-1.365v-.173a27.618,27.618,0,0,1,3.461-3.189s.494.059,1.434-2.24,1.8-2.794,1.8-2.794l.494-1.661,5.305-8.45s4.45-6.373,5.661-3.545S727.2,301.417,727.2,301.417Z" transform="translate(-390.016 -185.156)" fill="#ffd2c6"/>
    <path id="Path_812" data-name="Path 812" d="M694.678,434.251a1.023,1.023,0,0,1-.143.435c-.494.722-3.278,15.412-3.278,15.412a8.338,8.338,0,0,1-.811,3.866,56.694,56.694,0,0,0-1.305,5.567s-.223,10.067-.8,11.639.183,4.944.183,4.944a7.564,7.564,0,0,0,1.429,4.02l.109.158c.178.257.3.405.3.405a2.392,2.392,0,0,0,.628.776l.129.1a7.257,7.257,0,0,0,2.517,1.063h.089c.356.079.593.114.593.114l.223,1.216-2.378.494-4.539.311s-5.35.41-4.133-1.978a3.8,3.8,0,0,0,.218-.494h0q.071-.175.124-.356a12.306,12.306,0,0,0,.237-5.073l-1.033-8.129c-1.706-7.55,1.34-15.951,1.34-15.951a3.934,3.934,0,0,1,.321-2.378c.583-1.706,0-5.439,0-5.439s-.312-4.806-.717-7.184a14.565,14.565,0,0,1-.163-3.031,15.074,15.074,0,0,1,.163-1.77l10.24-1.36A7.7,7.7,0,0,1,694.678,434.251Z" transform="translate(-375.239 -253.505)" fill="#ffd2c6"/>
    <path id="Path_813" data-name="Path 813" d="M695.347,533.37l-2.378.494-4.539.312s-5.35.41-4.133-1.978a3.786,3.786,0,0,0,.218-.494h0q.071-.175.124-.356a8.4,8.4,0,0,1,2.71.544,2.488,2.488,0,0,0,2.67-.944l.742-1.414.109-.2c.178.257.3.405.3.405a2.472,2.472,0,0,0,.756.875l-.129.262-.717,1.513s.92.094,2.176.3a.989.989,0,0,0,1.187-.648h.089c.356.079.593.114.593.114Z" transform="translate(-376.051 -302.898)" opacity="0.1"/>
    <path id="Path_814" data-name="Path 814" d="M697.149,534.846c-.178.811-5.187,1.058-5.187,1.058s-2.789-.267-3.57.381-3.08.494-3.169.494-1.3-.044-1.775-2.22.618-2.472.667-2.507h0a8.206,8.206,0,0,1,2.833.549,2.488,2.488,0,0,0,2.67-.944l.85-1.617c.178.257.3.405.3.405a2.471,2.471,0,0,0,.756.875l-.846,1.775s.92.094,2.176.292a1.043,1.043,0,0,0,1.276-.989,1.2,1.2,0,0,0,0-.134s.781.227,1.75.494a1.8,1.8,0,0,1,1.271,2.087Z" transform="translate(-375.653 -303.257)" fill="#626696"/>
    <path id="Path_815" data-name="Path 815" d="M718.9,443.743c-.119.717-.242,2.576-.242,2.576.42,1.557-.658,5.256-.658,5.256l-.539,2.111c.237,2.695-1.483,9.286-1.483,9.286s-1.152,6.111-1.75,8.747a7.234,7.234,0,0,0,.311,4.405l.045.109a.8.8,0,0,0,.035.148,1.526,1.526,0,0,0,.069.213,3.159,3.159,0,0,0,.588.989,2.914,2.914,0,0,0,.321.331h0a6.532,6.532,0,0,0,1.909,1.177h0l.3.119a9.338,9.338,0,0,0,.954.3h.109l-.242,1.414-3.174-.816-4.252-1.379-2.062-1.157a1.319,1.319,0,0,1,.064-.331.108.108,0,0,0,0-.04,2.131,2.131,0,0,1,.064-.331A45.256,45.256,0,0,0,710,465.988c-.494-4.732,1.483-11.263,1.943-12.816a7.747,7.747,0,0,0,.361-2.759c-.781-1.137-.959-5.691-.959-5.691s-1.439-2.937-2.625-6.052a15.458,15.458,0,0,1-.855-3.15,10.675,10.675,0,0,1-.173-2.3s9.646-8.806,10.7-.282c.035.292.069.564.1.836C719.442,441.612,719.017,443.046,718.9,443.743Z" transform="translate(-387.968 -252.288)" fill="#ffd2c6"/>
    <path id="Path_816" data-name="Path 816" d="M720.39,527.6l-.242,1.414-3.174-.816-4.252-1.379-2.091-1.2a1.319,1.319,0,0,1,.064-.331.108.108,0,0,0,0-.04,2.136,2.136,0,0,1,.064-.331h.3a3.905,3.905,0,0,1,1.78.242,4.279,4.279,0,0,0,1.785.43,2.254,2.254,0,0,1,1.018-.178l.44-.989.069-.148a3.105,3.105,0,0,0,.588.989,3.821,3.821,0,0,0,.341.351v.341l-.025.494a6.192,6.192,0,0,0,1.528.7.88.88,0,0,0,.425,0h0l.3.119a9.337,9.337,0,0,0,.954.3h0Z" transform="translate(-389.455 -300.345)" opacity="0.1"/>
    <path id="Path_817" data-name="Path 817" d="M718.446,531.033c-.885-.252-3.021-.663-3.367-.346s-3.308,0-3.308,0a1.8,1.8,0,0,1-1.528-.895c-.618-.959-.119-4.059-.119-4.059h.217l.366-.04h0a3.955,3.955,0,0,1,1.78.237,4.226,4.226,0,0,0,1.785.435,2.211,2.211,0,0,1,1.018-.183l.495-1.112a3.158,3.158,0,0,0,.588.989,3.239,3.239,0,0,0,.341.346l-.045.826a6.32,6.32,0,0,0,1.528.707.618.618,0,0,0,.732-.232.589.589,0,0,0,.054-.124h0a5.472,5.472,0,0,0,1.256.415h0a2.294,2.294,0,0,1,2.472,1.76C723.183,531.137,719.332,531.285,718.446,531.033Z" transform="translate(-389.103 -300.744)" fill="#626696"/>
    <path id="Path_818" data-name="Path 818" d="M696.013,434.251l-.549.168a7.662,7.662,0,0,1-1.32.277,55,55,0,0,1-8.994.064,15.1,15.1,0,0,1,.163-1.77l10.24-1.36A7.739,7.739,0,0,1,696.013,434.251Z" transform="translate(-376.573 -253.505)" opacity="0.1"/>
    <path id="Path_819" data-name="Path 819" d="M704.032,417.481s-3.758.583-6.818,1.251c-1.019.222-1.978.46-2.665.682a8.125,8.125,0,0,1-1.32.282,57.46,57.46,0,0,1-9.459.035c-1.661-5.389,2.017-12.178,2.017-12.178a6.9,6.9,0,0,1,.766-2.2V405.3l.524-1.923h13.968l.173.826.356,1.681,2.2,10.418Z" transform="translate(-375.657 -239.222)" fill="#626696"/>
    <path id="Path_820" data-name="Path 820" d="M718.528,433.86l-.084.035-1.637.727c-1.77.816-7.065.989-8.9.989a10.675,10.675,0,0,1-.173-2.3s9.647-8.806,10.7-.282C718.458,433.316,718.493,433.608,718.528,433.86Z" transform="translate(-387.988 -252.333)" opacity="0.1"/>
    <path id="Path_821" data-name="Path 821" d="M709.863,419.914l-.341.153-1.637.727c-1.8.831-7.268.989-9.019.989h-.46a2.082,2.082,0,0,1-1.617-.989c0-.109-.084-.643-.153-1.1-.064-.366-.114-.682-.114-.682a43.235,43.235,0,0,1-5.439-2.813c-1.37-.934-1.024-7.575-.761-10.912.094-1.152.178-1.909.178-1.909l14.141.826,1.978.114,1.132.252.3.064s.816,5.933,1.216,6.428.138,2.156.089,3.105a5.651,5.651,0,0,1-.134,1.211,7.48,7.48,0,0,1,.45,2.591A5.177,5.177,0,0,0,709.863,419.914Z" transform="translate(-379.066 -239.222)" fill="#626696"/>
    <circle id="Ellipse_116" data-name="Ellipse 116" cx="5.795" cy="5.795" r="5.795" transform="translate(309.862 119.861)" fill="#ffd2c6"/>
    <path id="Path_822" data-name="Path 822" d="M688.876,330.374s.4,5.488-.722,6.749a51.129,51.129,0,0,1-4.045,3.639l.9,3.728,5.078.583,5.933-6.334-1.35-1.637s-1.033-3.506-.183-5.256S688.876,330.374,688.876,330.374Z" transform="translate(-376.047 -202.305)" fill="#ffd2c6"/>
    <path id="Path_823" data-name="Path 823" d="M715.107,348.026h0l-.312.494L713,348.026l-1.261-4.707.074-1.365.371-.534s1.978.044,1.894,1.844A15.756,15.756,0,0,0,715.107,348.026Z" transform="translate(-390.016 -207.898)" opacity="0.1"/>
    <path id="Path_824" data-name="Path 824" d="M707.946,405.343s-1.429.316-3.065.529-3.525.326-4.3-.129c-1.3-.771-8.346-.549-10.383-.47h-.346l.524-1.923h13.968l.173.826,1.978.114,1.132.252C707.833,405.026,707.946,405.343,707.946,405.343Z" transform="translate(-378.949 -239.207)" opacity="0.1"/>
    <path id="Path_825" data-name="Path 825" d="M693.562,342.13s1.978.044,1.889,1.844a16.573,16.573,0,0,0,1.078,4.895l-.45,1.033s-.628,2.517-.134,3.145,2.289.628,1.256,5.795c0,0-.223,3.867.316,5.122s.539,4.267,1.345,5.528a29.827,29.827,0,0,1,1.889,4.178s-5.839,1.3-7.367.405-10.917-.45-10.917-.45.044-1.572,0-1.755a1.454,1.454,0,0,1,.223-1.142c.316-.43.811-1.147.539-1.775s.672-1.558.178-2.532-1.093-1.167-.989-1.7a2.29,2.29,0,0,0-.554-1.7c-.356-.45-2.784-5.2-2.784-5.2l-.405-2.215s-3.125-2.289-3.065-3.367a6.377,6.377,0,0,1,1.182-2.576L679.8,346.7s1.666,1.795,3.283,1.167,5.093-3.639,5.093-3.639,1.241-.672,1.33-1.167.855-.045.855-.045,1.122-.618,1.345-.4a3.955,3.955,0,0,0,1.216.4Z" transform="translate(-371.749 -208.257)" fill="#ffcde5"/>
    <path id="Path_826" data-name="Path 826" d="M662.806,361.06l-.954.752a12.633,12.633,0,0,0-1.2,4.895,64.566,64.566,0,0,1-1.211,7.585l-1.889,3.377a86.067,86.067,0,0,0-3.505,8.242,21.624,21.624,0,0,1-2.245,4.653s-6.245,5.612-1.889,6.625,4.494-4.45,4.494-4.45a6.425,6.425,0,0,0,1.182-1.889c.193-.766,5.691-10.536,5.691-10.536s1.933-2.63,1.528-4.025c0,0,2.517-5.933,2.517-7.417a26.072,26.072,0,0,0-.405-3.7l.405-3.1Z" transform="translate(-357.977 -217.827)" fill="#ffd2c6"/>
    <path id="Path_827" data-name="Path 827" d="M698.257,386.11A44.852,44.852,0,0,1,693,388.538c-.855.124,3.728-.494,3.728-.494Z" transform="translate(-380.489 -230.491)" opacity="0.1"/>
    <path id="Path_828" data-name="Path 828" d="M702.405,389.74s-5.839,1.978-8.405,1.622C694,391.352,700.388,392.573,702.405,389.74Z" transform="translate(-381.047 -232.327)" opacity="0.1"/>
    <path id="Path_829" data-name="Path 829" d="M703.2,391.05s-5.261,3.308-8.356,2.769c0,0,7.234,1.439,8.356.672l-3.234-.895S703.552,391.693,703.2,391.05Z" transform="translate(-381.472 -232.989)" opacity="0.1"/>
    <path id="Path_830" data-name="Path 830" d="M682.81,304.718a5.469,5.469,0,0,0-4.45.836c-.9.707-1.483,1.79-2.512,2.319a13.452,13.452,0,0,1-1.642.579,4.742,4.742,0,0,0-2.892,5.1c.158.89.574,1.711.781,2.591a10.186,10.186,0,0,1-.356,4.771,50.3,50.3,0,0,1-4.994,12.386,1.315,1.315,0,0,0-.247.831,1.22,1.22,0,0,0,.307.529c2.077,2.4,5.439,3.224,8.628,3.333a6.665,6.665,0,0,0,3.422-.569,5.182,5.182,0,0,0,1.666-1.528,8.118,8.118,0,0,0,1.552-5.221c-.084-1.508-.588-3.031-.208-4.49a1.147,1.147,0,0,1,.267-.549c.341-.351.91-.257,1.394-.316,1.32-.153,2.171-1.543,2.329-2.863a31.062,31.062,0,0,0-.183-3.956,8.336,8.336,0,0,1,1.567-4.89,5.393,5.393,0,0,0,1.147-1.953,3.223,3.223,0,0,0-.836-2.393c-.737-1.167-1.1-2.527-2.22-3.417a5.988,5.988,0,0,0-2.522-1.132Z" transform="translate(-367.143 -189.263)" opacity="0.1"/>
    <path id="Path_831" data-name="Path 831" d="M682.109,303.991a5.439,5.439,0,0,0-4.42.836c-.9.712-1.483,1.795-2.517,2.324a14.34,14.34,0,0,1-1.642.574,4.742,4.742,0,0,0-2.892,5.093c.158.89.573,1.711.781,2.591a10.122,10.122,0,0,1-.356,4.771,50.205,50.205,0,0,1-4.989,12.361,1.266,1.266,0,0,0-.247.831,1.141,1.141,0,0,0,.3.529c2.077,2.4,5.439,3.224,8.628,3.333a6.7,6.7,0,0,0,3.422-.564,5.251,5.251,0,0,0,1.666-1.533,8.124,8.124,0,0,0,1.548-5.221c-.089-1.483-.593-3.031-.213-4.49a1.242,1.242,0,0,1,.267-.549c.346-.351.91-.257,1.4-.312,1.315-.153,2.166-1.548,2.324-2.863a32.063,32.063,0,0,0-.178-3.956,8.286,8.286,0,0,1,1.567-4.885,5.441,5.441,0,0,0,1.147-1.978,3.255,3.255,0,0,0-.841-2.393c-.737-1.162-1.1-2.527-2.22-3.417a5.988,5.988,0,0,0-2.536-1.083Z" transform="translate(-366.803 -188.897)" fill="#985c7e"/>
    <path id="Path_832" data-name="Path 832" d="M694.84,417.76s1.152,5.394,3.07,6.858Z" transform="translate(-381.472 -246.492)" opacity="0.1"/>
    <g id="Group_121" data-name="Group 121" transform="translate(299.014 120.459)" opacity="0.1">
      <path id="Path_833" data-name="Path 833" d="M676.043,323.818c-.059-.208-.129-.42-.2-.628C675.919,323.4,675.969,323.59,676.043,323.818Z" transform="translate(-670.881 -319.141)"/>
      <path id="Path_834" data-name="Path 834" d="M687.362,315a1.971,1.971,0,0,1,0,.494,5.255,5.255,0,0,1-1.147,1.953,8.351,8.351,0,0,0-1.567,4.89,33.375,33.375,0,0,1,.178,3.956c-.158,1.3-.989,2.71-2.324,2.858-.495.059-1.053-.035-1.394.316a1.253,1.253,0,0,0-.272.549c-.381,1.459.129,2.967.213,4.49a8.124,8.124,0,0,1-1.572,5.216,5.127,5.127,0,0,1-1.666,1.528,6.64,6.64,0,0,1-3.417.569c-3.12-.1-6.428-.91-8.524-3.219a.821.821,0,0,0-.049.435,1.143,1.143,0,0,0,.3.529c2.077,2.4,5.439,3.224,8.628,3.333a6.7,6.7,0,0,0,3.422-.564,5.249,5.249,0,0,0,1.666-1.533,8.123,8.123,0,0,0,1.548-5.221c-.089-1.483-.593-3.031-.213-4.49a1.243,1.243,0,0,1,.267-.549c.346-.351.91-.257,1.4-.311,1.315-.153,2.166-1.548,2.324-2.863a32.039,32.039,0,0,0-.178-3.956,8.286,8.286,0,0,1,1.568-4.885,5.443,5.443,0,0,0,1.147-1.978A2.22,2.22,0,0,0,687.362,315Z" transform="translate(-665.81 -315)"/>
    </g>
    <ellipse id="Ellipse_117" data-name="Ellipse 117" cx="10.462" cy="1.058" rx="10.462" ry="1.058" transform="translate(53.412 246.21)" fill="#6c63ff" opacity="0.1"/>
    <path id="Path_835" data-name="Path 835" d="M188.828,536.09s-13.646,7.051-6.6,15.328a2.621,2.621,0,0,0,2.581,1.676s-.386-.7,1.083-1.256a7.135,7.135,0,0,0,1.483-.781,3.461,3.461,0,0,0,1.32-1.765h0s2.794-3.733.628-10.64c0,0,.282-1.978.035-2.269l-1.656,2.269a4.649,4.649,0,0,1,1.913,2.843s-1.785-2.838-2.176-2.512c-.079.064-.821,1.241-.821,1.241s2.967,2.017,3.189,4.633c0,0-1.671-3.664-3.461-4.188l-1.019,1.844s3.244,1.978,3.609,4.944c0,0-1.884-3.768-3.807-4.524l-.756,1.948s3.125,1.978,3.412,4.45c0,0-2.616-4.134-3.555-4a9.443,9.443,0,0,0-.494,2.393s2.215,1.483,2.255,2.932c0,0-2.042-2.581-2.358-2.408a11.04,11.04,0,0,0,.494,3.956,7.861,7.861,0,0,1-.9-3.956,4.3,4.3,0,0,0-1.305,2.106s-.588-1.429,1.345-2.734a10,10,0,0,1,.405-2.265,9.279,9.279,0,0,0-2.967,2.274s.326-1.869,3.164-2.8l.722-1.978s-2.838,1.2-3.718,2.26c0,0,.633-1.854,3.956-2.744l.989-1.82a16.073,16.073,0,0,0-3.753,1.82s.954-1.6,4.054-2.329l.8-1.142s-1.834.658-2.344.89-.613.119-.613.119a6.566,6.566,0,0,1,3.283-1.483A15.465,15.465,0,0,0,188.828,536.09Z" transform="translate(-121.294 -306.316)" fill="#6c63ff"/>
    <path id="Path_836" data-name="Path 836" d="M224,486.708c1.429.845,3.664,1.394,6.477-.42l-.03,4.01c.2,2.754,3.6,12.771,3.6,12.771l2.4,8.247a64.49,64.49,0,0,1,2.64,17.933,17.137,17.137,0,0,0,.766,5.646c1.276,3.461-.494,7.911-1.276,9.557a39.911,39.911,0,0,1-3.956,1.112,2.723,2.723,0,0,0-.356.109v-.025s-3.6,1.429-5.2,1.231a1.394,1.394,0,0,0-.989,2.433,7.254,7.254,0,0,1-2.4.316c-1.6-.2-2.4,2.556.6,3.342s20,0,20,0a2.413,2.413,0,0,0,1.281-2.665c1.305-.049,2.121-.089,2.121-.089s3-1.375,0-5.108l-.158.124-.643-1.889v-2.556s3.8-18.294,2.6-20.43-1.8-13.162-1.8-13.162l.4-11.985a28.442,28.442,0,0,0,1.923-8.49,18.087,18.087,0,0,0,.766-4.03c.044-.643.084-1.32.109-2.022a13.573,13.573,0,0,0-.727-4.524,44.715,44.715,0,0,1,4.529-5.691,5.829,5.829,0,0,0,1.8-5.108l-.989-6.68-2.4-11.372c.3-3.164-.356-4.984-1.088-6.012.173-1.019.336-2.042.46-3.065a39.234,39.234,0,0,0-.7-13.35,9.057,9.057,0,0,0-1.889-4.252c-1.216-1.31-3.184-2.111-3.634-3.827a12.463,12.463,0,0,0-.277-1.29c-.44-1.127-1.829-1.533-3.046-1.681-2.166-.262-5.3-.465-7.377.386a8.947,8.947,0,0,0-4.247,3.985,3.416,3.416,0,0,0-.494,2.472,3.243,3.243,0,0,0,.346.836,7.526,7.526,0,0,0-.494,2.635,7.669,7.669,0,0,0,4.895,7.11c.044.148.089.3.129.445a7.419,7.419,0,0,1,.193,1.068c-.035.7-.079,1.394-.114,2.087a2.346,2.346,0,0,1-.074.282,51.325,51.325,0,0,0-5.028,2.566c1.2,1.765-.2,9.231-.2,9.231-3,1.77-6,6.289-2.8,11a11.646,11.646,0,0,1,1.4,9.765l-.494,7.684h0l-.1,1.533h.04l-.04.583h.084v.628a9.216,9.216,0,0,0-4.682,3.461,12.4,12.4,0,0,1-2.1,2.571,1.543,1.543,0,0,0,.242,2.561Zm24.153-20.41a7.293,7.293,0,0,1,.712-3.862h1.414c.049.331.1.648.173.934C250.854,465.12,249.232,465.946,248.149,466.3Z" transform="translate(-143.019 -244.384)" fill="url(#linear-gradient)"/>
    <path id="Path_837" data-name="Path 837" d="M258.155,672.623l.771,2.309-2.492,2.5-8.277,1.923-5.968-.578.386-2.116h0a2.546,2.546,0,0,1,1.894-1.864c2.472-.578,7.13-1.889,8.114-3.718Z" transform="translate(-152.63 -374.561)" fill="#db8b8b"/>
    <path id="Path_838" data-name="Path 838" d="M258.155,672.623l.771,2.309-2.492,2.5-8.277,1.923-5.968-.578.386-2.116h0a2.546,2.546,0,0,1,1.894-1.864c2.472-.578,7.13-1.889,8.114-3.718Z" transform="translate(-152.63 -374.561)" opacity="0.1"/>
    <path id="Path_839" data-name="Path 839" d="M239.54,681.552l1.157-1.543-1.157-1.78s-3.461,1.394-5,1.2-2.309,2.507.578,3.273,19.248,0,19.248,0,2.888-1.345,0-5l-2.492,1.923s-4.237,2.314-6.354,1.928Z" transform="translate(-148.066 -377.908)" fill="#2e3037"/>
    <path id="Path_840" data-name="Path 840" d="M235.55,684.233l5.968.574,8.277-1.923,2.5-2.5-.2-.613-.287-.86-.277-.836-5.582-1.543a3.46,3.46,0,0,1-1.132,1.137,24.121,24.121,0,0,1-6.981,2.581l-.242.069a2.536,2.536,0,0,0-1.676,1.795Z" transform="translate(-149.273 -377.317)" fill="#db8b8b"/>
    <path id="Path_841" data-name="Path 841" d="M235.55,687.545l5.968.574,8.277-1.923,2.5-2.5-.2-.613-2.3,1.765s-4.232,2.314-6.354,1.928h-5.963l1.152-1.543-1.038-1.6a2.536,2.536,0,0,0-1.676,1.795Z" transform="translate(-149.273 -380.628)" opacity="0.1"/>
    <path id="Path_842" data-name="Path 842" d="M232.923,687l1.152-1.543-1.152-1.78s-3.461,1.394-5.009,1.2-2.309,2.507.578,3.273,19.248,0,19.248,0,2.888-1.345,0-5l-2.5,1.9s-4.232,2.314-6.354,1.928Z" transform="translate(-144.717 -380.663)" fill="#2e3037"/>
    <path id="Path_843" data-name="Path 843" d="M249.18,454.705s9.241.959,7.911-2.888a7,7,0,0,1-.287-3.4,9.448,9.448,0,0,1,1.637-3.916l-8.663,1.35a10.928,10.928,0,0,1,1.172,2.779A5.7,5.7,0,0,1,249.18,454.705Z" transform="translate(-156.163 -260.011)" fill="#db8b8b"/>
    <path id="Path_844" data-name="Path 844" d="M269.644,553.9s-.193,8.277-2.116,12.321l-.405,11.738s.578,10.779,1.731,12.9-2.5,20.02-2.5,20.02v3.075s-6.156,2.314-7.911-.381l1.76-22.907-.756-31.773Z" transform="translate(-160.845 -315.32)" fill="#474463"/>
    <path id="Path_845" data-name="Path 845" d="M269.644,553.9s-.193,8.277-2.116,12.321l-.405,11.738s.578,10.779,1.731,12.9-2.5,20.02-2.5,20.02v3.075s-6.156,2.314-7.911-.381l1.76-22.907-.756-31.773Z" transform="translate(-160.845 -315.32)" opacity="0.1"/>
    <path id="Path_846" data-name="Path 846" d="M280.033,500.17l1.152,3.08.964,6.546a5.785,5.785,0,0,1-1.731,5,55.029,55.029,0,0,0-5.389,7.125l-3.659-10.962s3.659-.578,3.08-3.08a35.743,35.743,0,0,1-.386-7.125Z" transform="translate(-167.382 -288.156)" fill="#fc6681"/>
    <path id="Path_847" data-name="Path 847" d="M280.033,500.17l1.152,3.08.964,6.546a5.785,5.785,0,0,1-1.731,5,55.029,55.029,0,0,0-5.389,7.125l-3.659-10.962s3.659-.578,3.08-3.08a35.743,35.743,0,0,1-.386-7.125Z" transform="translate(-167.382 -288.156)" opacity="0.05"/>
    <path id="Path_848" data-name="Path 848" d="M254.29,677.667c2.472,3.886,6.309,1.681,6.991,1.241l-.277-.836-5.582-1.543a3.461,3.461,0,0,1-1.132,1.137Z" transform="translate(-158.747 -377.317)" opacity="0.1"/>
    <path id="Path_849" data-name="Path 849" d="M238.67,547.23c.193,2.695,3.461,12.514,3.461,12.514l2.309,8.079a64.064,64.064,0,0,1,2.536,17.572,17.306,17.306,0,0,0,.757,5.533c1.543,4.232-1.538,10.007-1.538,10.007,2.695,4.811,7.313,1.543,7.313,1.543V599.4s3.659-16.747,2.695-20.02-1.345-12.129-1.345-12.129V551.274a18.156,18.156,0,0,0,5.261-11.5c.049-.628.084-1.29.109-1.978.158-4.346-2.813-9.434-3.955-11.253-.277-.435-.45-.682-.45-.682L238.8,532.6h-.04v2.116Z" transform="translate(-150.85 -301.144)" fill="#474463"/>
    <path id="Path_850" data-name="Path 850" d="M250.35,445.85a10.928,10.928,0,0,1,1.172,2.779,7.491,7.491,0,0,0,5.854-.213,9.449,9.449,0,0,1,1.637-3.916Z" transform="translate(-156.755 -260.011)" opacity="0.1"/>
    <circle id="Ellipse_118" data-name="Ellipse 118" cx="7.506" cy="7.506" r="7.506" transform="translate(89.936 173.715)" fill="#db8b8b"/>
    <path id="Path_851" data-name="Path 851" d="M238.67,534.71h.079c8.074,1.656,18.205-6.754,18.205-6.754a10.318,10.318,0,0,1-.7-1.434c-.277-.435-.45-.682-.45-.682l-17,6.754-.044.672Z" transform="translate(-150.85 -301.134)" opacity="0.1"/>
    <path id="Path_852" data-name="Path 852" d="M238.66,460.146s10.779-6.546,14.245-3.852l4.811,6.161s3.08.959,2.5,7.12l2.309,11.164-6.922,1.735s-4.089,3.847-.8,9.439c0,0-10.2,8.47-18.294,6.739l.574-9.048a11.707,11.707,0,0,0-1.345-9.622c-3.08-4.618-.193-9.048,2.695-10.784C238.442,469.17,239.792,461.877,238.66,460.146Z" transform="translate(-148.699 -265.645)" fill="#fc6681"/>
    <path id="Path_853" data-name="Path 853" d="M233.109,544.17s-4.04.766-5.968,3.847a11.888,11.888,0,0,1-2.012,2.517,1.528,1.528,0,0,0,.237,2.438c1.528.915,4.02,1.483,7.164-1.1C237.92,547.438,233.109,544.17,233.109,544.17Z" transform="translate(-143.751 -310.4)" fill="#db8b8b"/>
    <path id="Path_854" data-name="Path 854" d="M247.156,471.993s3.852-.386,4.811,9.627,2.5,12.321,2.5,12.321.964,5.2-1.345,8.277-6.739,9.622-6.739,9.622-4.811,1.35-5.775-3.461l5.968-11.164s.964-3.847-1.345-6.541S241.188,470.069,247.156,471.993Z" transform="translate(-151.831 -273.837)" opacity="0.1"/>
    <path id="Path_855" data-name="Path 855" d="M246.376,470.85s3.852-.386,4.811,9.622,2.507,12.321,2.507,12.321.959,5.2-1.35,8.277-6.739,9.622-6.739,9.622-4.811,1.35-5.775-3.461l5.968-11.164s.964-3.852-1.345-6.546S240.409,468.912,246.376,470.85Z" transform="translate(-151.436 -273.259)" fill="#fc6681"/>
    <path id="Path_856" data-name="Path 856" d="M246.613,485.57s-.386,5.968,1.345,9.241,1.735,7.506,0,9.82" transform="translate(-154.847 -280.775)" opacity="0.1"/>
    <path id="Path_857" data-name="Path 857" d="M244.7,467.433s1.543-1.538,5.968-1.731,6.354-1.543,6.354-1.543" transform="translate(-153.899 -269.95)" opacity="0.1"/>
    <path id="Path_858" data-name="Path 858" d="M254.643,418.04c1.167.143,2.507.544,2.927,1.647a12.24,12.24,0,0,1,.267,1.266c.435,1.681,2.329,2.472,3.5,3.753a8.93,8.93,0,0,1,1.82,4.163,39.154,39.154,0,0,1,.677,13.078c-.376,3.194-1.142,6.339-1.36,9.543a15.085,15.085,0,0,0,1.933,9.276,22.728,22.728,0,0,1,2.279,3.461,6.663,6.663,0,0,1-4.044,1.073q-2.472.079-4.944,0a5.291,5.291,0,0,1-2.527-.524,3.861,3.861,0,0,1-1.325-1.424,10.2,10.2,0,0,1-1.147-5.4c.04-1.869.336-3.718.371-5.582a5.02,5.02,0,0,0-.643-2.927,9.49,9.49,0,0,0-1.617-1.483c-2.057-1.824-2.764-4.757-2.833-7.506s.381-5.508.148-8.252c-.089-1.073-.494-2.363-1.548-2.571a6.7,6.7,0,0,1-.989-.129c-.85-.326-.766-1.523-.989-2.4-.272-.989-1.108-1.74-1.345-2.734-.554-2.329,2.408-5.108,4.351-5.933S252.556,417.783,254.643,418.04Z" transform="translate(-153.132 -246.526)" opacity="0.1"/>
    <path id="Path_859" data-name="Path 859" d="M255.007,417.269c1.167.148,2.5.549,2.927,1.646a12.072,12.072,0,0,1,.267,1.271c.435,1.681,2.329,2.472,3.5,3.748a8.93,8.93,0,0,1,1.82,4.163,39.154,39.154,0,0,1,.677,13.078c-.376,3.194-1.142,6.339-1.36,9.543a15.084,15.084,0,0,0,1.933,9.276,22.73,22.73,0,0,1,2.279,3.461A6.664,6.664,0,0,1,263,464.527q-2.472.079-4.969,0a5.291,5.291,0,0,1-2.527-.524,3.887,3.887,0,0,1-1.325-1.419,10.176,10.176,0,0,1-1.147-5.409c.04-1.869.336-3.718.371-5.582a5.028,5.028,0,0,0-.643-2.927,9.689,9.689,0,0,0-1.617-1.483c-2.057-1.825-2.769-4.752-2.838-7.506s.386-5.508.153-8.252c-.089-1.073-.494-2.363-1.548-2.571a6.724,6.724,0,0,1-.989-.129c-.85-.326-.766-1.523-.989-2.4-.272-.989-1.108-1.74-1.345-2.734-.554-2.324,2.408-5.108,4.351-5.933S252.921,417.031,255.007,417.269Z" transform="translate(-153.303 -246.139)" fill="#472727"/>
    <ellipse id="Ellipse_119" data-name="Ellipse 119" cx="11.867" cy="1.632" rx="11.867" ry="1.632" transform="translate(463.361 340.85)" fill="#6c63ff" opacity="0.1"/>
    <ellipse id="Ellipse_120" data-name="Ellipse 120" cx="11.867" cy="1.632" rx="11.867" ry="1.632" transform="translate(417.902 345.463)" fill="#6c63ff" opacity="0.1"/>
    <ellipse id="Ellipse_121" data-name="Ellipse 121" cx="11.867" cy="1.632" rx="11.867" ry="1.632" transform="translate(364.359 339.223)" fill="#6c63ff" opacity="0.1"/>
    <ellipse id="Ellipse_122" data-name="Ellipse 122" cx="8.435" cy="1.157" rx="8.435" ry="1.157" transform="translate(439.529 359.06)" fill="#6c63ff" opacity="0.1"/>
    <ellipse id="Ellipse_123" data-name="Ellipse 123" cx="8.435" cy="1.157" rx="8.435" ry="1.157" transform="translate(392.349 357.898)" fill="#6c63ff" opacity="0.1"/>
    <path id="Path_860" data-name="Path 860" d="M878.078,680.49s16.643-54.556-2.606-76.41c-14.4-16.346-30.739-14.393-38.072-12.361a13.533,13.533,0,0,0-8.732,7.258c-2.556,5.518-2.1,14.482,15.97,24.94,30.245,17.508,32.139,41.533,32.139,41.533Z" transform="translate(-448.562 -333.766)" fill="#6c63ff"/>
    <path id="Path_861" data-name="Path 861" d="M852.77,608.71s49.063,15.328,38.072,81.043" transform="translate(-461.316 -343.029)" fill="none" stroke="#565987" stroke-miterlimit="10" stroke-width="1"/>
    <path id="Path_862" data-name="Path 862" d="M905.586,619.84s-6.759,4.549-4.608,11.372" transform="translate(-485.474 -348.656)" fill="none" stroke="#565987" stroke-miterlimit="10" stroke-width="1"/>
    <path id="Path_863" data-name="Path 863" d="M862.72,625.36s4.133-4.2,9.157-1.884" transform="translate(-466.346 -350.142)" fill="none" stroke="#565987" stroke-miterlimit="10" stroke-width="1"/>
    <path id="Path_864" data-name="Path 864" d="M902,669.338s7.248-3.679,9.122.93" transform="translate(-486.204 -372.977)" fill="none" stroke="#565987" stroke-miterlimit="10" stroke-width="1"/>
    <path id="Path_865" data-name="Path 865" d="M932.573,686.252s-5.439-.435-5.543,2.171" transform="translate(-498.858 -382.218)" fill="none" stroke="#565987" stroke-miterlimit="10" stroke-width="1"/>
    <path id="Path_866" data-name="Path 866" d="M901.039,733.829s-19.491-39.654-24.846-38.784c-2.541.41-3.713,2.912-4.247,5.439a15.955,15.955,0,0,0,1.063,9.651C875.768,716.47,883.185,728.519,901.039,733.829Z" transform="translate(-470.85 -386.67)" fill="#6c63ff"/>
    <path id="Path_867" data-name="Path 867" d="M881.15,710.28s20.46,29.666,24.415,30.972" transform="translate(-475.663 -394.379)" fill="none" stroke="#565987" stroke-miterlimit="10" stroke-width="1"/>
    <line id="Line_36" data-name="Line 36" x2="4.776" transform="translate(403.603 320.534)" fill="none" stroke="#565987" stroke-miterlimit="10" stroke-width="1"/>
    <line id="Line_37" data-name="Line 37" x2="7.486" y2="0.321" transform="translate(409.323 331.386)" fill="none" stroke="#565987" stroke-miterlimit="10" stroke-width="1"/>
    <line id="Line_38" data-name="Line 38" x1="0.811" y2="3.901" transform="translate(413.066 322.704)" fill="none" stroke="#565987" stroke-miterlimit="10" stroke-width="1"/>
    <line id="Line_39" data-name="Line 39" x1="0.143" y2="3.545" transform="translate(421.694 334.571)" fill="none" stroke="#565987" stroke-miterlimit="10" stroke-width="1"/>
    <path id="Path_868" data-name="Path 868" d="M929.94,733.829s19.491-39.654,24.845-38.784c2.546.41,3.718,2.912,4.247,5.439a15.956,15.956,0,0,1-1.063,9.651C955.186,716.47,947.769,728.519,929.94,733.829Z" transform="translate(-500.33 -386.67)" fill="#6c63ff"/>
    <path id="Path_869" data-name="Path 869" d="M954.94,710.28s-20.46,29.666-24.41,30.972" transform="translate(-500.628 -394.379)" fill="none" stroke="#565987" stroke-miterlimit="10" stroke-width="1"/>
    <line id="Line_40" data-name="Line 40" x1="4.776" transform="translate(451.415 320.534)" fill="none" stroke="#565987" stroke-miterlimit="10" stroke-width="1"/>
    <line id="Line_41" data-name="Line 41" x1="7.486" y2="0.321" transform="translate(442.985 331.386)" fill="none" stroke="#565987" stroke-miterlimit="10" stroke-width="1"/>
    <line id="Line_42" data-name="Line 42" x2="0.811" y2="3.901" transform="translate(445.917 322.704)" fill="none" stroke="#565987" stroke-miterlimit="10" stroke-width="1"/>
    <line id="Line_43" data-name="Line 43" x2="0.143" y2="3.545" transform="translate(437.956 334.571)" fill="none" stroke="#565987" stroke-miterlimit="10" stroke-width="1"/>
    <path id="Path_870" data-name="Path 870" d="M861.068,786.749a3.367,3.367,0,0,1-1.107-1.676,1.483,1.483,0,0,1,.776-1.706,2.165,2.165,0,0,1,2.047.722,2.716,2.716,0,0,0,1.978.964,3.051,3.051,0,0,1-.94-2.843,1.2,1.2,0,0,1,.262-.574c.4-.425,1.112-.242,1.587.089,1.483,1.058,1.923,3.1,1.933,4.944a9.343,9.343,0,0,0,0-2.037,2.091,2.091,0,0,1,.766-1.8,2.3,2.3,0,0,1,1.167-.277,2.423,2.423,0,0,1,1.894.539,1.883,1.883,0,0,1-.074,2.324,7.243,7.243,0,0,1-1.978,1.567,4.4,4.4,0,0,0-1.4,1.335,1.72,1.72,0,0,0-.1.237h-4.237a11.708,11.708,0,0,1-2.571-1.81Z" transform="translate(-464.926 -430.329)" fill="#6c63ff"/>
    <path id="Path_871" data-name="Path 871" d="M1011.288,754.474a3.367,3.367,0,0,1-1.108-1.676,1.483,1.483,0,0,1,.771-1.7,2.162,2.162,0,0,1,2.052.717,2.848,2.848,0,0,0,1.978.989,3.051,3.051,0,0,1-.94-2.843,1.2,1.2,0,0,1,.262-.574c.4-.425,1.112-.242,1.587.089,1.483,1.058,1.923,3.105,1.933,4.944a9.347,9.347,0,0,0,0-2.037,2.092,2.092,0,0,1,.766-1.8,2.3,2.3,0,0,1,1.167-.277,2.4,2.4,0,0,1,1.889.539,1.876,1.876,0,0,1-.074,2.324,7.216,7.216,0,0,1-1.978,1.567,4.4,4.4,0,0,0-1.4,1.335,1.747,1.747,0,0,0-.1.237h-4.237A11.711,11.711,0,0,1,1011.288,754.474Z" transform="translate(-540.872 -414.025)" fill="#6c63ff"/>
    <path id="Path_872" data-name="Path 872" d="M961.223,786.749a3.377,3.377,0,0,1-1.112-1.676,1.483,1.483,0,0,1,.776-1.706,2.177,2.177,0,0,1,2.052.722,2.724,2.724,0,0,0,1.978.964,3.031,3.031,0,0,1-.94-2.843,1.153,1.153,0,0,1,.262-.574c.4-.425,1.108-.242,1.582.089,1.483,1.058,1.928,3.1,1.933,4.944a9.332,9.332,0,0,0,.03-2.037,2.087,2.087,0,0,1,.761-1.8,2.313,2.313,0,0,1,1.167-.277,2.417,2.417,0,0,1,1.894.539,1.883,1.883,0,0,1-.074,2.324,7.3,7.3,0,0,1-1.978,1.567,4.3,4.3,0,0,0-1.4,1.335,1.278,1.278,0,0,0-.1.237h-4.242A11.684,11.684,0,0,1,961.223,786.749Z" transform="translate(-515.558 -430.329)" fill="#6c63ff"/>
    <path id="Path_873" data-name="Path 873" d="M816.768,726.94s-1.592,2.077.732,5.216,4.242,5.79,3.461,7.748c0,0-3.506-5.829-6.358-5.933S813.629,730.431,816.768,726.94Z" transform="translate(-441.309 -402.802)" fill="#6c63ff"/>
    <path id="Path_874" data-name="Path 874" d="M816.772,726.94a2.47,2.47,0,0,0-.326.653c-2.784,3.268-4.267,6.324-1.592,6.4,2.5.074,5.488,4.534,6.2,5.656a1.556,1.556,0,0,1-.084.257s-3.506-5.829-6.358-5.933S813.632,730.431,816.772,726.94Z" transform="translate(-441.313 -402.802)" opacity="0.1"/>
    <path id="Path_875" data-name="Path 875" d="M814.44,731.822c0,.732.084,1.325.183,1.325s.183-.593.183-1.325-.1-.386-.2-.386S814.44,731.09,814.44,731.822Z" transform="translate(-441.937 -405.034)" fill="#ffd037"/>
    <path id="Path_876" data-name="Path 876" d="M811.99,733.553c.643.346,1.2.559,1.251.47s-.43-.445-1.073-.8-.391-.094-.44,0S811.347,733.2,811.99,733.553Z" transform="translate(-440.501 -405.89)" fill="#ffd037"/>
    <path id="Path_877" data-name="Path 877" d="M832.938,726.94s1.587,2.077-.737,5.216-4.237,5.79-3.461,7.748c0,0,3.505-5.829,6.363-5.933S836.078,730.431,832.938,726.94Z" transform="translate(-449.078 -402.802)" fill="#6c63ff"/>
    <path id="Path_878" data-name="Path 878" d="M833.027,726.94a2.55,2.55,0,0,1,.321.653c2.789,3.268,4.272,6.324,1.592,6.4-2.472.074-5.483,4.534-6.2,5.656a.825.825,0,0,0,.084.257s3.506-5.829,6.363-5.933S836.166,730.431,833.027,726.94Z" transform="translate(-449.167 -402.802)" opacity="0.1"/>
    <path id="Path_879" data-name="Path 879" d="M843.006,731.822c0,.732-.079,1.325-.183,1.325s-.183-.593-.183-1.325.1-.386.2-.386S843.006,731.09,843.006,731.822Z" transform="translate(-456.194 -405.034)" fill="#ffd037"/>
    <path id="Path_880" data-name="Path 880" d="M844.158,733.553c-.643.346-1.206.559-1.251.47s.43-.445,1.073-.8.391-.094.44,0S844.8,733.2,844.158,733.553Z" transform="translate(-456.328 -405.89)" fill="#ffd037"/>
    <path id="Path_881" data-name="Path 881" d="M825.446,750.154s-4.45-.138-5.785-1.093-6.838-2.091-7.169-.559-6.685,7.609-1.661,7.649,11.659-.781,13-1.6S825.446,750.154,825.446,750.154Z" transform="translate(-439.139 -413.324)" fill="#a8a8a8"/>
    <path id="Path_882" data-name="Path 882" d="M810.738,758.068c5.023.04,11.664-.781,13-1.6,1.014-.618,1.424-2.843,1.557-3.871h.148s-.282,3.585-1.617,4.4-7.98,1.637-13,1.6c-1.449,0-1.953-.529-1.923-1.291C809.111,757.772,809.66,758.059,810.738,758.068Z" transform="translate(-439.14 -415.775)" opacity="0.2"/>
    <ellipse id="Ellipse_124" data-name="Ellipse 124" cx="17.167" cy="2.536" rx="17.167" ry="2.536" transform="translate(65.55 346.581)" fill="#6c63ff" opacity="0.1"/>
    <ellipse id="Ellipse_125" data-name="Ellipse 125" cx="17.167" cy="2.536" rx="17.167" ry="2.536" transform="translate(107.118 369.349)" fill="#6c63ff" opacity="0.1"/>
    <ellipse id="Ellipse_126" data-name="Ellipse 126" cx="11.367" cy="1.271" rx="11.367" ry="1.271" transform="translate(296.305 311.288)" fill="#6c63ff" opacity="0.1"/>
    <ellipse id="Ellipse_127" data-name="Ellipse 127" cx="11.367" cy="1.271" rx="11.367" ry="1.271" transform="translate(243.168 347.846)" fill="#6c63ff" opacity="0.1"/>
    <ellipse id="Ellipse_128" data-name="Ellipse 128" cx="11.367" cy="1.271" rx="11.367" ry="1.271" transform="translate(219.212 370.615)" fill="#6c63ff" opacity="0.1"/>
  </g>
</svg>
