<svg xmlns="http://www.w3.org/2000/svg" width="595.385" height="316.849" viewBox="0 0 595.385 316.849">
  <g id="Group_111" data-name="Group 111" transform="translate(-0.011 -0.035)">
    <path id="Path_708" data-name="Path 708" d="M629.1,423.486q-.995,2.144-1.984,4.231-1.544,3.242-3.048,6.358c-.446.921-.892,1.824-1.327,2.727-4.917,10.046-9.509,18.932-13.408,26.239a41.86,41.86,0,0,1-36.486,22.128l-86.711.943h-.915l-7.433.08-6.358.069-19.5.212h-.789l-9.926.109h-.3l-61.181.663-54.611.572-6.352.069-39.453.429h-.046l-25.587.274h-.275l-80.907.875-24.2.263a50.334,50.334,0,0,1-6.17-.309h0c-.7-.08-1.4-.172-2.087-.28a49.962,49.962,0,0,1-29.327-15.747,114.1,114.1,0,0,1-23.077-39.316q-1.1-3.139-2.058-6.358c-17.617-59.551,3.86-136.382,42.512-187.8q2.43-3.225,4.94-6.29l.04-.046c11.887-14.592,25.216-26.782,39.413-35.451,25.158-15.387,53.033-19.721,80.45-6.8,23.2,10.932,44.856,16.073,65.852,17.468,2.121.137,4.243.24,6.353.3,48.161,1.515,93.3-15.838,146.3-27.04,2.11-.446,4.225-.886,6.358-1.3,37.812-7.525,79.758-11.493,129.641-3.15a108.116,108.116,0,0,1,15.3,3.659q3.3,1.064,6.358,2.287c23.809,9.686,36.794,27.583,42.312,50.008q.783,3.122,1.355,6.352C682.553,293.857,653.9,370.373,629.1,423.486Z" transform="translate(-79.34 -172.91)" fill="#f2f2f2"/>
    <path id="Path_709" data-name="Path 709" d="M368.2,433.556a54.438,54.438,0,0,1-1.069,6.358H420.7v-6.358ZM323.453,469.47l6.353-.051V453.712c-2.178-.1-4.3-.194-6.353-.3Zm-133.18-35.914v6.358h113.5v-6.358ZM676.107,239.424H633.795V189.4q-3.059-1.241-6.358-2.287v52.312H482.466V186.58c-2.133.417-4.248.858-6.358,1.3v51.541h-146.3v-24.5c-2.11-.063-4.231-.166-6.353-.3v24.8h-146.3V203.974c-14.2,8.668-27.526,20.859-39.413,35.451h-.04v.046q-2.516,3.088-4.94,6.29h4.94v187.8H90.24q.949,3.219,2.058,6.358h45.394v53.53a49.739,49.739,0,0,0,6.976,1.6c.692.109,1.389.2,2.087.28h0a50.31,50.31,0,0,0,6.17.309l24.2-.263V439.9H323.453v53.868l6.353-.069V439.914h146.3v52.238l6.358-.069v-52.17H627.408v2.727c.435-.9.881-1.807,1.326-2.727q1.5-3.116,3.048-6.358.989-2.081,1.984-4.231V245.783h43.7Q676.884,242.529,676.107,239.424ZM177.151,433.556V245.76h146.3v187.8Zm152.666,0V245.76H476.108v187.8Zm297.6,0H482.466V245.76H627.408Z" transform="translate(-84.003 -178.749)" opacity="0.1"/>
    <path id="Path_710" data-name="Path 710" d="M538.93,521.446v7.433l-86.865.8-.926.017-33.015.3-.789.011L407.3,530.1H407l-61.169.566-100.411.932h-.086l-25.53.24-.274.006L106.09,532.882V524.3l26.674-16.01,53.519-.446,1.144-.006.377-.006,1.144-.017,25.7-.212,1.149-.006.366-.006,1.144-.006,8.239-.069.217-.006,20.327-.172h.166l158.613-1.338,3.882-.029h.389l2.962-.029,21.528-.177,1.144-.017,1.058-.011h.549l6.7-.051,1.327-.017,1.778-.011,5.575-.051,8.846-.074,1.144-.011,1.99-.011h.372l42.718-.366Z" transform="translate(-45.425 -216.299)" fill="#65617d"/>
    <path id="Path_711" data-name="Path 711" d="M538.93,521.446v7.433l-86.865.8-.926.017-33.015.3-.789.011L407.3,530.1H407l-61.169.566-100.411.932h-.086l-25.53.24-.274.006L106.09,532.882V524.3l26.674-16.01,53.519-.446,1.144-.006.377-.006,1.144-.017,25.7-.212,1.149-.006.366-.006,1.144-.006,8.239-.069.217-.006,20.327-.172h.166l158.613-1.338,3.882-.029h.389l2.962-.029,21.528-.177,1.144-.017,1.058-.011h.549l6.7-.051,1.327-.017,1.778-.011,5.575-.051,8.846-.074,1.144-.011,1.99-.011h.372l42.718-.366Z" transform="translate(-45.425 -216.299)" opacity="0.2"/>
    <path id="Path_712" data-name="Path 712" d="M355.241,656.57v14a3.5,3.5,0,0,1-2,3.168,3.43,3.43,0,0,1-1.429.343l-19.955.423a3.43,3.43,0,0,1-1.544-.326A3.5,3.5,0,0,1,328.27,671V656.57Z" transform="translate(-185.931 -380.006)" fill="#3f3d56"/>
    <path id="Path_713" data-name="Path 713" d="M355.241,656.57v14a3.5,3.5,0,0,1-2,3.168,3.43,3.43,0,0,1-1.429.343l-19.955.423a3.43,3.43,0,0,1-1.544-.326A3.5,3.5,0,0,1,328.27,671V656.57Z" transform="translate(-185.931 -380.006)" opacity="0.1"/>
    <path id="Path_714" data-name="Path 714" d="M357.241,656.57v14a3.5,3.5,0,0,1-2,3.168,3.43,3.43,0,0,1-1.429.343l-19.955.423a3.43,3.43,0,0,1-1.544-.326A3.5,3.5,0,0,1,330.27,671V656.57Z" transform="translate(-186.788 -380.006)" fill="#3f3d56"/>
    <rect id="Rectangle_309" data-name="Rectangle 309" width="26.971" height="18.011" transform="translate(389.343 276.558)" fill="#3f3d56"/>
    <rect id="Rectangle_310" data-name="Rectangle 310" width="26.971" height="18.011" transform="translate(389.343 276.558)" opacity="0.1"/>
    <rect id="Rectangle_311" data-name="Rectangle 311" width="26.971" height="18.011" transform="translate(388.2 276.558)" fill="#3f3d56"/>
    <path id="Path_715" data-name="Path 715" d="M277.891,483.65v2.842l-26.971.72V483.65Z" transform="translate(-107.443 -207.092)" opacity="0.1"/>
    <path id="Path_716" data-name="Path 716" d="M375.261,483.579v96.174a2.287,2.287,0,0,1-2.2,2.259l-109.582,2.916h-.029a2.287,2.287,0,0,1-2.259-2.259v-99.09a2.287,2.287,0,0,1,2.259-2.259H373a2.287,2.287,0,0,1,2.259,2.259Z" transform="translate(-157.207 -304.961)" fill="#65617d"/>
    <path id="Path_717" data-name="Path 717" d="M263.477,481.32V584.927h-.029a2.287,2.287,0,0,1-2.259-2.259v-99.09a2.287,2.287,0,0,1,2.259-2.259Z" transform="translate(-157.207 -304.961)" opacity="0.1"/>
    <path id="Path_718" data-name="Path 718" d="M194.59,319.15H296.082v84.767L194.59,406.2Z" transform="translate(-83.322 -136.65)" fill="#6c63ff"/>
    <path id="Path_719" data-name="Path 719" d="M705.891,483.65v3.665l-26.971-.72V483.65Z" transform="translate(-290.72 -207.092)" opacity="0.1"/>
    <path id="Path_720" data-name="Path 720" d="M782.244,483.579v99.09a2.287,2.287,0,0,1-2.287,2.259h0l-109.605-2.916a2.287,2.287,0,0,1-2.2-2.259V483.579a2.287,2.287,0,0,1,2.259-2.259H779.962A2.287,2.287,0,0,1,782.244,483.579Z" transform="translate(-331.474 -304.961)" fill="#65617d"/>
    <path id="Path_721" data-name="Path 721" d="M865.977,483.579v99.09a2.287,2.287,0,0,1-2.287,2.259h0V481.32h0a2.287,2.287,0,0,1,2.287,2.259Z" transform="translate(-415.207 -304.961)" opacity="0.1"/>
    <path id="Path_722" data-name="Path 722" d="M699.582,319.15H598.09v84.767L699.582,406.2Z" transform="translate(-256.107 -136.65)" fill="#6c63ff"/>
    <path id="Path_723" data-name="Path 723" d="M577.761,483.579v96.174a2.287,2.287,0,0,1-2.2,2.259l-109.582,2.916h0a2.287,2.287,0,0,1-2.287-2.259v-99.09a2.287,2.287,0,0,1,2.259-2.259H575.5A2.287,2.287,0,0,1,577.761,483.579Z" transform="translate(-243.92 -304.961)" fill="#65617d"/>
    <path id="Path_724" data-name="Path 724" d="M397.09,319.15H498.582v84.767L397.09,406.2Z" transform="translate(-170.036 -136.65)" fill="#6c63ff"/>
    <path id="Path_725" data-name="Path 725" d="M538.93,533.65v7.433l-86.865.8-.926.017-33.015.3-.789.011L407.3,542.3H407l-61.169.566-100.411.932h-.086l-25.53.24-.274.006L106.09,545.086v-8.577l115.792-.76h.274l23.437-.16h.109l161.86-1.069h.166l.1-.006h.269l2.739-.017h.835l42.592-.286,2.516-.011.56-.006Z" transform="translate(-45.425 -228.503)" opacity="0.1"/>
    <circle id="Ellipse_113" data-name="Ellipse 113" cx="29.35" cy="29.35" r="29.35" transform="translate(249.262 141.143)" fill="#fbbebe"/>
    <path id="Path_726" data-name="Path 726" d="M579.127,502.954s-56.893,6.861-51.461,0c1.967-2.482,2.51-9.835,2.4-18.211-.034-2.544-.126-5.18-.257-7.8-.629-12.579-2.144-24.873-2.144-24.873s49.745-23.443,44.027-4.86c-2.287,7.508-1.538,18.051.2,27.949.509,2.888,1.1,5.718,1.715,8.405a197.1,197.1,0,0,0,5.518,19.395Z" transform="translate(-271.16 -287.285)" fill="#fbbebe"/>
    <path id="Path_727" data-name="Path 727" d="M524.531,543c6.581-1.218,13.551-3.431,19.744-.88,1.63.669,3.128,1.647,4.8,2.207s3.5.7,5.238,1.092c6.107,1.384,11.058,6.032,14.237,11.436s4.826,11.516,6.438,17.565l3.945,14.769c3.431,12.836,6.861,25.782,7.656,39.053a1393.737,1393.737,0,0,1-143.426.818c3.11-5.912,6.29-12.185,6.027-18.869s-4.111-13.277-2.722-19.864c.886-4.2,3.757-7.656,5.512-11.561,5-11.161,1.109-26.182,9.9-34.679,3.957-3.819,9.72-5.266,15.227-5.083,7.021.234,14.209,2.424,21.156,3.494C507.16,543.842,515.565,544.642,524.531,543Z" transform="translate(-235.129 -329.654)" fill="#ff6584"/>
    <path id="Path_728" data-name="Path 728" d="M593.3,652.186l-.057.818v.057l-.1,1.315-.76,10.584-.921,12.751L591.2,681.3l-.572,7.685v.1l-61.181.572-100.4,1.086v.48h-.08v-.64l.257-8.211.492-16.044.423-13.6.04-1.355a6.021,6.021,0,0,1,6.53-5.815c2.7.229,6.2.509,10.4.806l1.715.126c24.2,1.681,68.934,3.854,114.071,1.144.949-.051,1.9-.109,2.859-.177,7-.44,13.992-1.006,20.916-1.715a6.021,6.021,0,0,1,6.633,6.421Z" transform="translate(-229.053 -375.28)" opacity="0.1"/>
    <path id="Path_729" data-name="Path 729" d="M429.08,692.948v-.48L529.5,691.375l61.181-.572h.172v-.1l.572-7.685.246-3.431.938-12.928.738-10.235v-.252a6.068,6.068,0,0,0-.063-1.412.169.169,0,0,0,0-.057,5.94,5.94,0,0,0-1.144-2.653,6.027,6.027,0,0,0-5.386-2.287c-6.924.709-13.917,1.275-20.916,1.715-.955.069-1.91.126-2.859.177-45.137,2.682-89.867.509-114.071-1.143l-1.715-.126c-4.191-.3-7.7-.572-10.4-.806a6.027,6.027,0,0,0-6.427,4.877,6.275,6.275,0,0,0-.1.938l-.389,12.671-.532,16.05-.252,8.211v.64Z" transform="translate(-229.1 -377.005)" fill="#3f3d56"/>
    <path id="Path_730" data-name="Path 730" d="M593.532,661.139l-.7,8.765-1.046,13.065-.263,3.271-.572,7.325-.034.366v.1h0l-.086.846.063-.846h-.166l-61.181.572L429.11,695.686v-.16l.28-8.211.572-16.044.366-10.664a3.636,3.636,0,0,1,1.75-3,3.573,3.573,0,0,1,2.161-.515c1.2.1,2.676.212,4.4.337,2.8.206,6.244.446,10.258.7,7.433.469,16.759.972,27.446,1.384,29.733,1.144,69.872,1.527,108-1.813,1.715-.149,3.488-.315,5.22-.48a3.58,3.58,0,0,1,1.99.377,2.95,2.95,0,0,1,.492.309,3.51,3.51,0,0,1,1.144,1.407,2.037,2.037,0,0,1,.143.349A3.591,3.591,0,0,1,593.532,661.139Z" transform="translate(-229.113 -380.224)" opacity="0.1"/>
    <path id="Path_731" data-name="Path 731" d="M357.241,677.87v1.824a3.505,3.505,0,0,1-2,3.168l-22.928.44a3.5,3.5,0,0,1-2.041-3.185V678.4Z" transform="translate(-186.788 -389.127)" opacity="0.1"/>
    <path id="Path_732" data-name="Path 732" d="M276.216,511.857l-29.876.572v-4.957l29.876-.572Z" transform="translate(-105.482 -217.048)" fill="#3f3d56"/>
    <path id="Path_733" data-name="Path 733" d="M276.216,511.857l-29.876.572v-4.957l29.876-.572Z" transform="translate(-105.482 -217.048)" opacity="0.1"/>
    <path id="Path_734" data-name="Path 734" d="M278.216,511.857l-29.876.572v-4.957l29.876-.572Z" transform="translate(-106.339 -217.048)" fill="#3f3d56"/>
    <path id="Path_735" data-name="Path 735" d="M758.56,679.87v1.824a3.505,3.505,0,0,0,2,3.168l22.928.44a3.5,3.5,0,0,0,2.041-3.185V680.4Z" transform="translate(-370.189 -389.984)" opacity="0.1"/>
    <path id="Path_736" data-name="Path 736" d="M678.72,513.857l29.876.572v-4.957L678.72,508.9Z" transform="translate(-290.634 -217.904)" opacity="0.1"/>
    <path id="Path_737" data-name="Path 737" d="M676.72,513.857l29.876.572v-4.957L676.72,508.9Z" transform="translate(-289.778 -217.904)" fill="#3f3d56"/>
    <path id="Path_738" data-name="Path 738" d="M518.355,449.638c.046,4-1.807,7.776-3.379,11.476a93.48,93.48,0,0,0-7.239,42.718c.417,6.29,1.475,12.579.417,18.812s-4.82,12.448-10.864,14.237a30.752,30.752,0,0,0,33.026-1.521c5.026-3.659,8.771-8.765,12.436-13.786a55.956,55.956,0,0,1-7.61,25.587,59.139,59.139,0,0,0,42.032-23.34,30.616,30.616,0,0,0,5.558-11c1.767-7.433-.7-15.158-2.579-22.585a152.127,152.127,0,0,1-3.528-18.869,16.794,16.794,0,0,1,.057-6.118c.572-2.327,2.1-4.294,3.225-6.415,3.2-6.027,3.276-13.323,1.635-19.944s-4.854-12.728-8.039-18.76c-2.55-4.837-5.318-9.9-9.983-12.739-2.916-1.773-6.29-2.51-9.652-3.225l-14.506-3.1c-3.173-.68-6.438-1.361-9.646-.863-5.415.846-9.229,4.757-12.579,8.771-2.625,3.122-9.04,8.983-9.492,13.071-.412,3.768,2.916,10.081,3.482,14.054.743,5.146,1.269,3.431,4.174,6.587A10.155,10.155,0,0,1,518.355,449.638Z" transform="translate(-258.309 -270.152)" fill="#3f3d56"/>
    <path id="Path_739" data-name="Path 739" d="M336.736,506.072h-56.95a.286.286,0,1,1,0-.572h56.95a.286.286,0,1,1,0,.572Z" transform="translate(-165.047 -315.316)" fill="#f2f2f2"/>
    <path id="Path_740" data-name="Path 740" d="M336.736,515.072h-56.95a.286.286,0,0,1,0-.572h56.95a.286.286,0,1,1,0,.572Z" transform="translate(-165.047 -319.17)" fill="#f2f2f2"/>
    <path id="Path_741" data-name="Path 741" d="M336.736,524.072h-56.95a.286.286,0,0,1,0-.572h56.95a.286.286,0,1,1,0,.572Z" transform="translate(-165.047 -323.023)" fill="#f2f2f2"/>
  </g>
</svg>
