<svg width="23" height="21" viewBox="0 0 23 21" fill="none" xmlns="http://www.w3.org/2000/svg">
<path d="M10.8371 4.04135L11.5 5.29434L12.1629 4.04136C12.5153 3.3754 13.1008 2.48725 13.9582 1.80146L13.4897 1.21577L13.9582 1.80146C14.8388 1.09709 15.8191 0.75 16.8906 0.75C19.8806 0.75 22.25 3.27721 22.25 6.85353C22.25 8.74125 21.527 10.3579 20.1563 12.0685C18.7667 13.8027 16.7642 15.5709 14.2674 17.7716L14.7374 18.3049L14.2673 17.7716L14.2666 17.7722C13.4327 18.5072 12.4856 19.342 11.5 20.233C10.5151 19.3426 9.56839 18.5082 8.73533 17.7739L8.7332 17.772L8.73318 17.772C6.23607 15.5712 4.23344 13.8028 2.84372 12.0685C1.47298 10.3579 0.75 8.74125 0.75 6.85353C0.75 3.27721 3.11943 0.75 6.10938 0.75C7.18086 0.75 8.16119 1.09709 9.0418 1.80146L9.51028 1.21577L9.0418 1.80146C9.89919 2.48725 10.4847 3.37536 10.8371 4.04135Z" stroke="black" stroke-opacity="0.68" stroke-width="1.5"/>
</svg>
