<svg width="30" height="27" viewBox="0 0 30 27" fill="none" xmlns="http://www.w3.org/2000/svg">
<path d="M14.3392 5.09976L15 6.33093L15.6608 5.09978C16.1278 4.22972 16.9085 3.05969 18.0597 2.15209C19.247 1.2159 20.577 0.75 22.0312 0.75C26.0908 0.75 29.25 4.12967 29.25 8.81168C29.25 11.2991 28.2805 13.4221 26.4723 15.6465C24.6451 17.8942 22.0164 20.1813 18.7645 23.0064L19.2299 23.542L18.7645 23.0064L18.7639 23.0069C17.665 23.9616 16.4164 25.0464 15.118 26.2041L15.1177 26.2043C15.0836 26.2347 15.0419 26.25 15 26.25C14.9581 26.25 14.9165 26.2348 14.8824 26.2043L14.882 26.204C13.5843 25.0471 12.3362 23.9627 11.2383 23.0088L11.2362 23.007L11.2362 23.007C7.98398 20.1816 5.35503 17.8944 3.52775 15.6465C1.71949 13.4221 0.75 11.2991 0.75 8.81168C0.75 4.12967 3.90924 0.75 7.96875 0.75C9.42297 0.75 10.753 1.2159 11.9403 2.15209L12.4047 1.56313L11.9404 2.15209C13.0915 3.0597 13.8722 4.22967 14.3392 5.09976Z" fill="#F80404" stroke="black" stroke-width="1.5"/>
</svg>
