<svg id="undraw_collaborators_prrw" xmlns="http://www.w3.org/2000/svg" width="517.156" height="336.568" viewBox="0 0 517.156 336.568">
  <path id="Path_69" data-name="Path 69" d="M974.067,413.017,972.7,431.7a4.162,4.162,0,0,1-3.874,3.849h0a4.162,4.162,0,0,1-4.438-4.252l.435-18.284,16.086-51.592-1.947-31.607,15.226-.544L993.1,365.708Z" transform="translate(-491.773 -231.902)" fill="#a0616a"/>
  <path id="Path_70" data-name="Path 70" d="M1005.978,320.92c-6.791-1.566-12.6.259-17.113,6.609l-3.491-26.41a6.936,6.936,0,0,1,5.209-7.44h0a6.936,6.936,0,0,1,8.309,4.651Z" transform="translate(-500.418 -217.128)" fill="#00b0ff"/>
  <path id="Path_71" data-name="Path 71" d="M985.318,253.71c-15.691-6.674-31.81-2.445-50.9.489-.178-3.554-2.33-7.879-.075-10.359,2.74-3.012,2.488-6.177.839-9.361-4.216-8.14,1.824-16.8,7.923-24a13.507,13.507,0,0,1,11.273-4.732l11.3.807c5.63.4,6.994,4.257,8.59,9.67h0c2.7,3.669,4.141,7.327,3.232,10.967,4.041,2.761,4.719,6.094,2.9,9.852a5.663,5.663,0,0,0,.07,6.908,31.9,31.9,0,0,1,4.742,9.419Z" transform="translate(-478.956 -180.918)" fill="#2f2e41"/>
  <path id="Path_72" data-name="Path 72" d="M758.305,494.678H750.8l-4.458-61.992,19.032-.544Z" transform="translate(-307.953 -178.309)" fill="#a0616a"/>
  <path id="Path_73" data-name="Path 73" d="M910.932,720.511c-2,.913-3.678-6.487-5.366-4.828-4.722,4.64-16.05,3.6-16.05,3.6a2.952,2.952,0,0,1-1.86-3.846h0a2.952,2.952,0,0,1,2.048-1.827l5.022-1.255,7.885-13.867,8.049-.544h0a19.231,19.231,0,0,1,3.557,16.406C913.487,717.331,912.359,719.86,910.932,720.511Z" transform="translate(-460.036 -384.022)" fill="#2f2e41"/>
  <path id="Path_74" data-name="Path 74" d="M843.386,492.386H835.88l-4.458-61.992L851,426.588Z" transform="translate(-343.058 -176.017)" fill="#a0616a"/>
  <path id="Path_75" data-name="Path 75" d="M996.013,720.129c-2,.913-3.678-6.487-5.366-4.828-4.722,4.64-16.05,3.6-16.05,3.6a2.952,2.952,0,0,1-1.861-3.847h0a2.952,2.952,0,0,1,2.048-1.827l5.022-1.255,7.885-13.867,8.593-1.088.217.355a22.156,22.156,0,0,1,2.374,18.117C998.161,717.78,997.189,719.592,996.013,720.129Z" transform="translate(-495.141 -383.64)" fill="#2f2e41"/>
  <path id="Path_76" data-name="Path 76" d="M977.249,512.658c-12.13,5.367-19.4-.442-31.745,1.314-3.526.5-7.679-51.347-11.222-51.131-4.51.276-8.416,52.528-12.954,52.349a150.031,150.031,0,0,1-33.723-5.333c11.759-45.607,25.644-86.846,25.558-120.721l35.276-2.719,4.856,7.7c7.785,18.266,15.738,38.551,19.7,59.781Z" transform="translate(-460.092 -255.481)" fill="#2f2e41"/>
  <circle id="Ellipse_5" data-name="Ellipse 5" cx="16.314" cy="16.314" r="16.314" transform="translate(454.159 30.88)" fill="#a0616a"/>
  <path id="Path_77" data-name="Path 77" d="M815.088,115.66l-20.12,1.087L791.7,98.8l16.314-2.718Z" transform="translate(-326.67 -39.646)" fill="#a0616a"/>
  <path id="Path_78" data-name="Path 78" d="M963.984,347.118l-25.779.621-11.129,1.554c-5.463-18.045-10.061-36.048,1.088-51.116l13.051-13.051,19.576-.544.259.148a15.764,15.764,0,0,1,7.223,18.34C963.415,318.857,964.031,333.765,963.984,347.118Z" transform="translate(-474.005 -213.462)" fill="#00b0ff"/>
  <path id="Path_79" data-name="Path 79" d="M969.106,230.357a19.836,19.836,0,0,0-5.016-13.211v-5.795H946.4a10.271,10.271,0,0,0-10.272,10.272H947.92c-3.18,5.853-4.551,11.99-1.489,17.9,1.847,3.567,1.929,10.652-.6,14.054a35.053,35.053,0,0,0,3.995,0c5.465,0,20.369.711,23.967-2.853C977.435,247.117,969.106,235.891,969.106,230.357Z" transform="translate(-480.114 -183.246)" fill="#2f2e41"/>
  <path id="Path_80" data-name="Path 80" d="M870.413,474.758H765.91a2.5,2.5,0,0,0-2.491,2.491V586.938a2.5,2.5,0,0,0,2.491,2.491h104.5a2.5,2.5,0,0,0,2.491-2.491V477.248A2.5,2.5,0,0,0,870.413,474.758Z" transform="translate(-408.851 -291.931)" fill="#e6e6e6"/>
  <path id="Path_81" data-name="Path 81" d="M870.109,480.058H770.588a1.875,1.875,0,0,0-1.868,1.868V586.634a1.874,1.874,0,0,0,1.868,1.868h99.521a1.874,1.874,0,0,0,1.868-1.868V481.926a1.874,1.874,0,0,0-1.868-1.868Z" transform="translate(-411.038 -294.119)" fill="#fff"/>
  <path id="Path_82" data-name="Path 82" d="M923.392,418.318,922.024,437a4.162,4.162,0,0,1-3.874,3.849h0a4.162,4.162,0,0,1-4.438-4.252l.435-18.284,13.595-51.66.544-31.54,15.226-.544-1.088,36.434Z" transform="translate(-470.864 -234.09)" fill="#a0616a"/>
  <path id="Path_83" data-name="Path 83" d="M954.618,318.574c-6.455-2.625-12.485-1.746-17.945,3.807l.748-26.63a6.936,6.936,0,0,1,6.324-6.518h0a6.936,6.936,0,0,1,7.465,5.912Z" transform="translate(-480.338 -215.37)" fill="#00b0ff"/>
  <path id="Path_84" data-name="Path 84" d="M868.47,525.15a1.073,1.073,0,0,1,1.073,1.073v2.146a1.073,1.073,0,0,1-1.073,1.073H783.72a1.073,1.073,0,0,1-1.073-1.073v-2.146a1.073,1.073,0,0,1,1.073-1.073H868.47" transform="translate(-416.785 -312.724)" fill="#e6e6e6"/>
  <path id="Path_85" data-name="Path 85" d="M868.47,542.5a1.073,1.073,0,0,1,1.073,1.073v2.146a1.073,1.073,0,0,1-1.073,1.073H783.72a1.073,1.073,0,0,1-1.073-1.073v-2.146a1.073,1.073,0,0,1,1.073-1.073H868.47" transform="translate(-416.785 -319.883)" fill="#e6e6e6"/>
  <path id="Path_86" data-name="Path 86" d="M868.47,559.851a1.073,1.073,0,0,1,1.073,1.073v2.146a1.073,1.073,0,0,1-1.073,1.073H783.72a1.073,1.073,0,0,1-1.073-1.073v-2.146a1.073,1.073,0,0,1,1.073-1.073H868.47" transform="translate(-416.785 -327.042)" fill="#00b0ff"/>
  <path id="Path_87" data-name="Path 87" d="M868.47,577.582a1.073,1.073,0,0,1,1.073,1.073V580.8a1.073,1.073,0,0,1-1.073,1.073H783.72a1.073,1.073,0,0,1-1.073-1.073v-2.146a1.073,1.073,0,0,1,1.073-1.073H868.47" transform="translate(-416.785 -334.358)" fill="#e6e6e6"/>
  <path id="Path_88" data-name="Path 88" d="M868.47,594.932a1.073,1.073,0,0,1,1.073,1.073v2.146a1.073,1.073,0,0,1-1.073,1.073H783.72a1.073,1.073,0,0,1-1.073-1.073v-2.146a1.073,1.073,0,0,1,1.073-1.073H868.47" transform="translate(-416.785 -341.517)" fill="#e6e6e6"/>
  <path id="Path_89" data-name="Path 89" d="M868.47,612.283a1.073,1.073,0,0,1,1.073,1.073V615.5a1.073,1.073,0,0,1-1.073,1.073H783.72a1.073,1.073,0,0,1-1.073-1.073v-2.146a1.073,1.073,0,0,1,1.073-1.073H868.47" transform="translate(-416.785 -348.677)" fill="#e6e6e6"/>
  <path id="Path_90" data-name="Path 90" d="M248.043,600.048l-8.322.462-18.955-127.6-17.8,127.366-9.015-2.08c-5.006-54.9-11.524-111.653-6.935-136.381h63.336C259.76,486.4,253.482,544.11,248.043,600.048Z" transform="translate(-170.375 -286.592)" fill="#2f2e41"/>
  <path id="Path_91" data-name="Path 91" d="M198.9,717.169h0a7.45,7.45,0,0,1-6.853-9.221l3.787-15.384c3.165-3.933,6-3.761,8.543,0l2.6-1.115,1.857,13.372-2.561,7.483a7.45,7.45,0,0,1-7.373,4.865Z" transform="translate(-173.004 -380.611)" fill="#2f2e41"/>
  <path id="Path_92" data-name="Path 92" d="M282.657,717.169h0a7.45,7.45,0,0,0,6.853-9.221l-3.787-15.384c-3.166-3.933-6-3.761-8.543,0l-2.6-1.115-1.857,13.372,2.561,7.483A7.45,7.45,0,0,0,282.657,717.169Z" transform="translate(-206.382 -380.611)" fill="#2f2e41"/>
  <circle id="Ellipse_6" data-name="Ellipse 6" cx="18.492" cy="18.492" r="18.492" transform="translate(33.748 7.871)" fill="#ffb8b8"/>
  <path id="Path_93" data-name="Path 93" d="M91.265,85.912H67.687l1.387-24.5H91.265Z" transform="translate(-27.929 -25.339)" fill="#ffb8b8"/>
  <path id="Path_94" data-name="Path 94" d="M257.5,376.259H182.6c10.92-36.819,9-76.263.925-116.964l20.342-6.472,5.548-4.623c6.962,8.479,14.66,8.409,23.115-.462l6.935,5.085,20.342,6.935C249.081,298.971,247.336,337.842,257.5,376.259Z" transform="translate(-169.198 -198.259)" fill="#ffd877"/>
  <path id="Path_95" data-name="Path 95" d="M214.434,185.087a16.735,16.735,0,0,1,1.135-13.6c2.26-4.008,6.612-7.764,14.978-7.976,18.254-.462,26.164,13.3,25.135,17.337s-4.708,13.638-4.708,13.638,2.282-9.246-2.282-10.171-22.247-4.623-27.38-.462a10.434,10.434,0,0,0-3.993,9.708Z" transform="translate(-181.943 -163.503)" fill="#2f2e41"/>
  <path id="Path_96" data-name="Path 96" d="M267.2,475.818h-104.5a2.509,2.509,0,0,0-2.491,2.491V588a2.5,2.5,0,0,0,2.491,2.491H267.2A2.5,2.5,0,0,0,269.688,588V478.309A2.5,2.5,0,0,0,267.2,475.818Z" transform="translate(-159.955 -292.369)" fill="#e6e6e6"/>
  <path id="Path_97" data-name="Path 97" d="M266.893,481.118H167.373a1.874,1.874,0,0,0-1.868,1.868V587.694a1.874,1.874,0,0,0,1.868,1.868h99.521a1.874,1.874,0,0,0,1.868-1.868V482.986a1.874,1.874,0,0,0-1.868-1.868Z" transform="translate(-162.142 -294.556)" fill="#fff"/>
  <path id="Path_98" data-name="Path 98" d="M302.589,425.723h0a7.573,7.573,0,0,1-4.224-10.023l6.186-14.538-.925-46.231-3.236-15.718,16.643-6.472,3.236,21.728L314.26,404.4l-1.386,14.965a7.573,7.573,0,0,1-10.285,6.36Z" transform="translate(-216.713 -233.333)" fill="#ffb8b8"/>
  <path id="Path_99" data-name="Path 99" d="M177.461,425.723h0a7.573,7.573,0,0,0,4.224-10.023L175.5,401.162l.925-46.231,3.236-15.718-16.643-6.472-3.236,21.728,6.01,49.929,1.386,14.965a7.573,7.573,0,0,0,10.285,6.36Z" transform="translate(-159.78 -233.333)" fill="#ffb8b8"/>
  <path id="Path_100" data-name="Path 100" d="M317.02,307.173a59.013,59.013,0,0,0-18.492,8.322l-4.161-12.482L305,267.414h0a15.188,15.188,0,0,1,10.355,13.449,144.82,144.82,0,0,0,1.665,26.309Z" transform="translate(-215.313 -206.378)" fill="#ffd877"/>
  <path id="Path_101" data-name="Path 101" d="M162.928,306.848a59.012,59.012,0,0,1,18.492,8.322l4.161-12.482-9.246-36.06h0c-5.868,1.956-11.351,7.738-11.742,13.912A144.821,144.821,0,0,1,162.928,306.848Z" transform="translate(-161.079 -206.053)" fill="#ffd877"/>
  <path id="Path_102" data-name="Path 102" d="M265.255,525.225a1.073,1.073,0,0,1,1.073,1.073v2.146a1.073,1.073,0,0,1-1.073,1.073H180.5a1.073,1.073,0,0,1-1.073-1.073V526.3a1.073,1.073,0,0,1,1.073-1.073h84.751" transform="translate(-167.888 -312.755)" fill="#e6e6e6"/>
  <path id="Path_103" data-name="Path 103" d="M265.255,542.576a1.073,1.073,0,0,1,1.073,1.073v2.146a1.073,1.073,0,0,1-1.073,1.073H180.5a1.073,1.073,0,0,1-1.073-1.073v-2.146a1.073,1.073,0,0,1,1.073-1.073h84.751" transform="translate(-167.888 -319.914)" fill="#e6e6e6"/>
  <path id="Path_104" data-name="Path 104" d="M265.255,559.927A1.073,1.073,0,0,1,266.328,561v2.146a1.073,1.073,0,0,1-1.073,1.073H180.5a1.073,1.073,0,0,1-1.073-1.073V561a1.073,1.073,0,0,1,1.073-1.073h84.751" transform="translate(-167.888 -327.073)" fill="#00b0ff"/>
  <path id="Path_105" data-name="Path 105" d="M265.255,577.657a1.073,1.073,0,0,1,1.073,1.073v2.146a1.073,1.073,0,0,1-1.073,1.073H180.5a1.073,1.073,0,0,1-1.073-1.073V578.73a1.073,1.073,0,0,1,1.073-1.073h84.751" transform="translate(-167.888 -334.389)" fill="#e6e6e6"/>
  <path id="Path_106" data-name="Path 106" d="M265.255,595.008a1.073,1.073,0,0,1,1.073,1.073v2.146a1.073,1.073,0,0,1-1.073,1.073H180.5a1.073,1.073,0,0,1-1.073-1.073v-2.146a1.073,1.073,0,0,1,1.073-1.073h84.751" transform="translate(-167.888 -341.549)" fill="#e6e6e6"/>
  <path id="Path_107" data-name="Path 107" d="M265.255,612.359a1.073,1.073,0,0,1,1.073,1.073v2.146a1.073,1.073,0,0,1-1.073,1.073H180.5a1.073,1.073,0,0,1-1.073-1.073v-2.146a1.073,1.073,0,0,1,1.073-1.073h84.751" transform="translate(-167.888 -348.708)" fill="#e6e6e6"/>
  <path id="Path_108" data-name="Path 108" d="M610.447,350.086h-104.5a2.494,2.494,0,0,0-2.491,2.491V535.509A2.5,2.5,0,0,0,505.945,538h104.5a2.5,2.5,0,0,0,2.491-2.491V352.577A2.494,2.494,0,0,0,610.447,350.086Z" transform="translate(-301.585 -240.49)" fill="#e6e6e6"/>
  <path id="Path_109" data-name="Path 109" d="M611.968,356.856a2.01,2.01,0,0,0-.262-.629,1.885,1.885,0,0,0-1.563-.841H510.622a1.87,1.87,0,0,0-1.868,1.868v177.95a1.874,1.874,0,0,0,1.868,1.868h99.521a1.874,1.874,0,0,0,1.868-1.868V357.255A1.7,1.7,0,0,0,611.968,356.856Z" transform="translate(-303.772 -242.677)" fill="#fff"/>
  <path id="Path_110" data-name="Path 110" d="M608.5,519.924A1.073,1.073,0,0,1,609.577,521v2.146a1.073,1.073,0,0,1-1.073,1.073H523.754a1.073,1.073,0,0,1-1.073-1.073V521a1.073,1.073,0,0,1,1.073-1.073H608.5" transform="translate(-309.519 -310.568)" fill="#e6e6e6"/>
  <path id="Path_111" data-name="Path 111" d="M608.5,537.275a1.073,1.073,0,0,1,1.073,1.073v2.146a1.073,1.073,0,0,1-1.073,1.073H523.754a1.073,1.073,0,0,1-1.073-1.073v-2.146a1.073,1.073,0,0,1,1.073-1.073H608.5" transform="translate(-309.519 -317.727)" fill="#e6e6e6"/>
  <path id="Path_112" data-name="Path 112" d="M608.5,554.626a1.073,1.073,0,0,1,1.073,1.073v2.146a1.073,1.073,0,0,1-1.073,1.073H523.754a1.073,1.073,0,0,1-1.073-1.073V555.7a1.073,1.073,0,0,1,1.073-1.073H608.5" transform="translate(-309.519 -324.886)" fill="#00b0ff"/>
  <path id="Path_113" data-name="Path 113" d="M608.5,572.356a1.073,1.073,0,0,1,1.073,1.073v2.146a1.073,1.073,0,0,1-1.073,1.073H523.754a1.073,1.073,0,0,1-1.073-1.073v-2.146a1.073,1.073,0,0,1,1.073-1.073H608.5" transform="translate(-309.519 -332.202)" fill="#e6e6e6"/>
  <path id="Path_114" data-name="Path 114" d="M608.5,589.707a1.073,1.073,0,0,1,1.073,1.073v2.146A1.073,1.073,0,0,1,608.5,594H523.754a1.073,1.073,0,0,1-1.073-1.073V590.78a1.073,1.073,0,0,1,1.073-1.073H608.5" transform="translate(-309.519 -339.361)" fill="#e6e6e6"/>
  <path id="Path_115" data-name="Path 115" d="M608.5,607.058a1.073,1.073,0,0,1,1.073,1.073v2.146a1.073,1.073,0,0,1-1.073,1.073H523.754a1.073,1.073,0,0,1-1.073-1.073v-2.146a1.073,1.073,0,0,1,1.073-1.073H608.5" transform="translate(-309.519 -346.521)" fill="#e6e6e6"/>
  <path id="Path_116" data-name="Path 116" d="M524.677,384.489a1.247,1.247,0,0,0-1.245,1.245v57.859a1.247,1.247,0,0,0,1.245,1.245H608.2a1.247,1.247,0,0,0,1.245-1.245V385.735a1.247,1.247,0,0,0-1.245-1.245Z" transform="translate(-309.828 -254.685)" fill="#00b0ff"/>
  <path id="Path_117" data-name="Path 117" d="M746.384,307.185c2.269.965,4.526,2.034,6.706,3.179l.579-1.1c-2.21-1.161-4.5-2.245-6.8-3.222Z" transform="translate(-401.822 -222.315)" fill="#ccc"/>
  <path id="Path_118" data-name="Path 118" d="M789.7,333.37l-.831.929c1.837,1.643,3.627,3.382,5.32,5.17l.9-.856C793.381,336.8,791.566,335.035,789.7,333.37Z" transform="translate(-419.354 -233.592)" fill="#ccc"/>
  <path id="Path_119" data-name="Path 119" d="M768.739,318.989c2.081,1.32,4.133,2.743,6.1,4.228l.752-.994c-1.992-1.505-4.072-2.947-6.182-4.286Z" transform="translate(-411.046 -227.225)" fill="#ccc"/>
  <path id="Path_120" data-name="Path 120" d="M722.434,299.188c2.4.585,4.795,1.275,7.129,2.05l.393-1.182c-2.366-.785-4.8-1.485-7.226-2.078Z" transform="translate(-391.94 -218.989)" fill="#ccc"/>
  <path id="Path_121" data-name="Path 121" d="M837.908,421.385l-1.23.2c.389,2.426.678,4.9.858,7.364l1.242-.091C838.6,426.36,838.3,423.847,837.908,421.385Z" transform="translate(-439.079 -269.909)" fill="#ccc"/>
  <path id="Path_122" data-name="Path 122" d="M830.534,396.978c.805,2.326,1.517,4.716,2.117,7.1l1.208-.3c-.608-2.423-1.331-4.849-2.147-7.209Z" transform="translate(-436.544 -259.67)" fill="#ccc"/>
  <path id="Path_123" data-name="Path 123" d="M820.266,373.809c1.193,2.157,2.306,4.389,3.308,6.635l1.137-.507c-1.016-2.278-2.145-4.542-3.356-6.73Z" transform="translate(-432.307 -250.03)" fill="#ccc"/>
  <path id="Path_124" data-name="Path 124" d="M806.225,352.729c1.539,1.924,3.014,3.936,4.385,5.981l1.035-.693c-1.39-2.074-2.887-4.115-4.447-6.066Z" transform="translate(-426.513 -241.259)" fill="#ccc"/>
  <path id="Path_125" data-name="Path 125" d="M695.714,285.233a37.6,37.6,0,0,1-10.9,5.43,37.639,37.639,0,0,1,10.364,6.4l-1.671-5.374c2.055.191,4.113.446,6.135.771l.2-1.23c-2.07-.332-4.177-.593-6.281-.787Z" transform="translate(-376.416 -213.731)" fill="#ccc"/>
  <path id="Path_126" data-name="Path 126" d="M365.805,379.937l1.137.507c1-2.244,2.114-4.477,3.308-6.635l-1.09-.6C367.95,375.4,366.821,377.66,365.805,379.937Z" transform="translate(-244.789 -250.03)" fill="#ccc"/>
  <path id="Path_127" data-name="Path 127" d="M357.445,403.779l1.208.3c.6-2.385,1.311-4.776,2.117-7.105l-1.177-.407C358.775,398.933,358.052,401.359,357.445,403.779Z" transform="translate(-241.34 -259.67)" fill="#ccc"/>
  <path id="Path_128" data-name="Path 128" d="M353.385,428.855l1.242.091c.179-2.46.468-4.937.858-7.364l-1.23-.2C353.86,423.847,353.568,426.36,353.385,428.855Z" transform="translate(-239.664 -269.909)" fill="#ccc"/>
  <path id="Path_129" data-name="Path 129" d="M378.187,358.016l1.034.693c1.37-2.043,2.845-4.055,4.385-5.981l-.972-.778C381.073,353.9,379.576,355.943,378.187,358.016Z" transform="translate(-249.898 -241.259)" fill="#ccc"/>
  <path id="Path_130" data-name="Path 130" d="M434.851,309.261l.579,1.1c2.183-1.146,4.439-2.215,6.706-3.179l-.487-1.146C439.351,307.016,437.064,308.1,434.851,309.261Z" transform="translate(-273.279 -222.315)" fill="#ccc"/>
  <path id="Path_131" data-name="Path 131" d="M458.4,300.056l.392,1.182c2.334-.775,4.733-1.465,7.129-2.05l-.3-1.21C463.2,298.572,460.766,299.271,458.4,300.056Z" transform="translate(-282.996 -218.989)" fill="#ccc"/>
  <path id="Path_132" data-name="Path 132" d="M394.169,338.611l.9.856c1.692-1.786,3.482-3.526,5.32-5.17l-.83-.929C397.7,335.036,395.884,336.8,394.169,338.611Z" transform="translate(-256.492 -233.592)" fill="#ccc"/>
  <path id="Path_133" data-name="Path 133" d="M413.241,322.223l.751.994c1.965-1.486,4.017-2.908,6.1-4.228l-.667-1.052C417.313,319.275,415.233,320.717,413.241,322.223Z" transform="translate(-264.362 -227.225)" fill="#ccc"/>
  <path id="Path_134" data-name="Path 134" d="M498.274,290.663a37.639,37.639,0,0,1-10.9-5.432l2.159,5.213c-2.1.194-4.21.455-6.28.787l.2,1.23c2.022-.324,4.08-.58,6.135-.77l-1.671,5.373A37.606,37.606,0,0,1,498.274,290.663Z" transform="translate(-293.248 -213.73)" fill="#ccc"/>
  <path id="Path_135" data-name="Path 135" d="M583.089,300.222a19.3,19.3,0,1,1,19.3-19.3,19.3,19.3,0,0,1-19.3,19.3Zm0-37.362a18.058,18.058,0,1,0,18.058,18.058A18.058,18.058,0,0,0,583.089,262.86Z" transform="translate(-326.479 -203.985)" fill="#00b0ff"/>
  <rect id="Rectangle_41" data-name="Rectangle 41" width="3.736" height="18.681" transform="translate(254.742 67.593)" fill="#00b0ff"/>
  <rect id="Rectangle_42" data-name="Rectangle 42" width="3.736" height="18.681" transform="translate(265.951 75.065) rotate(90)" fill="#00b0ff"/>
</svg>
