<svg xmlns="http://www.w3.org/2000/svg" width="60.215" height="48.164" viewBox="0 0 60.215 48.164">
  <path id="Icon_awesome-code" data-name="Icon awesome-code" d="M26.239,48.12,20.5,46.455a1.131,1.131,0,0,1-.771-1.4L32.57.818a1.131,1.131,0,0,1,1.4-.771l5.739,1.665a1.131,1.131,0,0,1,.771,1.4L27.641,47.349a1.127,1.127,0,0,1-1.4.771ZM15.514,37.564,19.606,33.2a1.129,1.129,0,0,0-.075-1.618l-8.523-7.5,8.523-7.5a1.121,1.121,0,0,0,.075-1.618L15.514,10.6a1.13,1.13,0,0,0-1.6-.047L.358,23.255a1.121,1.121,0,0,0,0,1.646l13.557,12.71a1.122,1.122,0,0,0,1.6-.047Zm30.782.056,13.557-12.71a1.121,1.121,0,0,0,0-1.646L46.3,10.545a1.139,1.139,0,0,0-1.6.047L40.6,14.958a1.129,1.129,0,0,0,.075,1.618L49.2,24.083l-8.523,7.5A1.121,1.121,0,0,0,40.6,33.2L44.7,37.564a1.13,1.13,0,0,0,1.6.056Z" transform="translate(0.002 -0.003)" fill="#606060"/>
</svg>
