<svg xmlns="http://www.w3.org/2000/svg" width="60.154" height="47.95" viewBox="0 0 60.154 47.95">
  <path id="Icon_awesome-laptop" data-name="Icon awesome-laptop" d="M58.65,38.959H35.861a2.958,2.958,0,0,1-3.077,3H27.069a3.186,3.186,0,0,1-3.08-3H1.5a1.506,1.506,0,0,0-1.5,1.5v1.5A6.022,6.022,0,0,0,6.015,47.95H54.138a6.022,6.022,0,0,0,6.015-5.994v-1.5A1.506,1.506,0,0,0,58.65,38.959ZM54.138,4.5A4.517,4.517,0,0,0,49.627,0h-39.1A4.517,4.517,0,0,0,6.015,4.5V35.962H54.138ZM48.123,29.969H12.031V5.994H48.123Z" fill="#606060"/>
</svg>
