<svg xmlns="http://www.w3.org/2000/svg" width="60.866" height="39.556" viewBox="0 0 60.866 39.556">
  <g id="Icon_ionic-ios-people" data-name="Icon ionic-ios-people" transform="translate(-2.215 -7.749)">
    <path id="Path_137" data-name="Path 137" d="M39.723,38.182c-1.518-.542-4-.569-5.1-.99a7.2,7.2,0,0,1-2.359-1.1c-.393-.474-.393-3.863-.393-3.863a6.241,6.241,0,0,0,1.342-1.9,21.092,21.092,0,0,0,.651-3.728s.895.38,1.247-1.41c.3-1.545.868-2.359.718-3.5s-.786-.868-.786-.868.786-1.152.786-5.07c0-4.04-3.05-8.012-8.757-8.012S18.3,11.734,18.3,15.76c0,3.918.773,5.07.773,5.07s-.637-.271-.786.868.407,1.952.718,3.5c.352,1.8,1.247,1.41,1.247,1.41a21.3,21.3,0,0,0,.651,3.728,6.241,6.241,0,0,0,1.342,1.9s0,3.389-.393,3.863A6.93,6.93,0,0,1,19.5,37.179c-1.084.42-3.565.474-5.1,1.017A9.567,9.567,0,0,0,8.191,47.3H45.918A9.548,9.548,0,0,0,39.723,38.182Z" transform="translate(5.546 0)" fill="#606060"/>
    <path id="Path_138" data-name="Path 138" d="M16.923,28.37s3.24-.108,4.528-1.261c-2.1-3.186-.962-6.9-1.4-10.37s-2.4-5.531-6.331-5.531H13.67c-3.8,0-5.843,2.061-6.276,5.531s.773,7.591-1.383,10.37c1.288,1.166,4.541,1.125,4.541,1.125h0a6.865,6.865,0,0,1-.136,2.277,3.423,3.423,0,0,1-1.627.746,31.453,31.453,0,0,0-3.511.976,5.707,5.707,0,0,0-3.064,5.043H13.1c.3-1.084,2.345-3.023,4.338-4.04a9.1,9.1,0,0,1,3.348-.7s.515-.813-1.179-1.125A11.556,11.556,0,0,1,17,30.5C16.747,30.2,16.923,28.37,16.923,28.37Z" transform="translate(0 3.21)"/>
    <path id="Path_139" data-name="Path 139" d="M28.336,28.37s-3.24-.108-4.528-1.261c2.1-3.186.962-6.9,1.4-10.37s2.4-5.531,6.331-5.531h.054c3.8,0,5.843,2.061,6.276,5.531s-.773,7.591,1.383,10.37c-1.288,1.166-4.541,1.125-4.541,1.125h0a6.866,6.866,0,0,0,.136,2.277,3.423,3.423,0,0,0,1.627.746,31.453,31.453,0,0,1,3.511.976,5.707,5.707,0,0,1,3.064,5.043H32.158c-.3-1.084-2.345-3.023-4.338-4.04a9.1,9.1,0,0,0-3.348-.7s-.515-.813,1.179-1.125a11.556,11.556,0,0,0,2.6-.908C28.512,30.2,28.336,28.37,28.336,28.37Z" transform="translate(20.038 3.21)"/>
  </g>
</svg>
