<svg xmlns="http://www.w3.org/2000/svg" width="15.5" height="15.5" viewBox="0 0 15.5 15.5">
  <path id="Icon_awesome-linkedin" data-name="Icon awesome-linkedin" d="M14.393,2.25H1.1A1.112,1.112,0,0,0,0,3.368V16.632A1.112,1.112,0,0,0,1.1,17.75H14.393A1.115,1.115,0,0,0,15.5,16.632V3.368A1.115,1.115,0,0,0,14.393,2.25ZM4.685,15.536h-2.3v-7.4h2.3v7.4ZM3.536,7.128A1.332,1.332,0,1,1,4.868,5.8,1.333,1.333,0,0,1,3.536,7.128Zm9.76,8.407H11v-3.6c0-.858-.017-1.962-1.194-1.962-1.2,0-1.38.934-1.38,1.9v3.66h-2.3v-7.4h2.2v1.01h.031a2.42,2.42,0,0,1,2.176-1.194c2.325,0,2.757,1.533,2.757,3.526Z" transform="translate(0 -2.25)" fill="#04b1b1"/>
</svg>
