<svg xmlns="http://www.w3.org/2000/svg" width="16.875" height="13.5" viewBox="0 0 16.875 13.5">
  <path id="Icon_awesome-github-alt" data-name="Icon awesome-github-alt" d="M6.542,13.806c0,.735-.383,1.937-1.29,1.937s-1.29-1.2-1.29-1.937.383-1.937,1.29-1.937,1.29,1.2,1.29,1.937ZM16.874,12.03a7.619,7.619,0,0,1-.615,3.34c-1.332,2.693-5,2.63-7.618,2.63C5.976,18,2.1,18.095.71,15.37A7.525,7.525,0,0,1,0,12.03,6.046,6.046,0,0,1,1.459,8.037a5.5,5.5,0,0,1-.271-1.716A3.5,3.5,0,0,1,1.7,4.5,5.493,5.493,0,0,1,5.526,5.766a13.466,13.466,0,0,1,3.118-.352,12.127,12.127,0,0,1,2.826.323A5.433,5.433,0,0,1,15.261,4.5a3.468,3.468,0,0,1,.513,1.821A5.426,5.426,0,0,1,15.5,8.016a6.057,6.057,0,0,1,1.371,4.015Zm-2.26,1.775a2.656,2.656,0,0,0-2.584-2.9,14.454,14.454,0,0,0-1.969.211,10.329,10.329,0,0,1-1.585.112,10.393,10.393,0,0,1-1.586-.112A14.22,14.22,0,0,0,4.922,10.9a2.656,2.656,0,0,0-2.584,2.9c0,3.087,2.826,3.561,5.287,3.561H9.32c2.471,0,5.294-.471,5.294-3.561Zm-2.9-1.937c-.907,0-1.29,1.2-1.29,1.937s.383,1.937,1.29,1.937S13,14.54,13,13.806,12.617,11.869,11.71,11.869Z" transform="translate(0 -4.5)" fill="#04b1b1"/>
</svg>
