<svg xmlns="http://www.w3.org/2000/svg" width="24.056" height="23.46" viewBox="0 0 24.056 23.46">
  <path id="Icon_simple-github" data-name="Icon simple-github" d="M12.028.445a12.029,12.029,0,0,0-3.8,23.44c.6.113.822-.259.822-.578,0-.286-.01-1.042-.015-2.045-3.346.726-4.051-1.614-4.051-1.614a3.188,3.188,0,0,0-1.338-1.759c-1.09-.746.084-.731.084-.731A2.522,2.522,0,0,1,5.568,18.4a2.563,2.563,0,0,0,3.5,1,2.564,2.564,0,0,1,.762-1.609c-2.671-.3-5.479-1.335-5.479-5.944A4.64,4.64,0,0,1,5.592,8.618,4.277,4.277,0,0,1,5.7,5.434S6.7,5.111,9.005,6.667a11.34,11.34,0,0,1,6.014,0c2.285-1.556,3.293-1.233,3.293-1.233a4.395,4.395,0,0,1,.12,3.183,4.659,4.659,0,0,1,1.233,3.228c0,4.621-2.812,5.638-5.488,5.934A2.88,2.88,0,0,1,14.989,20c0,1.61-.015,2.9-.015,3.294,0,.316.21.692.827.571A12.013,12.013,0,0,0,12.028.445" transform="translate(0 -0.446)"/>
</svg>
