<svg xmlns="http://www.w3.org/2000/svg" width="13" height="10.558" viewBox="0 0 13 10.558">
  <path id="Icon_awesome-twitter" data-name="Icon awesome-twitter" d="M11.664,6.012c.008.115.008.231.008.346a7.529,7.529,0,0,1-7.581,7.581A7.529,7.529,0,0,1,0,12.743a5.511,5.511,0,0,0,.643.033,5.336,5.336,0,0,0,3.308-1.138A2.669,2.669,0,0,1,1.46,9.79a3.36,3.36,0,0,0,.5.041,2.818,2.818,0,0,0,.7-.091A2.665,2.665,0,0,1,.528,7.126V7.093a2.683,2.683,0,0,0,1.2.338A2.668,2.668,0,0,1,.907,3.867,7.573,7.573,0,0,0,6.4,6.655a3.008,3.008,0,0,1-.066-.61,2.667,2.667,0,0,1,4.611-1.823,5.246,5.246,0,0,0,1.691-.643,2.657,2.657,0,0,1-1.171,1.468A5.341,5.341,0,0,0,13,4.635a5.727,5.727,0,0,1-1.336,1.378Z" transform="translate(0 -3.381)" fill="#04b1b1"/>
</svg>
