<svg xmlns="http://www.w3.org/2000/svg" width="31.501" height="31.495" viewBox="0 0 31.501 31.495">
  <path id="Icon_awesome-slack-hash" data-name="Icon awesome-slack-hash" d="M31.373,19.013a2.559,2.559,0,0,0-3.234-1.61l-3.192,1.062-2.13-6.328,3.192-1.062a2.55,2.55,0,1,0-1.617-4.837L21.2,7.3l-1.1-3.3a2.557,2.557,0,0,0-4.852,1.617l1.1,3.3L9.78,11.109l-1.1-3.3A2.557,2.557,0,0,0,3.825,9.422l1.1,3.3L1.744,13.781A2.555,2.555,0,0,0,.127,17.009a2.637,2.637,0,0,0,2.362,1.73c.478.07.844-.112,4.057-1.181l2.13,6.328L5.484,24.947a2.564,2.564,0,0,0-1.617,3.227A2.637,2.637,0,0,0,6.23,29.9c.478.07.844-.112,4.057-1.181l1.1,3.3a2.612,2.612,0,0,0,3.234,1.61,2.555,2.555,0,0,0,1.617-3.227l-1.1-3.3,6.581-2.2,1.1,3.3a2.612,2.612,0,0,0,3.234,1.61,2.555,2.555,0,0,0,1.617-3.227l-1.1-3.3,3.192-1.062a2.534,2.534,0,0,0,1.61-3.213ZM13.507,22.331l-2.13-6.342,6.574-2.2,2.13,6.342Z" transform="translate(-0.001 -2.255)"/>
</svg>
