<svg xmlns="http://www.w3.org/2000/svg" width="18.46" height="21.537" viewBox="0 0 18.46 21.537">
  <path id="Icon_ionic-ios-git-pull-request" data-name="Icon ionic-ios-git-pull-request" d="M20.316,17.134V10.615a8.587,8.587,0,0,0-.452-3.139,3.347,3.347,0,0,0-3.346-2.149H12.783l1.909-1.933a.679.679,0,0,0,0-.952l0,0a.7.7,0,0,0-.471-.187.65.65,0,0,0-.476.2L11.105,5.072A3.368,3.368,0,1,0,7.144,9.288v7.85a3.347,3.347,0,1,0,1.346-.024V9.307a3.361,3.361,0,0,0,2.63-2.452l2.711,2.7a.669.669,0,0,0,.476.2.657.657,0,0,0,.476-.2.669.669,0,0,0,.2-.476.657.657,0,0,0-.2-.476l0,0L12.8,6.673h3.716a2,2,0,0,1,2,1.13,6.856,6.856,0,0,1,.452,2.812v6.5a3.363,3.363,0,1,0,1.346.019ZM9.884,20.422A2.019,2.019,0,1,1,7.865,18.4,2.019,2.019,0,0,1,9.884,20.422ZM7.865,8.019A2.019,2.019,0,1,1,9.884,6,2.019,2.019,0,0,1,7.865,8.019ZM19.6,22.441a2.019,2.019,0,1,1,2.019-2.019A2.019,2.019,0,0,1,19.6,22.441Z" transform="translate(-4.5 -2.25)"/>
</svg>
