<svg xmlns="http://www.w3.org/2000/svg" width="19.333" height="19.333" viewBox="0 0 19.333 19.333">
  <path id="Icon_awesome-exclamation-circle" data-name="Icon awesome-exclamation-circle" d="M19.9,10.229A9.667,9.667,0,1,1,10.229.563,9.666,9.666,0,0,1,19.9,10.229Zm-9.667,1.949a1.793,1.793,0,1,0,1.793,1.793A1.793,1.793,0,0,0,10.229,12.178Zm-1.7-6.445.289,5.3a.468.468,0,0,0,.467.442h1.892a.468.468,0,0,0,.467-.442l.289-5.3a.468.468,0,0,0-.467-.493H8.994A.468.468,0,0,0,8.527,5.733Z" transform="translate(-0.563 -0.563)"/>
</svg>
