<svg width="29" height="27" viewBox="0 0 29 27" fill="none" xmlns="http://www.w3.org/2000/svg">
<g clip-path="url(#clip0)">
<path d="M27.5838 3.39519L25.3533 1.31857C24.4471 0.473579 23.2182 0 21.9361 0H3.32299C1.48748 0 0 1.3849 0 3.09382V23.9062C0 25.6151 1.48748 27 3.32299 27H25.677C27.5125 27 29 25.6151 29 23.9062V6.57676C29 5.38303 28.4913 4.23894 27.5838 3.39519V3.39519ZM4.83326 7.03118V4.21875C4.83326 3.753 5.23926 3.375 5.73951 3.375H18.427C18.9273 3.375 19.3333 3.753 19.3333 4.21875V7.03118C19.3333 7.49693 18.9273 7.87493 18.427 7.87493H5.73951C5.23926 7.87493 4.83326 7.49693 4.83326 7.03118ZM14.5 22.5001C11.4974 22.5001 9.0625 20.2331 9.0625 17.4376C9.0625 14.6418 11.4974 12.3751 14.5 12.3751C17.5026 12.3751 19.9375 14.6418 19.9375 17.4376C19.9375 20.2331 17.5026 22.5001 14.5 22.5001Z" fill="#FEF400"/>
</g>
<defs>
<clipPath id="clip0">
<rect width="29" height="27" fill="white"/>
</clipPath>
</defs>
</svg>
