<svg id="Group-131" xmlns="http://www.w3.org/2000/svg" width="609.024" height="589.071" viewBox="0 0 609.024 589.071">
  <path id="Fill-1" d="M171.22,314.418c-.86-2.885-.975-6.046-2.66-8.585-1.589-2.393-4.322-3.848-6.545-5.737-8.444-7.177-8.614-19.7-5.779-30.092s8.028-20.41,8.12-31.14c.061-7.116-2.136-14.369-.214-21.25.036-.127.083-.25.121-.376a19.967,19.967,0,0,0-9.64,11.788c-1.922,6.881.276,14.134.214,21.251-.092,10.73-5.285,20.749-8.12,31.14s-2.665,22.915,5.779,30.092c2.223,1.889,4.956,3.344,6.545,5.737,1.686,2.538,1.8,5.7,2.66,8.584,2.5,8.367,11.735,14.044,20.936,14.161s17.981-4.635,23.845-11.335a24.41,24.41,0,0,0,4.144-6.454,30.546,30.546,0,0,1-18.47,6.376c-9.2-.117-18.441-5.794-20.936-14.16" transform="translate(0 -2.586)" fill="#ebf5ff" fill-rule="evenodd"/>
  <path id="Fill-3" d="M183.33,373.528c1.429-22.995-1.172-45.933-3.376-68.793q-3.351-34.771-6.7-69.541c-.061-.626-1.046-.632-.984,0q3.351,34.77,6.7,69.541c2.2,22.86,4.8,45.8,3.376,68.793-.04.633.945.631.984,0" transform="translate(0 -2.895)" fill="aqua" fill-rule="evenodd"/>
  <path id="Fill-5" d="M170.145,214.548c-9.021,2.076-15.9,9.1-16.7,18.488-.534,6.3,1.18,12.539.847,18.846-.382,7.239-2.987,14.116-5.332,20.9-3.355,9.7-6.461,20.5-2.677,30.576a21.857,21.857,0,0,0,7.009,9.42c3.359,2.74,5.59,4.309,6.913,8.767.833,2.81,1.116,5.536,2.625,8.113,10.836,18.516,39.147,10.818,47.577-5.815,1.864-3.681,2.577-7.747,1.039-11.676a38.6,38.6,0,0,0-3.528-5.977c-2.958-4.792-3.151-9.4-2.028-14.826,1.64-7.915,5.857-18.413-1.684-24.743-2.6-2.18-6.074-2.939-8.542-5.321-2.9-2.8-3.688-6.735-3.919-10.594-.337-5.611.649-11.33-.612-16.872-2.319-10.191-10.765-17.854-20.663-20.51a.493.493,0,0,0-.262.95c9.983,2.678,18.447,10.639,20.221,21.073,1.309,7.69-1.624,16.566,2.318,23.728,1.655,3.006,4.211,4.487,7.141,6.082,6.361,3.466,8.363,8.517,7.44,15.552-1.222,9.3-5.693,17.175-.26,25.979,1.4,2.263,3.143,4.4,3.876,7.008,1.067,3.807-.2,7.713-2.142,10.992a31.9,31.9,0,0,1-12.6,11.448c-10.351,5.4-24.756,4.43-31.825-5.874-2.55-3.719-2.3-8.042-4.189-11.942-2.113-4.361-7.049-6.213-9.961-9.927-6.272-8-5.268-19.222-2.594-28.395,3.2-10.966,8.293-21.308,7.587-33.008-.406-6.732-2.1-13.687.752-20.134,2.651-5.991,8.15-9.907,14.434-11.353.618-.142.356-1.092-.262-.95" transform="translate(0 -2.562)" fill="aqua" fill-rule="evenodd"/>
  <path id="Fill-7" d="M167.827,374.055h43.2a.493.493,0,0,0,0-.985h-43.2a.493.493,0,0,0,0,.985" transform="translate(0 -3.529)" fill="aqua" fill-rule="evenodd"/>
  <path id="Fill-9" d="M44.33,202.169c12.695,95.481,34.829,189.6,43.628,285.614,2.445,26.68,3.794,53.453,3.631,80.249a.847.847,0,0,0,1.694,0c.585-95.833-18.535-190.169-34.6-284.217-4.639-27.149-9.028-54.342-12.658-81.646-.141-1.065-1.839-1.08-1.695,0" transform="translate(0 -5.617)" fill="aqua" fill-rule="evenodd"/>
  <path id="Fill-11" d="M104.685,453.814c-20.482,2.573-40.632-10.465-51.428-28.061S39.541,386.84,39.293,366.2s1.928-41.326.263-61.9c-2.406-29.731-12.788-58.716-11.952-88.532A87.321,87.321,0,0,1,30.3,196.751C11.88,208.807,1.375,233.827.729,256.918c-.835,29.816,9.547,58.8,11.953,88.532,1.665,20.576-.51,41.26-.263,61.9s3.167,41.959,13.963,59.554,30.945,30.635,51.427,28.061c9.884-1.241,19.038-5.9,27.286-11.487,19.313-13.082,34.875-32.075,42.66-53.99a117.346,117.346,0,0,1-15.785,12.837c-8.247,5.587-17.4,10.245-27.285,11.487" transform="translate(0 -3.732)" fill="#ebf5ff" fill-rule="evenodd"/>
  <g id="Group-15" transform="translate(0 179.326)">
    <path id="Fill-13" d="M48.132,6.372C27.91,9.586,13.668,25.538,6.262,43.82c-9.793,24.173-6.315,50.008-1.59,74.934,2.974,15.688,6.4,31.34,7.395,47.316.982,15.839-.12,31.693-.432,47.532-.516,26.153,1.267,55.2,17.947,76.726,13.948,18,37.084,28.239,59.254,20.062,21.992-8.112,41.1-27.2,52.449-47.341,11.665-20.7,15.738-45.131,10.283-68.364a83.266,83.266,0,0,0-14.817-31.662c-8.5-11.079-19.8-19.715-27.872-31.15C90.959,106.484,97.836,74.405,91.04,45.819,86.134,25.178,73.261,2.723,50.122.292c-1.083-.114-1.075,1.581,0,1.695C72.727,4.361,85,27,89.585,47.02c5.14,22.451,1.921,46.138,9.162,68.241,7.609,23.224,28.906,35.342,41.218,55.413,12.857,20.959,15.552,47.44,8.624,70.885-6.733,22.79-21.885,42.65-41.052,56.5-10.419,7.526-22.5,13.917-35.683,13.688-12.7-.221-24.721-6.221-33.906-14.751C18.723,279.132,13.813,251.7,13.3,226.6c-.565-27.547,2.413-54.644-2.082-82.036C6.51,115.9-3.019,85.979,3.879,56.891,9.236,34.305,24.19,11.883,48.583,8.006c1.074-.171.618-1.8-.451-1.634" transform="translate(0 -0.287)" fill="aqua" fill-rule="evenodd"/>
  </g>
  <path id="Fill-16" d="M44.33,202.169c9.937,74.729,25.584,148.548,36.2,223.172,3.14,22.059,5.807,44.182,7.777,66.376.1,1.078,1.791,1.088,1.695,0-6.679-75.21-21.6-149.3-33.989-223.693-3.65-21.9-7.065-43.844-9.992-65.855-.141-1.065-1.839-1.08-1.695,0" transform="translate(0 -3.726)" fill="aqua" fill-rule="evenodd"/>
  <path id="Fill-18" d="M20.626,270.317a234.574,234.574,0,0,0,38.5,29.781c.93.575,1.782-.89.856-1.464a232.429,232.429,0,0,1-38.155-29.515c-.789-.753-1.989.443-1.2,1.2" transform="translate(0 -2.681)" fill="aqua" fill-rule="evenodd"/>
  <path id="Fill-20" d="M61.489,299.106a268.991,268.991,0,0,0,15.917-63.817c.133-1.08-1.563-1.07-1.694,0a267.151,267.151,0,0,1-15.858,63.366c-.391,1.019,1.246,1.46,1.635.451" transform="translate(0 -2.487)" fill="aqua" fill-rule="evenodd"/>
  <path id="Fill-22" d="M26.909,362.606q24.467,18.372,50.427,34.584c.927.58,1.779-.886.855-1.462Q52.24,379.521,27.764,361.143c-.872-.655-1.717.815-.855,1.463" transform="translate(0 -3.631)" fill="aqua" fill-rule="evenodd"/>
  <path id="Fill-24" d="M77.552,396.811a364.311,364.311,0,0,0,29.939-73.759.847.847,0,0,0-1.633-.45,362.307,362.307,0,0,1-29.77,73.354c-.517.959.945,1.816,1.464.855" transform="translate(0 -3.482)" fill="aqua" fill-rule="evenodd"/>
  <path id="Fill-26" d="M93.371,364.675A287.875,287.875,0,0,0,129.1,337.652c.819-.726-.383-1.92-1.2-1.2a284.959,284.959,0,0,1-35.386,26.759c-.916.586-.067,2.054.855,1.463" transform="translate(0 -3.336)" fill="aqua" fill-rule="evenodd"/>
  <path id="Fill-28" d="M48.574,379.15a302.516,302.516,0,0,1-28.79,18.2c-.953.53-.1,1.994.855,1.464a302.2,302.2,0,0,0,28.79-18.2c.881-.628.036-2.1-.855-1.463" transform="translate(0 -3.704)" fill="aqua" fill-rule="evenodd"/>
  <path id="Fill-30" d="M35.969,449.5a175.9,175.9,0,0,0,49.96,9.738c1.091.053,1.088-1.642,0-1.7a174.275,174.275,0,0,1-49.51-9.677c-1.031-.362-1.474,1.275-.45,1.634" transform="translate(0 -4.312)" fill="aqua" fill-rule="evenodd"/>
  <path id="Fill-32" d="M86.241,458.646q29.778-37.25,56.845-76.541c.62-.9-.848-1.748-1.463-.855q-26.928,39.1-56.58,76.2c-.675.844.516,2.051,1.2,1.2" transform="translate(0 -4.141)" fill="aqua" fill-rule="evenodd"/>
  <path id="Fill-34" d="M110.328,428.963a147.1,147.1,0,0,0,36.087.885c1.075-.107,1.086-1.8,0-1.695a145.367,145.367,0,0,1-35.637-.824c-1.067-.158-1.527,1.475-.45,1.634" transform="translate(0 -4.058)" fill="aqua" fill-rule="evenodd"/>
  <path id="Fill-36" d="M30.325,277.305A165.141,165.141,0,0,1,7.58,294.1c-.928.569-.078,2.036.855,1.463A167.552,167.552,0,0,0,31.523,278.5c.821-.721-.382-1.916-1.2-1.2" transform="translate(0 -2.702)" fill="aqua" fill-rule="evenodd"/>
  <path id="Fill-38" d="M469.427,279.348l-109.685,8.463a.935.935,0,0,0-.867.858l-1.241,41.343a.722.722,0,0,0,.819.729l22.462-1.734a.739.739,0,0,1,.784.481l2.936,8.8c.232.7,1.309.622,1.6-.112l3.649-9.331a.961.961,0,0,1,.812-.593l77.446-5.976a.933.933,0,0,0,.867-.858l1.241-41.343a.72.72,0,0,0-.819-.728" transform="translate(0 -2.931)" fill="#f9d671" fill-rule="evenodd"/>
  <path id="Fill-40" d="M444.3,294.23l-66.221,5.109a.642.642,0,0,1-.731-.649.834.834,0,0,1,.773-.766l66.221-5.109a.643.643,0,0,1,.731.649.833.833,0,0,1-.773.766" transform="translate(0 -2.796)" fill="#fff" fill-rule="evenodd"/>
  <path id="Fill-42" d="M444.026,303.193,377.805,308.3a.642.642,0,0,1-.731-.649.834.834,0,0,1,.774-.766l66.221-5.109a.642.642,0,0,1,.73.649.832.832,0,0,1-.773.766" transform="translate(0 -2.882)" fill="#fff" fill-rule="evenodd"/>
  <path id="Fill-44" d="M422.06,313.831l-44.523,3.436a.644.644,0,0,1-.731-.65.834.834,0,0,1,.774-.766l44.523-3.436a.644.644,0,0,1,.731.65.833.833,0,0,1-.774.766" transform="translate(0 -2.975)" fill="#fff" fill-rule="evenodd"/>
  <g id="Group-48" transform="translate(46.763 550.752)">
    <path id="Fill-46" d="M433.749,1.809c-74.395-4.267-153.7,5.031-228.532,3.9C177.877,5.3,150.528,3.3,123.172,4.142,95.03,5.009-2.731,6.088.859,16.605c2.892,8.471,92.574,14.81,132.786,19,43.052,4.486,201.066,4.892,243-1,42.119-5.919,71.956-3.795,115-7,8.977-.669,80.929-5.883,70.313-12.357C546.145,5.605,508.645,6.105,433.749,1.809" transform="translate(-0.763 -0.681)" fill="#ebf5ff" fill-rule="evenodd"/>
  </g>
  <path id="Fill-49" d="M443.444,540.583c-53.8-3.086-111.146,3.638-165.266,2.824-19.771-.3-39.548-1.745-59.332-1.137-20.35.627-111.294,9.424-108.7,17.03,2.092,6.126,87.192,2.693,116.272,5.723,31.134,3.244,145.4,3.538,175.728-.723,30.46-4.28,52.036-2.744,83.164-5.062,6.492-.484,78.513,6.743,70.836,2.062-11.435-6.974-58.542-17.611-112.7-20.717" transform="translate(0 -5.617)" fill="#f5faff" fill-rule="evenodd"/>
  <path id="Fill-51" d="M309.659,577.039s-16.069,1.469-17.744,2.9,7.658,1.915,19.386,2.155,17.711,2.872,22.5,2.393,5.264-3.829,14.359-5.744-21.232-4.376-38.5-1.709" transform="translate(0 -5.617)" fill="#ebf5ff" fill-rule="evenodd"/>
  <path id="Fill-53" d="M415.172,573.327s16.07-1.47,17.745-2.906-7.658-1.914-19.386-2.154-17.711-2.872-22.5-2.393-5.264,3.829-14.359,5.744,21.232,4.375,38.5,1.709" transform="translate(0 -5.617)" fill="#ebf5ff" fill-rule="evenodd"/>
  <path id="Fill-55" d="M214.076,575.283l-.843-.087,9.572-92.383.843.088Z" transform="translate(0 -5.617)" fill="#182646" fill-rule="evenodd"/>
  <path id="Fill-57" d="M436.771,575.283,427.2,482.9l.844-.088,9.572,92.383Z" transform="translate(0 -5.617)" fill="#182646" fill-rule="evenodd"/>
  <path id="Fill-59" d="M192.114,485.094H456.34V476.63H192.114Z" transform="translate(0 -5.428)" fill="#3c4bb4" fill-rule="evenodd"/>
  <path id="Fill-61" d="M205.432,476.284,168.415,359.489l.808-.256,37.017,116.8Z" transform="translate(0 -4.224)" fill="#182646" fill-rule="evenodd"/>
  <path id="Fill-62" d="M420.515,476.284,383.5,359.489l.808-.256,37.017,116.8Z" transform="translate(0 -4.224)" fill="#182646" fill-rule="evenodd"/>
  <path id="Fill-63" d="M425.892,421.882H171.986l3.473,10.962H429.367Z" transform="translate(0 -4.059)" fill="#3c4bb4" fill-rule="evenodd"/>
  <path id="Fill-64" d="M434.677,449.6H180.77l3.473,10.962H438.152Z" transform="translate(0 -4.326)" fill="#3c4bb4" fill-rule="evenodd"/>
  <path id="Fill-65" d="M417.108,394.167H163.2l3.473,10.962H420.583Z" transform="translate(0 -3.793)" fill="#3c4bb4" fill-rule="evenodd"/>
  <path id="Fill-66" d="M408.324,366.451H154.417l3.473,10.962H411.8Z" transform="translate(0 -3.526)" fill="#3c4bb4" fill-rule="evenodd"/>
  <path id="Fill-67" d="M328.144,572.411c-.435-.124-.9-.239-1.373-.354a6.459,6.459,0,0,1-4.537-8.5H310.6c-.144,2.1-.28,4.233-.395,6.437l-.249,3.214a9.274,9.274,0,0,0,1.932,1.471c1.5.78,13.207,1.608,15.119,0a2.672,2.672,0,0,0,1.137-2.267" transform="translate(0 -5.617)" fill="#bf4f49" fill-rule="evenodd"/>
  <path id="Fill-68" d="M335.439,574.852a63.24,63.24,0,0,0-7.295-2.441,14.02,14.02,0,0,1-9.46,3.14c-3.136-.13-6.093-.506-6.8-.873a9.241,9.241,0,0,1-1.932-1.471l-.3,3.833a2.446,2.446,0,0,0,2.439,2.634h18.34c8.229-.065,7.8-3.584,5-4.822" transform="translate(0 -5.617)" fill="#0e1b33" fill-rule="evenodd"/>
  <path id="Fill-69" d="M268.118,475.408c17.846,4.377,41.976,2.132,41.976,2.132s-8.531,7.632-6.286,40.853,4.939,47.138,4.939,47.138h14.611L347.579,461.1c.807,2.069-4.377-9.932-4.377-9.932-30.977,17.508-54.657,24.578-75.084,24.242" transform="translate(0 -5.617)" fill="#0e1b33" fill-rule="evenodd"/>
  <path id="Fill-70" d="M411.52,521.634l-.072-.006a8.161,8.161,0,0,1-7.3-6.908l-.1-.662-11.423,2.2c.256,2.09.526,4.21.83,6.4l.364,3.2a9.309,9.309,0,0,0,2.176,1.078c1.616.483,13.272-.921,14.845-2.862a2.667,2.667,0,0,0,.687-2.441" transform="translate(0 -5.617)" fill="#bf4f49" fill-rule="evenodd"/>
  <path id="Fill-71" d="M419.146,522.65a63.028,63.028,0,0,0-7.626-1.016,14.012,14.012,0,0,1-8.693,4.873c-3.1.467-6.079.657-6.839.43a9.27,9.27,0,0,1-2.176-1.079l.434,3.819a2.446,2.446,0,0,0,2.893,2.126l18.009-3.471c8.067-1.621,6.983-5,4-5.682" transform="translate(0 -5.617)" fill="#0e1b33" fill-rule="evenodd"/>
  <path id="Fill-72" d="M404.706,515.587l-28.171-87.654-59.483,5.612-32.057-7.927-1.837,7.927-44.444-12.986c.03,1.384-2.657,46.984,29.4,54.849,32.127,4.638,44.108-6.734,75.084-24.242,0,0,3.556,7.884,7.332,16.387,12.425,24.058,42.611,55.329,42.611,55.329Z" transform="translate(0 -5.617)" fill="#182646" fill-rule="evenodd"/>
  <path id="Fill-73" d="M312.7,293.392c13.243-22.615-2.772-34.12-14.59-32.435-11.854,1.69-11.841,8.754-20.764,9.764-14.589.673-25.027,4.265-30.19,13.468s-8.081,4.714-24.018,9.652-21.548,25.364-12.57,33.894,3.367,11.223,4.265,16.611c.4,2.424,2.308,4.348,4.28,5.731a18.324,18.324,0,0,0,7.666,3.01l5,.8,79.869-38.472a6.636,6.636,0,0,0,2.05-10.467c-.032-.034-.064-.069-.1-.1-4.041-4.265-2.691-8.385-.9-11.448" transform="translate(0 -2.92)" fill="#182646" fill-rule="evenodd"/>
  <path id="Fill-74" d="M337.265,321.932a18.915,18.915,0,0,0-11.028-9.988l-11.947-4.116c-2.393,3.222-7.53,6.639-18.562,6.639-12.984,0-19.973-4.819-23.4-8.462l-28.068,9.976A18.909,18.909,0,0,0,232.462,328.4c-3.41,11.447-8.812,33.345-11.942,65.266a25.349,25.349,0,0,0,17.964,26.789l.23.068v.033l44.445,12.986,1.836-7.927,2.147-9.554,24.748,4.91,11.282-60.9a5.8,5.8,0,0,1,5.44-4.736l23.513-1.056Z" transform="translate(0 -3.679)" fill="#f9d671" fill-rule="evenodd"/>
  <path id="Fill-75" d="M338.672,343.565a18.65,18.65,0,0,1-6.355-4.18,52.72,52.72,0,0,1-6.894-8.853c-1.433-2.209-2.9-5.194-1.034-7.589a5.917,5.917,0,0,1,6.758-1.571c6.5,2.359,9.024,10.915,8.5,17.162A24.37,24.37,0,0,1,338.672,343.565Zm-23.647,17.015q-1.238-.039-2.469-.187a32.1,32.1,0,0,1-18.593-9.176c-5.14-5.148-10.641-15.006-4.8-21.629,4.453-5.053,13.083-4.4,18.006-.446,6.012,4.83,8.053,13.078,8.551,20.428A43.036,43.036,0,0,1,315.025,360.579Zm-56.3-5.6c-3.261-5.687-6.124-12.491-4.559-19.169.788-3.363,3.026-6.211,6.54-6.929,4.165-.851,8.039,1.886,10.61,4.9,4.495,5.269,7,13.932,4.225,20.56-2.531,6.038-8.288,6.982-13.68,5.541C260.7,358.245,259.654,356.6,258.723,354.975Zm88.962-10.36a18.228,18.228,0,0,1-8.261-.786,25.112,25.112,0,0,0,.653-2.647c1.247-6.6-.3-14.187-5.592-18.707-2.394-2.044-5.66-3.123-8.642-1.678-3.126,1.515-3.752,4.722-2.44,7.748,1.591,3.669,4.57,7.287,7.258,10.237a21.89,21.89,0,0,0,7.719,5.667,24.99,24.99,0,0,1-6.706,10.352c-.16.146-.327.28-.491.42a21.841,21.841,0,0,1-7.852,4.273,25.472,25.472,0,0,1-7.418,1.093,44.875,44.875,0,0,0,.69-7.494c.074-7.923-1.532-16.97-7.176-22.919-4.45-4.691-12.045-6.584-17.919-3.411-7.171,3.874-6.293,12.792-2.793,18.938A32.269,32.269,0,0,0,306.7,359.9a30.481,30.481,0,0,0,8.168,1.453c-2.133,9.878-8.041,18.83-19.254,19.3-13.053.543-25.138-9.1-32.932-19.628,3.62.821,7.336.467,10.407-2.04,5.623-4.591,4.985-13.359,2.569-19.445-2.446-6.165-9.2-13.933-16.639-10.956-6.194,2.479-6.685,10.214-5.516,15.848a41.215,41.215,0,0,0,7.018,15.044,21.923,21.923,0,0,1-4.873-2.385,26.11,26.11,0,0,1-3.637-2.912,43.909,43.909,0,0,1-8.508-12.1,74.307,74.307,0,0,1-6.662-19.283c-.107-.549-.2-1.1-.288-1.65q-.354.392-.685.8a72.313,72.313,0,0,0,4.418,14.937c2.664,6.532,6.211,13.318,11.508,18.151.295.269.573.558.88.814a25.636,25.636,0,0,0,8.723,4.834,68.582,68.582,0,0,0,4.495,5.418c6.206,6.757,14.266,12.778,23.382,14.747,7.793,1.684,15.76-.414,20.85-6.739a29.383,29.383,0,0,0,5.645-12.732,26.323,26.323,0,0,0,7.339-.96,22.483,22.483,0,0,0,5.953-2.627,22.963,22.963,0,0,0,3.36-2.614,25.776,25.776,0,0,0,6.711-10.434,15.552,15.552,0,0,0,1.95.567,18.793,18.793,0,0,0,6.977.131Z" transform="translate(0 -3.371)" fill="#ffe8b0" fill-rule="evenodd"/>
  <path id="Fill-76" d="M272,410.12a3.429,3.429,0,0,1-4.287-.158,4.057,4.057,0,0,1-.942-5.257c1.474-2.729,4.087-3.631,6.913-3.635.052.745.083,1.492.064,2.239-.049,1.936-.13,5.415-1.748,6.811m21.559-1.143a37.188,37.188,0,0,0-12.184-7.154,25.289,25.289,0,0,0-6.948-1.537,25.3,25.3,0,0,0-1.115-5.25l-.907-.165a24.527,24.527,0,0,1,1.22,5.4,9,9,0,0,0-5.643,1.815c-2.642,2.093-3.781,6.286-.726,8.553,3.232,2.4,6.1.1,6.821-3.3a22.763,22.763,0,0,0,.415-6.241,26.045,26.045,0,0,1,7.369,1.729,36.464,36.464,0,0,1,11.7,7.194,38.693,38.693,0,0,1,7.149,8.734l1.028.2a39.209,39.209,0,0,0-8.176-9.983" transform="translate(0 -3.887)" fill="#ffe8b0" fill-rule="evenodd"/>
  <path id="Fill-77" d="M251.653,391.089l-.837-.152a73.391,73.391,0,0,1,1.419,8.888c.385,4.02,1.029,9-.456,12.852-2.178,5.648-9.132,2.633-12.493-.217-5.6-4.747-8.164-13.113-5.779-20.115,2.047-6.008,7.439-10.163,13.445-11.8.041-.278.082-.555.125-.842a22.263,22.263,0,0,0-6,2.467,18.444,18.444,0,0,0-8.361,21.455,19.784,19.784,0,0,0,6.6,9.858c2.766,2.162,7.927,4.772,11.226,2.312,3.4-2.534,2.9-8.177,2.757-11.855a74.27,74.27,0,0,0-1.641-12.85" transform="translate(0 -3.825)" fill="#ffe8b0" fill-rule="evenodd"/>
  <path id="Fill-78" d="M247.163,379.143c.073-.482.148-.975.228-1.478a76.6,76.6,0,0,0-14.414-22.491,63.351,63.351,0,0,0-5.826-5.551c-.059.284-.12.575-.179.862,1.194,1.005,2.265,2,3.155,2.875a75.291,75.291,0,0,1,14.944,20.981c.758,1.573,1.445,3.179,2.092,4.8" transform="translate(0 -3.475)" fill="#ffe8b0" fill-rule="evenodd"/>
  <path id="Fill-79" d="M328.528,355.446,322.5,331.47l14.592,24.584Z" transform="translate(0 -3.266)" fill="#070707" fill-rule="evenodd"/>
  <path id="Fill-80" d="M306.983,288.732h-.4a1.231,1.231,0,0,1-1.231-1.23v-.4a1.231,1.231,0,0,1,1.231-1.231h.4a1.23,1.23,0,0,1,1.23,1.231v.4a1.23,1.23,0,0,1-1.23,1.23" transform="translate(0 -2.713)" fill="#f9d671" fill-rule="evenodd"/>
  <path id="Fill-81" d="M328.292,356.158l-6.207-24.584.82-.208,6.208,24.584Z" transform="translate(0 -3.266)" fill="#fff" fill-rule="evenodd"/>
  <path id="Fill-82" d="M280.871,396.846l-35.666-6.5.046-.395c.029-.251,2.979-25.363,7.873-41.375l.81.247c-4.536,14.84-7.4,37.566-7.794,40.832l34.883,6.358Z" transform="translate(0 -3.583)" fill-rule="evenodd"/>
  <path id="Fill-83" d="M295.727,314.466c11.032,0,16.169-3.417,18.562-6.638l-7.9-2.721a8,8,0,0,1-5.347-8.461l.294-2.606a4.7,4.7,0,0,0,5.112-3.889l2.744-16.2-17.059-2.469-6.442,21.525a18.994,18.994,0,0,1-11.836,12.452l-1.535.546c3.431,3.644,10.421,8.462,23.4,8.462" transform="translate(0 -2.764)" fill="#bf4f49" fill-rule="evenodd"/>
  <path id="Fill-84" d="M301.077,298.677a8.008,8.008,0,0,1-.031-2.031l.294-2.606-4.434-.617Z" transform="translate(0 -2.796)" fill="#bf4f49" fill-rule="evenodd"/>
  <path id="Fill-85" d="M300.742,286.618l-.018-.848,1.961-.04.1-5.026.848.017-.117,5.838Z" transform="translate(0 -2.678)" fill="#070707" fill-rule="evenodd"/>
  <path id="Fill-86" d="M300.072,281.569a.409.409,0,1,1-.44-.375.408.408,0,0,1,.44.375" transform="translate(0 -2.66)" fill="#070707" fill-rule="evenodd"/>
  <path id="Fill-87" d="M300.073,281.569l-.423.035a.014.014,0,0,0,.015.012h0Zm-.412.866a.833.833,0,1,1,.834-.9v0a.832.832,0,0,1-.766.9C299.707,282.434,299.684,282.435,299.661,282.435Z" transform="translate(0 -2.659)" fill="#070707" fill-rule="evenodd"/>
  <path id="Fill-88" d="M306.052,281.865a.409.409,0,1,1-.441-.375.41.41,0,0,1,.441.375" transform="translate(0 -2.662)" fill="#070707" fill-rule="evenodd"/>
  <path id="Fill-89" d="M306.052,281.865l-.423.036a.016.016,0,0,0,.015.012,0,0,0,0,0,0,0Zm-.411.866a.835.835,0,0,1-.828-.767.834.834,0,0,1,.763-.9.823.823,0,0,1,.9.762v0a.834.834,0,0,1-.766.9Z" transform="translate(0 -2.662)" fill="#070707" fill-rule="evenodd"/>
  <path id="Fill-90" d="M311.628,268.9s-1.042,10.759-20.548,13.152l-7.18-5.5,7.06-9.214" transform="translate(0 -2.589)" fill="#182646" fill-rule="evenodd"/>
  <path id="Fill-91" d="M291.315,282.8s-.419-3.438-3.143-3.563c-2.44-.113-3.114,4.545,1.6,5.555" transform="translate(0 -2.662)" fill="#bf4f49" fill-rule="evenodd"/>
  <path id="Fill-92" d="M288.562,286.647h-.4a1.231,1.231,0,0,1-1.231-1.231v-.4a1.231,1.231,0,0,1,1.231-1.231h.4a1.231,1.231,0,0,1,1.231,1.231v.4a1.231,1.231,0,0,1-1.231,1.231" transform="translate(0 -2.693)" fill="#f9d671" fill-rule="evenodd"/>
  <path id="Fill-93" d="M289.644,404.235l18.769-2.042,6.386,9.993-1.825,10.166-4.952-3.389.521,1.434a7.616,7.616,0,0,1-4.953-2.868,17.238,17.238,0,0,1-2.606-3.779s-3.963,6.325-13.843,2.315" transform="translate(0 -3.932)" fill="#bf4f49" fill-rule="evenodd"/>
  <path id="Fill-94" d="M307.664,419.189l-4.085-6.473.718-.453,4.084,6.473Z" transform="translate(0 -3.94)" fill="#a52e2b" fill-rule="evenodd"/>
  <path id="Fill-95" d="M309.967,415.974l-4.085-6.474.718-.452,4.084,6.474Z" transform="translate(0 -3.909)" fill="#a52e2b" fill-rule="evenodd"/>
  <path id="Fill-96" d="M311.878,412.8l-4.084-6.473.718-.453,4.083,6.474Z" transform="translate(0 -3.879)" fill="#a52e2b" fill-rule="evenodd"/>
  <path id="Fill-97" d="M297.582,277.342a3.875,3.875,0,1,0,3.875,3.875,3.88,3.88,0,0,0-3.875-3.875m0,8.469a4.594,4.594,0,1,1,4.593-4.594,4.6,4.6,0,0,1-4.593,4.594" transform="translate(0 -2.654)" fill="#070707" fill-rule="evenodd"/>
  <path id="Fill-98" d="M308.512,278.061a3.875,3.875,0,1,0,3.875,3.875,3.879,3.879,0,0,0-3.875-3.875m0,8.468a4.593,4.593,0,1,1,4.593-4.593,4.6,4.6,0,0,1-4.593,4.593" transform="translate(0 -2.661)" fill="#070707" fill-rule="evenodd"/>
  <path id="Fill-99" d="M304.268,281.482l-2.313-.08.028-.847,2.314.08Z" transform="translate(0 -2.654)" fill="#070707" fill-rule="evenodd"/>
  <path id="Fill-100" d="M302.219,290.136a7.756,7.756,0,0,1-3.731-1.019l.443-.722a6.557,6.557,0,0,0,4.8.674l.245.811a6.043,6.043,0,0,1-1.758.256" transform="translate(0 -2.732)" fill="#070707" fill-rule="evenodd"/>
  <path id="Fill-101" d="M323.182,360.012l-11.293,60.963-24.748-4.91-2.147,9.553,32.057,7.927,59.484-5.612L395.772,426a5.724,5.724,0,0,0,5.044-4.583l12.458-62.86a5.726,5.726,0,0,0-5.878-6.832l-78.847,3.611a5.723,5.723,0,0,0-5.367,4.676" transform="translate(0 -3.852)" fill="#c2efff" fill-rule="evenodd"/>
  <path id="Fill-102" d="M314.541,427.885l-26.806-5.5.228-1.107,26.806,5.505Z" transform="translate(0 -4.024)" fill="#73e1ff" fill-rule="evenodd"/>
  <path id="Fill-103" d="M397.984,420.316l-.832-.164,1.886-9.512.832.165Z" transform="translate(0 -3.943)" fill="#fff" fill-rule="evenodd"/>
  <path id="Fill-104" d="M402.924,395.394l-.832-.164,6.6-33.279a5.3,5.3,0,0,0-5.443-6.327L331.771,358.9l-.039-.846,71.473-3.274a6.15,6.15,0,0,1,6.315,7.338Z" transform="translate(0 -3.596)" fill="#fff" fill-rule="evenodd"/>
  <path id="Fill-105" d="M286.585,421.741l-.83-.168,4.518-22.245.83.169Z" transform="translate(0 -3.919)" fill-rule="evenodd"/>
  <path id="Fill-106" d="M539.6,527.53l-42.762.239.025.073-.86.009s-.718,15.2,1.077,24.412a17.168,17.168,0,0,0,9.693,12.326h19.865l2.857-.792c9.769-1.852,9.083-8.5,9.945-13.53.958-5.585.16-22.737.16-22.737" transform="translate(0 -5.617)" fill="#fff" fill-rule="evenodd"/>
  <path id="Fill-107" d="M511.438,527.692a19.134,19.134,0,0,0,0,5.584c.16,1.117.639,4.627-1.755,12.924s12.445,19.147,21.7,17.073l-4.746,1.316H506.771a17.165,17.165,0,0,1-9.692-12.326c-1.8-9.214-1.078-24.412-1.078-24.412Z" transform="translate(0 -5.617)" fill="#c9d9fb" fill-rule="evenodd"/>
  <path id="Fill-108" d="M497.066,495.753s-11.488.957-18.189-8.616-9.334-5.984-12.446-11.249-4.307-17.232,3.351-23.216,19.386-.239,21.54,8.377a68.752,68.752,0,0,0,6.462,17.232c2.633,5.266,4.548,11.967-.718,17.472" transform="translate(0 -4.605)" fill="#6392d6" fill-rule="evenodd"/>
  <path id="Fill-109" d="M536.557,508.2s-2.872-7.18,3.59-15.317c2.154-3.112.239-8.617,3.35-14.6s12.685-12.924,23.216-9.812,11.489,22.257-2.633,29.2-10.727,9.442-14.6,11.967c-5.505,3.59-12.445,3.111-15.078,1.915Z" transform="translate(0 -5.617)" fill="#6392d6" fill-rule="evenodd"/>
  <path id="Fill-110" d="M495.6,527.656c-.268,7.557-.562,15.505.738,22.986.991,5.7,3.7,11.236,9.175,13.757.328.152.615-.335.285-.488-6.394-2.942-8.639-9.8-9.3-16.331a147.851,147.851,0,0,1-.336-19.924c.013-.364-.551-.363-.565,0" transform="translate(0 -5.617)" fill="#182646" fill-rule="evenodd"/>
  <path id="Fill-111" d="M495.962,527.938h41.686a.283.283,0,0,0,0-.565H495.962a.283.283,0,0,0,0,.565" transform="translate(0 -5.617)" fill="#182646" fill-rule="evenodd"/>
  <path id="Fill-112" d="M539.363,529.248c-.005,6.647.065,13.3-.017,19.946-.076,6.2-2.507,13.544-9.677,14.346-.358.04-.362.6,0,.565,5.216-.584,8.8-5.033,9.846-9.98.785-3.716.4-7.749.4-11.522q0-6.676.009-13.355a.283.283,0,0,0-.565,0" transform="translate(0 -5.617)" fill="#182646" fill-rule="evenodd"/>
  <path id="Fill-113" d="M493.423,564.991h48.569a.283.283,0,0,0,0-.565H493.423a.283.283,0,0,0,0,.565" transform="translate(0 -5.617)" fill="#182646" fill-rule="evenodd"/>
  <path id="Fill-114" d="M499.8,533.516H534.86a.283.283,0,0,0,0-.565H499.8a.283.283,0,0,0,0,.565" transform="translate(0 -5.617)" fill="#182646" fill-rule="evenodd"/>
  <path id="Fill-115" d="M492.235,504.378c4.69,7.912,9.521,15.741,14.651,23.376.2.3.692.018.489-.285-5.132-7.635-9.961-15.465-14.652-23.376a.283.283,0,0,0-.488.285" transform="translate(0 -5.617)" fill="#182646" fill-rule="evenodd"/>
  <path id="Fill-116" d="M492.24,504.164l-32.679,1.385c-.362.015-.364.58,0,.565l32.679-1.385c.362-.016.364-.581,0-.565" transform="translate(0 -5.617)" fill="#182646" fill-rule="evenodd"/>
  <path id="Fill-117" d="M459.928,505.438c2.774,6.578,8.935,11.778,16.417,11.169,7.28-.593,12.181-6.67,16.311-12.042.22-.288-.27-.57-.489-.285-3.646,4.744-7.859,10.125-14.023,11.491-7.795,1.726-14.759-3.58-17.671-10.483-.139-.33-.686-.185-.545.15" transform="translate(0 -5.617)" fill="#182646" fill-rule="evenodd"/>
  <path id="Fill-118" d="M476.4,457.3q17.615,36.1,38.629,70.373c.189.309.678.026.487-.286q-20.936-34.273-38.628-70.372c-.16-.327-.647-.041-.488.285" transform="translate(0 -5.617)" fill="#182646" fill-rule="evenodd"/>
  <path id="Fill-119" d="M496.61,494.635c-5.6.46-11.084-.093-15.044-4.515-2.712-3.028-4.511-6.6-7.86-9.041-2.1-1.527-4.544-2.66-6.313-4.608-2.127-2.345-2.8-5.435-3.009-8.5-.374-5.393.468-11.543,5.147-14.937a13.285,13.285,0,0,1,14.733-.309c4.633,2.885,6.755,7.563,7.95,12.686,1.13,4.853,3.117,8.887,5.249,13.356,2.434,5.1,4.26,11.615.064,16.363-.24.271.158.673.4.4,6.206-7.021.262-15.939-2.832-22.828-2.124-4.731-2.268-10.167-4.928-14.66a16.66,16.66,0,0,0-7.8-6.928,13.155,13.155,0,0,0-17.776,8.21,24.125,24.125,0,0,0-.083,12.973c1.16,4.049,4.085,6.08,7.448,8.286a24.608,24.608,0,0,1,6.579,6.515,26.816,26.816,0,0,0,4.434,5.184c3.824,3.128,8.944,3.308,13.643,2.922.36-.03.363-.6,0-.565" transform="translate(0 -4.603)" fill="#182646" fill-rule="evenodd"/>
  <path id="Fill-120" d="M518.511,527.649q1-42.851,3.856-85.628c.025-.363-.54-.362-.564,0q-2.859,42.766-3.857,85.628a.283.283,0,0,0,.565,0" transform="translate(0 -5.617)" fill="#182646" fill-rule="evenodd"/>
  <path id="Fill-121" d="M521.87,429.735a16.7,16.7,0,0,0-16.322,6.616c-4.122,5.408-4.908,12.7-3.795,19.238.783,4.6,2.739,8.953,2.908,13.664.149,4.156-.751,8.323.213,12.435,1.527,6.516,6.555,11.494,11.84,15.235.3.211.579-.279.285-.487-5.276-3.735-10.3-8.753-11.666-15.309-.78-3.758-.042-7.551-.1-11.339a38.427,38.427,0,0,0-1.816-9.6c-1.853-6.746-2.46-14.061.753-20.527,3.205-6.451,10.291-10.816,17.551-9.378.355.07.507-.474.15-.545" transform="translate(0 -4.576)" fill="#182646" fill-rule="evenodd"/>
  <path id="Fill-122" d="M521.185,430.547c5.869.909,10.478,5.026,12.964,10.315,2.961,6.3,2.321,13.575.2,20.025-1.966,5.975-6.063,11.2-7.187,17.432-1.1,6.084-.451,14.331-7.245,17.268-.333.143-.044.63.286.487,5.8-2.5,6.465-9.126,7.1-14.637.972-8.465,6.4-15.141,8.44-23.323,2.8-11.253-1.277-26.079-14.4-28.111-.355-.056-.508.489-.15.544" transform="translate(0 -4.569)" fill="#182646" fill-rule="evenodd"/>
  <path id="Fill-123" d="M520.419,527.6l44.336-52.158c.234-.276-.163-.677-.4-.4L520.02,527.2c-.235.275.164.676.4.4" transform="translate(0 -5.617)" fill="#182646" fill-rule="evenodd"/>
  <path id="Fill-124" d="M536.846,507.908c-2.162-5.068-.5-9.243,2.474-13.465,2.088-2.967,2.166-5.935,2.526-9.431.893-8.673,7.99-15.675,16.515-17.191,4.539-.808,9.386.022,12.589,3.58a14.558,14.558,0,0,1,3.282,11.911c-1.452,8.731-8.692,13.132-15.555,17.411a27.668,27.668,0,0,0-4.631,3.456c-1.713,1.649-2.974,3.721-4.958,5.091-3.879,2.678-8.9,2.758-13.431,2.521-.364-.019-.363.546,0,.565,4.127.216,8.563.157,12.33-1.776a15.4,15.4,0,0,0,4.609-3.961,27.109,27.109,0,0,1,6.366-5.408c7.189-4.482,14.883-9.315,15.933-18.586.875-7.723-4.171-15.07-12.156-15.639-8.3-.591-16.928,4.9-20.145,12.519a20.192,20.192,0,0,0-1.39,6.483,20.48,20.48,0,0,1-.745,5.188,17.317,17.317,0,0,1-2.633,4.339,12.588,12.588,0,0,0-1.467,12.678c.141.333.629.046.487-.285" transform="translate(0 -5.617)" fill="#182646" fill-rule="evenodd"/>
  <path id="Fill-125" d="M527.851,527.541a146.359,146.359,0,0,0,18.912-11.852c.289-.213.008-.7-.285-.487a146.514,146.514,0,0,1-18.912,11.851c-.321.17-.036.657.285.488" transform="translate(0 -5.617)" fill="#182646" fill-rule="evenodd"/>
  <path id="Fill-126" d="M546.073,515.235c4.553,5.5,10.889,10.519,18.291,7.358,1.858-.794,3.091-1.2,5.145-.687.811.2,1.587.536,2.4.752a6.909,6.909,0,0,0,4.148.049c3.275-1.128,4.825-4.525,6.09-7.458.143-.33-.343-.618-.487-.285-1.595,3.694-3.988,8.257-8.8,7.353-2.4-.452-4.5-1.81-6.981-1.028-1.664.525-3.017,1.469-4.8,1.693a11.61,11.61,0,0,1-6.225-1.021c-3.434-1.525-6.027-4.278-8.385-7.125-.232-.281-.629.121-.4.4" transform="translate(0 -5.617)" fill="#182646" fill-rule="evenodd"/>
  <path id="Fill-127" d="M547.21,515.985h34.265a.282.282,0,0,0,0-.564H547.21a.282.282,0,0,0,0,.564" transform="translate(0 -5.617)" fill="#182646" fill-rule="evenodd"/>
  <path id="Fill-128" d="M372.688,389.935a6.433,6.433,0,0,1-5.363,6.152,4.52,4.52,0,0,1-5.364-4.574,6.434,6.434,0,0,1,5.364-6.153,4.52,4.52,0,0,1,5.363,4.575" transform="translate(0 -3.707)" fill="#fff" fill-rule="evenodd"/>
  <path id="Fill-129" d="M25.273,41.944S250.661,63.974,235.409,55.5s-68.665-11.211-77.7-21S139.628,7.382,118.539,10.4,95.565-2.033,75.982.227,44.723,17.927,43.97,24.706s-17.811,2.088-18.7,17.238" transform="translate(0 0)" fill="#ebf5ff" fill-rule="evenodd"/>
  <path id="Fill-130" d="M327.014,129.548s76.177,1.809,85.048-.773-5.9-5.681-17.328-12.619-20.5-12.785-25.358-3.476-13.176,4.691-20.428,8.711-21.934,8.157-21.934,8.157" transform="translate(0 -1.059)" fill="#ebf5ff" fill-rule="evenodd"/>
</svg>
