<svg id="Linkedin" xmlns="http://www.w3.org/2000/svg" width="55" height="55" viewBox="0 0 55 55">
  <path id="Path_29" data-name="Path 29" d="M0,27.5A27.5,27.5,0,1,1,27.5,55,27.5,27.5,0,0,1,0,27.5Z" transform="translate(0 0)" fill="#0077b5"/>
  <path id="Path_30" data-name="Path 30" d="M18.167,15.214a3.229,3.229,0,0,1-3.5,3.215h-.04A3.223,3.223,0,1,1,14.7,12a3.216,3.216,0,0,1,3.464,3.212Zm-.408,5.752v18.6H11.567v-18.6Zm22.333,18.6V28.9c0-5.711-3.055-8.37-7.13-8.37A6.149,6.149,0,0,0,27.383,23.6V20.966H21.189c.082,1.744,0,18.6,0,18.6h6.194V29.176a4.225,4.225,0,0,1,.2-1.508,3.388,3.388,0,0,1,3.178-2.26c2.242,0,3.138,1.707,3.138,4.2v9.95Z" transform="translate(1.724 1.845)" fill="#fff" fill-rule="evenodd"/>
</svg>
