<svg id="Group_30" data-name="Group 30" xmlns="http://www.w3.org/2000/svg" xmlns:xlink="http://www.w3.org/1999/xlink" width="373.66" height="248.574" viewBox="0 0 373.66 248.574">
  <defs>
    <linearGradient id="linear-gradient" x1="0.5" y1="1" x2="0.5" gradientUnits="objectBoundingBox">
      <stop offset="0" stop-color="gray" stop-opacity="0.251"/>
      <stop offset="0.535" stop-color="gray" stop-opacity="0.122"/>
      <stop offset="1" stop-color="gray" stop-opacity="0.102"/>
    </linearGradient>
  </defs>
  <path id="Path_185" data-name="Path 185" d="M245.573,644.3c0,8.176-4.861,11.031-10.856,11.031-.14,0-.278,0-.416-.005-.278-.006-.553-.018-.825-.038-5.412-.383-9.616-3.385-9.616-10.988,0-7.868,10.054-17.8,10.812-18.534h0l.044-.043S245.573,636.123,245.573,644.3Z" transform="translate(-199.92 -425.337)" fill="#3f3d56"/>
  <path id="Path_186" data-name="Path 186" d="M242.3,654.081l3.971-5.548-3.981,6.157-.011.637c-.278-.006-.553-.018-.825-.038l.428-8.18,0-.063.008-.012.04-.773-3.991-6.173,4,5.593.01.164.324-6.181-3.417-6.378,3.458,5.292.337-12.813,0-.044v.043l-.056,10.1,3.4-4.006-3.415,4.876-.09,5.534,3.176-5.31-3.189,6.125-.05,3.076,4.61-7.392-4.628,8.466Z" transform="translate(-207.902 -425.337)" fill="#f2f2f2"/>
  <path id="Path_187" data-name="Path 187" d="M469.586,398.623c-2.9-10.529-19.006-18.289-31.573-20.292v-5.058q.348-.13.693-.267a11.175,11.175,0,0,0-.6-2.964,30.5,30.5,0,0,0,13.363-10.569,34.366,34.366,0,0,0-6.786-52.98,6.743,6.743,0,0,0-3.015-12.421,13.161,13.161,0,0,0-20.489-15.289A13.157,13.157,0,0,1,440.513,290.4c0,.115-.007.229-.01.344a13.159,13.159,0,1,0-25.509,4.923,6.58,6.58,0,0,0-4.355,9.638,34.368,34.368,0,0,0-8.381,54.66,30.507,30.507,0,0,0,12.395,9.822v8.43c-12.7,1.814-29.424,9.719-32.347,20.507-2.547,9.4-5.265,19.726-6.618,25.788,11.593,8.146,35.92,12.929,51.165,12.929,14.485,0,38.16-4.317,49.412-11.735C475.048,419.047,472.244,408.268,469.586,398.623Zm-23.224-97.255c0,.12,0,.238-.011.357a6.581,6.581,0,0,0-5.465-6.112q.191-.324.365-.659a6.581,6.581,0,0,1,5.111,6.414Z" transform="translate(-285.999 -226.938)" fill="url(#linear-gradient)"/>
  <path id="Path_188" data-name="Path 188" d="M428.7,567.943c14.072,0,37.073-4.194,48-11.4-1.184-6.471-3.908-16.942-6.49-26.313-3.288-11.935-24.04-20.208-36.419-20.208H421.872c-12.418,0-33.2,8.322-36.446,20.307-2.474,9.134-5.115,19.165-6.429,25.054C390.26,563.3,413.894,567.943,428.7,567.943Z" transform="translate(-287.874 -359.741)" fill="#6c63ff"/>
  <circle id="Ellipse_16" data-name="Ellipse 16" cx="33.385" cy="33.385" r="33.385" transform="translate(107.219 76.003)" fill="#f55f44"/>
  <path id="Path_189" data-name="Path 189" d="M300.445,306.181h17.467a2.613,2.613,0,0,1,2.614,2.613v17.86a10.731,10.731,0,0,1-10.731,10.731h-1.232a10.731,10.731,0,0,1-10.731-10.731v-17.86A2.613,2.613,0,0,1,300.445,306.181Z" transform="translate(-168.854 -173.587)" fill="#fda57d"/>
  <path id="Path_190" data-name="Path 190" d="M479.8,488.015A29.438,29.438,0,0,0,490.77,485.9a10.874,10.874,0,0,0-10.846-10.17h-.93a10.878,10.878,0,0,0-10.832,9.9A29.434,29.434,0,0,0,479.8,488.015Z" transform="translate(-338.425 -340.301)" opacity="0.05"/>
  <circle id="Ellipse_17" data-name="Ellipse 17" cx="29.536" cy="29.536" r="29.536" transform="translate(111.128 85.806)" fill="#fda57d"/>
  <circle id="Ellipse_18" data-name="Ellipse 18" cx="6.393" cy="6.393" r="6.393" transform="translate(124.268 70.32)" fill="#f55f44"/>
  <circle id="Ellipse_19" data-name="Ellipse 19" cx="6.393" cy="6.393" r="6.393" transform="translate(146.998 70.32)" fill="#f55f44"/>
  <circle id="Ellipse_20" data-name="Ellipse 20" cx="12.786" cy="12.786" r="12.786" transform="translate(128.529 53.272)" fill="#f55f44"/>
  <path id="Path_191" data-name="Path 191" d="M521.392,322.1a6.363,6.363,0,0,0-3.568,1.088,6.39,6.39,0,0,1,5.715,11.321,6.389,6.389,0,0,0-2.147-12.408Z" transform="translate(-366.581 -253.201)" fill="#f55f44"/>
  <path id="Path_192" data-name="Path 192" d="M489.173,281.094a12.733,12.733,0,0,0-8.132,2.919,12.785,12.785,0,0,1,14.132,21.155,12.784,12.784,0,0,0-6-24.074Z" transform="translate(-345.727 -229.953)" fill="#f55f44"/>
  <path id="Path_193" data-name="Path 193" d="M444.05,356.868s3.552,23.441,48.3,10.655l-22.02-19.179Z" transform="translate(-324.755 -268.08)" fill="#f55f44"/>
  <rect id="Rectangle_51" data-name="Rectangle 51" width="30.771" height="13.094" rx="6.547" transform="translate(19.586 223.029)" fill="#6c63ff"/>
  <g id="Group_22" data-name="Group 22" transform="translate(234.135 209.946)" opacity="0.7">
    <path id="Path_194" data-name="Path 194" d="M732.827,652.52V647.8H709.236v21.822a4.6,4.6,0,0,0,4.6,4.6h14.391a4.6,4.6,0,0,0,4.6-4.6v-4.836a6.134,6.134,0,1,0,0-12.267Zm0,9.908v-7.549a3.775,3.775,0,1,1,0,7.549Z" transform="translate(-709.236 -647.802)" fill="url(#linear-gradient)"/>
  </g>
  <path id="Path_195" data-name="Path 195" d="M754.627,660.4a5.6,5.6,0,1,0,5.6,5.6A5.6,5.6,0,0,0,754.627,660.4Zm0,9.047A3.446,3.446,0,1,1,758.074,666a3.446,3.446,0,0,1-3.446,3.446Z" transform="translate(-497.66 -445)" fill="#6c63ff"/>
  <path id="Path_196" data-name="Path 196" d="M754.627,660.4a5.6,5.6,0,1,0,5.6,5.6A5.6,5.6,0,0,0,754.627,660.4Zm0,9.047A3.446,3.446,0,1,1,758.074,666a3.446,3.446,0,0,1-3.446,3.446Z" transform="translate(-497.66 -445)" opacity="0.1"/>
  <path id="Path_197" data-name="Path 197" d="M543.642,487.455h21.54v19.9a4.222,4.222,0,0,1-4.222,4.222H547.864a4.222,4.222,0,0,1-4.222-4.222Z" transform="translate(-308.215 -276.36)" fill="#6c63ff"/>
  <rect id="Rectangle_52" data-name="Rectangle 52" width="279.584" height="9.477" transform="translate(0 235.22)" fill="#e0e0e0"/>
  <g id="Group_23" data-name="Group 23" transform="translate(80.343 166.753)" opacity="0.7">
    <rect id="Rectangle_53" data-name="Rectangle 53" width="118.899" height="68.467" rx="14.5" fill="url(#linear-gradient)"/>
  </g>
  <rect id="Rectangle_54" data-name="Rectangle 54" width="114.591" height="67.203" rx="26.835" transform="translate(82.497 168.016)" fill="#535461"/>
  <circle id="Ellipse_21" data-name="Ellipse 21" cx="3.877" cy="3.877" r="3.877" transform="translate(135.915 197.741)" fill="#fff"/>
  <rect id="Rectangle_55" data-name="Rectangle 55" width="255.89" height="3.877" transform="translate(11.847 244.697)" fill="#e0e0e0"/>
  <rect id="Rectangle_56" data-name="Rectangle 56" width="255.89" height="1.292" transform="translate(11.847 244.697)" opacity="0.1"/>
  <path id="Path_198" data-name="Path 198" d="M747.507,650.455v19.924a4.2,4.2,0,0,1-4.2,4.2h2.154a4.2,4.2,0,0,0,4.2-4.2V650.455Z" transform="translate(-494.417 -439.36)" opacity="0.1"/>
  <path id="Path_199" data-name="Path 199" d="M720.684,612.651a1.258,1.258,0,0,0-.951.483c-.282.512.229,1.09.7,1.442a9.268,9.268,0,0,1,2.36,2.2,2.754,2.754,0,0,1,.13,3.044c-.837,1.136-2.836,1.38-3.029,2.778-.124.9.652,1.663,1.438,2.113,1.94,1.111,4.441,1.408,5.847,3.147a4.533,4.533,0,0,1,3.178-2.182c1.3-.3,2.643-.273,3.957-.473a1.368,1.368,0,0,0,1.092-.579c.367-.745-.68-1.64-.318-2.388.275-.57,1.083-.525,1.673-.754a2.179,2.179,0,0,0,1.084-2.6,4.9,4.9,0,0,0-1.853-2.406,20.752,20.752,0,0,0-7.462-3.449,19.136,19.136,0,0,0-3.966-.918A19.831,19.831,0,0,0,720.684,612.651Z" transform="translate(-481.006 -417.614)" fill="#eee"/>
  <rect id="Rectangle_57" data-name="Rectangle 57" width="188.153" height="128.907" transform="translate(185.507)" fill="#535461" opacity="0.1"/>
  <g id="Group_24" data-name="Group 24" transform="translate(202.663 12.695)" opacity="0.5">
    <rect id="Rectangle_58" data-name="Rectangle 58" width="44.291" height="40.864" rx="4.5" fill="url(#linear-gradient)"/>
  </g>
  <rect id="Rectangle_59" data-name="Rectangle 59" width="43.269" height="39.873" rx="4.5" transform="translate(203.204 13.012)" fill="#f5f5f5"/>
  <rect id="Rectangle_60" data-name="Rectangle 60" width="7.297" height="6.567" rx="3.284" transform="translate(206.538 19.58)" fill="#6c63ff"/>
  <rect id="Rectangle_61" data-name="Rectangle 61" width="29.008" height="0.73" rx="0.365" transform="translate(216.025 19.58)" fill="#e0e0e0"/>
  <rect id="Rectangle_62" data-name="Rectangle 62" width="29.008" height="0.73" rx="0.365" transform="translate(216.025 21.769)" fill="#e0e0e0"/>
  <rect id="Rectangle_63" data-name="Rectangle 63" width="39.224" height="0.73" rx="0.365" transform="translate(205.809 29.715)" fill="#e0e0e0"/>
  <rect id="Rectangle_64" data-name="Rectangle 64" width="39.224" height="0.73" rx="0.365" transform="translate(205.809 31.904)" fill="#e0e0e0"/>
  <rect id="Rectangle_65" data-name="Rectangle 65" width="39.224" height="0.73" rx="0.365" transform="translate(205.809 34.823)" fill="#e0e0e0"/>
  <rect id="Rectangle_66" data-name="Rectangle 66" width="22.621" height="0.73" rx="0.365" transform="translate(205.809 37.012)" fill="#e0e0e0"/>
  <rect id="Rectangle_67" data-name="Rectangle 67" width="39.224" height="0.73" rx="0.365" transform="translate(205.809 39.924)" fill="#e0e0e0"/>
  <rect id="Rectangle_68" data-name="Rectangle 68" width="39.224" height="0.73" rx="0.365" transform="translate(205.809 42.113)" fill="#e0e0e0"/>
  <rect id="Rectangle_69" data-name="Rectangle 69" width="39.224" height="0.73" rx="0.365" transform="translate(205.809 45.032)" fill="#e0e0e0"/>
  <rect id="Rectangle_70" data-name="Rectangle 70" width="22.621" height="0.73" rx="0.365" transform="translate(205.809 47.221)" fill="#e0e0e0"/>
  <g id="Group_25" data-name="Group 25" transform="translate(209.348 22.138)" opacity="0.5">
    <rect id="Rectangle_71" data-name="Rectangle 71" width="44.291" height="40.864" rx="4.5" fill="url(#linear-gradient)"/>
  </g>
  <rect id="Rectangle_72" data-name="Rectangle 72" width="43.269" height="39.873" rx="4.5" transform="translate(209.888 22.455)" fill="#fff"/>
  <rect id="Rectangle_73" data-name="Rectangle 73" width="7.297" height="6.567" rx="3.284" transform="translate(213.223 29.023)" fill="#6c63ff"/>
  <rect id="Rectangle_74" data-name="Rectangle 74" width="29.008" height="0.73" rx="0.365" transform="translate(222.709 29.023)" fill="#e0e0e0"/>
  <rect id="Rectangle_75" data-name="Rectangle 75" width="29.008" height="0.73" rx="0.365" transform="translate(222.709 31.212)" fill="#e0e0e0"/>
  <rect id="Rectangle_76" data-name="Rectangle 76" width="39.224" height="0.73" rx="0.365" transform="translate(212.493 39.158)" fill="#e0e0e0"/>
  <rect id="Rectangle_77" data-name="Rectangle 77" width="39.224" height="0.73" rx="0.365" transform="translate(212.493 41.347)" fill="#e0e0e0"/>
  <rect id="Rectangle_78" data-name="Rectangle 78" width="39.224" height="0.73" rx="0.365" transform="translate(212.493 44.266)" fill="#e0e0e0"/>
  <rect id="Rectangle_79" data-name="Rectangle 79" width="22.621" height="0.73" rx="0.365" transform="translate(212.493 46.455)" fill="#e0e0e0"/>
  <rect id="Rectangle_80" data-name="Rectangle 80" width="39.224" height="0.73" rx="0.365" transform="translate(212.493 49.367)" fill="#e0e0e0"/>
  <rect id="Rectangle_81" data-name="Rectangle 81" width="39.224" height="0.73" rx="0.365" transform="translate(212.493 51.556)" fill="#e0e0e0"/>
  <rect id="Rectangle_82" data-name="Rectangle 82" width="39.224" height="0.73" rx="0.365" transform="translate(212.493 54.475)" fill="#e0e0e0"/>
  <rect id="Rectangle_83" data-name="Rectangle 83" width="22.621" height="0.73" rx="0.365" transform="translate(212.493 56.664)" fill="#e0e0e0"/>
  <rect id="Rectangle_84" data-name="Rectangle 84" width="24.394" height="23.438" transform="translate(271.944 28.32)" fill="url(#linear-gradient)"/>
  <rect id="Rectangle_85" data-name="Rectangle 85" width="23.629" height="22.385" transform="translate(272.327 28.895)" fill="#f5f5f5"/>
  <g id="Group_26" data-name="Group 26" transform="translate(280.075 42.192)" opacity="0.6">
    <rect id="Rectangle_86" data-name="Rectangle 86" width="8.514" height="1.148" fill="#6c63ff"/>
  </g>
  <rect id="Rectangle_87" data-name="Rectangle 87" width="14.541" height="1.148" transform="translate(276.871 44.296)" fill="#bdbdbd"/>
  <g id="Group_27" data-name="Group 27" transform="translate(307.511 7.813)" opacity="0.5">
    <rect id="Rectangle_88" data-name="Rectangle 88" width="53.194" height="62.5" fill="url(#linear-gradient)"/>
  </g>
  <rect id="Rectangle_89" data-name="Rectangle 89" width="50.428" height="60.111" transform="translate(309.146 8.819)" fill="#fff"/>
  <rect id="Rectangle_90" data-name="Rectangle 90" width="35.463" height="1.509" transform="translate(316.692 35.192)" fill="#e0e0e0"/>
  <rect id="Rectangle_91" data-name="Rectangle 91" width="35.463" height="1.509" transform="translate(316.692 45.126)" fill="#e0e0e0"/>
  <rect id="Rectangle_92" data-name="Rectangle 92" width="35.463" height="1.509" transform="translate(316.692 47.767)" fill="#e0e0e0"/>
  <rect id="Rectangle_93" data-name="Rectangle 93" width="14.965" height="1.509" transform="translate(316.692 42.486)" fill="#e0e0e0"/>
  <rect id="Rectangle_94" data-name="Rectangle 94" width="11.192" height="1.509" transform="translate(340.962 42.486)" fill="#3ad29f" opacity="0.6"/>
  <rect id="Rectangle_95" data-name="Rectangle 95" width="11.192" height="1.509" transform="translate(329.141 53.929)" fill="#6c63ff"/>
  <g id="Group_28" data-name="Group 28" transform="translate(276.474 87.891)" opacity="0.5">
    <rect id="Rectangle_96" data-name="Rectangle 96" width="31.607" height="25.961" fill="url(#linear-gradient)"/>
  </g>
  <rect id="Rectangle_97" data-name="Rectangle 97" width="30.809" height="25.04" transform="translate(276.843 88.382)" fill="#f2f2f2"/>
  <rect id="Rectangle_98" data-name="Rectangle 98" width="30.809" height="5.585" transform="translate(276.843 88.382)" fill="#6c63ff"/>
  <rect id="Rectangle_99" data-name="Rectangle 99" width="30.809" height="5.585" transform="translate(276.843 88.382)" opacity="0.1"/>
  <rect id="Rectangle_100" data-name="Rectangle 100" width="25.899" height="3.253" transform="translate(279.297 95.993)" fill="#e0e0e0"/>
  <rect id="Rectangle_101" data-name="Rectangle 101" width="18.903" height="1.105" transform="translate(279.297 101.7)" fill="#e0e0e0"/>
  <rect id="Rectangle_102" data-name="Rectangle 102" width="12.275" height="1.105" transform="translate(279.297 103.603)" fill="#e0e0e0"/>
  <rect id="Rectangle_103" data-name="Rectangle 103" width="16.202" height="1.105" transform="translate(279.297 105.505)" fill="#e0e0e0"/>
  <rect id="Rectangle_104" data-name="Rectangle 104" width="18.903" height="1.105" transform="translate(279.297 107.408)" fill="#e0e0e0"/>
  <rect id="Rectangle_105" data-name="Rectangle 105" width="6.321" height="1.105" transform="translate(279.297 109.31)" fill="#e0e0e0"/>
  <g id="Group_29" data-name="Group 29" transform="translate(256.684 78.369)" opacity="0.5">
    <rect id="Rectangle_106" data-name="Rectangle 106" width="39.176" height="32.178" fill="url(#linear-gradient)"/>
  </g>
  <rect id="Rectangle_107" data-name="Rectangle 107" width="38.187" height="31.037" transform="translate(257.14 78.978)" fill="#fff"/>
  <rect id="Rectangle_108" data-name="Rectangle 108" width="38.187" height="6.922" transform="translate(257.14 78.978)" fill="#6c63ff"/>
  <rect id="Rectangle_109" data-name="Rectangle 109" width="32.102" height="4.032" transform="translate(260.183 88.411)" fill="#f5f5f5"/>
  <rect id="Rectangle_110" data-name="Rectangle 110" width="23.43" height="1.369" transform="translate(260.183 95.485)" fill="#e0e0e0"/>
  <rect id="Rectangle_111" data-name="Rectangle 111" width="15.214" height="1.369" transform="translate(260.183 97.843)" fill="#e0e0e0"/>
  <rect id="Rectangle_112" data-name="Rectangle 112" width="20.083" height="1.369" transform="translate(260.183 100.201)" fill="#e0e0e0"/>
  <rect id="Rectangle_113" data-name="Rectangle 113" width="23.43" height="1.369" transform="translate(260.183 102.56)" fill="#e0e0e0"/>
  <rect id="Rectangle_114" data-name="Rectangle 114" width="7.835" height="1.369" transform="translate(260.183 104.918)" fill="#e0e0e0"/>
  <rect id="Rectangle_115" data-name="Rectangle 115" width="9.128" height="1.217" transform="translate(261.857 89.78)" fill="#69f0ae"/>
  <circle id="Ellipse_22" data-name="Ellipse 22" cx="5.289" cy="5.289" r="5.289" transform="translate(197.975 153.24)" fill="#535461" opacity="0.1"/>
  <circle id="Ellipse_23" data-name="Ellipse 23" cx="5.289" cy="5.289" r="5.289" transform="translate(207.799 136.239)" fill="#535461" opacity="0.1"/>
</svg>
