<svg xmlns="http://www.w3.org/2000/svg" width="24.961" height="24.337" viewBox="0 0 24.961 24.337">
  <path id="Icon_awesome-github" data-name="Icon awesome-github" d="M8.349,20.159c0,.1-.116.181-.262.181-.166.015-.282-.065-.282-.181,0-.1.116-.181.262-.181C8.218,19.962,8.349,20.043,8.349,20.159Zm-1.565-.226c-.035.1.065.216.216.247a.236.236,0,0,0,.312-.1c.03-.1-.065-.216-.216-.262A.258.258,0,0,0,6.784,19.932Zm2.224-.086c-.146.035-.247.131-.231.247.015.1.146.166.3.131s.247-.131.231-.231S9.154,19.831,9.008,19.847ZM12.319.563A12.067,12.067,0,0,0,0,12.842,12.617,12.617,0,0,0,8.53,24.879c.644.116.871-.282.871-.609,0-.312-.015-2.033-.015-3.09,0,0-3.523.755-4.262-1.5,0,0-.574-1.464-1.4-1.842,0,0-1.152-.79.081-.775a2.656,2.656,0,0,1,1.942,1.3,2.66,2.66,0,0,0,3.669,1.052,2.8,2.8,0,0,1,.805-1.7c-2.813-.312-5.651-.72-5.651-5.561A3.814,3.814,0,0,1,5.757,9.193a4.755,4.755,0,0,1,.131-3.417C6.94,5.449,9.36,7.135,9.36,7.135a11.889,11.889,0,0,1,6.321,0S18.1,5.444,19.153,5.776a4.752,4.752,0,0,1,.131,3.417,3.912,3.912,0,0,1,1.3,2.964c0,4.856-2.964,5.244-5.777,5.561a2.976,2.976,0,0,1,.856,2.335c0,1.7-.015,3.794-.015,4.207,0,.327.231.725.871.609a12.5,12.5,0,0,0,8.444-12.027A12.339,12.339,0,0,0,12.319.563ZM4.891,17.919c-.065.05-.05.166.035.262.081.081.2.116.262.05.065-.05.05-.166-.035-.262C5.073,17.889,4.957,17.854,4.891,17.919Zm-.543-.408c-.035.065.015.146.116.2a.15.15,0,0,0,.216-.035c.035-.065-.015-.146-.116-.2C4.464,17.446,4.383,17.461,4.348,17.512ZM5.978,19.3c-.081.065-.05.216.065.312.116.116.262.131.327.05.065-.065.035-.216-.065-.312C6.195,19.238,6.044,19.223,5.978,19.3Zm-.574-.74c-.081.05-.081.181,0,.3s.216.166.282.116a.23.23,0,0,0,0-.312C5.616,18.548,5.485,18.5,5.4,18.563Z" transform="translate(0 -0.563)"/>
</svg>
