<svg xmlns="http://www.w3.org/2000/svg" width="25.933" height="25.933" viewBox="0 0 25.933 25.933">
  <g id="Slack_Mark" transform="translate(-73.6 -73.6)">
    <g id="Group_1" data-name="Group 1" transform="translate(73.6 87.264)">
      <path id="Path_110" data-name="Path 110" d="M79.049,141.024a2.724,2.724,0,1,1-2.724-2.724h2.724Z" transform="translate(-73.6 -138.3)" fill="#e01e5a"/>
      <path id="Path_111" data-name="Path 111" d="M105.9,141.024a2.724,2.724,0,0,1,5.449,0v6.821a2.724,2.724,0,0,1-5.449,0Z" transform="translate(-99.079 -138.3)" fill="#e01e5a"/>
    </g>
    <g id="Group_2" data-name="Group 2" transform="translate(73.6 73.6)">
      <path id="Path_112" data-name="Path 112" d="M108.624,79.049a2.724,2.724,0,1,1,2.724-2.724v2.724Z" transform="translate(-99.079 -73.6)" fill="#36c5f0"/>
      <path id="Path_113" data-name="Path 113" d="M83.145,105.9a2.724,2.724,0,0,1,0,5.449H76.324a2.724,2.724,0,1,1,0-5.449Z" transform="translate(-73.6 -99.079)" fill="#36c5f0"/>
    </g>
    <g id="Group_3" data-name="Group 3" transform="translate(87.264 73.6)">
      <path id="Path_114" data-name="Path 114" d="M170.6,108.624a2.724,2.724,0,1,1,2.724,2.724H170.6Z" transform="translate(-163.779 -99.079)" fill="#2eb67d"/>
      <path id="Path_115" data-name="Path 115" d="M143.749,83.145a2.724,2.724,0,1,1-5.449,0V76.324a2.724,2.724,0,1,1,5.449,0Z" transform="translate(-138.3 -73.6)" fill="#2eb67d"/>
    </g>
    <g id="Group_4" data-name="Group 4" transform="translate(87.264 87.264)">
      <path id="Path_116" data-name="Path 116" d="M141.024,170.6a2.724,2.724,0,1,1-2.724,2.724V170.6Z" transform="translate(-138.3 -163.779)" fill="#ecb22e"/>
      <path id="Path_117" data-name="Path 117" d="M141.024,143.749a2.724,2.724,0,0,1,0-5.449h6.821a2.724,2.724,0,0,1,0,5.449Z" transform="translate(-138.3 -138.3)" fill="#ecb22e"/>
    </g>
  </g>
</svg>
