<svg xmlns="http://www.w3.org/2000/svg" width="31.5" height="31.5" viewBox="0 0 31.5 31.5">
  <path id="Icon_awesome-expand" data-name="Icon awesome-expand" d="M0,12.656V3.938A1.683,1.683,0,0,1,1.688,2.25h8.719a.846.846,0,0,1,.844.844V5.906a.846.846,0,0,1-.844.844H4.5v5.906a.846.846,0,0,1-.844.844H.844A.846.846,0,0,1,0,12.656ZM20.25,3.094V5.906a.846.846,0,0,0,.844.844H27v5.906a.846.846,0,0,0,.844.844h2.813a.846.846,0,0,0,.844-.844V3.938A1.683,1.683,0,0,0,29.813,2.25H21.094A.846.846,0,0,0,20.25,3.094ZM30.656,22.5H27.844a.846.846,0,0,0-.844.844V29.25H21.094a.846.846,0,0,0-.844.844v2.813a.846.846,0,0,0,.844.844h8.719A1.683,1.683,0,0,0,31.5,32.063V23.344A.846.846,0,0,0,30.656,22.5ZM11.25,32.906V30.094a.846.846,0,0,0-.844-.844H4.5V23.344a.846.846,0,0,0-.844-.844H.844A.846.846,0,0,0,0,23.344v8.719A1.683,1.683,0,0,0,1.688,33.75h8.719A.846.846,0,0,0,11.25,32.906Z" transform="translate(0 -2.25)" fill="#fff"/>
</svg>
