<svg id="OBJECTS" xmlns="http://www.w3.org/2000/svg" xmlns:xlink="http://www.w3.org/1999/xlink" width="645.744" height="434.594" viewBox="0 0 645.744 434.594">
  <defs>
    <linearGradient id="linear-gradient" x1="0.035" y1="1.368" x2="1.301" y2="-0.951" gradientUnits="objectBoundingBox">
      <stop offset="0" stop-color="#fff"/>
      <stop offset="1" stop-color="#fff" stop-opacity="0"/>
    </linearGradient>
    <linearGradient id="linear-gradient-2" x1="0.292" y1="1.135" x2="1.518" y2="-0.836" xlink:href="#linear-gradient"/>
  </defs>
  <path id="Path_1" data-name="Path 1" d="M145.653,487.142H560.781c40.6,0,75.94-29.564,81.474-69.85.12-.947.241-1.895.346-2.857,1.8-17.489-1.774-34.8-15.985-48.12-45.5-42.647,18.045-97.624,8.526-135.534S592.5,214.646,530.886,154.947s-52-92.977-159.068-19.744c-85.94,58.767-188.932-6.632-240.12,18.947s.165,101.263-62.391,182.767c-39.459,51.429-9.895,97.955,17.308,125.278A87.053,87.053,0,0,0,118,482.315a79.384,79.384,0,0,0,27.654,4.827Z" transform="translate(-27.789 -93.315)" fill="#ccf2ff"/>
  <path id="Path_2" data-name="Path 2" d="M517.8,230.762c-9.474-37.91-42.647-16.105-104.256-75.82-41.88-40.647-50.9-69.023-86.105-59.91,28.135,9.835,36.09,18.752,43.925,37.007,44.857,104.887-48.015,210.421,15.173,257.789,34.8,26.105-37.594,64.271-103.429,97.308H443.441c40.6,0,75.94-29.564,81.474-69.85.12-.947.241-1.895.346-2.857,1.8-17.489-1.774-34.8-15.985-48.12C463.772,323.649,527.275,268.672,517.8,230.762Z" transform="translate(89.552 -93.311)" fill="#ade4f2" opacity="0.48"/>
  <path id="Path_3" data-name="Path 3" d="M191.165,38.5,113.21,21.66l28.977,56.451L161.285,63l7.594,13.113,2.436-23.639Z" transform="translate(57.031 10.904)" fill="#379cf7"/>
  <path id="Path_4" data-name="Path 4" d="M169.15,51.329l2.165,1.143-2.436,23.639L161.285,63,113.21,21.66Z" transform="translate(57.031 10.904)" fill="#092b96"/>
  <path id="Path_5" data-name="Path 5" d="M139.5,55.9l16.135,6.361L148.041,49.15Z" transform="translate(70.274 24.752)" fill="#1574bc"/>
  <path id="Path_6" data-name="Path 6" d="M189.72,153.872c-.692-.677-1.368-1.4-2-2.12l.541-.481c.617.722,1.278,1.414,1.97,2.09Z" transform="translate(41.498 -64.12)" fill="#092b96"/>
  <path id="Path_7" data-name="Path 7" d="M392.461,280.275c-1.91-.105-3.835-.271-5.744-.481l.075-.722c1.895.211,3.82.376,5.714.481ZM381,279.011c-1.88-.3-3.789-.662-5.669-1.053l.15-.707c1.865.391,3.759.737,5.639,1.038Zm-11.278-2.391c-1.865-.481-3.729-1.023-5.549-1.5l.211-.692c1.82.556,3.669,1.1,5.519,1.5Zm-11.008-3.429c-1.789-.662-3.594-1.368-5.368-2.105l.271-.677c1.759.737,3.564,1.5,5.353,2.09Zm-10.632-4.511c-1.744-.827-3.474-1.7-5.158-2.586l.346-.647c1.669.887,3.383,1.759,5.113,2.571Zm-10.2-5.414c-1.639-.977-3.293-2-4.887-3.008l.391-.6c1.594,1.038,3.233,2.06,4.872,3.008Zm-9.639-6.316c-1.5-1.113-3.1-2.286-4.586-3.489l.451-.556c1.5,1.188,3.008,2.346,4.511,3.459Zm-9.023-7.173c-1.5-1.263-2.872-2.571-4.241-3.91l.5-.511c1.368,1.308,2.8,2.617,4.226,3.865Zm-8.3-8c-1.308-1.383-2.6-2.827-3.85-4.286l.541-.481c1.248,1.5,2.526,2.887,3.835,4.271Zm-7.519-8.767c-1.173-1.5-2.316-3.008-3.4-4.647l.587-.406c1.083,1.5,2.226,3.1,3.4,4.617Zm-6.571-9.459-.722-1.173c-.782-1.293-1.5-2.571-2.211-3.8l.647-.346c.677,1.233,1.414,2.5,2.18,3.774l.722,1.158Zm-5.564-10.105c-.842-1.789-1.609-3.564-2.271-5.308l.722-.18c.662,1.729,1.429,3.5,2.256,5.263Zm-4.135-10.782c-.541-1.88-1.008-3.774-1.353-5.624l.707-.135c.346,1.835.8,3.7,1.338,5.549Zm4.165-10.526v-.722a26.183,26.183,0,0,0,5.609-.767l.18.707a27.474,27.474,0,0,1-5.774.842Zm-5.789-.165a42.6,42.6,0,0,1-5.729-.9l.165-.707a44.007,44.007,0,0,0,5.068.827c0-.812,0-1.624,0-2.421a28.993,28.993,0,0,1,.165-3.278l.722.075a27.661,27.661,0,0,0-.165,3.2q0,1.218.09,2.481h-.18Zm-11.263-2.632a30.329,30.329,0,0,1-5.158-2.677l.391-.617a28.451,28.451,0,0,0,5.038,2.617Zm28.165-.331-.406-.6.421-.3a11.805,11.805,0,0,0,3.293-3.789l.632.346a12.436,12.436,0,0,1-3.5,4.03ZM264.6,183a32.5,32.5,0,0,1-3.684-4.511l.6-.406a31.855,31.855,0,0,0,3.594,4.391Zm22.556-2.9-.677-.256a15.91,15.91,0,0,1,3.008-5.008l.541.481a15.384,15.384,0,0,0-2.917,4.827Zm19.955-1.083a7.624,7.624,0,0,0-.917-3.383,7.4,7.4,0,0,0-1.158-1.5l.526-.5a7.519,7.519,0,0,1,1.263,1.714,8.346,8.346,0,0,1,1.023,3.7Zm-82.15-4.9v-.737c1.82,0,3.744,0,5.714-.2v.722c-1.985.18-3.925.256-5.759.256Zm-5.774-.165c-1.97-.135-3.895-.346-5.744-.632l.105-.707c1.835.271,3.744.481,5.684.617Zm38.842-.436c-.827-1.624-1.594-3.353-2.346-5.278l.662-.271a56.9,56.9,0,0,0,2.331,5.218Zm-21.564-.09-.075-.722c1.5-.15,2.932-.331,4.511-.556l1.158-.165.09.722-1.143.165c-1.639.256-3.128.511-4.586.6Zm58.2-1.113-.241-.692a12.917,12.917,0,0,1,5.835-.586l-.105.722a12.03,12.03,0,0,0-5.534.6Zm-86.887-.15a51.236,51.236,0,0,1-5.519-1.744l.256-.677a53.387,53.387,0,0,0,5.444,1.729Zm40.105-.421-.15-.722c2.015-.406,3.835-.857,5.549-1.383l.211.692a51.607,51.607,0,0,1-5.654,1.459Zm11.023-3.459-.3-.662a31.788,31.788,0,0,0,4.917-2.827l.421.586a31.474,31.474,0,0,1-5.083,2.947Zm-61.925-.241a43.719,43.719,0,0,1-4.932-3.007l.421-.586a44.527,44.527,0,0,0,4.857,3.008Zm56.662-5.188a45.956,45.956,0,0,1-1.429-5.609l.722-.135a44.556,44.556,0,0,0,1.4,5.534Zm14.511-1.323-.556-.466a23.01,23.01,0,0,0,3.113-4.707l.647.316a23.4,23.4,0,0,1-3.143,4.842Zm-15.669-10.06h-.722a24.052,24.052,0,0,1,.241-2.571,17.747,17.747,0,0,1,.827-3.158l.677.241a16.708,16.708,0,0,0-.782,3.008,22.015,22.015,0,0,0-.18,2.466Zm20.722-.331-.722-.135a16.542,16.542,0,0,0,.271-3.008,15.292,15.292,0,0,0-.225-2.632l.707-.12a15.224,15.224,0,0,1,.241,2.752,18.05,18.05,0,0,1-.211,3.128ZM256.3,141.1l-.556-.466a12.616,12.616,0,0,1,4.692-3.519l.286.662a11.8,11.8,0,0,0-4.361,3.308Zm14.165-.857a7.519,7.519,0,0,0-2.737-2.526,6.387,6.387,0,0,0-1.609-.571l.165-.707a6.9,6.9,0,0,1,1.774.632,8.3,8.3,0,0,1,3.008,2.767Z" transform="translate(43.674 -71.59)" fill="#092b96"/>
  <path id="Path_8" data-name="Path 8" d="M330.187,232.472h-.917v-.722h2.9v.722Z" transform="translate(112.805 -23.577)" fill="#092b96"/>
  <path id="Path_9" data-name="Path 9" d="M348.214,144.714a33.57,33.57,0,0,0-3.158-1.5,40.6,40.6,0,0,1-38.346,71.1c.977.632,1.97,1.233,3.008,1.79A40.6,40.6,0,0,0,348.2,144.729Z" transform="translate(101.44 -68.18)" fill="#1d88d8"/>
  <path id="Path_10" data-name="Path 10" d="M350.274,143.64a40.6,40.6,0,1,0,16.451,54.932,40.6,40.6,0,0,0-16.451-54.932Zm-33.083,61.308a71.629,71.629,0,1,1,.03,0Z" transform="translate(93.2 -70.43)" fill="#379cf7"/>
  <path id="Path_11" data-name="Path 11" d="M300.853,163.1a40.6,40.6,0,0,1,51.76-18.045,33.414,33.414,0,0,0-3.008-1.8,40.6,40.6,0,0,0-38.481,71.368,26.909,26.909,0,0,0,3.158,1.5A40.6,40.6,0,0,1,300.853,163.1Z" transform="translate(93.884 -70.112)" fill="#379cf7"/>
  <path id="Path_12" data-name="Path 12" d="M340.548,149.624a29.113,29.113,0,1,0,12.466,39.248A29.113,29.113,0,0,0,340.548,149.624Z" transform="translate(97.076 -66.594)" fill="#fff" opacity="0.05"/>
  <path id="Path_13" data-name="Path 13" d="M352.745,160.3l-54.586,16.331a28.932,28.932,0,0,1,3.007-15.669l40.316-12.03A28.827,28.827,0,0,1,352.745,160.3Z" transform="translate(97.074 -65.298)" fill="url(#linear-gradient)"/>
  <path id="Path_14" data-name="Path 14" d="M352.433,181.38a8.212,8.212,0,0,1-.436.8L313.11,193.816a29.023,29.023,0,0,1-13.91-15.91l55.639-16.677A28.993,28.993,0,0,1,352.433,181.38Z" transform="translate(97.657 -59.102)" fill="url(#linear-gradient-2)"/>
  <rect id="Rectangle_4" data-name="Rectangle 4" width="14.632" height="88.632" transform="translate(403.102 137.172) rotate(28.34)" fill="#379cf7"/>
  <path id="Path_15" data-name="Path 15" d="M447.376,189.77v-7.654a3.007,3.007,0,0,0-3.008-3.008h-3.895a4.226,4.226,0,0,1-4-3.008,31.356,31.356,0,0,0-1.669-4.015,4.211,4.211,0,0,1,.752-4.917l2.752-2.752a3.008,3.008,0,0,0,0-4.271l-5.414-5.4a3.007,3.007,0,0,0-4.256,0l-2.752,2.752a4.271,4.271,0,0,1-4.917.752,29.515,29.515,0,0,0-4.03-1.669,4.241,4.241,0,0,1-2.932-4.015v-3.88A3.008,3.008,0,0,0,411,145.68h-7.639a3.008,3.008,0,0,0-3.008,3.008v3.88a4.241,4.241,0,0,1-3.008,4.015,29.519,29.519,0,0,0-4.03,1.669,4.271,4.271,0,0,1-4.917-.752l-2.752-2.752a3.007,3.007,0,0,0-4.256,0l-5.414,5.4a3.008,3.008,0,0,0,0,4.271l2.752,2.752a4.21,4.21,0,0,1,.752,4.917,31.349,31.349,0,0,0-1.669,4.015,4.226,4.226,0,0,1-4,3.008h-3.8A3.008,3.008,0,0,0,367,182.116v7.654a3.008,3.008,0,0,0,3.008,3.008H373.9a4.225,4.225,0,0,1,4,2.932,30.686,30.686,0,0,0,1.669,4.03,4.226,4.226,0,0,1-.752,4.917l-2.8,2.707a3.008,3.008,0,0,0,0,4.271l5.414,5.4a3.007,3.007,0,0,0,4.256,0l2.752-2.752a4.241,4.241,0,0,1,4.917-.752,31.572,31.572,0,0,0,4.03,1.669,4.226,4.226,0,0,1,3.008,4v3.895a3.008,3.008,0,0,0,3.008,3.008h7.639a3.008,3.008,0,0,0,3.008-3.008V219.2a4.225,4.225,0,0,1,2.932-4,31.583,31.583,0,0,0,4.03-1.669,4.24,4.24,0,0,1,4.917.752l2.752,2.752a3.008,3.008,0,0,0,4.256,0l5.414-5.4a3.008,3.008,0,0,0,0-4.271l-2.752-2.752a4.225,4.225,0,0,1-.752-4.917,30.683,30.683,0,0,0,1.669-4.03,4.225,4.225,0,0,1,4-2.932h3.895A3.008,3.008,0,0,0,447.376,189.77Zm-40.211,5.4a9.2,9.2,0,1,0,0-.045Z" transform="translate(131.812 -66.936)" fill="#1d88d8"/>
  <path id="Path_16" data-name="Path 16" d="M460.654,214.932V210.6a1.714,1.714,0,0,0-1.7-1.714h-2.21a2.406,2.406,0,0,1-2.271-1.654,17.765,17.765,0,0,0-.932-2.286,2.391,2.391,0,0,1,.421-2.782l1.5-1.5a1.729,1.729,0,0,0,0-2.421l-3.008-3.008a1.7,1.7,0,0,0-2.406,0l-1.5,1.5a2.421,2.421,0,0,1-2.782.421,15.741,15.741,0,0,0-2.271-.947,2.406,2.406,0,0,1-1.669-2.271v-2.2a1.714,1.714,0,0,0-1.7-1.714H435.8a1.714,1.714,0,0,0-1.714,1.714v2.2a2.406,2.406,0,0,1-1.654,2.271,15.921,15.921,0,0,0-2.286.947,2.421,2.421,0,0,1-2.782-.421l-1.5-1.5a1.729,1.729,0,0,0-2.421,0l-3.008,3.008a1.729,1.729,0,0,0,0,2.421l1.5,1.5a2.406,2.406,0,0,1,.436,2.782,15.915,15.915,0,0,0-.947,2.286,2.406,2.406,0,0,1-2.271,1.654h-2.2a1.714,1.714,0,0,0-1.714,1.714v4.331a1.714,1.714,0,0,0,1.714,1.7h2.2a2.406,2.406,0,0,1,2.271,1.669,15.045,15.045,0,0,0,.947,2.271,2.391,2.391,0,0,1-.436,2.782l-1.5,1.5a1.7,1.7,0,0,0,0,2.406l3.008,3.008a1.729,1.729,0,0,0,2.421,0l1.5-1.5a2.391,2.391,0,0,1,2.782-.421,20.292,20.292,0,0,0,2.286.947,2.376,2.376,0,0,1,1.654,2.256v2.211a1.714,1.714,0,0,0,1.714,1.7h4.331a1.714,1.714,0,0,0,1.7-1.7v-2.211a2.376,2.376,0,0,1,1.669-2.256,20.076,20.076,0,0,0,2.271-.947,2.391,2.391,0,0,1,2.782.421l1.5,1.5a1.7,1.7,0,0,0,2.406,0l3.008-3.008a1.7,1.7,0,0,0,0-2.406l-1.5-1.5a2.391,2.391,0,0,1-.421-2.782,16.713,16.713,0,0,0,.932-2.271,2.406,2.406,0,0,1,2.271-1.669h2.211A1.714,1.714,0,0,0,460.654,214.932ZM437.9,221.85a9.023,9.023,0,1,1,9.023-9.023,9.023,9.023,0,0,1-9.023,9.023Z" transform="translate(156.113 -44.594)" fill="#379cf7"/>
  <path id="Path_17" data-name="Path 17" d="M470.874,182.207v-4.331a1.684,1.684,0,0,0-1.7-1.7h-2.256a2.376,2.376,0,0,1-2.256-1.669,18.974,18.974,0,0,0-.947-2.271,2.391,2.391,0,0,1,.421-2.782l1.5-1.5a1.7,1.7,0,0,0,0-2.406l-3.008-3.008a1.7,1.7,0,0,0-2.406,0l-1.5,1.5a2.391,2.391,0,0,1-2.782.421,18.982,18.982,0,0,0-2.271-.947A2.376,2.376,0,0,1,452,161.26v-2.211a1.684,1.684,0,0,0-1.7-1.7h-4.331a1.684,1.684,0,0,0-1.7,1.7v2.211a2.376,2.376,0,0,1-1.669,2.256,18.97,18.97,0,0,0-2.271.947,2.391,2.391,0,0,1-2.782-.421l-1.5-1.5a1.7,1.7,0,0,0-2.406,0l-3.008,3.008a1.7,1.7,0,0,0,0,2.406l1.5,1.5a2.391,2.391,0,0,1,.421,2.782,18.963,18.963,0,0,0-.947,2.271,2.376,2.376,0,0,1-2.256,1.669h-2.286a1.684,1.684,0,0,0-1.7,1.7v4.331a1.684,1.684,0,0,0,1.7,1.684h2.256a2.376,2.376,0,0,1,2.256,1.669,18.958,18.958,0,0,0,.947,2.271,2.391,2.391,0,0,1-.421,2.782l-1.5,1.5a1.7,1.7,0,0,0,0,2.406l3.008,3.008a1.7,1.7,0,0,0,2.406,0l1.5-1.5a2.391,2.391,0,0,1,2.782-.421,18.971,18.971,0,0,0,2.271.947,2.376,2.376,0,0,1,1.669,2.256v2.211a1.684,1.684,0,0,0,1.7,1.7h4.331a1.684,1.684,0,0,0,1.7-1.7v-2.09a2.376,2.376,0,0,1,1.669-2.256,18.974,18.974,0,0,0,2.271-.947,2.391,2.391,0,0,1,2.782.421l1.5,1.5a1.7,1.7,0,0,0,2.406,0l3.007-3.008a1.7,1.7,0,0,0,0-2.406l-1.5-1.5a2.391,2.391,0,0,1-.421-2.782,19,19,0,0,0,.947-2.271,2.376,2.376,0,0,1,2.286-1.789h2.211a1.684,1.684,0,0,0,1.744-1.684Zm-22.752,2.406a4.511,4.511,0,1,1,4.511-4.511,4.511,4.511,0,0,1-4.511,4.511Z" transform="translate(161.217 -61.057)" fill="#2b56e0"/>
  <path id="Path_18" data-name="Path 18" d="M170.959,282.6S127.35,225.792,35.29,231.642C35.29,231.642,84.117,290.017,170.959,282.6Z" transform="translate(-35.29 -23.845)" fill="#1d88d8"/>
  <path id="Path_19" data-name="Path 19" d="M127.92,283.9s9.429-70.947-59.8-132C68.116,151.9,61.3,227.7,127.92,283.9Z" transform="translate(-18.853 -63.802)" fill="#7dc4f9"/>
  <path id="Path_20" data-name="Path 20" d="M103.34,286.887s61.338-33.173,69.85-122.707C173.19,164.18,109.52,202.2,103.34,286.887Z" transform="translate(-1.009 -57.616)" fill="#7dc4f9"/>
  <path id="Path_21" data-name="Path 21" d="M125.331,289.22s-51.1-31.368-32.481-47.278c13.955-11.91-13.534-27.188-3.1-33.083s12.647-.481,9.023-15.714,8.6-19.353,13.038-34.842,26.331-9.8,24.722,12.707,4.992-1.338,12.256,8.135-16.827,45.955-7.669,42.842,16.2,3.85,13.023,14.842C146.73,262.513,125.331,289.22,125.331,289.22Z" transform="translate(-9.076 -64.972)" fill="#1d88d8"/>
  <path id="Path_22" data-name="Path 22" d="M123.324,293.951a.286.286,0,0,1-.165-.225,532.635,532.635,0,0,1-9.263-63.519v-.2l-.135-.105a139.446,139.446,0,0,1-14.346-15.038c-1.5-1.7-3.008-3.414-4.511-5.083-.09-.105-.09-.165,0-.256a.406.406,0,0,1,.466-.135.285.285,0,0,1,.105.09c1.5,1.639,2.9,3.308,4.346,4.977a147.732,147.732,0,0,0,13.173,13.97l.8.722v-1.068c-.632-9.8-.857-19.8-.662-30.6V197.2l-.256-.12a.255.255,0,0,1-.12-.09,116.33,116.33,0,0,1-10.526-19.549.241.241,0,0,1,0-.286.406.406,0,0,1,.406-.09.3.3,0,0,1,.12.165,117.038,117.038,0,0,0,9.5,18.045l.782,1.2v-1.5c.241-10.2.827-20.737,1.8-32.211a.226.226,0,0,1,.09-.18.376.376,0,0,1,.331,0,.286.286,0,0,1,.18.316c-1.338,15.684-1.955,29.88-1.91,43.353v.857l.692-.5a73.159,73.159,0,0,0,19.323-20.662.15.15,0,0,1,.226-.075.5.5,0,0,1,.226.271.316.316,0,0,1,0,.286,73.172,73.172,0,0,1-20.18,21.278l-.226.135v.256c0,7.519.331,14.586.812,21.429v.226a.256.256,0,0,1,0,.286v.226c.436,6.015,1.083,12.406,1.955,19.429l.15,1.158.647-.962a292.494,292.494,0,0,1,20.03-25.91.256.256,0,0,1,.361,0,.316.316,0,0,1,.2.226s0,.105,0,.211a292.033,292.033,0,0,0-20.872,27.323l-.09.135v.165c1.594,12.286,3.835,25.564,7.023,41.744a.225.225,0,0,1,0,.21.436.436,0,0,1-.406,0Z" transform="translate(-5.294 -58.44)" fill="#092b96" opacity="0.39"/>
  <path id="Path_23" data-name="Path 23" d="M157.609,274.4s-58.752,22.556-60.15-3.1c-1.008-19.248-31.323-6.015-29.549-18.556s7.654-10.842-7.383-17.489S49.88,215.713,39.79,202.179s8.647-28.2,26.376-12.5,2.075-5.023,14.6-5.023,27.579,43.353,30.827,33.744,13.534-11.038,20.677-1.4C149.008,239.533,157.609,274.4,157.609,274.4Z" transform="translate(-34.452 -48.187)" fill="#379cf7"/>
  <path id="Path_24" data-name="Path 24" d="M162.629,273.616a.271.271,0,0,1-.286,0c-16.677-8.226-38.436-19.4-58.872-32.827l-.15-.105h-.2a145.119,145.119,0,0,1-21.684,2.376c-2.361.135-4.722.271-7.068.451-.135,0-.211,0-.241-.15a.451.451,0,0,1,.2-.466h.135c2.3-.18,4.617-.316,6.917-.451a153.723,153.723,0,0,0,20.06-2.045l1.113-.211-.932-.632c-8.586-5.714-17.068-11.925-25.94-18.962l-.226-.2-.271.15a.3.3,0,0,1-.15,0A122.977,122.977,0,0,1,52,216.759a.226.226,0,0,1-.2-.226.376.376,0,0,1,.18-.376.256.256,0,0,1,.211,0,122.1,122.1,0,0,0,21.143,3.624l1.5.12-1.158-.932c-8.346-6.707-16.752-13.925-25.7-22.075-.105-.09-.105-.165-.09-.18a.376.376,0,0,1,.211-.271.3.3,0,0,1,.376,0C60.689,207.631,72.118,217.15,83.4,225.766l.722.541v-.887A76.571,76.571,0,0,0,79.246,196.1c0-.105,0-.2.09-.256a.541.541,0,0,1,.376,0,.361.361,0,0,1,.2.226,76.436,76.436,0,0,1,4.857,30.406v.271l.211.165c6.361,4.767,12.376,9.023,18.391,13.008h.241a.256.256,0,0,1,.241.165v.12h.105c5.323,3.5,11.023,7.023,17.429,10.782l1.053.6-.376-1.143a306.375,306.375,0,0,1-8.932-33.188.3.3,0,0,1,.18-.346.391.391,0,0,1,.316,0,.226.226,0,0,1,.135.18,307.282,307.282,0,0,0,9.489,34.977v.165h.15c11.263,6.511,23.729,13.113,39.278,20.782.135.075.135.15.135.18a.406.406,0,0,1-.241.346Z" transform="translate(-28.945 -41.683)" fill="#092b96" opacity="0.39"/>
  <path id="Path_25" data-name="Path 25" d="M557.7,209.14H97.652a7.835,7.835,0,0,0-7.835,7.835L88.87,441.305A7.835,7.835,0,0,0,96.7,449.14L557.7,445.351a7.85,7.85,0,0,0,7.835-7.85V216.975A7.835,7.835,0,0,0,557.7,209.14Z" transform="translate(-8.299 -34.967)" fill="#fff"/>
  <rect id="Rectangle_5" data-name="Rectangle 5" width="376.662" height="46.992" rx="4.35" transform="translate(127.068 237.526)" fill="#d8e8ef"/>
  <path id="Path_26" data-name="Path 26" d="M208.828,251.28h-82.5a6.541,6.541,0,0,0-6.541,6.541v33.895a6.556,6.556,0,0,0,6.541,6.556h82.5a6.662,6.662,0,0,0,6.647-6.662V257.927A6.647,6.647,0,0,0,208.828,251.28Z" transform="translate(7.278 -13.739)" fill="#379cf7"/>
  <rect id="Rectangle_6" data-name="Rectangle 6" width="61.895" height="61.895" rx="5.09" transform="translate(131.519 309.03)" fill="#7dc4f9"/>
  <rect id="Rectangle_7" data-name="Rectangle 7" width="61.895" height="61.895" rx="5.09" transform="translate(254.361 309.03)" fill="#1d88d8"/>
  <path id="Path_27" data-name="Path 27" d="M169.527,303.9a.977.977,0,0,1,0-1.94h41.1a.977.977,0,0,1,0,1.94Z" transform="translate(31.902 11.792)" fill="#abd0dd"/>
  <path id="Path_28" data-name="Path 28" d="M169.562,310.535a.962.962,0,1,1,0-1.925h41.1a.962.962,0,0,1,0,1.925Z" transform="translate(31.866 15.142)" fill="#abd0dd"/>
  <path id="Path_29" data-name="Path 29" d="M169.562,317.175a.962.962,0,0,1,0-1.925h41.1a.962.962,0,0,1,0,1.925Z" transform="translate(31.866 18.487)" fill="#abd0dd"/>
  <path id="Path_30" data-name="Path 30" d="M169.527,323.83a.977.977,0,0,1,0-1.94h41.1a.977.977,0,0,1,0,1.94Z" transform="translate(31.902 21.832)" fill="#abd0dd"/>
  <path id="Path_31" data-name="Path 31" d="M169.527,330.47a.977.977,0,0,1,0-1.94h41.1a.977.977,0,0,1,0,1.94Z" transform="translate(31.902 25.177)" fill="#abd0dd"/>
  <path id="Path_32" data-name="Path 32" d="M169.562,337.1a.962.962,0,1,1,0-1.925h17.579a.962.962,0,1,1,0,1.925Z" transform="translate(31.866 28.527)" fill="#abd0dd"/>
  <path id="Path_33" data-name="Path 33" d="M252.817,303.9a.977.977,0,0,1,0-1.94H293.9a.977.977,0,1,1,0,1.94Z" transform="translate(73.86 11.789)" fill="#abd0dd"/>
  <path id="Path_34" data-name="Path 34" d="M252.852,310.535a.962.962,0,0,1,0-1.925h41.083a.962.962,0,1,1,0,1.925Z" transform="translate(73.824 15.142)" fill="#abd0dd"/>
  <path id="Path_35" data-name="Path 35" d="M252.852,317.175a.962.962,0,0,1,0-1.925h41.083a.962.962,0,1,1,0,1.925Z" transform="translate(73.824 18.487)" fill="#abd0dd"/>
  <path id="Path_36" data-name="Path 36" d="M252.817,323.832a.977.977,0,0,1,0-1.94H293.9a.977.977,0,1,1,0,1.94Z" transform="translate(73.86 21.829)" fill="#abd0dd"/>
  <path id="Path_37" data-name="Path 37" d="M252.817,330.472a.977.977,0,0,1,0-1.94H293.9a.977.977,0,1,1,0,1.94Z" transform="translate(73.86 25.174)" fill="#abd0dd"/>
  <path id="Path_38" data-name="Path 38" d="M252.852,337.1a.962.962,0,0,1,0-1.925h17.579a.962.962,0,0,1,0,1.925Z" transform="translate(73.824 28.527)" fill="#abd0dd"/>
  <rect id="Rectangle_8" data-name="Rectangle 8" width="61.895" height="61.895" rx="5.09" transform="translate(380.662 309.03)" fill="#092b96"/>
  <path id="Path_39" data-name="Path 39" d="M336.807,303.9a.977.977,0,0,1,0-1.94h41.1a.977.977,0,0,1,0,1.94Z" transform="translate(116.171 11.792)" fill="#abd0dd"/>
  <path id="Path_40" data-name="Path 40" d="M336.842,310.535a.962.962,0,1,1,0-1.925h41.1a.962.962,0,1,1,0,1.925Z" transform="translate(116.135 15.142)" fill="#abd0dd"/>
  <path id="Path_41" data-name="Path 41" d="M336.842,317.175a.962.962,0,0,1,0-1.925h41.1a.962.962,0,1,1,0,1.925Z" transform="translate(116.135 18.487)" fill="#abd0dd"/>
  <path id="Path_42" data-name="Path 42" d="M336.807,323.83a.977.977,0,0,1,0-1.94h41.1a.977.977,0,0,1,0,1.94Z" transform="translate(116.171 21.832)" fill="#abd0dd"/>
  <path id="Path_43" data-name="Path 43" d="M336.807,330.47a.977.977,0,0,1,0-1.94h41.1a.977.977,0,0,1,0,1.94Z" transform="translate(116.171 25.177)" fill="#abd0dd"/>
  <path id="Path_44" data-name="Path 44" d="M336.842,337.1a.962.962,0,1,1,0-1.925h17.579a.962.962,0,1,1,0,1.925Z" transform="translate(116.135 28.527)" fill="#abd0dd"/>
  <path id="Path_45" data-name="Path 45" d="M403.2,217.36H391.093a1.2,1.2,0,0,0-1.2,1.2h0a1.2,1.2,0,0,0,1.2,1.2H403.2a1.2,1.2,0,0,0,1.2-1.2h0a1.2,1.2,0,0,0-1.2-1.2Z" transform="translate(143.343 -30.826)" fill="#379cf7" fill-rule="evenodd"/>
  <path id="Path_46" data-name="Path 46" d="M403.2,221.15H391.093a1.2,1.2,0,0,0-1.2,1.2h0a1.2,1.2,0,0,0,1.2,1.2H403.2a1.2,1.2,0,0,0,1.2-1.2h0A1.2,1.2,0,0,0,403.2,221.15Z" transform="translate(143.343 -28.917)" fill="#379cf7" fill-rule="evenodd"/>
  <path id="Path_47" data-name="Path 47" d="M403.2,224.88H391.093a1.2,1.2,0,0,0-1.2,1.2h0a1.2,1.2,0,0,0,1.2,1.2H403.2a1.2,1.2,0,0,0,1.2-1.2h0A1.2,1.2,0,0,0,403.2,224.88Z" transform="translate(143.343 -27.038)" fill="#379cf7" fill-rule="evenodd"/>
  <path id="Path_48" data-name="Path 48" d="M112.117,223.258a5.323,5.323,0,1,1-1.554-3.774,5.338,5.338,0,0,1,1.554,3.774Z" transform="translate(-1.966 -30.544)" fill="#379cf7"/>
  <path id="Path_49" data-name="Path 49" d="M131.247,223.258a5.308,5.308,0,1,1-1.549-3.778A5.323,5.323,0,0,1,131.247,223.258Z" transform="translate(7.686 -30.544)" fill="#092b96"/>
  <path id="Path_50" data-name="Path 50" d="M150.827,223.258a5.308,5.308,0,1,1-1.549-3.778A5.338,5.338,0,0,1,150.827,223.258Z" transform="translate(17.534 -30.544)" fill="#1d88d8"/>
  <path id="Path_51" data-name="Path 51" d="M246.974,330.507,233.44,311.138a3.729,3.729,0,0,0-6.09,0l-13.534,19.368a3.714,3.714,0,0,0,3.008,5.85h27.218a3.714,3.714,0,0,0,2.932-5.85Z" transform="translate(54.304 15.621)" fill="#092b96"/>
  <circle id="Ellipse_1" data-name="Ellipse 1" cx="16" cy="16" r="16" transform="translate(395.278 326.293)" fill="#1d88d8"/>
  <path id="Path_52" data-name="Path 52" d="M673.952,377.308c0-8.376-139.85-15.158-312.3-15.158s-312.3,6.782-312.3,15.158,139.85,15.173,312.3,15.173S673.952,385.684,673.952,377.308Z" transform="translate(-28.207 42.113)" fill="#ccf2ff"/>
  <path id="Path_53" data-name="Path 53" d="M241.906,185.545c-.526-3.609-2.481-11.519-9.248-8.767-13.188-5.113-19.068,1.338-20.015,9.895-1.173,10.767-7.218,15.038-4.977,18.15,2.8,3.865,11.444,9.5,20.376,9.7,9.323.2,17.5-7.353,19.97-11.444C249.966,199.8,243.47,196.237,241.906,185.545Z" transform="translate(51.297 -52.184)" fill="#092b96" fill-rule="evenodd"/>
  <path id="Path_54" data-name="Path 54" d="M300.035,228.569c-4.722-8.6-23.263-28.105-25.338-28.812-5.8-1.97-15.038-2.857-20.451-3.323a126.433,126.433,0,0,0-13.534-.466h-3.94c-5.113,0-19.338.632-29.383,4.045-2.075.707-21.263,19.895-25.985,28.5a7.308,7.308,0,0,0-.165,6.617l20.18,40.6,10.075-2.135-7.985-34.977a7.85,7.85,0,0,1,2.271-7.338l12.842-15.113h44.06l12.992,15.113a7.774,7.774,0,0,1,2.271,7.338l-7.985,34.917,10.256,1.5,20.06-39.91A7.354,7.354,0,0,0,300.035,228.569Z" transform="translate(37.874 -41.614)" fill="#379cf7" fill-rule="evenodd"/>
  <path id="Path_55" data-name="Path 55" d="M203.311,247.66l4.391,3.79a.887.887,0,0,1-.466,1.5l-1.865.15,1.218,3.248c1.263,3.4-5.8,8.6-8.722,1.88l-3.008-8.812Z" transform="translate(45.095 -15.562)" fill="#ffa683" fill-rule="evenodd"/>
  <path id="Path_56" data-name="Path 56" d="M242.355,247.64l-4.511,3.82a.872.872,0,0,0,.466,1.5l1.85.15-1.218,3.248c-1.263,3.4,5.8,8.6,8.722,1.88l3.128-9.489Z" transform="translate(66.607 -15.572)" fill="#ffa683" fill-rule="evenodd"/>
  <path id="Path_57" data-name="Path 57" d="M235.782,186.838l.18,8.165a11.022,11.022,0,0,1-3.293,8.09c-.361.331-.707.677-1.083,1.038a9.9,9.9,0,0,1-13.534.271l-1.113-.977a10.962,10.962,0,0,1-3.624-7.925l-.165-8.211s11.519-.105,15.91-5.579a10.707,10.707,0,0,0,6.722,5.128Z" transform="translate(54.309 -48.785)" fill="#ffa683" fill-rule="evenodd"/>
  <path id="Path_58" data-name="Path 58" d="M235.782,186.833l.18,8.165a11.022,11.022,0,0,1-3.293,8.09c-.361.331-.707.677-1.083,1.038a9.9,9.9,0,0,1-13.534.271l-1.113-.977a10.962,10.962,0,0,1-3.624-7.925l-.165-8.211s11.414-.09,15.8-5.564A11.083,11.083,0,0,0,235.782,186.833Z" transform="translate(54.309 -48.78)" fill="#ffa683" fill-rule="evenodd"/>
  <path id="Path_59" data-name="Path 59" d="M217.279,193.8a3.594,3.594,0,0,0-5.128-4.917,2.121,2.121,0,0,0-.677.692,3.609,3.609,0,0,0,5.143,4.932A2.121,2.121,0,0,0,217.279,193.8Z" transform="translate(53.142 -45.548)" fill="#ffa683" fill-rule="evenodd"/>
  <path id="Path_60" data-name="Path 60" d="M232.31,193.493a3.594,3.594,0,0,0-4.887-5.083,2.782,2.782,0,0,0-1.068,1.1,3.594,3.594,0,0,0,5.278,4.677A2.286,2.286,0,0,0,232.31,193.493Z" transform="translate(60.712 -45.696)" fill="#ffa683" fill-rule="evenodd"/>
  <path id="Path_61" data-name="Path 61" d="M229.4,199.321a6.421,6.421,0,1,0-12.842,0c0,3.579,2.872,7.233,6.421,7.233S229.4,202.9,229.4,199.321Z" transform="translate(56.027 -43.148)" fill="#ffa683" fill-rule="evenodd"/>
  <path id="Path_62" data-name="Path 62" d="M216.582,197.025a2.048,2.048,0,0,0,0,.3,10.045,10.045,0,0,0,6.6,3.579c3.143,0,6.241-3.353,6.241-3.579v-.376a9.91,9.91,0,0,1-12.842.075Z" transform="translate(56.035 -41.108)" fill="#ef7f5e" fill-rule="evenodd"/>
  <path id="Path_63" data-name="Path 63" d="M205.717,268.223l-7.985-34.977A7.85,7.85,0,0,1,200,225.907l12.842-15.113s2.842-4.887,1.414-4.256-20.376,16.977-22.105,20.932c-1.338,3.008,6.165,29.263,9.789,41.549Z" transform="translate(43.652 -36.306)" fill="#1d88d8"/>
  <path id="Path_64" data-name="Path 64" d="M243.5,198.591l-1.053-.331c3.669,4.316,25.94,30.842,23.489,36.346-2.226,4.977-16.135,30.18-20.406,38.707l3.5.5,20.045-39.85a7.353,7.353,0,0,0-.241-6.586C264.119,218.8,245.578,199.373,243.5,198.591Z" transform="translate(69.069 -40.448)" fill="#1d88d8"/>
  <path id="Path_65" data-name="Path 65" d="M119.73,335.065l1.158,3.218,17.038-1.744s18.8,23.955,26.6,32.12c.812.842,1.714,1.865,2.662,3.008,4.962-12.03,15.038-49.925,4.8-52.947C156.873,314.268,119.73,335.065,119.73,335.065Z" transform="translate(7.247 19.92)" fill="#092b96"/>
  <path id="Path_66" data-name="Path 66" d="M142.46,351.147c4.03,4.872,7.955,9.474,10.617,12.256.812.842,1.714,1.865,2.662,3.008,3.1-7.519,8.15-24.992,9.023-37.88C161.392,329.011,149.9,342.214,142.46,351.147Z" transform="translate(18.698 25.177)" fill="#052575"/>
  <path id="Path_67" data-name="Path 67" d="M154.071,330.36s18.782,23.955,26.586,32.12,25.564,32.316-22.286,30.466S88.7,383.728,88.7,383.728l-.992-10.406L137.845,368s-31.323-3.654-27.489-33.173Z" transform="translate(-8.883 26.099)" fill="#173acc"/>
  <path id="Path_68" data-name="Path 68" d="M132.471,333.334l.857-1.5c4.842,6.12,18.481,23.248,24.842,29.895,3.008,3.218,7.684,8.9,9.248,14.511-3.669-8.526-14.947-16.541-24.556-25.865C130.456,338.3,132.471,333.334,132.471,333.334Z" transform="translate(13.605 26.839)" fill="#2b56e0"/>
  <path id="Path_69" data-name="Path 69" d="M84.765,360.37h-.421c-1.714.135-6.451.391-7.414,2.526-1.113,2.481-1.5,14.782,6.541,15.158s-1.5-6.015,1.248-8.707Z" transform="translate(-14.615 41.216)" fill="#092b96"/>
  <path id="Path_70" data-name="Path 70" d="M87.71,360.713l50.135-5.323s5.444,2.361,22.286,9.023c10.226,4.06,20.872,8.2,26.737,10.9-4.271,3.459-12.9,5.609-28.571,5.008-47.91-1.865-69.669-9.218-69.669-9.218Z" transform="translate(-8.883 38.708)" fill="#092b96"/>
  <path id="Path_71" data-name="Path 71" d="M92.207,369.336s-6.015-2.541-9.293.872c-4.632,4.9-.376-9.113-.376-9.113l8.677-2.165Z" transform="translate(-12.387 40.491)" fill="#ffa683"/>
  <path id="Path_72" data-name="Path 72" d="M176.387,287.846,161.8,275.816a1.413,1.413,0,0,1-.361-1.7,12.15,12.15,0,0,0-19.293-14.135,11.667,11.667,0,0,0-2.045,2.556,12.15,12.15,0,0,0,17.654,16.015,1.279,1.279,0,0,1,.451-.226,1.414,1.414,0,0,1,1.278.271l14.571,12.03a1.759,1.759,0,0,0,1.323.406,1.8,1.8,0,0,0,1.007-3.188Zm-19.023-13.338A8.887,8.887,0,1,1,159.39,268a8.9,8.9,0,0,1-2.026,6.511Z" transform="translate(16.636 -11.042)" fill="#fff"/>
  <path id="Path_73" data-name="Path 73" d="M155.127,260.868a8.887,8.887,0,1,0,3.184,6.03A8.9,8.9,0,0,0,155.127,260.868Z" transform="translate(17.73 -9.943)" fill="#379cf7"/>
  <path id="Path_74" data-name="Path 74" d="M161.11,273.028a5.428,5.428,0,0,0-3.985,2.105c-.376-1.233-1.023-3.008-1.7-3.338-1.023-.406-2.226,8.045-2.226,8.045l.722-.617-.18.286,7.1,3.684C165.38,276.938,164.343,273.464,161.11,273.028Z" transform="translate(24.108 -3.411)" fill="#ffa683"/>
  <path id="Path_75" data-name="Path 75" d="M105.815,328.327c1.414-14.6,3.519-30.211,6.241-34.406a14.451,14.451,0,0,1,4.12-4.511h0s-13.218,8.421-18.662,21.414C94.852,317.064,99.905,323.38,105.815,328.327Z" transform="translate(-4.311 5.47)" fill="#379cf7"/>
  <path id="Path_76" data-name="Path 76" d="M130.09,296.692l-.451-5.759a8.571,8.571,0,0,0,4.872-2.5c3.579-3.729,3.519-10.737.3-14.707-3.008.9-6.752.286-6.887,1.925-.226,2.586-.481,4.647-.481,4.647-2.451-1.5-5.053-1.323-4.707,1.97.135,1.323,1.068,3.429,2.045,3.594a7.519,7.519,0,0,1-4.782,7.82h0v1.985Z" transform="translate(7.383 -2.429)" fill="#ffa683"/>
  <path id="Path_77" data-name="Path 77" d="M113.718,281.436c2.421-9.97,6.331-15.594,16.977-15.865,9.7-.241,10.992,7.835,10.992,7.835-.3,6.993-10.226,3.684-10.526,6.331s-.466,4.662-.466,4.662c-2.451-1.5-5.053-1.323-4.707,1.97.135,1.323,1.068,3.429,2.045,3.594a7.519,7.519,0,0,1-4.707,7.835S111.3,291.391,113.718,281.436Z" transform="translate(4.057 -6.542)" fill="#092b96"/>
  <path id="Path_78" data-name="Path 78" d="M113.718,281.436c2.421-9.97,6.331-15.594,16.977-15.865,6.436-.15,9.173,3.338,10.286,5.714-4.737-4.511-15.038-7.188-21.579,3.233-5.609,9.023-2.075,19.895,8.316,18.707a7.173,7.173,0,0,1-4.406,4.511S111.3,291.391,113.718,281.436Z" transform="translate(4.057 -6.541)" fill="#09256b"/>
  <path id="Path_79" data-name="Path 79" d="M125.595,287.544c-.9-.556-1.955-3.474-1.955-3.474,1.083,1.263,4.165,1.654,4.165,1.654l.451,5.744-2.271-.241C126.046,289.423,125.986,287.784,125.595,287.544Z" transform="translate(9.217 2.78)" fill="#ef7f5e"/>
  <path id="Path_80" data-name="Path 80" d="M101.34,363.277s3.008-54.376,8.406-62.8c2.271-3.519,4.18-5.248,7.609-6.015a75.194,75.194,0,0,1,12.03-.481c4.737.451,16.541,2.015,19.459,3.188,3.955,1.609,19.7,15.308,19.7,15.308l10.526-36.09,8.722,3.248s-8.511,52.707-15.323,52.827-24.226-9.594-24.226-9.594-1.308,33.158,5.128,39.218C153.46,362.1,126.227,374.676,101.34,363.277Z" transform="translate(-2.017 -1.089)" fill="#379cf7"/>
  <path id="Path_81" data-name="Path 81" d="M110.481,292.378a49.429,49.429,0,0,1,4.06-3.008h0a14.451,14.451,0,0,0-4.12,4.511c-2.722,4.2-4.827,19.8-6.241,34.406a41.488,41.488,0,0,1-4.09-3.85C100.707,315.881,102.962,300.468,110.481,292.378Z" transform="translate(-2.646 5.449)" fill="#147ac6"/>
  <path id="Path_82" data-name="Path 82" d="M126.109,304.742c-.932-1.865,9.759,4.045,9.759,4.045S134.56,341.945,141,348.005c0,0-1.895.872-5.143,1.955-3.7-11.083-2.857-26.06-3.534-31.263C131.387,311.569,127.042,306.592,126.109,304.742Z" transform="translate(10.432 13.01)" fill="#63b8f7"/>
  <path id="Path_83" data-name="Path 83" d="M367.707,367.78a9.546,9.546,0,0,1-.105,1.684,4.511,4.511,0,0,1-2.6,3.158,1.864,1.864,0,0,1,.677.15c3.233,1.414,5.083,1.774,8.241.421a1.083,1.083,0,0,1,.722,0c-.12-1.5-.436-3.759-.677-5.353Z" transform="translate(130.805 44.949)" fill="#ffa683"/>
  <path id="Path_84" data-name="Path 84" d="M379.482,376.429v-3.985a1.008,1.008,0,0,0-1.414-.887c-3.158,1.353-5.023.992-8.256-.421-2.5-1.083-10.526,3.414-12.541,4.722h0a1.263,1.263,0,0,0,.722,2.3h19.654A1.88,1.88,0,0,0,379.482,376.429Z" transform="translate(126.638 46.556)" fill="#2b56e0"/>
  <path id="Path_85" data-name="Path 85" d="M389.367,367a9.548,9.548,0,0,1-.105,1.684,4.511,4.511,0,0,1-2.632,3.128,2.676,2.676,0,0,1,.662.15c3.248,1.414,5.1,1.774,8.241.436a1.008,1.008,0,0,1,.722,0c-.12-1.579-.421-3.759-.662-5.368Z" transform="translate(141.701 44.556)" fill="#ffa683"/>
  <path id="Path_86" data-name="Path 86" d="M401.117,375.619c.075-1.338,0-2.842,0-3.97a1.008,1.008,0,0,0-1.414-.887c-3.158,1.338-5.007.977-8.256-.436-2.481-1.083-10.526,3.429-12.526,4.737h0a1.263,1.263,0,0,0,.737,2.3h19.654a1.835,1.835,0,0,0,1.8-1.744Z" transform="translate(137.544 46.148)" fill="#2b56e0"/>
  <path id="Path_87" data-name="Path 87" d="M399.409,292.547c0,2.767,1.955,10.256,1.955,18.632,0,16.06-8.18,37.594-8.18,37.594l13.639,58-11.549.346L369.71,350.367l1.865-60.707Z" transform="translate(133.177 5.596)" fill="#092b96"/>
  <path id="Path_88" data-name="Path 88" d="M403.721,291.1s-1.835,18.887-5.669,32.827c-3.218,11.654-26.436,29.293-26.436,29.293l15.038,56.466H377.21l-33.744-54.857a9.354,9.354,0,0,1,.361-7.2l32.3-61.534Z" transform="translate(119.678 3.797)" fill="#2b56e0"/>
  <path id="Path_89" data-name="Path 89" d="M334.42,282.66H322.3s.6,7.263,13.2,7.263Z" transform="translate(109.294 2.069)" fill="#ffa683"/>
  <path id="Path_90" data-name="Path 90" d="M379.034,245.3a16.79,16.79,0,0,0,.211-3.188c-.376-3.744-2.617-4.406-5.2-2.09a10.527,10.527,0,0,1-3.624-4.361c-.767-1.729-4-.406-6.511-.9a14.331,14.331,0,0,0,4.406,15.97,8.616,8.616,0,0,0,5.8,1.5l.617,9.353,11.353-3.008-.165-5.5a6.722,6.722,0,0,1-6.887-7.774Z" transform="translate(129.823 -22.073)" fill="#ffa683"/>
  <path id="Path_91" data-name="Path 91" d="M380.368,406.2c-2.391-4.06-32.045-54.586-27.669-60.752,4.511-6.421,24.887-46.286,24.887-46.286L372.759,293,369,296.1l-25.173,48.03a9.354,9.354,0,0,0-.361,7.2l33.774,54.857Z" transform="translate(119.678 7.278)" fill="#092b96" opacity="0.4"/>
  <path id="Path_92" data-name="Path 92" d="M369.331,263.416c.617-11.564,18.586-12.466,20.511-12.5a9.023,9.023,0,0,1,6.632,3.173c2.887,3.188,8.361,10.2,6.6,20.06-4.511,25.308,4.812,41.444,6.015,49.4C392.384,330.3,357,321.928,357,321.928L367.8,280.8Z" transform="translate(126.775 -13.92)" fill="#379cf7"/>
  <path id="Path_93" data-name="Path 93" d="M369.378,290.2S380.37,250.3,394.4,252.6c15.519,2.541-10.045,52.045-10.045,52.045l-52.977,1.068-1.068-8.436Z" transform="translate(113.329 -13.121)" fill="#379cf7"/>
  <path id="Path_94" data-name="Path 94" d="M378.91,301.705c-2.6,7.85-11.248,7.218-11.248,7.218l-4.812,11.8c-3.609-.677-5.85-1.2-5.85-1.2l4.271-16.286,9.654-.2s17.774-34.451,14.662-47.353C386.143,256.8,390.368,267.164,378.91,301.705Z" transform="translate(126.775 -11.517)" fill="#147ac6"/>
  <path id="Path_95" data-name="Path 95" d="M390.829,290.47c-17.925-.932-11.88-35.835-11.669-42.586.105-3.759-2.556-5.414-5.143-3.1a10.527,10.527,0,0,1-3.639-4.361c-.752-1.729-4.767-.406-7.278-.9,5.113-20.632,29.323-19.669,40.03,8.256C412.363,271.868,419.461,291.943,390.829,290.47Z" transform="translate(129.847 -26.838)" fill="#092b96"/>
  <path id="Path_96" data-name="Path 96" d="M371.959,249.061a44.545,44.545,0,0,0,2.361-4.211,14.693,14.693,0,0,1-3.5,2.135l-.406.18.617,9.353,1.278-.346C372.019,253.346,371.673,249.346,371.959,249.061Z" transform="translate(133.53 -16.978)" fill="#ef7f5e"/>
  <path id="Path_97" data-name="Path 97" d="M379.388,272.329a37.745,37.745,0,0,1,11.384-19.549c-12.241,4.12-21.384,37.263-21.384,37.263l-39.1,7.083,43.714-2.6S376.711,284.9,379.388,272.329Z" transform="translate(113.319 -12.983)" fill="#63b8f7"/>
  <path id="Path_98" data-name="Path 98" d="M382.664,230.53c13.023,5.85,20.5,27.068,16.917,59.564,18.135-3.008,11.684-21.053,3.549-42.316-10.707-27.925-34.917-28.887-40.03-8.256C363.1,239.522,369.551,224.635,382.664,230.53Z" transform="translate(129.847 -26.838)" fill="#052575"/>
  <path id="Path_99" data-name="Path 99" d="M461.2,295.946c-.842,4.6-15.955,31.248-25.293,49.068a49.82,49.82,0,0,0-4.722,32.316h1.789c-1.083-6.15-1.5-5.218,0-14.827,1.7-10.526,18.181-17.865,28.571-38.18S462.059,291.345,461.2,295.946Z" transform="translate(163.701 8.287)" fill="#379cf7"/>
  <path id="Path_100" data-name="Path 100" d="M430.062,384.952c.526,5.068.947,8.556,1.128,10.932h.917c.3-8.571.827-23.368.481-33.263-.526-14.571,3.489-20.571,5.744-45.113s-4.09-59.338-4.09-59.338-15.278,31.173-9.955,65.91S427.746,362.681,430.062,384.952Z" transform="translate(160.104 -10.268)" fill="#379cf7"/>
  <path id="Path_101" data-name="Path 101" d="M433.8,363.914a133.842,133.842,0,0,0,1.684,15.82h.962c-.165-2.541-.346-7.218-.541-15.519-.586-25.158-3.158-24.857-7.519-41.7s-11.353-23.82-18.632-32.286c0,0-7.519,12.03,3.1,30.075s14.782,19.218,17.293,28.06S433.635,356.05,433.8,363.914Z" transform="translate(152.049 5.883)" fill="#379cf7"/>
  <path id="Path_102" data-name="Path 102" d="M435.27,374.4h1.053a20.361,20.361,0,0,0-2.286-13.383c-4.827-8.18-8.586-18.962-16.045-26.105-10.18-9.729-17.248-34.09-17.248-34.09s-5.353,21.624,4.993,38.767,19.023,20.391,23.654,23.188A12.8,12.8,0,0,1,435.27,374.4Z" transform="translate(148.113 11.218)" fill="#379cf7"/>
  <path id="Path_103" data-name="Path 103" d="M429.042,395.884h.18l.8-3.323c.3-8.722.662-21.233.361-29.94-.526-14.571,3.489-20.571,5.744-45.113s-4.09-59.338-4.09-59.338-5.82,48.451-4.211,70.677C429.313,349.373,429.087,389.944,429.042,395.884Z" transform="translate(162.311 -10.268)" fill="#1d88d8"/>
  <path id="Path_104" data-name="Path 104" d="M461.461,295.011c.15,6.526-.361,28.767-13.534,40.6-15.083,13.759-19.895,28.872-15.383,41.729h.135c-1.083-6.15-1.5-5.218,0-14.827,1.7-10.526,18.18-17.865,28.571-38.18C470.439,306.259,463.672,294.259,461.461,295.011Z" transform="translate(164.012 8.275)" fill="#1d88d8"/>
  <path id="Path_105" data-name="Path 105" d="M435.035,379.734h.5c-.165-2.541-.346-7.218-.541-15.519-.586-25.158-3.158-24.857-7.519-41.7S416.118,298.7,408.84,290.23a62.587,62.587,0,0,0,10.526,32.8c10.842,16.09,13.85,27.94,14.15,32.376C433.772,359.057,434.645,374.471,435.035,379.734Z" transform="translate(152.889 5.883)" fill="#1d88d8"/>
  <path id="Path_106" data-name="Path 106" d="M435.017,374.4h.842a20.361,20.361,0,0,0-2.286-13.383c-4.827-8.18-8.586-18.962-16.045-26.105-10.18-9.729-17.248-34.09-17.248-34.09s.316,27.564,8.346,35.609,7.835,5.714,14.06,13.639,8.135,10.165,10.526,15.038a21.834,21.834,0,0,1,1.8,9.293Z" transform="translate(148.577 11.218)" fill="#1d88d8"/>
  <path id="Path_107" data-name="Path 107" d="M447.5,346.8H419.364a4.511,4.511,0,0,0-4.511,5.444l5.5,28.857a4.586,4.586,0,0,0,4.511,3.714H442a4.511,4.511,0,0,0,4.511-3.714l5.519-28.857A4.511,4.511,0,0,0,447.5,346.8Z" transform="translate(155.869 34.38)" fill="#d8e8ef"/>
  <path id="Path_108" data-name="Path 108" d="M451.9,350.274a4.511,4.511,0,0,0-4.511-3.474h-28.06a4.587,4.587,0,0,0-4.511,3.474Z" transform="translate(155.902 34.38)" fill="#abd0dd"/>
  <path id="Path_109" data-name="Path 109" d="M440.469,346.8h-6.241a4.511,4.511,0,0,1,4.511,5.444L433.221,381.1a4.511,4.511,0,0,1-4.511,3.714h6.241a4.511,4.511,0,0,0,4.511-3.714l5.519-28.857a4.511,4.511,0,0,0-4.511-5.444Z" transform="translate(162.899 34.38)" fill="#abd0dd"/>
</svg>
