<svg id="Group-185" xmlns="http://www.w3.org/2000/svg" width="600" height="618.631" viewBox="0 0 600 618.631">
  <path id="Fill-1" d="M521.6,409.743l.752,164.275,77.505,50.835c-.988-18.487-14.583-154.161-14.583-191.038S580.6,237.7,566.587,205.853s-43.6-21.79-73.187-31.847-60.731-50.285-90.985-52.543-55.39,22.372-63.176,50.867-51.387,60.343-57.616,78.78S267.608,361.74,267.608,361.74l131.265,1.079,2.418,131.8-.12-89.343Z" transform="translate(0 -41.365)" fill="#e9f9ff" fill-rule="evenodd"/>
  <path id="Fill-3" d="M403.02,458.609V121.454a.3.3,0,0,0-.605,0V461.162c0,1.156-.372,3.558-.274,5.348l.879-1.067c.076-2.271,0-4.562,0-6.834" transform="translate(0 -2.44)" fill="#ddd" fill-rule="evenodd"/>
  <path id="Fill-5" d="M599.857,589.1l-44.039-27.127q-16.674-10.272-33.35-20.542l-.019.7,22.735,14q17.729,10.918,35.455,21.839l11.765,7.247c1.972,1.214,4.122,3.042,6.291,3.875a5.68,5.68,0,0,1,.856.527c.333.206.637-.318.306-.522" transform="translate(0 -5.616)" fill="#ddd" fill-rule="evenodd"/>
  <path id="Fill-7" d="M435.151,224.135q-.02,86.1-4.712,172.109c-.021.389.584.388.6,0q4.692-85.974,4.711-172.109a.3.3,0,0,0-.6,0" transform="translate(0 -2.784)" fill="#ddd" fill-rule="evenodd"/>
  <path id="Fill-9" d="M440.469,213.353Q437,305.226,433.519,397.1c-.015.389.591.389.605,0q3.475-91.874,6.95-183.748c.015-.389-.59-.389-.605,0" transform="translate(0 -2.72)" fill="#ddd" fill-rule="evenodd"/>
  <path id="Fill-11" d="M433.276,218.894c7.32-1.881,15.031-2.426,22.542-2.988,10.041-.752,20.112-1.122,30.179-1.271s20.129-.081,30.179.391c7.494.351,15.228.671,22.547,2.442.378.092.539-.492.16-.584-7.07-1.71-14.534-2.058-21.769-2.418-10.361-.516-20.746-.59-31.117-.436s-20.765.539-31.117,1.342c-7.247.562-14.7,1.123-21.764,2.939a.3.3,0,0,0,.16.583" transform="translate(0 -1.94)" fill="#ddd" fill-rule="evenodd"/>
  <path id="Fill-13" d="M495.371,237.733l-36.3,61.364a.3.3,0,0,0,.523.3l36.295-61.364a.3.3,0,0,0-.522-.305" transform="translate(0 -2.373)" fill="#ddd" fill-rule="evenodd"/>
  <path id="Fill-15" d="M488.751,284.8,462.288,332.82c-.187.342.334.647.523.306L489.273,285.1c.188-.341-.335-.647-.522-.3" transform="translate(0 -2.777)" fill="#ddd" fill-rule="evenodd"/>
  <path id="Fill-17" d="M291.236,262.4H392.859a.3.3,0,0,0,0-.6H291.236a.3.3,0,0,0,0,.6" transform="translate(0 -2.358)" fill="#ddd" fill-rule="evenodd"/>
  <path id="Fill-19" d="M285.239,268.379c34.848-.278,69.682-1.171,104.529-1.449a.3.3,0,0,0,0-.605c-34.847.278-69.681,1.171-104.529,1.449a.3.3,0,0,0,0,.6" transform="translate(0 -2.404)" fill="#ddd" fill-rule="evenodd"/>
  <path id="Fill-21" d="M315.137,219.534v40.83a.3.3,0,0,0,.6,0v-40.83a.3.3,0,0,0-.6,0" transform="translate(0 -2.113)" fill="#ddd" fill-rule="evenodd"/>
  <path id="Fill-23" d="M314.321,219.775a30.839,30.839,0,0,1,14.652-.558c.38.077.543-.507.161-.584a31.621,31.621,0,0,0-14.973.559.3.3,0,0,0,.16.583" transform="translate(0 -1.967)" fill="#ddd" fill-rule="evenodd"/>
  <path id="Fill-25" d="M327.85,218.36q.655,21.3,1.312,42.6c.012.388.618.39.606,0q-.658-21.3-1.314-42.6c-.011-.389-.617-.39-.6,0" transform="translate(0 -2.108)" fill="#ddd" fill-rule="evenodd"/>
  <path id="Fill-27" d="M317.257,238.476a35.007,35.007,0,0,1,9.058-9.108c.318-.22.015-.745-.306-.523a35.85,35.85,0,0,0-9.274,9.326c-.22.322.3.625.522.305" transform="translate(0 -2.091)" fill="#ddd" fill-rule="evenodd"/>
  <path id="Fill-29" d="M316.277,245.715a41.822,41.822,0,0,1,11.292-13.435c.307-.239-.124-.665-.428-.428a42.172,42.172,0,0,0-11.386,13.558c-.183.343.338.649.522.305" transform="translate(0 -2.134)" fill="#ddd" fill-rule="evenodd"/>
  <path id="Fill-31" d="M327.871,226.288a58.074,58.074,0,0,0,15.5-.971c.382-.075.22-.659-.161-.583a57.467,57.467,0,0,1-15.335.949c-.389-.028-.387.577,0,.6" transform="translate(0 -2.027)" fill="#ddd" fill-rule="evenodd"/>
  <path id="Fill-33" d="M341.752,227.228q1.731,17.138,2.625,34.338c.021.387.626.39.605,0q-.894-17.2-2.625-34.338c-.039-.384-.644-.388-.605,0" transform="translate(0 -2.163)" fill="#ddd" fill-rule="evenodd"/>
  <path id="Fill-35" d="M334.414,240.616c-1.283,2.709-2.686,6.2-.581,8.884,1.486,1.893,4.254,2.414,5.83.342,2.353-3.093.2-13.372-4.875-9.847-.318.22-.016.745.305.522,4.435-3.082,5.83,5.934,4.361,8.538-1.612,2.858-5.116,1.2-5.9-1.364-.7-2.289.429-4.746,1.387-6.77.166-.35-.356-.657-.522-.3" transform="translate(0 -2.195)" fill="#ddd" fill-rule="evenodd"/>
  <path id="Fill-37" d="M340.96,215.416q.967,8.571,1.935,17.143c.043.382.648.387.6,0q-.966-8.573-1.934-17.143c-.043-.383-.649-.387-.605,0" transform="translate(0 -1.992)" fill="#ddd" fill-rule="evenodd"/>
  <path id="Fill-39" d="M342.084,215.238a54.693,54.693,0,0,1,16.536.731c.381.075.544-.508.161-.584a55.257,55.257,0,0,0-16.7-.752c-.384.041-.388.646,0,.605" transform="translate(0 -1.933)" fill="#ddd" fill-rule="evenodd"/>
  <path id="Fill-41" d="M357.367,215.977q-.342,22.819,1.292,45.591c.027.386.633.389.6,0q-1.631-22.764-1.292-45.591a.3.3,0,0,0-.6,0" transform="translate(0 -2.096)" fill="#ddd" fill-rule="evenodd"/>
  <path id="Fill-43" d="M343.481,230.906a48.936,48.936,0,0,1,9.945-9.979c.308-.231.006-.757-.305-.523a49.954,49.954,0,0,0-10.162,10.2c-.234.312.292.614.522.305" transform="translate(0 -2.017)" fill="#ddd" fill-rule="evenodd"/>
  <path id="Fill-45" d="M343.35,236.167a49.693,49.693,0,0,1,10.821-13.4c.294-.257-.135-.683-.427-.428a50.1,50.1,0,0,0-10.916,13.519c-.19.341.333.647.522.306" transform="translate(0 -2.046)" fill="#ddd" fill-rule="evenodd"/>
  <path id="Fill-47" d="M345.271,258.837l14.039-12.608c.29-.261-.14-.688-.429-.428l-14.038,12.608c-.291.261.139.688.428.428" transform="translate(0 -2.259)" fill="#ddd" fill-rule="evenodd"/>
  <path id="Fill-49" d="M345.9,260.065a96.828,96.828,0,0,1,13.388-9.656.3.3,0,0,0-.306-.523,97.918,97.918,0,0,0-13.51,9.751c-.3.254.134.681.428.428" transform="translate(0 -2.286)" fill="#ddd" fill-rule="evenodd"/>
  <path id="Fill-51" d="M287.723,262.586a11.779,11.779,0,0,0,.2,7.326c.129.365.714.208.583-.16a11.219,11.219,0,0,1-.2-7.005.3.3,0,0,0-.583-.161" transform="translate(0 -2.39)" fill="#ddd" fill-rule="evenodd"/>
  <path id="Fill-53" d="M391.945,259.779a31.742,31.742,0,0,1-.356,8.822c-.07.381.513.544.583.161a32.282,32.282,0,0,0,.378-8.983c-.038-.384-.643-.388-.605,0" transform="translate(0 -2.371)" fill="#ddd" fill-rule="evenodd"/>
  <path id="Fill-55" d="M240.845,5.154,261.6.592c.381-.084.22-.668-.16-.584l-20.76,4.563c-.38.083-.219.667.161.583" transform="translate(0 0)" fill="#ddd" fill-rule="evenodd"/>
  <path id="Fill-57" d="M253.26,8.9l12.481-2.892c.38-.087.219-.671-.161-.583L253.1,8.321c-.379.087-.219.671.161.583" transform="translate(0 0)" fill="#ddd" fill-rule="evenodd"/>
  <path id="Fill-59" d="M534.731,221.891q-.232,101.453,1.371,202.9a.3.3,0,0,0,.6,0q-1.6-101.439-1.371-202.9a.3.3,0,0,0-.605,0" transform="translate(0 -2.958)" fill="#ddd" fill-rule="evenodd"/>
  <path id="Fill-61" d="M531.924,225.664q-.9,86.168.507,172.336a.3.3,0,0,0,.6,0q-1.4-86.162-.507-172.336a.3.3,0,0,0-.6,0" transform="translate(0 -2.805)" fill="#ddd" fill-rule="evenodd"/>
  <path id="Fill-63" d="M257.335,6.912c-.512,30.359-.881,60.72-1.393,91.079a.3.3,0,0,0,.606,0c.512-30.359.881-60.72,1.392-91.079a.3.3,0,0,0-.605,0" transform="translate(0 0)" fill="#ddd" fill-rule="evenodd"/>
  <path id="Fill-65" d="M255.672,97.863c-5.228,6.071-14.182,9.431-18.1,16.567-.187.341.335.647.523.305,3.88-7.075,12.8-10.4,18-16.444.253-.294-.173-.724-.428-.428" transform="translate(0 0)" fill="#ddd" fill-rule="evenodd"/>
  <path id="Fill-67" d="M256.2,98.493c6.436,4.61,13.333,8.409,18.6,14.453.256.294.682-.136.427-.428-5.307-6.088-12.24-9.9-18.725-14.547-.318-.228-.62.3-.306.522" transform="translate(0 0)" fill="#ddd" fill-rule="evenodd"/>
  <path id="Fill-69" d="M237.909,115.167a96.209,96.209,0,0,1,37.372-2.019c.381.054.546-.529.161-.584a97.006,97.006,0,0,0-37.693,2.02.3.3,0,0,0,.16.583" transform="translate(0 0)" fill="#ddd" fill-rule="evenodd"/>
  <path id="Fill-71" d="M241.025,111.067a167.305,167.305,0,0,1,25.893-2.481.3.3,0,0,0,0-.605,168.482,168.482,0,0,0-26.053,2.5c-.383.067-.221.65.16.583" transform="translate(0 0)" fill="#ddd" fill-rule="evenodd"/>
  <path id="Fill-73" d="M249.266,113.518a13.122,13.122,0,0,0,15.981-.795c.3-.251-.13-.677-.427-.428a12.5,12.5,0,0,1-15.248.7c-.322-.221-.624.3-.306.523" transform="translate(0 0)" fill="#ddd" fill-rule="evenodd"/>
  <path id="Fill-75" d="M427.284,389.7l-3.833-34.666,18.456-.843-1.289,35.676Z" transform="translate(0 -3.38)" fill="#fff" fill-rule="evenodd"/>
  <g id="Group-79" transform="translate(0 578.849)">
    <path id="Fill-77" d="M449.515,1.39C372.282-3.04,289.952,6.613,212.258,5.444c-28.383-.427-56.776-2.506-85.177-1.632C97.866,4.712-3.628,5.832.1,16.75c3,8.8,96.107,15.376,137.854,19.726,44.7,4.657,208.743,5.08,252.277-1.038,43.726-6.145,74.7-3.94,119.389-7.268,9.321-.694,84.02-6.108,73-12.828C566.2,5.33,527.27,5.848,449.515,1.39" transform="translate(0 -0.219)" fill="#ebf5ff" fill-rule="evenodd"/>
  </g>
  <path id="Fill-80" d="M431.847,354.445s-2.28,9.747-.236,18.079a171.508,171.508,0,0,1,3.144,17.293h-9.669l-4.166-35.529Z" transform="translate(0 -3.38)" fill="#c9d9fb" fill-rule="evenodd"/>
  <path id="Fill-82" d="M207.161,427.389c-5.559,4.723-10.723,2.144-12.423,1.046a.447.447,0,0,0-.683.3c-.1.554-.311,1.519-.732,3.186a14.336,14.336,0,0,1-.635,1.977,2.195,2.195,0,0,1-2.844,1.17l-.456-.181a2.513,2.513,0,0,1-2.436-.876l-.964-1.181-.394,0a2.513,2.513,0,0,1-2.318-1.5l-.168-.379h-.139a2.554,2.554,0,0,1-2.524-3.1l1.477-6.808a1.824,1.824,0,0,1,1.215-1.35l17.067-5.635Z" transform="translate(0 -3.856)" fill="#ffc3a9" fill-rule="evenodd"/>
  <path id="Stroke-84" d="M190.382,427.408l-.995,7.475" transform="translate(0 -3.892)" fill="rgba(0,0,0,0)" fill-rule="evenodd"/>
  <path id="Stroke-86" d="M187,425.476l-1,7.475" transform="translate(0 -3.874)" fill="rgba(0,0,0,0)" fill-rule="evenodd"/>
  <path id="Stroke-88" d="M183.984,423.422l-.995,7.475" transform="translate(0 -3.856)" fill="rgba(0,0,0,0)" fill-rule="evenodd"/>
  <path id="Fill-90" d="M348.546,437.293l17.122,158.463h-2.03l-23.9-158.463" transform="translate(0 -5.616)" fill="#c2efff" fill-rule="evenodd"/>
  <path id="Fill-92" d="M271.345,438.079,254.223,595.756h3.917l23.895-158.463Z" transform="translate(0 -5.616)" fill="#c2efff" fill-rule="evenodd"/>
  <path id="Fill-94" d="M326.61,317.345h38.758a30.645,30.645,0,0,1,30.4,34.533L382.853,452.825a30.643,30.643,0,0,1-30.4,26.756H289.824" transform="translate(0 -3.858)" fill="#182646" fill-rule="evenodd"/>
  <path id="Fill-96" d="M323.291,585.817l.191,1.172h16.869l-7.925-27.822-22.952-.118,9.615,24.614,1.606-.022a2.592,2.592,0,0,1,2.6,2.176" transform="translate(0 -5.616)" fill="#ffc3a9" fill-rule="evenodd"/>
  <path id="Fill-98" d="M238.417,589.7l-1.651-30.183,24.171.118-2.359,31.6Z" transform="translate(0 -5.616)" fill="#ffc3a9" fill-rule="evenodd"/>
  <path id="Fill-100" d="M243.117,585.974a2.592,2.592,0,0,0-2.6-2.176l-3.273.045a2.593,2.593,0,0,0-2.534,2.936l.14,1.058-10.247,5.256a2.635,2.635,0,0,0,1.2,4.979h30.152a2.635,2.635,0,0,0,2.633-2.535l.326-8.548H243.282Z" transform="translate(0 -5.616)" fill="#2e475e" fill-rule="evenodd"/>
  <path id="Fill-102" d="M243.029,592.239a.942.942,0,0,0-.21,1.317l3.274,4.516h2.331l-4.078-5.623a.942.942,0,0,0-1.317-.21" transform="translate(0 -5.616)" fill="#fff" fill-rule="evenodd"/>
  <path id="Fill-104" d="M246.92,589.762a.942.942,0,0,0-.21,1.317l5.069,6.993h2.33l-5.873-8.1a.941.941,0,0,0-1.316-.21" transform="translate(0 -5.616)" fill="#fff" fill-rule="evenodd"/>
  <path id="Fill-106" d="M341.948,594.944l-1.515-7.955h-16.95l-.191-1.172a2.593,2.593,0,0,0-2.6-2.177l-3.273.046a2.594,2.594,0,0,0-2.535,2.936l.184,1.38-9.254,5.075a2.634,2.634,0,0,0-1.368,2.31v.05a2.635,2.635,0,0,0,2.635,2.635H339.36a2.634,2.634,0,0,0,2.588-3.128" transform="translate(0 -5.616)" fill="#2e475e" fill-rule="evenodd"/>
  <path id="Fill-108" d="M326.663,592.239a.942.942,0,0,0-.21,1.317l3.274,4.516h2.331l-4.078-5.623a.942.942,0,0,0-1.317-.21" transform="translate(0 -5.616)" fill="#fff" fill-rule="evenodd"/>
  <path id="Fill-110" d="M330.553,589.762a.943.943,0,0,0-.21,1.317l5.069,6.993h2.33l-5.872-8.1a.942.942,0,0,0-1.317-.21" transform="translate(0 -5.616)" fill="#fff" fill-rule="evenodd"/>
  <path id="Fill-112" d="M229.928,582.394h33.484l.471-11H229.506Z" transform="translate(0 -5.616)" fill="#37516e" fill-rule="evenodd"/>
  <path id="Fill-114" d="M308.216,582.394h33.957l-3.72-11H303.1Z" transform="translate(0 -5.616)" fill="#476784" fill-rule="evenodd"/>
  <path id="Fill-116" d="M270.954,454.268l29.889-18.61c-20.082-1.68-42.3,3.679-42.3,3.679s0-.008,0-.012l-5.709,1.3a34.746,34.746,0,0,0-26.988,35.207l3.662,95.556h34.377l3.3-77.188-5.106-15.32a21.125,21.125,0,0,1,8.875-24.614" transform="translate(0 -5.616)" fill="#2e475e" fill-rule="evenodd"/>
  <path id="Fill-118" d="M301.614,435.721c-.256-.024-.514-.042-.771-.063l-29.888,18.61a21.125,21.125,0,0,0-8.875,24.614l5.106,15.319L303.1,571.389h35.357L303.972,469.363s35.214-1.887,48.105-19.965c-8.96,1.415-30.184-11.79-50.463-13.677" transform="translate(0 -5.616)" fill="#37516e" fill-rule="evenodd"/>
  <path id="Fill-120" d="M353.963,400.35a10.831,10.831,0,0,0,6.365-11.55c-2.916-19.253-10.976-65.989-21.3-72.084-16.891-9.972-40.086-8.489-40.086-8.489l-18.551,6.76L267.6,320.075a10.788,10.788,0,0,0-6.737,11.151c2.2,21.181,3.707,74.924-2.322,108.1,0,0,0,.008,0,.012s22.222-5.359,42.3-3.679c.257.022.515.039.77.063,20.28,1.887,41.5,15.092,50.463,13.677,0,0,4.717-9.432,1.887-49.048" transform="translate(0 -3.584)" fill="#f7734a" fill-rule="evenodd"/>
  <path id="Fill-122" d="M267.186,432.891H202.1l-2.371-18.865,41.515-12.734,17.1-72.566a10.781,10.781,0,0,1,6.536-7.555l18.81-7.423Z" transform="translate(0 -3.489)" fill="#f7734a" fill-rule="evenodd"/>
  <path id="Fill-124" d="M62.662,434.778H399.4v-5.345H62.662Z" transform="translate(0 -3.897)" fill="#3c4bb4" fill-rule="evenodd"/>
  <path id="Fill-126" d="M75.473,440.123h311.11v-5.345H75.473Z" transform="translate(0 -3.946)" fill="#c2efff" fill-rule="evenodd"/>
  <path id="Fill-127" d="M354.621,411.995c-.145-3.562-.356-7.422-.658-11.645L316.47,418.979Z" transform="translate(0 -3.713)" fill="#070707" fill-rule="evenodd"/>
  <path id="Stroke-128" d="M321.422,341.869l4.951,43.86-46.151,20.909" transform="translate(0 -3.432)" fill="rgba(0,0,0,0)" fill-rule="evenodd"/>
  <path id="Stroke-129" d="M264.67,348l-2.908,71.45" transform="translate(0 -3.536)" fill="rgba(0,0,0,0)" fill-rule="evenodd"/>
  <path id="Fill-130" d="M272.294,294.456h4.051a2.314,2.314,0,0,0,2.313-2.313V283.83a2.314,2.314,0,0,0-2.313-2.313h-4.051a3.69,3.69,0,0,0-3.69,3.69v5.559a3.69,3.69,0,0,0,3.69,3.69" transform="translate(0 -2.586)" fill="#838bc5" fill-rule="evenodd"/>
  <path id="Fill-131" d="M296.334,320.51a10.5,10.5,0,0,0,6.143-10.769l-3.666-32.331a8.308,8.308,0,0,0-8.639-7.363l-8.794.408a8.308,8.308,0,0,0-7.921,8.465l.4,20.017a4.858,4.858,0,0,0,5.17,4.749l5.456-.354.72,10.5a7.913,7.913,0,0,0,11.129,6.68" transform="translate(0 -2.647)" fill="#ffc3a9" fill-rule="evenodd"/>
  <path id="Fill-132" d="M284.486,303.333l.72,10.5a7.839,7.839,0,0,0,.109.835l6.666-12.419Z" transform="translate(0 -2.775)" fill="#070707" fill-rule="evenodd"/>
  <path id="Stroke-133" d="M279.919,286.211l-.431,7.416,3.913-.182" transform="translate(0 -2.606)" fill="rgba(0,0,0,0)" fill-rule="evenodd"/>
  <path id="Stroke-134" d="M278.176,296.653s2.629,2.4,6.584-.015" transform="translate(0 -2.674)" fill="rgba(0,0,0,0)" fill-rule="evenodd"/>
  <path id="Stroke-135" d="M285.366,287.542a.4.4,0,1,1-.463-.328A.4.4,0,0,1,285.366,287.542Z" transform="translate(0 -2.587)" fill="rgba(0,0,0,0)" fill-rule="evenodd"/>
  <path id="Stroke-136" d="M277.141,287.681a.4.4,0,1,1-.463-.328A.4.4,0,0,1,277.141,287.681Z" transform="translate(0 -2.589)" fill="rgba(0,0,0,0)" fill-rule="evenodd"/>
  <path id="Fill-137" d="M301.7,284.449c-.25-1.5-1.916-2.167-1.5-3.917s2.166-7.416-.416-7.833-2.668-1.667-5.334-4-4.916-.667-8.334,0-3.582-1.667-5.416-1.083-4.166-1.75-8.166-.5c-1.243.388-6,1.833-6.334,5.666-.477,5.488,3.75,6.25,5.584,7.084s2.26,2.448,4.291,2.823c2.622.484,4.385-1.236,6.625-.573,4.156,1.229,6.666-.48,8.25-1.4a9.777,9.777,0,0,1,2.416-.9l.728,8.248,1.07-.413.192-2.526a1.511,1.511,0,0,1,1.46-1.435,1.44,1.44,0,0,1,1.422,1.462l-.025,1.678a3.672,3.672,0,0,1-1.43,2.852l3.935,4.551-.033-.289a18.676,18.676,0,0,1,.68-7.359,5.707,5.707,0,0,0,.335-2.143" transform="translate(0 -2.511)" fill="#070707" fill-rule="evenodd"/>
  <path id="Fill-138" d="M301.654,294.456H297.6a2.313,2.313,0,0,1-2.312-2.313V283.83a2.313,2.313,0,0,1,2.312-2.313h4.051a3.69,3.69,0,0,1,3.69,3.69v5.559a3.69,3.69,0,0,1-3.69,3.69" transform="translate(0 -2.586)" fill="#838bc5" fill-rule="evenodd"/>
  <path id="Fill-139" d="M288.093,307.913h-8.488v-.951h8.488c5.918,0,10.732-5.077,10.732-11.317v-2.294h.9v2.294c0,6.765-5.219,12.268-11.634,12.268" transform="translate(0 -2.702)" fill="#838bc5" fill-rule="evenodd"/>
  <path id="Fill-140" d="M283.953,308.758h-4.294a1.213,1.213,0,0,1-1.213-1.213v-1.228a1.213,1.213,0,0,1,1.213-1.214h4.294a1.213,1.213,0,0,1,1.214,1.214v1.228a1.213,1.213,0,0,1-1.214,1.213" transform="translate(0 -2.761)" fill="#838bc5" fill-rule="evenodd"/>
  <path id="Fill-141" d="M279.59,305.574a.674.674,0,0,0-.673.673v1.367a.673.673,0,0,0,.673.672h4.432a.672.672,0,0,0,.672-.672v-1.367a.673.673,0,0,0-.672-.673Zm4.432,3.655H279.59a1.617,1.617,0,0,1-1.616-1.615v-1.367a1.617,1.617,0,0,1,1.616-1.616h4.432a1.619,1.619,0,0,1,1.616,1.616v1.367A1.618,1.618,0,0,1,284.022,309.229Z" transform="translate(0 -2.761)" fill="#838bc5" fill-rule="evenodd"/>
  <path id="Fill-142" d="M301.063,274.141v-1.757a5.9,5.9,0,0,0-5.895-5.895h-12.1a5.844,5.844,0,0,0-3.512,1.18,2.528,2.528,0,0,0,1.15-.053c1.052-.335,1.558.291,2.443.759h12.023a4.014,4.014,0,0,1,4.009,4.009v14.384h1.886V276.56a7.44,7.44,0,0,0,0-2.419" transform="translate(0 -2.478)" fill="#838bc5" fill-rule="evenodd"/>
  <path id="Fill-143" d="M99.676,439.966,82.554,597.643h3.917L110.366,439.18Z" transform="translate(0 -5.616)" fill="#c2efff" fill-rule="evenodd"/>
  <path id="Fill-144" d="M362.38,439.966,379.5,597.643h-3.917L351.691,439.18Z" transform="translate(0 -5.616)" fill="#c2efff" fill-rule="evenodd"/>
  <path id="Fill-145" d="M224.913,403.826H97.231a5.487,5.487,0,0,1-5.487-5.487V311.985a5.487,5.487,0,0,1,5.487-5.487H224.913a5.487,5.487,0,0,1,5.487,5.487v86.354a5.487,5.487,0,0,1-5.487,5.487" transform="translate(0 -3.267)" fill="#182646" fill-rule="evenodd"/>
  <path id="Stroke-146" d="M224.514,317.344v74.365a5.025,5.025,0,0,1-5.025,5.025H209.4" transform="translate(0 -3.271)" fill="rgba(0,0,0,0)" fill-rule="evenodd"/>
  <path id="Fill-147" d="M167.026,386.024v43.389H134.957l5.187-40.088Z" transform="translate(0 -3.733)" fill="#182646" fill-rule="evenodd"/>
  <path id="Fill-148" d="M141.264,397.874h24.563l2.791-10.729H144.25Z" transform="translate(0 -3.544)" fill="#fff" fill-rule="evenodd"/>
  <path id="Fill-149" d="M287.178,419.45c-5.559,4.723-10.723,2.144-12.423,1.045a.447.447,0,0,0-.683.3c-.1.553-.311,1.519-.731,3.186a14.442,14.442,0,0,1-.636,1.976,2.2,2.2,0,0,1-2.844,1.171l-.455-.181a2.516,2.516,0,0,1-2.437-.876l-.963-1.181-.395,0a2.515,2.515,0,0,1-2.318-1.5l-.167-.38-.14,0a2.554,2.554,0,0,1-2.524-3.1l1.477-6.809a1.827,1.827,0,0,1,1.215-1.35l17.068-5.634Z" transform="translate(0 -3.782)" fill="#ffc3a9" fill-rule="evenodd"/>
  <path id="Stroke-150" d="M270.4,419.469l-.995,7.475" transform="translate(0 -3.82)" fill="rgba(0,0,0,0)" fill-rule="evenodd"/>
  <path id="Stroke-151" d="M267.017,417.537l-.995,7.475" transform="translate(0 -3.802)" fill="rgba(0,0,0,0)" fill-rule="evenodd"/>
  <path id="Stroke-152" d="M264,415.483l-1,7.475" transform="translate(0 -3.783)" fill="rgba(0,0,0,0)" fill-rule="evenodd"/>
  <path id="Fill-153" d="M187.147,429.433h114.7v-5.66h-114.7Z" transform="translate(0 -3.848)" fill="#182646" fill-rule="evenodd"/>
  <path id="Fill-154" d="M323.308,429.433h-14.62L306.8,402.551H325.2Z" transform="translate(0 -3.785)" fill="#fff" fill-rule="evenodd"/>
  <path id="Fill-155" d="M306.035,410.725H325.9l-.707,10.611H306.8Z" transform="translate(0 -3.759)" fill="#182646" fill-rule="evenodd"/>
  <path id="Fill-156" d="M305.74,405.066h20.516v-2.83H305.74Z" transform="translate(0 -3.635)" fill="#182646" fill-rule="evenodd"/>
  <path id="Stroke-157" d="M114.382,396.734V446.8a30.112,30.112,0,0,0,30.112,30.112h31.021A30.112,30.112,0,0,0,205.627,446.8V427.86" transform="translate(0 -4.095)" fill="rgba(0,0,0,0)" fill-rule="evenodd"/>
  <path id="Fill-158" d="M401.052,391.714v206.2a.5.5,0,0,0,1,0v-206.2a.5.5,0,0,0-1,0" transform="translate(0 -5.616)" fill="#334872" fill-rule="evenodd"/>
  <path id="Fill-159" d="M402.035,390.389H518.149a.5.5,0,0,0,0-1H402.035a.5.5,0,0,0,0,1" transform="translate(0 -3.509)" fill="#334872" fill-rule="evenodd"/>
  <path id="Fill-160" d="M520.167,389.884c.234,30.134.214,60.27.206,90.4-.009,28.814-.066,57.63.1,86.445.058,10.445.112,20.9.406,31.338a.5.5,0,0,0,1,0c-.619-22.031-.483-44.094-.5-66.132-.029-31.088.028-62.177-.013-93.265q-.031-24.4-.192-48.791a.5.5,0,0,0-1,0" transform="translate(0 -5.616)" fill="#334872" fill-rule="evenodd"/>
  <path id="Fill-161" d="M417.363,460.929h86.959a.5.5,0,0,0,0-1H417.363a.5.5,0,0,0,0,1" transform="translate(0 -4.145)" fill="#334872" fill-rule="evenodd"/>
  <path id="Fill-162" d="M417.363,535.118h86.959a.5.5,0,0,0,0-1H417.363a.5.5,0,0,0,0,1" transform="translate(0 -5.616)" fill="#334872" fill-rule="evenodd"/>
  <path id="Fill-163" d="M420.48,354.367c1.347,11.63,2.6,23.27,3.949,34.9.073.632,1.074.639,1,0-1.346-11.63-2.6-23.27-3.949-34.9-.073-.632-1.074-.639-1,0" transform="translate(0 -3.378)" fill="#334872" fill-rule="evenodd"/>
  <path id="Fill-164" d="M420.92,354.836c7,.089,14,.187,20.987-.205.64-.036.645-1.036,0-1-6.989.392-13.991.294-20.987.205a.5.5,0,0,0,0,1" transform="translate(0 -3.188)" fill="#334872" fill-rule="evenodd"/>
  <path id="Fill-165" d="M441.408,354.19c-.467,11.892-.863,23.787-1.33,35.679-.025.644.975.643,1,0,.467-11.892.863-23.787,1.33-35.679.025-.644-.975-.643-1,0" transform="translate(0 -3.381)" fill="#334872" fill-rule="evenodd"/>
  <path id="Fill-166" d="M411.754,328.416c.584,9.734,2.729,22.5,13.16,26.374.6.224.865-.742.266-.964-9.941-3.693-11.874-16.2-12.426-25.41-.038-.64-1.038-.644-1,0" transform="translate(0 -3.083)" fill="#334872" fill-rule="evenodd"/>
  <path id="Fill-167" d="M412.159,327.856C415.01,338,424.6,344.335,427.632,354.382a.5.5,0,0,0,.964-.265c-3.034-10.061-12.626-16.4-15.472-26.527a.5.5,0,0,0-.964.266" transform="translate(0 -3.08)" fill="#334872" fill-rule="evenodd"/>
  <path id="Fill-168" d="M428.727,354.128a70.42,70.42,0,0,0,.123-31.886c-.143-.627-1.107-.362-.965.266a69.212,69.212,0,0,1-.122,31.354c-.147.626.817.893.964.266" transform="translate(0 -3.056)" fill="#334872" fill-rule="evenodd"/>
  <path id="Fill-169" d="M428.1,322.758c6.161,9.028,11.535,20.042,7.253,31.063-.233.6.733.861.964.266,4.376-11.262-1.053-22.6-7.354-31.833-.36-.529-1.227-.029-.863.5" transform="translate(0 -3.056)" fill="#334872" fill-rule="evenodd"/>
  <path id="Fill-170" d="M436.342,354.068a50.762,50.762,0,0,1,12.567-13.22c.515-.375.017-1.243-.5-.863a52.115,52.115,0,0,0-12.926,13.578c-.354.54.511,1.042.863.505" transform="translate(0 -3.13)" fill="#334872" fill-rule="evenodd"/>
  <path id="Fill-171" d="M448.187,340.4c-.634,5.361-4.177,11.014-9.3,13.077-.59.237-.332,1.205.266.964,5.589-2.25,9.343-8.187,10.035-14.041.076-.638-.925-.632-1,0" transform="translate(0 -3.131)" fill="#334872" fill-rule="evenodd"/>
  <path id="Fill-172" d="M417.971,401.943h12.162a.5.5,0,0,0,0-1H417.971a.5.5,0,0,0,0,1" transform="translate(0 -3.613)" fill="#334872" fill-rule="evenodd"/>
  <path id="Fill-173" d="M421.011,471.267h9.729a.5.5,0,0,0,0-1h-9.729a.5.5,0,0,0,0,1" transform="translate(0 -4.238)" fill="#334872" fill-rule="evenodd"/>
  <path id="Fill-174" d="M417.363,543.632h15.811a.5.5,0,0,0,0-1H417.363a.5.5,0,0,0,0,1" transform="translate(0 -5.616)" fill="#334872" fill-rule="evenodd"/>
  <path id="Fill-175" d="M370.5,598.362H564.483a.5.5,0,0,0,0-1H370.5a.5.5,0,0,0,0,1" transform="translate(0 -5.616)" fill="#334872" fill-rule="evenodd"/>
  <path id="Fill-176" d="M191.558,429.433h-20.6v-1.116A8.317,8.317,0,0,1,179.28,420h3.962a8.317,8.317,0,0,1,8.316,8.317Z" transform="translate(0 -3.837)" fill="#182646" fill-rule="evenodd"/>
  <path id="Stroke-177" d="M123.566,397.049v69.8a28.768,28.768,0,1,0,57.537,0V427.86" transform="translate(0 -4.242)" fill="rgba(0,0,0,0)" fill-rule="evenodd"/>
  <path id="Stroke-178" d="M278.732,287.869a4.323,4.323,0,1,1-4.322-4.323A4.323,4.323,0,0,1,278.732,287.869Z" transform="translate(0 -2.587)" fill="rgba(0,0,0,0)" fill-rule="evenodd"/>
  <path id="Stroke-179" d="M290.366,287.869a4.323,4.323,0,1,1-4.323-4.323A4.323,4.323,0,0,1,290.366,287.869Z" transform="translate(0 -2.587)" fill="rgba(0,0,0,0)" fill-rule="evenodd"/>
  <path id="Stroke-180" d="M278.516,287.1h3.262" transform="translate(0 -2.583)" fill="rgba(0,0,0,0)" fill-rule="evenodd"/>
  <path id="Fill-181" d="M226.343,219.49,88.859,213.94a1.007,1.007,0,0,0-1.057,1.015v55.108a1.111,1.111,0,0,0,1.057,1.1l28.154,1.136a1.115,1.115,0,0,1,1,.764l4.02,12.224a1.059,1.059,0,0,0,2,.1l4.232-11.92a1.007,1.007,0,0,1,1-.668l97.075,3.919A1.009,1.009,0,0,0,227.4,275.7V220.59a1.111,1.111,0,0,0-1.058-1.1" transform="translate(0 -2.176)" fill="#c2efff" fill-rule="evenodd"/>
  <path id="Fill-182" d="M195.33,235.531l-83-3.351a.99.99,0,0,1-.942-.981.9.9,0,0,1,.942-.9l83,3.351a.989.989,0,0,1,.943.981.9.9,0,0,1-.943.9" transform="translate(0 -2.09)" fill="#fff" fill-rule="evenodd"/>
  <path id="Fill-183" d="M195.33,247.478l-83-3.351a.99.99,0,0,1-.942-.981.9.9,0,0,1,.942-.9l83,3.351a.989.989,0,0,1,.943.981.9.9,0,0,1-.943.9" transform="translate(0 -2.198)" fill="#fff" fill-rule="evenodd"/>
  <path id="Fill-184" d="M168.134,258.328l-55.809-2.253a.99.99,0,0,1-.942-.981.9.9,0,0,1,.942-.9l55.809,2.253a.989.989,0,0,1,.943.981.9.9,0,0,1-.943.9" transform="translate(0 -2.302)" fill="#fff" fill-rule="evenodd"/>
</svg>
