<svg xmlns="http://www.w3.org/2000/svg" xmlns:xlink="http://www.w3.org/1999/xlink" width="811.494" height="761.194" viewBox="0 0 811.494 761.194">
  <defs>
    <linearGradient id="linear-gradient" x1="0.5" y1="1" x2="0.5" gradientUnits="objectBoundingBox">
      <stop offset="0" stop-color="gray" stop-opacity="0.251"/>
      <stop offset="0.54" stop-color="gray" stop-opacity="0.122"/>
      <stop offset="1" stop-color="gray" stop-opacity="0.102"/>
    </linearGradient>
  </defs>
  <g id="undraw_coding_6mjf" transform="translate(0.004)">
    <rect id="Rectangle_1" data-name="Rectangle 1" width="52" height="27" transform="translate(674.18 273.391)" fill="#3498db" opacity="0.2"/>
    <rect id="Rectangle_2" data-name="Rectangle 2" width="52" height="27" transform="translate(678.18 305.27)" fill="#3498db" opacity="0.2"/>
    <rect id="Rectangle_3" data-name="Rectangle 3" width="52" height="27" transform="translate(635.18 87)" fill="#3498db" opacity="0.2"/>
    <rect id="Rectangle_4" data-name="Rectangle 4" width="52" height="27" transform="translate(672.18 118)" fill="#3498db" opacity="0.2"/>
    <rect id="Rectangle_5" data-name="Rectangle 5" width="52" height="27" transform="translate(591.921 89)" fill="#3498db" opacity="0.2"/>
    <rect id="Rectangle_6" data-name="Rectangle 6" width="52" height="27" transform="translate(739.18 143.941)" fill="#3498db" opacity="0.2"/>
    <rect id="Rectangle_7" data-name="Rectangle 7" width="52" height="27" transform="translate(676.18 145.873)" fill="#3498db" opacity="0.2"/>
    <rect id="Rectangle_8" data-name="Rectangle 8" width="52" height="27" transform="translate(625.021 120)" fill="#3498db" opacity="0.2"/>
    <rect id="Rectangle_9" data-name="Rectangle 9" width="52" height="27" transform="translate(736.18 344.878)" fill="#3498db" opacity="0.2"/>
    <rect id="Rectangle_10" data-name="Rectangle 10" width="52" height="27" transform="translate(673.18 346.81)" fill="#3498db" opacity="0.2"/>
    <path id="Path_1" data-name="Path 1" d="M280.17,332.5s73.29,73.29,31.92,182S383,804.14,383,804.14s-1.2-.18-3.43-.57C229.05,777,154.26,604.85,238,477,269.08,429.41,294.62,373.64,280.17,332.5Z" transform="translate(-149.42 -82.306)" fill="#3498db"/>
    <path id="Path_2" data-name="Path 2" d="M280.17,332.5s41.37,89.84,0,163.12-7.09,279,102.84,308.52" transform="translate(-149.42 -82.306)" fill="none" stroke="#535461" stroke-miterlimit="10" stroke-width="2"/>
    <path id="Path_3" data-name="Path 3" d="M149.63,628.92s83.63-13.32,91.25,61.63S401.7,775.89,401.7,775.89s-1,.68-2.87,1.91c-126.49,83-247.4,52.89-229.17-57.36C176.43,679.45,175.87,638.28,149.63,628.92Z" transform="translate(-149.42 -82.306)" fill="#3498db"/>
    <path id="Path_4" data-name="Path 4" d="M149.63,628.92s83.63-13.32,91.25,61.63S401.7,775.89,401.7,775.89s-1,.68-2.87,1.91c-126.49,83-247.4,52.89-229.17-57.36C176.43,679.45,175.87,638.28,149.63,628.92Z" transform="translate(-149.42 -82.306)" fill="#f5f5f5" opacity="0.2"/>
    <path id="Path_5" data-name="Path 5" d="M149.63,628.92s64.91,14.25,59.58,73.27S305.61,832,401.7,775.89" transform="translate(-149.42 -82.306)" fill="none" stroke="#535461" stroke-miterlimit="10" stroke-width="2"/>
    <rect id="Rectangle_11" data-name="Rectangle 11" width="52" height="27" transform="translate(0.63 274.357)" fill="#3498db" opacity="0.2"/>
    <rect id="Rectangle_12" data-name="Rectangle 12" width="52" height="27" transform="translate(37.63 304.304)" fill="#3498db" opacity="0.2"/>
    <rect id="Rectangle_13" data-name="Rectangle 13" width="52" height="27" transform="translate(285.071)" fill="#3498db" opacity="0.2"/>
    <rect id="Rectangle_14" data-name="Rectangle 14" width="52" height="27" transform="translate(639.18 481.09)" fill="#3498db" opacity="0.2"/>
    <rect id="Rectangle_15" data-name="Rectangle 15" width="52" height="27" transform="translate(41.63 336.183)" fill="#3498db" opacity="0.2"/>
    <rect id="Rectangle_16" data-name="Rectangle 16" width="52" height="27" transform="translate(318.171 31)" fill="#3498db" opacity="0.2"/>
    <rect id="Rectangle_17" data-name="Rectangle 17" width="52" height="27" transform="translate(148.196 206.734)" fill="#3498db" opacity="0.2"/>
    <rect id="Rectangle_18" data-name="Rectangle 18" width="52" height="27" transform="translate(181.296 236.681)" fill="#3498db" opacity="0.2"/>
    <rect id="Rectangle_19" data-name="Rectangle 19" width="52" height="27" transform="translate(269.862 220.258)" fill="#3498db" opacity="0.2"/>
    <rect id="Rectangle_20" data-name="Rectangle 20" width="52" height="27" transform="translate(184.875 268.56)" fill="#3498db" opacity="0.2"/>
    <rect id="Rectangle_21" data-name="Rectangle 21" width="52" height="27" transform="translate(709.18 481.09)" fill="#3498db" opacity="0.2"/>
    <path id="Path_6" data-name="Path 6" d="M870.07,447.61a412.24,412.24,0,0,1-6.18-56.71h0a76,76,0,0,0-53.46-69.38c-5.46-1.68-11.47-3.25-18.11-4.66-58.2-12.36-75.88-1.57-77.89-.15A74.631,74.631,0,0,1,710,307.1c-.1-.34-.19-.68-.29-1a74.51,74.51,0,0,0,19.91-44.89c9.71-9.84,15.38-21.72,15.38-34.51,0-11-4.2-21.32-11.55-30.25V179.07a75.57,75.57,0,0,0-75.57-75.57h-6.13a75.57,75.57,0,0,0-75.57,75.57V197.8c-6.67,8.61-10.45,18.44-10.45,28.88,0,12.52,5.44,24.16,14.78,33.88a74.52,74.52,0,0,0,20.74,46.34c.41,2.84.83,5.89,1.24,9.11L498.39,338s-40.14,1.65-66,55C410.52,438.19,367,554.29,354.11,588.85h0c-2.33,6.26-3.65,9.85-3.65,9.85s.43-.43,1.24-1.17l-1.24,3.37s.63-.64,1.83-1.69c-1.82,14.46-2.08,39.29,16.86,42.38,15.88,2.59,56.8,3.66,87.71,4.09H459c20.49.27,36.08.27,36.08.27v-.27H827.52v-3.41a22.908,22.908,0,0,0-1.83-9l.46-.56a18.25,18.25,0,0,1,3.45,8,8.013,8.013,0,0,1-.16.84l.2-.51a8.562,8.562,0,0,1-.2,2.71s42.65-109.89,42.19-175.51A111.166,111.166,0,0,0,870.07,447.61ZM604.22,330.86a76.242,76.242,0,0,1-1.06-9.48v-.09C603.53,324.38,603.89,327.58,604.22,330.86ZM475,566.9v26.19l-16.4,3.51Z" transform="translate(-196.751 -56.5)" fill="url(#linear-gradient)"/>
    <path id="Path_7" data-name="Path 7" d="M503.71,57.57h0a75.57,75.57,0,0,1,75.57,75.57v32.24H428.14V133.14a75.57,75.57,0,0,1,75.57-75.57Z" transform="translate(-51.066)" fill="#e14b5a"/>
    <ellipse id="Ellipse_1" data-name="Ellipse 1" cx="86.14" cy="59.19" rx="86.14" ry="59.19" transform="translate(366.785 116.76)" fill="#e14b5a"/>
    <path id="Path_8" data-name="Path 8" d="M598.44,289.79s18,94.07,0,119.44,55,35.41,55,35.41L729,417.16l10.57-67.65s-46-25.9-36.47-78.22Z" transform="translate(-202.134 -65.533)" fill="#f7c4a7"/>
    <path id="Path_9" data-name="Path 9" d="M821.46,606.89s4.76,20.61-21.14,24.31a146.452,146.452,0,0,1-46.08-.55l-5.71-51.77h60.25Z" transform="translate(-214.163 -74.888)" fill="#f7c4a7"/>
    <path id="Path_10" data-name="Path 10" d="M364.12,580.51S352.68,627,378.58,631.2s121,4.23,121,4.23v-55l-43.06,9.2L416.1,550.87Z" transform="translate(-174.279 -74.662)" fill="#f7c4a7"/>
    <path id="Path_11" data-name="Path 11" d="M604,320.18l-101.21,21.4s-38.58,1.59-63.42,52.85-78.75,197.66-78.75,197.66,46-46.51,99.89,3.17l35.94-65-7.93,103.06H767V584.69s58.13,31.18,53.91,48.62c0,0,49.75-128.18,39-186.43a396.174,396.174,0,0,1-5.94-54.5h0a73,73,0,0,0-51.38-66.67c-5.24-1.61-11-3.12-17.4-4.47-59.72-12.68-75,0-75,0s-11.57,37.64-11.36,54.7c.26,21.93-31.18,36.47-31.18,36.47s-46.51-11.1-48.62-20.08S600.28,330.75,604,320.18Z" transform="translate(-196.612 -70.748)" opacity="0.1"/>
    <path id="Path_12" data-name="Path 12" d="M604,318.07l-101.21,21.4s-38.58,1.59-63.42,52.85S360.61,590,360.61,590s46-46.51,99.89,3.17l35.94-65L488.51,631.2H767V582.58s58.13,31.18,53.91,48.62c0,0,49.75-128.18,39-186.43a396.194,396.194,0,0,1-5.94-54.5h0a73,73,0,0,0-51.38-66.67c-5.24-1.61-11-3.12-17.4-4.47-59.72-12.68-75,0-75,0s-11.57,37.64-11.36,54.7c.26,21.93-31.18,36.47-31.18,36.47s-46.51-11.1-48.62-20.08S600.28,328.64,604,318.07Z" transform="translate(-196.611 -70.632)" fill="#575988"/>
    <path id="Path_13" data-name="Path 13" d="M707.42,313.58a71.53,71.53,0,0,1-2.76-37.52L600,294.55s1.51,7.91,3.22,19.76a71.86,71.86,0,0,0,104.18-.73Z" transform="translate(-200.202 -64.296)" opacity="0.1"/>
    <path id="Path_14" data-name="Path 14" d="M725.27,259.67a71.875,71.875,0,1,1-143.74,1.74c.01-.58.01-1.16.01-1.74a71.856,71.856,0,0,1,83.93-70.87h0a71.82,71.82,0,0,1,59.61,66.1Q725.27,257.27,725.27,259.67Z" transform="translate(-200.456 -61.775)" fill="#f7c4a7"/>
    <g id="Group_1" data-name="Group 1" transform="translate(381.088 129.092)" opacity="0.1">
      <path id="Path_15" data-name="Path 15" d="M628.36,193.93l.1-.06a71.816,71.816,0,0,0-46.93,67.43q0,.87,0,1.74a16,16,0,0,0,6.45-1.55c17.52-8.18,28-33.2,32.16-50.65C621.64,204.59,623.05,197.55,628.36,193.93Z" transform="translate(-581.53 -190.43)"/>
      <path id="Path_16" data-name="Path 16" d="M683.37,195.94a71.279,71.279,0,0,0-17.87-5.51,23.06,23.06,0,0,1,12.83,8.06,32.858,32.858,0,0,1,3.93,7,72.07,72.07,0,0,0-60.45,1.25c4.51,9.89,18.5,15.28,27.84,18.89q15.34,5.92,31,10.83l-9.24-7.5,20.87,3.32a36.153,36.153,0,0,0-1.46-12.3c4,3.22,9.3,4.3,13.64,7,8.13,5.13,11.52,15,15.95,23.55,1.17,2.26,2.55,4.57,4.66,6a71.91,71.91,0,0,0-41.7-60.59Z" transform="translate(-581.53 -190.43)"/>
    </g>
    <path id="Path_17" data-name="Path 17" d="M628.36,192.3l.1-.06a71.816,71.816,0,0,0-46.93,67.43q0,.87,0,1.74a16,16,0,0,0,6.45-1.55c17.52-8.18,28-33.2,32.16-50.65C621.64,203,623.05,195.93,628.36,192.3Z" transform="translate(-194.669 -61.38)" fill="#632652"/>
    <path id="Path_18" data-name="Path 18" d="M683.37,194.32a71.279,71.279,0,0,0-17.87-5.51,23.06,23.06,0,0,1,12.83,8.06,32.859,32.859,0,0,1,3.93,7,72.07,72.07,0,0,0-60.45,1.25c4.51,9.89,18.5,15.28,27.84,18.89q15.34,5.92,31,10.83l-9.24-7.5,20.87,3.32a36.153,36.153,0,0,0-1.46-12.3c4,3.22,9.3,4.3,13.64,7,8.13,5.13,11.52,15,15.95,23.55,1.17,2.26,2.55,4.57,4.66,6a71.91,71.91,0,0,0-41.7-60.59Z" transform="translate(-202.383 -61.236)" fill="#632652"/>
    <path id="Path_19" data-name="Path 19" d="M573.33,247.82s74-92,159.61,0l-7.4-20.61s-40.17-58.66-68.7-46-56.55,21.67-56.55,21.67Z" transform="translate(-200.559 -60.914)" opacity="0.1"/>
    <path id="Path_20" data-name="Path 20" d="M573.33,246.19s74-92,159.61,0l-7.4-20.61s-40.17-58.66-68.7-46-56.55,21.67-56.55,21.67Z" transform="translate(-200.559 -60.856)" fill="#e14b5a"/>
    <path id="Path_21" data-name="Path 21" d="M512.55,444.38s-15.85,42.28,6.34,80.33-19.55,53.91-19.55,53.91" transform="translate(-185.184 -71.834)" opacity="0.1"/>
    <path id="Path_22" data-name="Path 22" d="M769.4,406.33s27.48,34.88,9.51,66.06S762,578.62,762,578.62" transform="translate(-211.827 -71.186)" opacity="0.1"/>
    <path id="Path_23" data-name="Path 23" d="M338.82,553.3H644.29a25.37,25.37,0,0,1,25.37,25.37H313.46A25.37,25.37,0,0,1,338.82,553.3Z" transform="translate(-51.458 -18.747)" fill="#535461"/>
    <path id="Path_24" data-name="Path 24" d="M369.9,378.89H613.22a39,39,0,0,1,39,39V559.11H330.9V417.89A39,39,0,0,1,369.9,378.89Z" transform="translate(-51.052 -16.114)" fill="#535461"/>
    <circle id="Ellipse_2" data-name="Ellipse 2" cx="19.03" cy="19.03" r="19.03" transform="translate(423.313 442.122)" fill="#fff"/>
    <path id="Path_25" data-name="Path 25" d="M577.56,204.7s72.72-72.68,151.15-1.33" transform="translate(-200.487 -56.5)" fill="none" stroke="#000" stroke-miterlimit="10" stroke-width="1" opacity="0.1"/>
    <rect id="Rectangle_22" data-name="Rectangle 22" width="7.3" height="41.39" transform="translate(531.274 138.601)" fill="#6a5c99"/>
    <path id="Path_26" data-name="Path 26" d="M580.62,170.35h0a25.16,25.16,0,0,1,25.16,25.16v1.62a25.16,25.16,0,0,1-25.16,25.16h0Z" transform="translate(-59.296 -5.981)" fill="#ffd037"/>
    <rect id="Rectangle_23" data-name="Rectangle 23" width="11.36" height="56.81" rx="5.68" transform="translate(517.864 161.985)" fill="#6a5c99"/>
    <rect id="Rectangle_24" data-name="Rectangle 24" width="7.3" height="41.39" transform="translate(375.39 180.773) rotate(180)" fill="#6a5c99"/>
    <path id="Path_27" data-name="Path 27" d="M0,0H0A25.16,25.16,0,0,1,25.16,25.16v1.62A25.16,25.16,0,0,1,0,51.94H0Z" transform="translate(385.125 217.091) rotate(180)" fill="#ffd037"/>
    <rect id="Rectangle_25" data-name="Rectangle 25" width="11.36" height="56.81" rx="5.68" transform="translate(388.752 219.567) rotate(180)" fill="#6a5c99"/>
    <path id="Path_28" data-name="Path 28" d="M738.92,155.83c-9.89-20.56-31.43-45.42-77.86-47.41v-.06h-.56l-16.45.78v.08c-46.12,2.12-67.56,26.89-77.42,47.38A106.59,106.59,0,0,0,556.41,201l5.68-.14,5.68-.13A96.651,96.651,0,0,1,577,161.21c12.52-25.72,35.56-39.39,68.47-40.66h0l14.55-.81h0C692.95,121,716,134.69,728.51,160.4a96.652,96.652,0,0,1,9.25,39.54l5.68.13,5.68.14a106.59,106.59,0,0,0-10.2-44.38Z" transform="translate(-200.812 -56.5)" fill="#ffd037"/>
    <rect id="Rectangle_26" data-name="Rectangle 26" width="685.26" height="208" transform="translate(74.28 553.194)" fill="#d6d6e3"/>
    <rect id="Rectangle_27" data-name="Rectangle 27" width="685.26" height="27" transform="translate(74.28 572.864)" opacity="0.1"/>
    <rect id="Rectangle_28" data-name="Rectangle 28" width="789.18" height="27" transform="translate(22.31 556.442)" fill="#d6d6e3"/>
  </g>
</svg>
