<svg xmlns="http://www.w3.org/2000/svg" width="32.308" height="36" viewBox="0 0 32.308 36">
  <path id="Icon_simple-heroku" data-name="Icon simple-heroku" d="M30.915,0H5.085a3.226,3.226,0,0,0-3.24,3.24V32.762A3.226,3.226,0,0,0,5.085,36h25.83a3.226,3.226,0,0,0,3.238-3.238V3.24A3.223,3.223,0,0,0,30.915,0Zm1.44,32.762a1.423,1.423,0,0,1-1.44,1.44H5.085a1.422,1.422,0,0,1-1.44-1.44V3.24A1.423,1.423,0,0,1,5.085,1.8h25.83a1.424,1.424,0,0,1,1.44,1.441ZM9.945,30.6l4.05-3.6-4.05-3.6ZM24.525,16.02a5.879,5.879,0,0,0-4.319-1.62,21.486,21.486,0,0,0-6.75,1.26V5.4h-3.6V20.97l2.52-1.17a22.291,22.291,0,0,1,7.74-1.89c1.8,0,2.25.99,2.25,1.89V30.6h3.6V19.8a4.832,4.832,0,0,0-1.441-3.78Zm-4.77-4.77h3.6a10.861,10.861,0,0,0,2.7-5.85h-3.6a13.315,13.315,0,0,1-2.7,5.85Z" transform="translate(-1.845)" fill="#9f0bdd"/>
</svg>
